<svg xmlns="http://www.w3.org/2000/svg" xmlns:xlink="http://www.w3.org/1999/xlink" xmlns:lucid="lucid" width="1055" height="592"><g transform="translate(-489 -384)" lucid:page-tab-id="0_0"><path d="M636.07 782c0 11.05-8.95 20-20 20-11.04 0-20-8.95-20-20s8.96-20 20-20c11.05 0 20 8.95 20 20zM1128 500c0 11.05-8.95 20-20 20s-20-8.95-20-20 8.95-20 20-20 20 8.95 20 20z" stroke="#000" fill="#f4d9ff"/><path d="M854.96 380h240v60h-240z" fill="none"/><use xlink:href="#a" transform="matrix(1,0,0,1,854.959806231998,380) translate(79.38271604938271 34.44444444444444)"/><path d="M636.07 500c0 11.05-8.95 20-20 20-11.04 0-20-8.95-20-20s8.96-20 20-20c11.05 0 20 8.95 20 20zM884 501.66c0 11.04-8.95 20-20 20s-20-8.96-20-20c0-11.05 8.95-20 20-20s20 8.95 20 20zM884 642.66c0 11.04-8.95 20-20 20s-20-8.96-20-20c0-11.05 8.95-20 20-20s20 8.95 20 20z" stroke="#000" fill="#f4d9ff"/><path d="M603.5 771.17h25.15v21.66H603.5z" fill-opacity="0"/><path d="M609.97 774.26l-2.33 8.53c-.08.26-.1.54-.1.83 0 1 .52 1.73 1.56 1.73 2.83 0 4.66-2.96 5.5-5.3.2-.64.4-1.3.4-1.95 0-1.93-1.6-1.7-1.6-2.85 0-.9.65-1.1 1.4-1.1 1.1 0 1.24 1.34 1.24 2.18 0 2.6-1.02 5.23-2.54 7.33-1.12 1.57-3.14 2.72-5.08 2.72-1.67 0-3.04-.52-3.04-2.43 0-.55.08-1.1.24-1.63l1.52-5.5c.05-.2.13-.44.13-.65 0-.52-1.15-.52-1.5-.52v-.4c1.37-.34 2.78-.52 4.1-1.1M625.57 783.98c0 3.18-1.17 6.37-4.2 6.37-3.15 0-4.17-3.44-4.17-6.48 0-3.28 1.28-6.3 4.26-6.3 2.42 0 4.1 2.62 4.1 6.4m-1.77.1c0-3.85-.83-6-2.45-6-1.54 0-2.37 2.17-2.37 5.93s.8 5.87 2.4 5.87c1.58 0 2.4-2.13 2.4-5.8"/><path d="M825.66 453.37h76.68V480h-76.68z" fill="#fff" fill-opacity="0"/><path d="M832.94 455.82l-3.87 15.48s-.03.1-.03.3c0 .17.1.33.32.33.6 0 1.38-1.02 1.62-1.44l.42.3c-.9 1.05-2.02 2.78-3.54 2.78-.78 0-1.02-.68-1.02-1.34 0-.3.08-.68.16-.94l3.35-13.36c.08-.34.08-.55.08-.62 0-.32-.2-.58-.8-.58-.2 0-.5.05-.72.08l-.07-.4M846.22 470.8l-.13.16c-.74.9-2 2.56-3.36 2.56-.84 0-1.08-.6-1.08-1.2 0-.34.1-.76.2-1.05l1.48-5.78c.05-.22.18-.75.18-1.1 0-.5-.15-1-.63-1-1 0-2.65 2.24-3.46 3.47-.95 1.42-1.63 2.65-1.78 3.2l-.87 3.25h-2.02l2.48-9.8c0-.47-.07-.84-.78-.84-.26 0-.55.06-.73.08l-.06-.4 4.16-.6-1.34 4.96h.08c.13 0 1.4-1.84 1.47-1.92 1.04-1.3 2.6-3.03 4.2-3.03 1.14 0 1.45.76 1.45 1.62 0 .65-.16 1.3-.3 1.82l-1.53 6.05c-.04.05-.04.13-.04.26.03.16.1.37.4.37.62 0 1.25-.94 1.62-1.4M855 477.53l-.32.42c-4.14-2.36-6.4-6.78-6.4-11.23 0-4.85 2.3-8.62 6.48-11.1l.23.4c-3.65 3.13-4.46 5.56-4.46 10.62 0 4.87.8 7.83 4.45 10.9M862.22 461.43l-2.33 8.53c-.1.27-.12.55-.12.84 0 1 .53 1.73 1.57 1.73 2.83 0 4.66-2.96 5.5-5.32.2-.6.4-1.27.4-1.92 0-1.94-1.6-1.7-1.6-2.86 0-.9.65-1.1 1.4-1.1 1.1 0 1.24 1.34 1.24 2.18 0 2.6-1.03 5.23-2.55 7.33-1.12 1.57-3.14 2.72-5.08 2.72-1.67 0-3.03-.52-3.03-2.43 0-.55.07-1.1.23-1.63l1.52-5.5c.04-.22.12-.45.12-.66 0-.53-1.15-.53-1.5-.53v-.38c1.37-.34 2.78-.52 4.1-1.1M880.5 473.17h-10.32v-1.22h10.32v1.22M888.98 477.24h-5.1v-.27c1.36-.08 1.74-.47 1.74-1.5v-8.3c0-.63-.16-.9-.55-.9-.2 0-.5.1-.83.22l-.5.17v-.26l3.3-1.67.18.05v11.06c0 .8.37 1.13 1.76 1.13v.27M894.35 456.03l.3-.42c4.02 2.42 6.4 6.8 6.4 11.25 0 4.84-2.3 8.56-6.47 11.1l-.23-.42c3.72-3.06 4.45-5.52 4.45-10.6 0-4.9-.66-7.9-4.45-10.9"/><path d="M1095.43 489.17h25.14v21.66h-25.14z" fill="#fff" fill-opacity="0"/><path d="M1101.9 492.26l-2.34 8.53c-.08.26-.1.54-.1.83 0 1 .52 1.73 1.57 1.73 2.83 0 4.66-2.96 5.5-5.3.2-.64.4-1.3.4-1.95 0-1.93-1.6-1.7-1.6-2.85 0-.9.65-1.1 1.4-1.1 1.1 0 1.24 1.34 1.24 2.18 0 2.6-1.02 5.23-2.54 7.33-1.13 1.57-3.14 2.72-5.08 2.72-1.68 0-3.04-.52-3.04-2.43 0-.55.1-1.1.25-1.63l1.52-5.5c.05-.2.13-.44.13-.65 0-.52-1.16-.52-1.5-.52v-.4c1.37-.34 2.78-.52 4.1-1.1M1117.44 505h-1.9v3.1h-1.45V505h-5.2v-1.2l5.82-8.23h.8v8.24h1.92v1.2m-3.35-1.2v-6.34l-4.46 6.35h4.45"/><path d="M1215.25 491.15h177.7v55.38h-177.7z" fill="#fff3d9"/><path d="M1223.25 512.6l-2.78 10.14c-.1.32-.12.66-.12 1 0 1.2.62 2.06 1.87 2.06 3.36 0 5.54-3.52 6.54-6.33.25-.75.47-1.52.47-2.3 0-2.3-1.9-2.03-1.9-3.4 0-1.06.78-1.3 1.68-1.3 1.32 0 1.48 1.58 1.48 2.58 0 3.08-1.22 6.23-3.03 8.72-1.34 1.87-3.74 3.24-6.04 3.24-2 0-3.6-.6-3.6-2.88 0-.66.1-1.3.27-1.94l1.8-6.54c.07-.25.17-.53.17-.78 0-.62-1.38-.62-1.78-.62v-.47c1.62-.4 3.3-.62 4.86-1.3M1241.74 527.75h-2.26v3.68h-1.72v-3.68h-6.17v-1.4l6.9-9.82h.98v9.8h2.26v1.42m-3.98-1.4v-7.57l-5.3 7.56h5.3M1244.93 504.73h.82c-.6 3.3-3 4.74-7.08 4.74-4.02 0-4.6-.5-10.94-1.87-2.93-.62-5.05-.97-6.26-.97-2.93 0-4.83.97-5.42 2.84h-.8c.6-3.5 3.07-4.74 6.7-4.74 1.92 0 5.66.66 11.08 1.9 2.93.7 5.1 1 6.42 1 3.1 0 5.02-1 5.48-2.9M1274.26 516.76h-18.36v-2.06h18.36v2.06m0 6.23h-18.36v-2.06h18.36V523M1288.13 519.88h35.37V518h-35.37zM1294.3 496.07l-.23-.44c.62-.37 1.4-.5 2.16-.5 2.78 0 4.14 1.98 4.14 5.72 0 3.26-1.34 9.24-6.5 9.24-2.15 0-3-1.7-3-3.58 0-3.1 2.45-6.26 5.67-6.26.7 0 1.65.24 2.12 1.06.08-.5.15-1.02.15-1.55 0-1.93-.63-3.98-2.88-3.98-.6 0-1.08.1-1.63.27m3.78 6.74c0-1.42-.75-1.88-1.34-1.88-2.18 0-4.08 3.28-4.08 6.34 0 .84.1 2.16 1.48 2.16 1.7 0 3-2.2 3.6-4.45.2-.72.34-1.47.34-2.16M1305.82 499.84l-1.96 7.18c-.07.22-.1.47-.1.7 0 .84.45 1.46 1.33 1.46 2.37 0 3.9-2.5 4.62-4.47.17-.52.33-1.07.33-1.62 0-1.63-1.35-1.43-1.35-2.4 0-.75.55-.93 1.2-.93.92 0 1.03 1.13 1.03 1.83 0 2.18-.86 4.4-2.14 6.17-.96 1.32-2.65 2.3-4.28 2.3-1.4 0-2.56-.45-2.56-2.06 0-.47.07-.93.2-1.37l1.28-4.63c.04-.18.1-.38.1-.55 0-.44-.96-.44-1.25-.44v-.32c1.14-.3 2.33-.44 3.43-.93M1318.46 502.4l-.56 1.34c-.05.1-.18.2-.43.2h-3.07l-.63 1.35c2.26.42 3.05.77 3.95 2 .4.58.56 1.18.56 2.02 0 1.52-.48 2.5-1.55 3.3-.75.52-1.6.76-2.7.76-1.17 0-2-.38-2-.98 0-.4.27-.6.72-.6.36 0 .66.08 1.16.5.46.36.82.5 1.14.5 1.1 0 2.13-1.3 2.13-2.67 0-1-.35-1.8-1.06-2.37-.73-.6-1.84-1.1-3.35-1.1-.15 0-.2-.04-.2-.14l.02-.07 1.72-3.75h3.26c.37 0 .5-.08.76-.4M1294.3 525.5l-.23-.45c.62-.37 1.4-.5 2.16-.5 2.78 0 4.14 1.98 4.14 5.72 0 3.26-1.34 9.23-6.5 9.23-2.15 0-3-1.7-3-3.57 0-3.1 2.45-6.25 5.67-6.25.7 0 1.65.24 2.12 1.05.08-.48.15-1 .15-1.54 0-1.95-.63-4-2.88-4-.6 0-1.08.1-1.63.3m3.78 6.73c0-1.43-.75-1.9-1.34-1.9-2.18 0-4.08 3.3-4.08 6.35 0 .84.1 2.16 1.48 2.16 1.7 0 3-2.2 3.6-4.45.2-.74.34-1.48.34-2.17M1305.82 529.26l-1.96 7.18c-.07.22-.1.46-.1.7 0 .84.45 1.46 1.33 1.46 2.37 0 3.9-2.5 4.62-4.47.17-.53.33-1.08.33-1.63 0-1.63-1.35-1.44-1.35-2.4 0-.75.55-.93 1.2-.93.92 0 1.03 1.12 1.03 1.83 0 2.18-.86 4.4-2.14 6.17-.96 1.32-2.65 2.3-4.28 2.3-1.4 0-2.56-.45-2.56-2.06 0-.45.07-.92.2-1.36l1.28-4.62c.04-.18.1-.38.1-.55 0-.44-.96-.44-1.25-.44v-.33c1.14-.3 2.33-.45 3.43-.93M1319.02 539.94h-1.63v2.64h-1.24v-2.64h-4.43v-1l4.97-7.04h.7v7.03h1.62v1m-2.86-1v-5.42l-3.8 5.43h3.8M1340.54 518.85c0 1-.84 1.87-1.84 1.87-1.02 0-1.9-.94-1.9-1.87 0-.94.88-1.87 1.9-1.87 1 0 1.84.87 1.84 1.87M1353.82 519.88h35.37V518h-35.38zM1363.82 495.48l-.22-.44c.6-.37 1.4-.5 2.16-.5 2.77 0 4.14 1.98 4.14 5.72 0 3.26-1.35 9.23-6.5 9.23-2.16 0-3-1.7-3-3.58 0-3.1 2.45-6.25 5.67-6.25.7 0 1.65.24 2.1 1.05.1-.48.16-1 .16-1.54 0-1.94-.63-4-2.88-4-.6 0-1.08.12-1.63.3m3.8 6.74c0-1.43-.76-1.9-1.36-1.9-2.18 0-4.07 3.3-4.07 6.35 0 .84.08 2.16 1.46 2.16 1.7 0 3-2.2 3.62-4.45.2-.73.33-1.47.33-2.16M1375.36 499.62h.82c1.4 0 1.28-1.7 2.22-3.1.7-1.04 1.63-2 3.3-2 1.1 0 1.75.54 1.75 1.3 0 .63-.46.9-.9.9-.62 0-.78-.25-.78-.56 0-.3.2-.64.2-.8 0-.12-.06-.2-.33-.2-1.1 0-1.96 1.2-2.42 2.92l-.42 1.54h1.76l-.26.84h-1.68l-1.74 6.74c-.15.6-.33 1.43-.66 2.25-.72 1.83-1.9 3.92-3.85 3.92-1.06 0-1.6-.53-1.6-1.2 0-.52.32-1.07.96-1.07.6 0 .8.4.8.73 0 .42-.34.44-.34.7 0 .14.12.2.32.2 1.43 0 2.1-3.48 2.42-4.74l1.92-7.54h-1.7M1359.98 525.5l-.22-.45c.62-.37 1.4-.5 2.16-.5 2.78 0 4.15 1.98 4.15 5.72 0 3.26-1.35 9.23-6.5 9.23-2.16 0-3-1.7-3-3.57 0-3.1 2.45-6.25 5.66-6.25.7 0 1.65.24 2.12 1.05.1-.48.15-1 .15-1.54 0-1.95-.64-4-2.88-4-.6 0-1.08.1-1.64.3m3.8 6.73c0-1.43-.75-1.9-1.35-1.9-2.18 0-4.08 3.3-4.08 6.35 0 .84.1 2.16 1.48 2.16 1.7 0 3-2.2 3.6-4.45.2-.74.34-1.48.34-2.17M1371.5 529.26l-1.95 7.18c-.07.22-.1.46-.1.7 0 .84.45 1.46 1.33 1.46 2.38 0 3.92-2.5 4.63-4.47.18-.53.34-1.08.34-1.63 0-1.63-1.35-1.44-1.35-2.4 0-.75.54-.93 1.18-.93.93 0 1.04 1.12 1.04 1.83 0 2.18-.86 4.4-2.14 6.17-.95 1.32-2.64 2.3-4.27 2.3-1.4 0-2.55-.45-2.55-2.06 0-.45.07-.92.2-1.36l1.28-4.62c.04-.18.1-.38.1-.55 0-.44-.96-.44-1.25-.44v-.33c1.15-.3 2.34-.45 3.44-.93M1384.16 531.82l-.57 1.34c-.06.1-.2.2-.44.2h-3.06l-.64 1.35c2.26.44 3.05.78 3.95 2.03.42.57.57 1.17.57 2 0 1.53-.48 2.5-1.55 3.3-.74.53-1.6.77-2.7.77-1.17 0-2-.38-2-.98 0-.4.27-.6.72-.6.36 0 .66.08 1.17.5.45.35.8.5 1.13.5 1.1 0 2.13-1.32 2.13-2.67 0-1.02-.35-1.8-1.06-2.37-.74-.6-1.85-1.1-3.36-1.1-.15 0-.2-.04-.2-.14l.02-.08 1.73-3.74h3.26c.36 0 .5-.08.75-.4"/><path d="M516.38 903.17h5m5 0h9.97m5 0h9.97m5 0h9.97m4.98 0h9.98m5 0h9.97m5 0h9.98m5 0h9.98m5 0h9.97m5 0h9.97m5 0h9.97m4.98 0h10m4.98 0h9.98m5 0H716m5 0h9.98m5 0h9.97m5 0h9.97m5 0h9.98m5 0h9.97m5 0h9.97m5 0h9.97m5 0h9.98m5 0h9.98m5 0h9.97m5 0h9.97m5 0h9.97m5 0h9.97m5 0h9.98m5 0h9.97m4.98 0h9.98m5 0h9.97m5 0h9.97m5 0h9.97m5 0h9.98m5 0h9.97m5 0h9.97m4.98 0h9.98m5 0h9.97m5 0h9.98m5 0h9.98m5 0h9.97m5 0h9.97m5 0h9.97m4.98 0h10m4.98 0h9.98m5 0h9.97m5 0h9.98m5 0h9.97m5 0h9.97m5 0h9.98m5 0h9.97m5 0h9.97m5 0h9.97m5 0h9.98m5 0h9.98m5 0h9.97m5 0h9.97m5 0h9.97m5 0h9.97m5 0h9.98m5 0h9.97m4.98 0h9.98m5 0h9.97m5 0h9.97m5 0h9.97m5 0h9.98m5 0h9.97m5 0h4.98" stroke="#5e5e5e" fill="none"/><path d="M501.62 903.17l14.26-4.63v9.27z" stroke="#5e5e5e" fill="#5e5e5e"/><path d="M1519.5 903.17h.5M500.5 420h1003.12M500.5 420h-.5" stroke="#5e5e5e" fill="none"/><path d="M1518.38 420l-14.26 4.64v-9.28z" stroke="#5e5e5e" fill="#5e5e5e"/><path d="M900 866c0-3.3 2.7-6 6-6h137.92c3.3 0 6 2.7 6 6v28c0 3.3-2.7 6-6 6H906c-3.3 0-6-2.7-6-6z" stroke="#000" stroke-opacity="0" fill="#fff3d9"/><use xlink:href="#b" transform="matrix(1,0,0,1,912.0000000000001,872) translate(8.740740740740726 17.77777777777778)"/><path d="M900.35 497.72h5.2m5.18 0h10.4m5.18 0h10.4m5.2 0h10.37m5.2 0h10.38m5.2 0h10.38m5.2 0H999m5.2 0h10.38m5.2 0h10.38m5.2 0h10.38m5.2 0h10.38m5.2 0h10.38m5.2 0h5.18" stroke="#5e5e5e" fill="none"/><path d="M885.58 497.72l14.27-4.64v9.28z" stroke="#5e5e5e" fill="#5e5e5e"/><path d="M1087.72 498.22h-.45v-1h.57z" stroke="#5e5e5e" stroke-width=".05" fill="#5e5e5e"/><path d="M884.37 506.75h187.92" stroke="#5e5e5e" fill="none"/><path d="M884.38 507.25h-.7l.2-.5.05-.5h.45z" stroke="#5e5e5e" stroke-width=".05" fill="#5e5e5e"/><path d="M1087.05 506.75l-14.26 4.63v-9.27z" stroke="#5e5e5e" fill="#5e5e5e"/><path d="M652.52 496.57h4.9m4.9 0h9.8m4.9 0h9.8m4.9 0h9.8m4.9 0h9.8m4.9 0h9.8m4.9 0h9.8m4.9 0h9.8m4.9 0h9.8m4.9 0h9.8m4.9 0h9.8m4.9 0h9.8m4.9 0h9.8m4.9 0h4.9" stroke="#5e5e5e" fill="none"/><path d="M637.76 496.57l14.26-4.64v9.27z" stroke="#5e5e5e" fill="#5e5e5e"/><path d="M844.13 496.57l-.06.5h-.45v-1h.7z" stroke="#5e5e5e" stroke-width=".05" fill="#5e5e5e"/><path d="M635.93 506.38H827.8" stroke="#5e5e5e" fill="none"/><path d="M635.94 506.88h-.7l.4-1h.3z" stroke="#5e5e5e" stroke-width=".05" fill="#5e5e5e"/><path d="M842.57 506.38l-14.26 4.64v-9.27z" stroke="#5e5e5e" fill="#5e5e5e"/><path d="M1128 782c0 11.05-8.95 20-20 20s-20-8.95-20-20 8.95-20 20-20 20 8.95 20 20z" stroke="#000" fill="#f4d9ff"/><path d="M634.28 510.4l199.7 111.27" stroke="#5e5e5e" fill="none"/><path d="M634.53 509.96l-.48.87-.5-.28.53-.73.03-.1z" stroke="#5e5e5e" stroke-width=".05" fill="#5e5e5e"/><path d="M846.9 628.85l-14.73-2.9 4.52-8.1z" stroke="#5e5e5e" fill="#5e5e5e"/><path d="M643.34 523.72l4.45 2.53m4.44 2.53l8.9 5.05m4.46 2.53l8.9 5.06m4.46 2.52l8.9 5.06m4.45 2.53l8.92 5.05m4.45 2.53l8.9 5.06m4.45 2.53l8.9 5.05m4.46 2.52l8.9 5.06m4.46 2.53l8.9 5.05m4.45 2.54l8.9 5.06m4.45 2.52l8.9 5.06m4.45 2.53l8.9 5.06m4.46 2.53l8.9 5.04m4.46 2.53l8.9 5.06m4.45 2.52l8.9 5.06m4.46 2.54l4.45 2.53" stroke="#5e5e5e" fill="none"/><path d="M630.5 516.43l14.7 3-4.58 8.08z" stroke="#5e5e5e" fill="#5e5e5e"/><path d="M844.27 637.22l-.14.35-.08.68-.63-.36.5-.88z" stroke="#5e5e5e" stroke-width=".05" fill="#5e5e5e"/><path d="M882.86 633.77l196.73-110.92" stroke="#5e5e5e" fill="none"/><path d="M883.1 634.2l-.46.26-.43-.9.42-.24z" stroke="#5e5e5e" stroke-width=".05" fill="#5e5e5e"/><path d="M1092.45 515.6l-10.15 11.05-4.55-8.08z" stroke="#5e5e5e" fill="#5e5e5e"/><path d="M1101.87 519.88l-4.23 2.4m-4.23 2.38l-8.45 4.78m-4.23 2.4l-8.47 4.77m-4.23 2.4l-8.46 4.78m-4.23 2.4l-8.46 4.77m-4.24 2.4l-8.46 4.77m-4.23 2.4l-8.46 4.77m-4.23 2.38l-8.47 4.78m-4.23 2.4l-8.46 4.77m-4.24 2.4l-8.47 4.77m-4.24 2.4l-8.46 4.77m-4.23 2.4l-8.46 4.77m-4.23 2.4l-8.46 4.77m-4.22 2.4l-8.46 4.78m-4.23 2.4l-8.48 4.77m-4.23 2.4l-8.47 4.77m-4.23 2.4l-4.23 2.38" stroke="#5e5e5e" fill="none"/><path d="M1102.9 519.87l-.8.45-.48-.87.1-.06z" stroke="#5e5e5e" stroke-width=".05" fill="#5e5e5e"/><path d="M885.9 641.86l10.15-11.05 4.56 8.08z" stroke="#5e5e5e" fill="#5e5e5e"/><path d="M1372 642.66c0 11.04-8.95 20-20 20s-20-8.96-20-20c0-11.05 8.95-20 20-20s20 8.95 20 20z" stroke="#000" fill="#ffdda6"/><path d="M1141.57 503.86l4.33 2.77m4.33 2.77l8.67 5.54m4.33 2.76l8.67 5.54m4.33 2.77l8.67 5.55m4.33 2.77l8.67 5.53m4.33 2.77l8.66 5.54m4.33 2.77l8.66 5.53m4.33 2.77l8.66 5.54m4.32 2.77l8.67 5.54m4.32 2.77l8.67 5.53m4.32 2.77l8.67 5.54m4.32 2.76l8.67 5.53m4.32 2.76l8.67 5.54m4.32 2.77l8.66 5.54m4.34 2.77l8.66 5.54m4.34 2.78l4.33 2.77" stroke="#5e5e5e" fill="none"/><path d="M1129.12 495.9l14.52 3.8-5 7.8z" stroke="#5e5e5e" fill="#5e5e5e"/><path d="M1337.36 628.38l-.37.3-.32.44-.4-.26.53-.84z" stroke="#5e5e5e" stroke-width=".05" fill="#5e5e5e"/><path d="M1319.24 626.45l-190.8-122.24" stroke="#5e5e5e" fill="none"/><path d="M1331.67 634.4l-14.5-3.78 5-7.8z" stroke="#5e5e5e" fill="#5e5e5e"/><path d="M1128.7 503.8l-.53.83-.23-.14.14-1.1z" stroke="#5e5e5e" stroke-width=".05" fill="#5e5e5e"/><path d="M630.84 767.2l202.34-104.75" stroke="#5e5e5e" fill="none"/><path d="M631.08 767.62l-.35.2-.66-.8.55-.28z" stroke="#5e5e5e" stroke-width=".05" fill="#5e5e5e"/><path d="M846.3 655.66l-10.54 10.68-4.26-8.24z" stroke="#5e5e5e" fill="#5e5e5e"/><path d="M854.02 661l-4.52 2.4m-4.53 2.4l-9.06 4.8m-4.52 2.42l-9.05 4.8m-4.53 2.4l-9.06 4.8m-4.53 2.4l-9.04 4.8m-4.53 2.4l-9.06 4.8m-4.53 2.4l-9.05 4.8m-4.54 2.4l-9.06 4.82m-4.53 2.4l-9.05 4.8m-4.53 2.4l-9.07 4.8m-4.53 2.4l-9.05 4.8m-4.53 2.4l-9.06 4.8m-4.53 2.4l-9.05 4.82m-4.53 2.4l-9.06 4.8m-4.54 2.4l-9.05 4.8m-4.52 2.4l-4.53 2.4" stroke="#5e5e5e" fill="none"/><path d="M854.18 660.66l.9.36-.83.44-.47-.9.16-.07z" stroke="#5e5e5e" stroke-width=".05" fill="#5e5e5e"/><path d="M637.2 776l10.44-10.8 4.34 8.2z" stroke="#5e5e5e" fill="#5e5e5e"/><path d="M637.07 782h434.05" stroke="#5e5e5e" fill="none"/><path d="M637.1 782.5h-.6l.07-.48v-.52h.52z" stroke="#5e5e5e" stroke-width=".05" fill="#5e5e5e"/><path d="M1085.88 782l-14.26 4.64v-9.28z" stroke="#5e5e5e" fill="#5e5e5e"/><path d="M1089.04 790.57H1084m-5.03 0h-10.07m-5.04 0h-10.07m-5.04 0h-10.07m-5.05 0h-10.07m-5.04 0h-10.07m-5.03 0h-10.07m-5.04 0h-10.07m-5.04 0h-10.07m-5.03 0h-10.07m-5.04 0h-10.06m-5.03 0h-10.07m-5.03 0h-10.07m-5.04 0H887.6m-5.03 0H872.5m-5.04 0H857.4m-5.03 0H842.3m-5.03 0H827.2m-5.04 0H812.1m-5.05 0h-10.07m-5.03 0h-10.07m-5.04 0h-10.07m-5.03 0h-10.08m-5.03 0h-10.07m-5.04 0h-10.07m-5.03 0h-10.07m-5.04 0h-10.06m-5.04 0h-10.07m-5.03 0h-10.07m-5.04 0h-5.04" stroke="#5e5e5e" fill="none"/><path d="M1089.78 791.07h-.75v-1h.27z" stroke="#5e5e5e" stroke-width=".05" fill="#5e5e5e"/><path d="M636.2 790.57l14.26-4.64v9.27z" stroke="#5e5e5e" fill="#5e5e5e"/><path d="M1345.9 662.55l-4.3 2.53m-4.28 2.53l-8.58 5.06m-4.3 2.53l-8.58 5.04m-4.3 2.53l-8.58 5.05m-4.3 2.53l-8.57 5.05m-4.28 2.53l-8.6 5.05m-4.28 2.53l-8.6 5.06m-4.28 2.53l-8.58 5.04m-4.3 2.53l-8.58 5.05m-4.3 2.53l-8.58 5.05m-4.3 2.53l-8.57 5.06m-4.3 2.5l-8.58 5.07m-4.3 2.52l-8.58 5.05m-4.3 2.52l-8.58 5.06m-4.3 2.52l-8.58 5.06m-4.3 2.53l-8.57 5.06m-4.3 2.52l-4.3 2.52" stroke="#5e5e5e" fill="none"/><path d="M1346.9 662.53h.03l-.78.46-.5-.87.1-.06z" stroke="#5e5e5e" stroke-width=".05" fill="#5e5e5e"/><path d="M1127.16 791.33l9.94-11.23 4.7 8z" stroke="#5e5e5e" fill="#5e5e5e"/><path d="M1128.93 781.75l196.1-114.97" stroke="#5e5e5e" fill="none"/><path d="M1129.2 782.17l-.77.45.07-.6-.02-.6.2-.1z" stroke="#5e5e5e" stroke-width=".05" fill="#5e5e5e"/><path d="M1337.78 659.3l-9.97 11.22-4.67-8z" stroke="#5e5e5e" fill="#5e5e5e"/><path d="M598.23 489.17h37.84v21.66h-37.84z" fill-opacity="0"/><path d="M604.7 492.26l-2.33 8.53c-.08.26-.1.54-.1.83 0 1 .52 1.73 1.57 1.73 2.83 0 4.66-2.96 5.5-5.3.2-.64.4-1.3.4-1.95 0-1.93-1.6-1.7-1.6-2.85 0-.9.65-1.1 1.4-1.1 1.1 0 1.24 1.34 1.24 2.18 0 2.6-1.02 5.23-2.54 7.33-1.13 1.57-3.15 2.72-5.08 2.72-1.68 0-3.04-.52-3.04-2.43 0-.55.08-1.1.23-1.63l1.52-5.5c.06-.2.13-.44.13-.65 0-.52-1.15-.52-1.5-.52v-.4c1.37-.34 2.8-.52 4.1-1.1M622.98 504h-10.3v-1.22h10.3V504M631.46 508.07h-5.1v-.27c1.36-.08 1.75-.47 1.75-1.48V498c0-.63-.16-.9-.55-.9-.18 0-.5.1-.83.22l-.5.18v-.26l3.3-1.68.18.06v11.05c0 .8.37 1.13 1.76 1.13v.27"/><path d="M851.43 490.83h25.14v21.66h-25.14z" fill-opacity="0"/><path d="M857.9 493.92l-2.34 8.53c-.08.26-.1.55-.1.84 0 1 .52 1.72 1.57 1.72 2.83 0 4.66-2.96 5.5-5.32.2-.63.4-1.28.4-1.93 0-1.94-1.6-1.7-1.6-2.86 0-.88.65-1.1 1.4-1.1 1.1 0 1.24 1.35 1.24 2.18 0 2.6-1.02 5.24-2.54 7.34-1.13 1.57-3.14 2.72-5.08 2.72-1.68 0-3.04-.52-3.04-2.44 0-.55.1-1.1.25-1.62l1.52-5.5c.05-.2.13-.44.13-.65 0-.53-1.16-.53-1.5-.53v-.4c1.37-.33 2.78-.5 4.1-1.1M871.98 509.75h-5.1v-.28c1.36-.07 1.74-.46 1.74-1.48v-8.32c0-.63-.16-.9-.55-.9-.2 0-.5.08-.83.2l-.5.2v-.26l3.3-1.7.18.07v11.04c0 .8.37 1.13 1.76 1.13v.28"/><path d="M851.43 631.83h25.14v21.66h-25.14z" fill-opacity="0"/><path d="M857.9 634.92l-2.34 8.53c-.08.26-.1.55-.1.84 0 1 .52 1.72 1.57 1.72 2.83 0 4.66-2.96 5.5-5.32.2-.63.4-1.28.4-1.93 0-1.94-1.6-1.7-1.6-2.86 0-.88.65-1.1 1.4-1.1 1.1 0 1.24 1.35 1.24 2.18 0 2.6-1.02 5.24-2.54 7.34-1.13 1.57-3.14 2.72-5.08 2.72-1.68 0-3.04-.52-3.04-2.44 0-.55.1-1.1.25-1.62l1.52-5.5c.05-.2.13-.44.13-.65 0-.53-1.16-.53-1.5-.53v-.4c1.37-.33 2.78-.5 4.1-1.1M873.46 648.2l-1 2.55h-7.24v-.23l3.3-3.5c1.73-1.83 2.4-3.23 2.4-4.8 0-1.7-1-2.62-2.57-2.62-1.34 0-1.98.6-2.72 2.4l-.4-.08c.4-2.17 1.58-3.7 3.86-3.7 2.08 0 3.4 1.44 3.4 3.27 0 1.45-.7 2.84-2.36 4.58l-3.05 3.26h4.32c.78 0 1.17-.2 1.78-1.24"/><path d="M1339.43 631.83h25.14v21.66h-25.14z" fill="#fff" fill-opacity="0"/><path d="M1345.9 634.92l-2.34 8.53c-.08.26-.1.55-.1.84 0 1 .52 1.72 1.57 1.72 2.83 0 4.66-2.96 5.5-5.32.2-.63.4-1.28.4-1.93 0-1.94-1.6-1.7-1.6-2.86 0-.88.65-1.1 1.4-1.1 1.1 0 1.24 1.35 1.24 2.18 0 2.6-1.02 5.24-2.54 7.34-1.13 1.57-3.14 2.72-5.08 2.72-1.68 0-3.04-.52-3.04-2.44 0-.55.1-1.1.25-1.62l1.52-5.5c.05-.2.13-.44.13-.65 0-.53-1.16-.53-1.5-.53v-.4c1.37-.33 2.78-.5 4.1-1.1M1360.8 638.14l-.68 1.57c-.05.14-.2.25-.5.25h-3.6l-.73 1.58c2.64.5 3.56.9 4.62 2.37.48.66.65 1.37.65 2.35 0 1.78-.56 2.92-1.82 3.85-.87.63-1.9.9-3.14.9-1.38 0-2.34-.44-2.34-1.14 0-.46.3-.7.83-.7.4 0 .77.1 1.36.57.52.42.94.6 1.3.6 1.3 0 2.5-1.55 2.5-3.14 0-1.2-.4-2.12-1.23-2.78-.87-.7-2.16-1.3-3.94-1.3-.18 0-.23-.04-.23-.15v-.1l2.03-4.38h3.83c.43 0 .6-.1.9-.5"/><path d="M1094.96 771.17h25.15v21.66h-25.14z" fill-opacity="0"/><path d="M1101.43 774.26l-2.33 8.53c-.08.26-.1.54-.1.83 0 1 .52 1.73 1.56 1.73 2.83 0 4.66-2.96 5.5-5.3.2-.64.4-1.3.4-1.95 0-1.93-1.6-1.7-1.6-2.85 0-.9.65-1.1 1.4-1.1 1.1 0 1.24 1.34 1.24 2.18 0 2.6-1.02 5.23-2.54 7.33-1.12 1.57-3.14 2.72-5.08 2.72-1.67 0-3.03-.52-3.03-2.43 0-.55.07-1.1.23-1.63l1.52-5.5c.05-.2.13-.44.13-.65 0-.52-1.15-.52-1.5-.52v-.4c1.37-.34 2.78-.52 4.1-1.1M1109.34 780.65l-.3-.08c.54-1.75 1.7-3 3.64-3 1.72 0 2.88 1.02 2.88 2.54 0 .9-.48 1.83-1.72 2.57.82.35 1.15.57 1.54.98.52.57.8 1.42.8 2.4 0 .97-.3 1.87-.84 2.58-.9 1.18-2.65 1.72-4.3 1.72-1.34 0-2.07-.4-2.07-1.06 0-.4.34-.67.76-.67.32 0 .6.1 1.13.48.7.5 1.08.58 1.6.58 1.36 0 2.4-1.26 2.4-2.83 0-1.4-.65-2.3-1.92-2.68-.4-.13-.84-.2-1.9-.2v-.25c.7-.24 1.2-.44 1.56-.67.9-.5 1.5-1.35 1.5-2.48 0-1.25-.78-1.88-2-1.88-1.15 0-2 .58-2.76 1.95"/><path d="M1373 642.66h50.62" stroke="#5e5e5e" fill="none"/><path d="M1373 643.16h-.56l.06-.48-.02-.52h.53z" stroke="#5e5e5e" stroke-width=".05" fill="#5e5e5e"/><path d="M1438.38 642.66l-14.26 4.63V638z" stroke="#5e5e5e" fill="#5e5e5e"/><path d="M520 492.5h26.3v20H520z" fill="#c3f7c8"/><path d="M528 498.26l1.16-1.8c.7-1.05 1.6-2.2 2.9-2.2.85 0 1.3.3 1.3.86 0 .5-.35 1.1-1.03 1.1-.57 0-.7-.24-1.15-.24-.78 0-1.07.42-1.44 1l-1.44 2.22c.8 1.63 1.4 5.16 2.57 5.16.42 0 1.04-.37 1.6-1.5l.36.27c-.3.4-1.5 2.9-3 2.9-1.08 0-1.58-1.07-1.92-2l-1.04-2.97-1.65 2.57c-.83 1.28-1.6 2.4-3.05 2.4-.95 0-1.36-.65-1.36-1.22 0-.4.33-.96.98-.96.68 0 .58.52 1.23.52.33 0 1-.26 1.84-1.54l1.7-2.65-.86-2.4c-.44-1.26-1.12-2.34-2.56-2.34-.34 0-.74.05-1 .16l-.08-.48 3.46-.87c1.15.63 1.65 1.7 1.96 2.57M541.7 509.74h-5.1v-.27c1.36-.08 1.75-.47 1.75-1.48v-8.33c0-.63-.17-.9-.56-.9-.2 0-.5.1-.84.22l-.5.17v-.26l3.3-1.67.18.06v11.04c0 .8.37 1.13 1.76 1.13v.27"/><path d="M520 772h26.3v20H520z" fill="#c3f7c8"/><path d="M528 777.77l1.16-1.8c.7-1.05 1.6-2.2 2.9-2.2.85 0 1.3.3 1.3.86 0 .5-.35 1.1-1.03 1.1-.57 0-.7-.23-1.15-.23-.78 0-1.07.4-1.44 1l-1.44 2.22c.8 1.62 1.4 5.15 2.57 5.15.42 0 1.04-.36 1.6-1.5l.36.27c-.3.4-1.5 2.9-3 2.9-1.08 0-1.58-1.06-1.92-2l-1.04-2.96-1.65 2.56c-.83 1.28-1.6 2.4-3.05 2.4-.95 0-1.36-.64-1.36-1.22 0-.42.33-.97.98-.97.68 0 .58.52 1.23.52.33 0 1-.26 1.84-1.54l1.7-2.64-.86-2.42c-.44-1.26-1.12-2.33-2.56-2.33-.34 0-.74.05-1 .15l-.08-.47 3.46-.86c1.15.63 1.65 1.7 1.96 2.56M543.18 786.72l-1 2.54h-7.24v-.22l3.3-3.5c1.74-1.84 2.4-3.24 2.4-4.82 0-1.68-1-2.6-2.57-2.6-1.33 0-1.98.6-2.72 2.4l-.4-.1c.4-2.16 1.58-3.68 3.86-3.68 2.1 0 3.43 1.43 3.43 3.26 0 1.46-.72 2.85-2.37 4.6l-3.05 3.25h4.34c.78 0 1.17-.2 1.78-1.24"/><path d="M1080 735.37h75.33V762H1080z" fill="#fff" fill-opacity="0"/><path d="M1090.2 743.77l-.62 3.82h-.4c0-1.7-.93-3.15-2.4-3.15-.65 0-1.33.44-1.33 1.52 0 1.44 3.5 3.85 3.5 6.33 0 1.63-1.25 3.28-3.53 3.28-.9 0-2.57-.53-2.88-.53-.24 0-.47.1-.8.55h-.43l.66-4.08h.42c0 1.65 1.08 3.4 2.73 3.4 1.55 0 1.92-1.3 1.92-2.33 0-2.16-3.4-3.46-3.4-6.03 0-2.07 1.54-2.8 2.98-2.8 1.12 0 1.65.52 2.4.52.3 0 .58-.27.8-.53h.4M1098.25 740.5c0 .68-.58 1.2-1.26 1.2-.77 0-1.26-.52-1.26-1.2 0-.66.5-1.3 1.25-1.3.67 0 1.25.64 1.25 1.3m-.78 3.27l-2.4 9.53c-.04.16-.04.26-.04.37 0 .18.16.26.34.26.58 0 .73-.32 1.68-1.34l.34.25c-.93 1.18-2.24 2.75-3.52 2.75-.74 0-1.05-.5-1.05-1.2 0-.32 0-.8 2.07-8.85.03-.05.05-.24.05-.32 0-.44-.2-.57-.8-.57-.25 0-.56.05-.74.1l-.07-.42M1111.92 752.8l-.13.16c-.74.9-2 2.56-3.36 2.56-.84 0-1.08-.6-1.08-1.2 0-.34.1-.76.2-1.05l1.48-5.78c.05-.22.18-.75.18-1.1 0-.5-.15-1-.63-1-1 0-2.65 2.24-3.46 3.47-.95 1.42-1.63 2.65-1.78 3.2l-.87 3.25h-2.02l2.48-9.8c0-.47-.07-.84-.78-.84-.26 0-.55.06-.73.08l-.06-.4 4.16-.6-1.34 4.96h.08c.13 0 1.4-1.84 1.47-1.92 1.04-1.3 2.6-3.03 4.2-3.03 1.14 0 1.45.76 1.45 1.62 0 .65-.16 1.3-.3 1.82l-1.53 6.05c-.04.05-.04.13-.04.26.03.16.1.37.4.37.62 0 1.25-.94 1.62-1.4M1120.67 759.53l-.32.42c-4.14-2.36-6.4-6.78-6.4-11.23 0-4.85 2.3-8.62 6.48-11.1l.24.4c-3.64 3.13-4.46 5.56-4.46 10.62 0 4.87.8 7.83 4.47 10.9M1127.92 743.43l-2.33 8.53c-.1.27-.12.55-.12.84 0 1 .53 1.73 1.57 1.73 2.83 0 4.67-2.96 5.5-5.32.2-.6.4-1.27.4-1.92 0-1.94-1.6-1.7-1.6-2.86 0-.9.65-1.1 1.4-1.1 1.1 0 1.24 1.34 1.24 2.18 0 2.6-1.03 5.23-2.55 7.33-1.12 1.57-3.14 2.72-5.08 2.72-1.67 0-3.03-.52-3.03-2.43 0-.55.07-1.1.23-1.63l1.52-5.5c.04-.22.12-.45.12-.66 0-.53-1.15-.53-1.5-.53v-.38c1.37-.34 2.78-.52 4.1-1.1M1143.52 753.15c0 3.18-1.17 6.37-4.2 6.37-3.15 0-4.17-3.45-4.17-6.48 0-3.28 1.28-6.3 4.26-6.3 2.43 0 4.12 2.6 4.12 6.4m-1.78.1c0-3.85-.8-6.02-2.44-6.02-1.54 0-2.37 2.2-2.37 5.95 0 3.76.8 5.87 2.4 5.87 1.58 0 2.4-2.13 2.4-5.8M1147.35 738.03l.3-.42c4.02 2.42 6.4 6.8 6.4 11.25 0 4.84-2.3 8.56-6.47 11.1l-.23-.42c3.72-3.06 4.45-5.52 4.45-10.6 0-4.9-.66-7.9-4.45-10.9"/><path d="M1067.6 458.34h79.88v23.32h-79.9z" fill="#fff" fill-opacity="0"/><path d="M1074.06 463.1l-2.33 8.52c-.08.27-.1.55-.1.84 0 1 .52 1.73 1.56 1.73 2.82 0 4.66-2.97 5.5-5.33.2-.62.4-1.28.4-1.93 0-1.94-1.6-1.7-1.6-2.86 0-.9.64-1.1 1.4-1.1 1.1 0 1.23 1.34 1.23 2.18 0 2.6-1.02 5.23-2.54 7.33-1.13 1.56-3.15 2.7-5.1 2.7-1.66 0-3.02-.5-3.02-2.42 0-.55.08-1.1.23-1.63l1.53-5.5c.05-.2.13-.44.13-.65 0-.53-1.15-.53-1.5-.53v-.4c1.37-.33 2.8-.5 4.1-1.1M1088.14 478.92h-5.1v-.28c1.36-.07 1.75-.46 1.75-1.48v-8.3c0-.64-.18-.92-.57-.92-.18 0-.5.1-.83.22l-.5.2v-.27l3.32-1.7.16.06v11.05c0 .8.37 1.14 1.76 1.14v.28M1115.2 469.2h-6.84v6.85h-1.73v-6.84h-6.83v-1.7h6.83v-6.85h1.73v6.84h6.84v1.7M1128.8 463.1l-2.35 8.52c-.07.27-.1.55-.1.84 0 1 .52 1.73 1.57 1.73 2.83 0 4.66-2.97 5.5-5.33.2-.62.4-1.28.4-1.93 0-1.94-1.6-1.7-1.6-2.86 0-.9.65-1.1 1.4-1.1 1.1 0 1.24 1.34 1.24 2.18 0 2.6-1.02 5.23-2.54 7.33-1.13 1.56-3.14 2.7-5.08 2.7-1.68 0-3.04-.5-3.04-2.42 0-.55.08-1.1.24-1.63l1.52-5.5c.05-.2.13-.44.13-.65 0-.53-1.16-.53-1.5-.53v-.4c1.36-.33 2.77-.5 4.08-1.1M1144.35 476.38l-1 2.54h-7.24v-.22l3.3-3.5c1.75-1.84 2.4-3.24 2.4-4.82 0-1.68-1-2.6-2.56-2.6-1.33 0-1.98.6-2.72 2.4l-.4-.1c.4-2.16 1.58-3.68 3.86-3.68 2.1 0 3.42 1.43 3.42 3.26 0 1.46-.72 2.85-2.37 4.6l-3.05 3.25h4.33c.8 0 1.18-.2 1.8-1.23"/><path d="M1332 598.34h79.88v23.32H1332z" fill="#fff" fill-opacity="0"/><path d="M1338.47 603.1l-2.33 8.52c-.08.27-.1.55-.1.84 0 1 .52 1.73 1.56 1.73 2.83 0 4.66-2.97 5.5-5.33.2-.62.4-1.28.4-1.93 0-1.94-1.6-1.7-1.6-2.86 0-.9.65-1.1 1.4-1.1 1.1 0 1.24 1.34 1.24 2.18 0 2.6-1.02 5.23-2.54 7.33-1.12 1.56-3.14 2.7-5.08 2.7-1.67 0-3.03-.5-3.03-2.42 0-.55.06-1.1.22-1.63l1.52-5.5c.05-.2.13-.44.13-.65 0-.53-1.15-.53-1.5-.53v-.4c1.37-.33 2.78-.5 4.1-1.1M1354 615.83h-1.9v3.1h-1.44v-3.1h-5.18v-1.2l5.8-8.23h.82v8.24h1.9v1.2m-3.34-1.2v-6.35l-4.44 6.34h4.44M1379.2 609.2h-14.57v-1.7h14.58v1.7M1393.2 603.1l-2.34 8.52c-.07.27-.1.55-.1.84 0 1 .52 1.73 1.57 1.73 2.83 0 4.66-2.97 5.5-5.33.2-.62.4-1.28.4-1.93 0-1.94-1.6-1.7-1.6-2.86 0-.9.65-1.1 1.4-1.1 1.1 0 1.24 1.34 1.24 2.18 0 2.6-1.02 5.23-2.54 7.33-1.13 1.56-3.14 2.7-5.08 2.7-1.68 0-3.04-.5-3.04-2.42 0-.55.1-1.1.25-1.63l1.52-5.5c.05-.2.13-.44.13-.65 0-.53-1.16-.53-1.5-.53v-.4c1.37-.33 2.78-.5 4.1-1.1M1401.1 609.48l-.3-.08c.55-1.76 1.72-3 3.64-3 1.72 0 2.9 1.02 2.9 2.54 0 .9-.5 1.8-1.73 2.55.82.35 1.16.57 1.55.98.5.57.8 1.42.8 2.38 0 1-.3 1.9-.84 2.6-.88 1.18-2.64 1.72-4.3 1.72-1.34 0-2.06-.4-2.06-1.06 0-.4.33-.66.76-.66.3 0 .6.1 1.13.48.68.48 1.07.57 1.6.57 1.36 0 2.4-1.25 2.4-2.82 0-1.4-.65-2.32-1.93-2.7-.4-.12-.83-.17-1.9-.17v-.25c.72-.24 1.2-.44 1.57-.67.9-.5 1.5-1.35 1.5-2.48 0-1.26-.78-1.9-2-1.9-1.15 0-2 .6-2.76 1.98"/><path d="M825.66 600h82.13v21.66h-82.14z" fill="#fff" fill-opacity="0"/><path d="M832.13 603.1l-2.33 8.52c-.08.27-.1.55-.1.84 0 1 .52 1.73 1.57 1.73 2.83 0 4.66-2.97 5.5-5.33.2-.62.4-1.28.4-1.93 0-1.94-1.6-1.7-1.6-2.86 0-.9.65-1.1 1.4-1.1 1.1 0 1.24 1.34 1.24 2.18 0 2.6-1 5.23-2.53 7.33-1.13 1.56-3.15 2.7-5.08 2.7-1.7 0-3.05-.5-3.05-2.42 0-.55.08-1.1.24-1.63l1.5-5.5c.06-.2.13-.44.13-.65 0-.53-1.15-.53-1.5-.53v-.4c1.37-.33 2.8-.5 4.1-1.1M850.4 614.83h-10.3v-1.22h10.3v1.23M858.9 618.9h-5.12v-.27c1.37-.08 1.76-.47 1.76-1.5v-8.3c0-.63-.17-.9-.56-.9-.18 0-.5.1-.83.22l-.5.18v-.26l3.3-1.68.18.04v11.06c0 .8.37 1.13 1.76 1.13v.27M874.63 608.35c0 .84-.7 1.57-1.55 1.57-.86 0-1.6-.78-1.6-1.57 0-.8.74-1.57 1.6-1.57.84 0 1.55.73 1.55 1.57M889.1 603.1l-2.32 8.52c-.08.27-.1.55-.1.84 0 1 .52 1.73 1.57 1.73 2.82 0 4.66-2.97 5.5-5.33.2-.62.4-1.28.4-1.93 0-1.94-1.6-1.7-1.6-2.86 0-.9.64-1.1 1.4-1.1 1.1 0 1.23 1.34 1.23 2.18 0 2.6-1.02 5.23-2.54 7.33-1.12 1.56-3.14 2.7-5.07 2.7-1.68 0-3.04-.5-3.04-2.42 0-.55.08-1.1.23-1.63l1.52-5.5c.05-.2.13-.44.13-.65 0-.53-1.14-.53-1.48-.53v-.4c1.36-.33 2.78-.5 4.1-1.1M904.7 612.8c0 3.2-1.16 6.38-4.17 6.38-3.17 0-4.2-3.45-4.2-6.48 0-3.28 1.3-6.3 4.27-6.3 2.42 0 4.1 2.6 4.1 6.4m-1.77.1c0-3.85-.8-6-2.44-6-1.55 0-2.38 2.17-2.38 5.93s.8 5.87 2.4 5.87c1.58 0 2.4-2.13 2.4-5.8"/><path d="M579.2 500h-32.4" stroke="#5e5e5e" fill="none"/><path d="M593.96 500l-14.27 4.64v-9.28z" stroke="#5e5e5e" fill="#5e5e5e"/><path d="M546.8 500.5h-.5v-1h.5z" stroke="#5e5e5e" stroke-width=".05" fill="#5e5e5e"/><path d="M579.2 782h-32.4" stroke="#5e5e5e" fill="none"/><path d="M593.96 782l-14.27 4.64v-9.28z" stroke="#5e5e5e" fill="#5e5e5e"/><path d="M546.8 782.5h-.5v-1h.5z" stroke="#5e5e5e" stroke-width=".05" fill="#5e5e5e"/><path d="M1215.25 746.3h177.7v55.37h-177.7z" fill="#fff3d9"/><path d="M1223.25 767.73l-2.78 10.16c-.1.3-.12.65-.12 1 0 1.17.62 2.04 1.87 2.04 3.36 0 5.54-3.52 6.54-6.32.25-.75.47-1.53.47-2.3 0-2.3-1.9-2.03-1.9-3.4 0-1.06.78-1.3 1.68-1.3 1.32 0 1.48 1.58 1.48 2.57 0 3.08-1.22 6.23-3.03 8.72-1.34 1.87-3.74 3.24-6.04 3.24-2 0-3.6-.62-3.6-2.9 0-.65.1-1.3.27-1.93l1.8-6.54c.07-.26.17-.54.17-.8 0-.62-1.38-.62-1.78-.62v-.46c1.62-.4 3.3-.63 4.86-1.3M1232.67 775.34l-.36-.1c.65-2.1 2.04-3.56 4.33-3.56 2.05 0 3.44 1.2 3.44 3.02 0 1.05-.57 2.16-2.05 3.04.97.42 1.37.68 1.83 1.17.62.7.97 1.7.97 2.85 0 1.17-.38 2.24-1 3.08-1.07 1.4-3.16 2.05-5.13 2.05-1.6 0-2.47-.46-2.47-1.25 0-.47.4-.8.9-.8.37 0 .73.13 1.34.57.82.58 1.28.7 1.9.7 1.63 0 2.86-1.5 2.86-3.38 0-1.68-.77-2.76-2.3-3.2-.47-.15-.98-.22-2.24-.22v-.3c.83-.3 1.4-.54 1.84-.8 1.08-.62 1.8-1.6 1.8-2.95 0-1.5-.94-2.25-2.4-2.25-1.36 0-2.37.7-3.27 2.34M1244.93 759.88h.82c-.6 3.3-3 4.74-7.08 4.74-4.02 0-4.6-.5-10.94-1.87-2.93-.63-5.05-.97-6.26-.97-2.93 0-4.83.97-5.42 2.84h-.8c.6-3.5 3.07-4.74 6.7-4.74 1.92 0 5.66.65 11.08 1.9 2.93.7 5.1 1 6.42 1 3.1 0 5.02-1 5.48-2.9M1274.26 771.9h-18.36v-2.05h18.36v2.06m0 6.24h-18.36v-2.06h18.36v2.06M1288.13 775.02h35.37v-1.87h-35.37zM1294.3 751.22l-.23-.44c.62-.38 1.4-.5 2.16-.5 2.78 0 4.14 1.97 4.14 5.72 0 3.26-1.34 9.23-6.5 9.23-2.15 0-3-1.7-3-3.57 0-3.1 2.45-6.25 5.67-6.25.7 0 1.65.25 2.12 1.06.08-.48.15-1 .15-1.54 0-1.94-.63-4-2.88-4-.6 0-1.08.12-1.63.3m3.78 6.74c0-1.43-.75-1.9-1.34-1.9-2.18 0-4.08 3.3-4.08 6.35 0 .85.1 2.17 1.48 2.17 1.7 0 3-2.2 3.6-4.45.2-.73.34-1.48.34-2.16M1305.82 755l-1.96 7.17c-.07.22-.1.46-.1.7 0 .84.45 1.46 1.33 1.46 2.37 0 3.9-2.5 4.62-4.47.17-.53.33-1.08.33-1.63 0-1.63-1.35-1.44-1.35-2.4 0-.76.55-.93 1.2-.93.92 0 1.03 1.12 1.03 1.83 0 2.18-.86 4.4-2.14 6.17-.96 1.32-2.65 2.3-4.28 2.3-1.4 0-2.56-.45-2.56-2.06 0-.46.07-.93.2-1.37l1.28-4.62c.04-.18.1-.38.1-.55 0-.45-.96-.45-1.25-.45v-.33c1.14-.28 2.33-.44 3.43-.92M1318.46 757.55l-.56 1.34c-.05.1-.18.2-.43.2h-3.07l-.63 1.34c2.26.43 3.05.77 3.95 2.02.4.57.56 1.17.56 2 0 1.52-.48 2.5-1.55 3.3-.75.53-1.6.77-2.7.77-1.17 0-2-.38-2-.98 0-.4.27-.6.72-.6.36 0 .66.08 1.16.5.46.35.82.5 1.14.5 1.1 0 2.13-1.32 2.13-2.68 0-1-.35-1.8-1.06-2.37-.73-.6-1.84-1.1-3.35-1.1-.15 0-.2-.03-.2-.13l.02-.08 1.72-3.75h3.26c.37 0 .5-.08.76-.4M1294.3 780.64l-.23-.44c.62-.38 1.4-.5 2.16-.5 2.78 0 4.14 1.97 4.14 5.72 0 3.26-1.34 9.23-6.5 9.23-2.15 0-3-1.7-3-3.57 0-3.1 2.45-6.26 5.67-6.26.7 0 1.65.25 2.12 1.06.08-.48.15-1 .15-1.54 0-1.94-.63-4-2.88-4-.6 0-1.08.12-1.63.3m3.78 6.74c0-1.43-.75-1.9-1.34-1.9-2.18 0-4.08 3.3-4.08 6.35 0 .84.1 2.16 1.48 2.16 1.7 0 3-2.2 3.6-4.46.2-.73.34-1.48.34-2.16M1305.82 784.4l-1.96 7.2c-.07.2-.1.45-.1.7 0 .83.45 1.45 1.33 1.45 2.37 0 3.9-2.5 4.62-4.48.17-.53.33-1.08.33-1.63 0-1.63-1.35-1.43-1.35-2.4 0-.75.55-.92 1.2-.92.92 0 1.03 1.12 1.03 1.83 0 2.18-.86 4.4-2.14 6.16-.96 1.34-2.65 2.3-4.28 2.3-1.4 0-2.56-.44-2.56-2.04 0-.47.07-.93.2-1.37l1.28-4.64c.04-.17.1-.37.1-.55 0-.43-.96-.43-1.25-.43v-.33c1.14-.28 2.33-.44 3.43-.92M1312.5 789.67l-.24-.07c.45-1.5 1.45-2.56 3.1-2.56 1.46 0 2.46.87 2.46 2.17 0 .77-.4 1.56-1.47 2.2.7.3.98.48 1.3.83.45.5.7 1.2.7 2.04 0 .83-.26 1.6-.72 2.2-.76 1.02-2.26 1.48-3.67 1.48-1.15 0-1.77-.34-1.77-.9 0-.34.28-.57.64-.57.27 0 .52.1.96.4.6.42.92.5 1.36.5 1.17 0 2.06-1.08 2.06-2.42 0-1.2-.56-1.97-1.65-2.3-.34-.1-.7-.15-1.6-.15v-.2c.6-.22 1-.4 1.32-.58.76-.44 1.27-1.15 1.27-2.12 0-1.07-.66-1.6-1.7-1.6-1 0-1.7.5-2.36 1.67M1340.54 774c0 1-.84 1.87-1.84 1.87-1.02 0-1.9-.94-1.9-1.87 0-.94.88-1.87 1.9-1.87 1 0 1.84.87 1.84 1.87M1353.82 775.02h35.37v-1.87h-35.38zM1363.82 750.63l-.22-.44c.6-.4 1.4-.52 2.16-.52 2.77 0 4.14 1.98 4.14 5.73 0 3.27-1.35 9.24-6.5 9.24-2.16 0-3-1.7-3-3.57 0-3.1 2.45-6.26 5.67-6.26.7 0 1.65.26 2.1 1.07.1-.48.16-1 .16-1.54 0-1.94-.63-4-2.88-4-.6 0-1.08.12-1.63.3m3.8 6.74c0-1.43-.76-1.9-1.36-1.9-2.18 0-4.07 3.3-4.07 6.35 0 .84.08 2.16 1.46 2.16 1.7 0 3-2.2 3.62-4.45.2-.73.33-1.48.33-2.16M1375.36 754.77h.82c1.4 0 1.28-1.7 2.22-3.1.7-1.04 1.63-2 3.3-2 1.1 0 1.75.54 1.75 1.3 0 .63-.46.9-.9.9-.62 0-.78-.25-.78-.56 0-.3.2-.63.2-.8 0-.12-.06-.18-.33-.18-1.1 0-1.96 1.2-2.42 2.9l-.42 1.55h1.76l-.26.84h-1.68l-1.74 6.75c-.15.6-.33 1.43-.66 2.25-.72 1.82-1.9 3.92-3.85 3.92-1.06 0-1.6-.53-1.6-1.2 0-.52.32-1.07.96-1.07.6 0 .8.4.8.73 0 .4-.34.44-.34.7 0 .13.12.2.32.2 1.43 0 2.1-3.48 2.42-4.74l1.92-7.53h-1.7M1359.98 780.64l-.22-.44c.62-.38 1.4-.5 2.16-.5 2.78 0 4.15 1.97 4.15 5.72 0 3.26-1.35 9.23-6.5 9.23-2.16 0-3-1.7-3-3.57 0-3.1 2.45-6.26 5.66-6.26.7 0 1.65.25 2.12 1.06.1-.48.15-1 .15-1.54 0-1.94-.64-4-2.88-4-.6 0-1.08.12-1.64.3m3.8 6.74c0-1.43-.75-1.9-1.35-1.9-2.18 0-4.08 3.3-4.08 6.35 0 .84.1 2.16 1.48 2.16 1.7 0 3-2.2 3.6-4.46.2-.73.34-1.48.34-2.16M1371.5 784.4l-1.95 7.2c-.07.2-.1.45-.1.7 0 .83.45 1.45 1.33 1.45 2.38 0 3.92-2.5 4.63-4.48.18-.53.34-1.08.34-1.63 0-1.63-1.35-1.43-1.35-2.4 0-.75.54-.92 1.18-.92.93 0 1.04 1.12 1.04 1.83 0 2.18-.86 4.4-2.14 6.16-.95 1.34-2.64 2.3-4.27 2.3-1.4 0-2.55-.44-2.55-2.04 0-.47.07-.93.2-1.37l1.28-4.64c.04-.17.1-.37.1-.55 0-.43-.96-.43-1.25-.43v-.33c1.15-.28 2.34-.44 3.44-.92M1384.16 786.97l-.57 1.34c-.06.12-.2.2-.44.2h-3.06l-.64 1.36c2.26.42 3.05.77 3.95 2.02.42.57.57 1.17.57 2 0 1.52-.48 2.5-1.55 3.3-.74.53-1.6.77-2.7.77-1.17 0-2-.38-2-.98 0-.4.27-.6.72-.6.36 0 .66.08 1.17.5.45.35.8.5 1.13.5 1.1 0 2.13-1.32 2.13-2.68 0-1.02-.35-1.8-1.06-2.38-.74-.6-1.85-1.1-3.36-1.1-.15 0-.2-.04-.2-.13l.02-.1 1.73-3.73h3.26c.36 0 .5-.08.75-.4"/><path d="M924.96 447.53H1060v43.62H924.96z" fill="#fff3d9"/><path d="M931.5 463.43l-2.27 8.3c-.08.25-.1.53-.1.8 0 .98.5 1.7 1.52 1.7 2.75 0 4.54-2.9 5.35-5.18.2-.6.38-1.25.38-1.88 0-1.9-1.55-1.66-1.55-2.78 0-.87.64-1.08 1.37-1.08 1.07 0 1.2 1.3 1.2 2.12 0 2.52-1 5.1-2.47 7.12-1.1 1.53-3.05 2.65-4.94 2.65-1.64 0-2.96-.5-2.96-2.36 0-.53.07-1.06.23-1.57l1.47-5.35c.06-.2.13-.43.13-.64 0-.5-1.12-.5-1.45-.5v-.4c1.32-.32 2.7-.5 3.97-1.06M945.18 478.82h-4.96v-.27c1.33-.07 1.7-.45 1.7-1.44v-8.07c0-.62-.16-.9-.53-.9-.2 0-.5.1-.82.23l-.5.18v-.25l3.23-1.65.17.05v10.75c0 .77.36 1.1 1.7 1.1v.27M949.2 457h.67c-.48 2.7-2.44 3.88-5.77 3.88-3.3 0-3.77-.4-8.94-1.53-2.4-.5-4.12-.8-5.12-.8-2.4 0-3.94.8-4.43 2.33h-.65c.5-2.85 2.52-3.87 5.47-3.87 1.58 0 4.64.54 9.07 1.56 2.38.56 4.16.82 5.23.82 2.52 0 4.1-.82 4.48-2.37M973.17 466.84h-15v-1.68h15v1.68m0 5.1h-15v-1.7h15v1.7M984.5 469.38h28.9v-1.52h-28.9zM989.53 450.1l-.18-.35c.5-.3 1.16-.4 1.77-.4 2.27 0 3.38 1.6 3.38 4.67 0 2.66-1.1 7.54-5.3 7.54-1.77 0-2.46-1.38-2.46-2.9 0-2.55 2-5.13 4.63-5.13.58 0 1.35.2 1.73.87.07-.4.12-.83.12-1.26 0-1.6-.52-3.26-2.35-3.26-.5 0-.9.1-1.34.23m3.1 5.52c0-1.17-.6-1.55-1.1-1.55-1.78 0-3.33 2.7-3.33 5.2 0 .67.07 1.75 1.2 1.75 1.4 0 2.46-1.8 2.96-3.63.16-.6.27-1.22.27-1.78M998.95 453.2l-1.6 5.86c-.06.18-.08.38-.08.58 0 .68.36 1.18 1.08 1.18 1.95 0 3.2-2.03 3.78-3.65.15-.43.27-.88.27-1.33 0-1.33-1.1-1.17-1.1-1.96 0-.62.46-.76.98-.76.75 0 .84.92.84 1.5 0 1.78-.7 3.6-1.74 5.03-.78 1.08-2.16 1.88-3.5 1.88-1.15 0-2.08-.36-2.08-1.68 0-.38.05-.75.16-1.1l1.04-3.8c.04-.14.1-.3.1-.44 0-.35-.8-.35-1.03-.35v-.27c.93-.24 1.9-.36 2.8-.76M1009.73 461.92h-1.33v2.15h-1v-2.15h-3.62v-.83l4.06-5.75h.56v5.74h1.33v.82m-2.33-.83v-4.43l-3.1 4.42h3.1M989.53 473.97l-.18-.36c.5-.3 1.16-.4 1.77-.4 2.27 0 3.38 1.6 3.38 4.67 0 2.67-1.1 7.55-5.3 7.55-1.77 0-2.46-1.4-2.46-2.92 0-2.54 2-5.1 4.63-5.1.58 0 1.35.2 1.73.85.07-.4.12-.83.12-1.26 0-1.6-.52-3.27-2.35-3.27-.5 0-.9.1-1.34.24m3.1 5.5c0-1.16-.6-1.54-1.1-1.54-1.78 0-3.33 2.68-3.33 5.18 0 .7.07 1.78 1.2 1.78 1.4 0 2.46-1.8 2.96-3.64.16-.6.27-1.2.27-1.76M998.95 477.05l-1.6 5.86c-.06.2-.08.4-.08.6 0 .67.36 1.18 1.08 1.18 1.95 0 3.2-2.04 3.78-3.66.15-.43.27-.88.27-1.33 0-1.34-1.1-1.18-1.1-1.97 0-.6.46-.76.98-.76.75 0 .84.92.84 1.5 0 1.78-.7 3.6-1.74 5.04-.78 1.1-2.16 1.88-3.5 1.88-1.15 0-2.08-.36-2.08-1.67 0-.37.05-.75.16-1.1l1.04-3.8c.04-.13.1-.3.1-.44 0-.36-.8-.36-1.03-.36v-.27c.93-.23 1.9-.36 2.8-.76M1008.7 487.93h-3.55v-.2c.96-.05 1.23-.32 1.23-1.03v-5.8c0-.43-.12-.63-.4-.63-.12 0-.34.07-.57.16l-.34.13v-.18l2.3-1.18.13.04v7.7c0 .56.24.8 1.2.8v.2M1027.32 468.54c0 .82-.7 1.53-1.5 1.53-.84 0-1.56-.76-1.56-1.53 0-.76.72-1.52 1.56-1.52.8 0 1.5.7 1.5 1.52M1041.6 463.43l-2.27 8.3c-.07.25-.1.53-.1.8 0 .98.5 1.7 1.53 1.7 2.75 0 4.53-2.9 5.35-5.18.2-.6.4-1.25.4-1.88 0-1.9-1.57-1.66-1.57-2.78 0-.87.64-1.08 1.38-1.08 1.08 0 1.2 1.3 1.2 2.12 0 2.52-1 5.1-2.46 7.12-1.1 1.53-3.06 2.65-4.94 2.65-1.63 0-2.96-.5-2.96-2.36 0-.53.08-1.06.23-1.57l1.48-5.35c.05-.2.13-.43.13-.64 0-.5-1.12-.5-1.45-.5v-.4c1.32-.32 2.7-.5 3.97-1.06M1056.7 475.8h-1.84v3.02h-1.4v-3h-5.05v-1.16l5.67-8h.8v8h1.84v1.15m-3.25-1.14v-6.17l-4.32 6.16h4.32M1059.32 457h.66c-.48 2.7-2.44 3.88-5.78 3.88-3.28 0-3.77-.4-8.94-1.53-2.4-.5-4.12-.8-5.1-.8-2.4 0-3.96.8-4.44 2.33h-.66c.5-2.85 2.52-3.87 5.47-3.87 1.58 0 4.63.54 9.06 1.56 2.4.56 4.17.82 5.24.82 2.52 0 4.1-.82 4.48-2.37"/><path d="M649.16 452.5h163.42v40H649.16z" fill="#fff3d9"/><path d="M659.92 467.06l-2.08 7.6c-.07.24-.1.5-.1.76 0 .9.47 1.54 1.4 1.54 2.53 0 4.16-2.64 4.9-4.74.2-.56.36-1.14.36-1.73 0-1.73-1.42-1.52-1.42-2.55 0-.8.58-.98 1.26-.98.98 0 1.1 1.2 1.1 1.94 0 2.32-.92 4.67-2.27 6.54-1 1.4-2.8 2.43-4.53 2.43-1.5 0-2.7-.47-2.7-2.17 0-.5.06-.98.2-1.45l1.36-4.9c.04-.2.1-.4.1-.58 0-.47-1-.47-1.32-.47v-.35c1.22-.3 2.48-.47 3.65-.98M676.2 477.53h-9.18v-1.1h9.2v1.1M683.77 481.16h-4.55v-.25c1.22-.05 1.56-.4 1.56-1.3v-7.42c0-.56-.14-.8-.5-.8-.16 0-.44.08-.73.2l-.45.16v-.23l2.96-1.5.14.05v9.86c0 .72.33 1 1.57 1v.26M694.37 482.7h-4.55v-.26c1.22-.06 1.56-.4 1.56-1.32v-7.4c0-.57-.14-.8-.5-.8-.16 0-.44.07-.73.18l-.45.17v-.23l2.96-1.5.14.05v9.84c0 .7.33 1 1.57 1v.25M702.82 460.92h.68c-.68 2.7-7.38 3.8-12.05 3.8-4.64 0-11.43-.37-18.7-1.46-3.35-.52-9.66-.8-11.06-.8-3.37 0-11.1.75-11.87 2.27h-.67c.8-2.78 8.68-3.8 12.86-3.8 2.26 0 11.13.53 17.4 1.5 3.33.5 11.2.76 12.7.76 3.56 0 10.07-.74 10.7-2.28M724.86 470.2H711.1v-1.55h13.76v1.54m0 4.66H711.1v-1.54h13.76v1.54M735.25 472.52h34.6v-1.4h-34.6zM743.9 454.86l-.16-.33c.46-.28 1.05-.38 1.6-.38 2.1 0 3.12 1.48 3.12 4.3 0 2.43-1 6.9-4.87 6.9-1.63 0-2.26-1.27-2.26-2.67 0-2.33 1.84-4.7 4.25-4.7.5 0 1.22.2 1.57.8.07-.36.12-.76.12-1.15 0-1.45-.5-3-2.18-3-.44 0-.8.1-1.22.23m2.84 5.05c0-1.07-.56-1.4-1-1.4-1.64 0-3.06 2.45-3.06 4.74 0 .63.07 1.62 1.1 1.62 1.28 0 2.25-1.65 2.7-3.34.16-.54.26-1.1.26-1.6M752.53 457.68l-1.46 5.38c-.05.16-.07.34-.07.53 0 .6.33 1.08 1 1.08 1.77 0 2.93-1.87 3.45-3.35.14-.4.25-.8.25-1.23 0-1.22-1-1.07-1-1.8 0-.56.4-.7.9-.7.68 0 .76.85.76 1.38 0 1.64-.64 3.3-1.6 4.62-.7 1-1.98 1.72-3.2 1.72-1.06 0-1.9-.33-1.9-1.54 0-.34.04-.7.13-1.02l.95-3.46c.03-.14.08-.3.08-.42 0-.33-.72-.33-.94-.33v-.24c.85-.2 1.74-.32 2.57-.7M761.5 467.66h-3.28v-.18c.88-.05 1.13-.3 1.13-.95v-5.3c0-.4-.1-.6-.36-.6-.13 0-.33.07-.54.15l-.32.12v-.17l2.12-1.07.1.03v7.06c0 .5.24.72 1.13.72v.18M739.86 476.73l-.16-.33c.46-.28 1.06-.38 1.62-.38 2.08 0 3.1 1.48 3.1 4.3 0 2.43-1 6.9-4.87 6.9-1.62 0-2.24-1.27-2.24-2.67 0-2.33 1.84-4.7 4.25-4.7.53 0 1.24.2 1.58.8.07-.36.12-.75.12-1.15 0-1.45-.48-3-2.16-3-.46 0-.82.1-1.24.23m2.84 5.05c0-1.07-.56-1.42-1-1.42-1.64 0-3.06 2.46-3.06 4.75 0 .64.07 1.63 1.1 1.63 1.28 0 2.25-1.65 2.72-3.33.14-.55.24-1.1.24-1.62M748.5 479.55l-1.47 5.38c-.05.17-.07.35-.07.53 0 .63.33 1.1 1 1.1 1.77 0 2.93-1.88 3.46-3.36.13-.4.24-.8.24-1.22 0-1.23-1-1.08-1-1.8 0-.56.4-.7.9-.7.68 0 .76.85.76 1.37 0 1.64-.64 3.3-1.6 4.62-.7 1-1.98 1.72-3.2 1.72-1.05 0-1.9-.34-1.9-1.54 0-.35.04-.7.14-1.03l.95-3.46c.05-.13.1-.28.1-.42 0-.33-.73-.33-.94-.33v-.24c.85-.22 1.74-.33 2.57-.7M760.13 486.94h-6.6v-.78h6.6v.78M765.55 489.54h-3.27v-.18c.87-.04 1.12-.3 1.12-.94v-5.32c0-.4-.1-.58-.35-.58-.12 0-.32.06-.53.14l-.32.12v-.16l2.1-1.08.12.04v7.06c0 .5.24.72 1.13.72v.18M782.6 471.75c0 .75-.62 1.4-1.37 1.4-.77 0-1.42-.7-1.42-1.4s.66-1.4 1.43-1.4c.75 0 1.38.66 1.38 1.4M795.7 467.06l-2.07 7.6c-.07.24-.1.5-.1.76 0 .9.47 1.54 1.4 1.54 2.52 0 4.16-2.64 4.9-4.74.2-.56.35-1.14.35-1.73 0-1.73-1.42-1.52-1.42-2.55 0-.8.58-.98 1.26-.98.98 0 1.1 1.2 1.1 1.94 0 2.32-.9 4.67-2.27 6.54-1 1.4-2.8 2.43-4.52 2.43-1.5 0-2.7-.47-2.7-2.17 0-.5.06-.98.2-1.45l1.35-4.9c.05-.2.12-.4.12-.58 0-.47-1.03-.47-1.33-.47v-.35c1.2-.3 2.47-.47 3.64-.98M808.26 481.17h-4.56v-.24c1.22-.07 1.57-.42 1.57-1.32v-7.4c0-.56-.15-.8-.5-.8-.16 0-.44.07-.74.2l-.44.15v-.23l2.94-1.5.15.05v9.85c0 .7.32 1 1.56 1v.25M811.95 461.18h.6c-.44 2.47-2.23 3.55-5.3 3.55-3 0-3.45-.38-8.2-1.4-2.18-.47-3.77-.73-4.68-.73-2.2 0-3.62.73-4.06 2.13h-.6c.47-2.62 2.3-3.55 5.02-3.55 1.45 0 4.25.5 8.3 1.42 2.2.52 3.84.75 4.82.75 2.3 0 3.76-.75 4.1-2.17"/><path d="M676.02 546.53l138.4 76.14-18.64 33.87-138.4-76.14z" fill="#fff3d9"/><path d="M678.35 563.88l-5.3 5.48c-.18.17-.32.37-.44.6-.4.74-.3 1.5.48 1.95 2.14 1.18 4.75-.3 6.36-1.72.42-.4.83-.8 1.1-1.3.8-1.46-.5-1.95-.02-2.82.37-.67.95-.56 1.53-.24.83.45.37 1.52.02 2.15-1.07 1.96-2.94 3.53-4.96 4.48-1.5.72-3.5.75-4.96-.06-1.26-.7-2.07-1.66-1.28-3.1.23-.42.52-.8.86-1.13l3.43-3.52c.12-.14.28-.28.37-.44.2-.4-.66-.87-.9-1l.15-.3c1.17.3 2.3.75 3.54.86M687.27 580.34l-7.8-4.28.52-.92 7.78 4.28-.5.92M691.98 586.94l-3.86-2.12.1-.2c1.08.5 1.53.37 1.96-.4l3.45-6.28c.26-.47.25-.75-.04-.9-.15-.1-.43-.15-.73-.2l-.46-.06.12-.2 3.2.1.1.12-4.6 8.34c-.32.6-.18 1 .87 1.6l-.12.2M702.4 591.87l-1.8 1.5-5.46-3 .1-.17 3.93-1.27c2.08-.66 3.16-1.45 3.82-2.64.7-1.28.32-2.4-.87-3.05-1-.55-1.74-.37-3.05.7l-.26-.24c1.2-1.47 2.72-2.12 4.44-1.17 1.58.87 2 2.5 1.23 3.88-.62 1.1-1.74 1.86-3.7 2.5l-3.67 1.18 3.27 1.8c.6.32.97.33 1.86-.2M717.54 578.68l.57.3c-1.8 1.97-8-.2-11.96-2.38-3.93-2.16-9.5-5.64-15.15-9.96-2.62-2-7.82-5.17-9-5.82-2.86-1.57-9.75-4.54-11.1-3.6l-.58-.33c2-1.98 9.13.82 12.67 2.76 1.9 1.06 9.16 5.65 14.02 9.37 2.58 2 9.13 5.87 10.4 6.57 3.02 1.66 8.87 4.1 10.12 3.08M731.88 596.8l-11.64-6.42.72-1.3 11.64 6.4-.72 1.3m-2.17 3.96l-11.64-6.4.72-1.3 11.64 6.4-.7 1.3M739.6 603.6l29.3 16.14.66-1.2-29.32-16.12zM755.15 592.68l.02-.36c.52-.02 1.07.17 1.54.43 1.77.97 1.95 2.7.64 5.08-1.14 2.07-4.07 5.4-7.34 3.6-1.37-.76-1.3-2.13-.66-3.32 1.1-1.96 3.74-3.1 5.78-1.98.44.24.96.73.97 1.4.22-.27.44-.58.63-.92.67-1.23.98-2.75-.44-3.53-.4-.2-.74-.3-1.15-.4m.05 5.6c.5-.9.2-1.46-.2-1.66-1.37-.75-3.72.67-4.8 2.6-.28.54-.68 1.4.2 1.9 1.07.6 2.67-.36 3.84-1.57.38-.4.73-.82.96-1.25M761.15 599.1l-3.75 3.86c-.12.12-.22.26-.3.42-.3.53-.23 1.07.33 1.38 1.5.83 3.35-.2 4.5-1.22.3-.27.58-.57.77-.92.57-1.03-.35-1.38 0-2 .25-.47.66-.4 1.06-.16.6.32.27 1.07.02 1.52-.76 1.38-2.08 2.5-3.5 3.16-1.07.5-2.48.54-3.52-.03-.9-.5-1.46-1.16-.9-2.2.16-.28.36-.55.6-.78l2.42-2.5c.1-.1.2-.2.27-.3.15-.28-.46-.62-.65-.72l.12-.2c.83.2 1.63.53 2.5.6M765.64 610.78l-1.3 1.07-3.92-2.15.07-.12 2.82-.9c1.48-.5 2.26-1.05 2.73-1.9.5-.92.24-1.7-.6-2.18-.74-.4-1.26-.27-2.2.5l-.2-.18c.87-1.05 1.96-1.52 3.2-.84 1.13.62 1.42 1.8.88 2.78-.44.8-1.24 1.33-2.65 1.78l-2.63.85 2.35 1.28c.42.24.7.24 1.33-.14M741.54 609.32l.02-.36c.52-.02 1.07.17 1.54.43 1.76.96 1.94 2.7.63 5.07-1.14 2.07-4.07 5.4-7.34 3.6-1.38-.76-1.32-2.13-.67-3.32 1.1-1.97 3.74-3.1 5.78-2 .45.25.97.74.98 1.42.22-.28.45-.6.64-.93.67-1.23.98-2.75-.44-3.53-.38-.2-.73-.3-1.14-.38m.05 5.6c.5-.9.18-1.47-.2-1.67-1.38-.76-3.73.66-4.8 2.6-.3.53-.7 1.4.2 1.88 1.06.6 2.65-.35 3.83-1.56.38-.4.73-.82.96-1.25M747.54 615.73l-3.75 3.87c-.13.12-.23.26-.32.42-.3.53-.22 1.07.34 1.38 1.5.83 3.35-.2 4.5-1.22.3-.27.58-.57.77-.92.56-1.03-.36-1.38-.02-2 .26-.47.67-.4 1.07-.16.6.32.27 1.07.02 1.52-.76 1.38-2.08 2.5-3.5 3.17-1.07.5-2.48.52-3.52-.05-.9-.5-1.46-1.17-.9-2.2.16-.3.36-.56.6-.8l2.42-2.48c.1-.1.2-.2.27-.3.15-.3-.46-.63-.65-.73l.1-.2c.84.2 1.64.53 2.5.6M753.94 627.4l-5.58-3.07.37-.66 5.58 3.07-.36.66M757.32 632.13l-2.77-1.52.1-.14c.75.37 1.08.28 1.38-.28l2.48-4.5c.2-.34.2-.54-.02-.65-.1-.06-.3-.1-.52-.13l-.33-.05.08-.14 2.3.1.08.07-3.3 5.98c-.23.43-.13.72.62 1.13l-.08.15M780.06 625.02c-.35.63-1.2.9-1.82.55-.65-.36-.88-1.26-.55-1.85.3-.6 1.2-.9 1.84-.53.64.34.87 1.2.52 1.82M793.33 627.15l-5.3 5.48c-.17.16-.3.37-.43.58-.4.77-.32 1.54.47 1.97 2.13 1.18 4.75-.3 6.36-1.73.42-.38.83-.8 1.1-1.3.8-1.46-.5-1.95-.02-2.8.38-.7.96-.57 1.53-.26.83.46.38 1.52.03 2.15-1.08 1.96-2.95 3.53-4.96 4.48-1.5.73-3.5.76-4.97-.04-1.26-.7-2.07-1.66-1.28-3.1.23-.42.52-.8.85-1.13l3.43-3.52c.13-.12.3-.27.37-.43.22-.4-.65-.87-.9-1l.16-.3c1.17.3 2.3.75 3.54.86M799.56 643.65l-1.8 1.5-5.47-3 .08-.18 3.94-1.27c2.07-.66 3.16-1.44 3.82-2.63.7-1.27.33-2.4-.86-3.04-1-.56-1.74-.38-3.06.7l-.25-.25c1.2-1.47 2.72-2.12 4.44-1.18 1.58.87 2 2.5 1.24 3.88-.6 1.1-1.73 1.86-3.7 2.5l-3.66 1.18 3.27 1.8c.6.32.97.33 1.86-.2M809.83 629.74l.52.28c-1.53 1.9-3.56 1.96-6.15.54-2.55-1.4-2.75-1.93-6.28-5-1.64-1.43-2.87-2.38-3.64-2.8-1.85-1.03-3.4-1.08-4.43-.1l-.5-.28c1.6-2 3.6-1.93 5.9-.67 1.22.7 3.36 2.4 6.37 5.1 1.62 1.45 2.9 2.4 3.72 2.86 1.96 1.08 3.53 1.12 4.5.08"/><path d="M500 540h157.4v21.2H500z" fill="#fff3d9"/><path d="M504.72 546.88l-1.65 6.05c-.06.18-.08.4-.08.6 0 .7.37 1.2 1.1 1.2 2 0 3.3-2.08 3.9-3.75.15-.45.28-.9.28-1.37 0-1.37-1.13-1.2-1.13-2 0-.64.46-.8 1-.8.78 0 .87.95.87 1.55 0 1.83-.72 3.7-1.8 5.2-.8 1.1-2.22 1.92-3.6 1.92-1.18 0-2.15-.37-2.15-1.73 0-.4.06-.78.17-1.15l1.08-3.9c.03-.15.1-.32.1-.47 0-.37-.83-.37-1.07-.37v-.27c.97-.26 1.97-.4 2.9-.8M517.66 555.2h-7.3v-.87h7.3v.87M523.67 558.08h-3.62v-.2c.97-.05 1.24-.32 1.24-1.04v-5.9c0-.44-.12-.63-.4-.63-.13 0-.35.07-.6.16l-.34.14v-.2l2.34-1.18.12.04v7.82c0 .57.26.8 1.25.8v.2M526.58 541.95h.48c-.48 2.17-2.26 3.08-5.75 3.08-3.42 0-4.7-.34-10.13-1.23-2.48-.4-4.5-.6-5.54-.6-2.5 0-4.64.6-5.16 1.83H500c.58-2.25 2.94-3.08 6.04-3.08 1.66 0 5.06.44 9.7 1.24 2.5.42 5.13.64 6.24.64 2.64 0 4.2-.65 4.6-1.9M544.03 549.37H533.1v-1.23h10.93v1.23m0 3.7H533.1v-1.22h10.93v1.22M558.62 546.88l-1.65 6.05c-.05.18-.07.4-.07.6 0 .7.37 1.2 1.1 1.2 2 0 3.3-2.08 3.9-3.75.15-.45.28-.9.28-1.37 0-1.37-1.13-1.2-1.13-2 0-.64.46-.8 1-.8.78 0 .87.95.87 1.55 0 1.83-.72 3.7-1.8 5.2-.8 1.1-2.22 1.92-3.6 1.92-1.18 0-2.14-.37-2.14-1.73 0-.4.05-.78.16-1.15l1.08-3.9c.04-.15.1-.32.1-.47 0-.37-.82-.37-1.06-.37v-.27c.96-.26 1.96-.4 2.9-.8M571.57 555.2h-7.3v-.87h7.3v.87M577.57 558.08h-3.62v-.2c.97-.05 1.25-.32 1.25-1.04v-5.9c0-.44-.12-.63-.4-.63-.13 0-.35.07-.6.16l-.34.14v-.2l2.35-1.18.12.04v7.82c0 .57.27.8 1.25.8v.2M586 559.3h-3.63v-.2c.97-.05 1.25-.33 1.25-1.05v-5.88c0-.45-.12-.65-.4-.65-.13 0-.35.07-.6.16l-.34.13v-.17l2.35-1.2.1.05v7.82c0 .57.28.8 1.26.8v.2M592.7 542h.54c-.54 2.14-5.86 3.03-9.57 3.03-3.7 0-9.08-.3-14.85-1.17-2.67-.4-7.68-.63-8.8-.63-2.66 0-8.8.6-9.4 1.8h-.55c.65-2.2 6.9-3.03 10.22-3.03 1.8 0 8.84.43 13.8 1.2 2.66.4 8.9.6 10.1.6 2.83 0 8-.57 8.5-1.8M609.17 551.22h-4.84v4.84h-1.22v-4.84h-4.83V550h4.84v-4.84h1.23V550h4.84v1.22M622.76 546.88l-1.65 6.05c-.05.18-.06.4-.06.6 0 .7.37 1.2 1.1 1.2 2 0 3.3-2.08 3.9-3.75.15-.45.28-.9.28-1.37 0-1.37-1.13-1.2-1.13-2 0-.64.45-.8 1-.8.77 0 .86.95.86 1.55 0 1.83-.72 3.7-1.8 5.2-.8 1.1-2.22 1.92-3.6 1.92-1.18 0-2.14-.37-2.14-1.73 0-.4.05-.78.16-1.15l1.08-3.9c.03-.15.1-.32.1-.47 0-.37-.83-.37-1.07-.37v-.27c.96-.26 1.96-.4 2.9-.8M635.7 555.2h-7.3v-.87h7.3v.87M641.7 558.08h-3.6v-.2c.96-.05 1.23-.32 1.23-1.04v-5.9c0-.44-.1-.63-.4-.63-.12 0-.34.07-.58.16l-.35.14v-.2l2.34-1.18.12.04v7.82c0 .57.26.8 1.25.8v.2M651.18 557.5l-.7 1.8h-5.14v-.16l2.34-2.48c1.23-1.3 1.7-2.3 1.7-3.4 0-1.2-.7-1.85-1.82-1.85-.95 0-1.4.43-1.93 1.7l-.27-.06c.27-1.53 1.1-2.6 2.72-2.6 1.48 0 2.43 1 2.43 2.3 0 1.04-.5 2.02-1.67 3.25l-2.16 2.3h3.06c.56 0 .83-.14 1.26-.88M656.84 542h.54c-.54 2.14-5.86 3.03-9.57 3.03-3.68 0-9.08-.3-14.84-1.17-2.67-.4-7.68-.63-8.8-.63-2.66 0-8.8.6-9.4 1.8h-.55c.66-2.2 6.9-3.03 10.23-3.03 1.8 0 8.84.43 13.8 1.2 2.66.4 8.9.6 10.1.6 2.84 0 8-.57 8.5-1.8"/><path d="M720 737.78l124.23-65.96 19.54 36.8-124.23 65.96z" fill="#fff3d9"/><path d="M732.93 748.1l1.8 8.02c.05.25.16.5.28.73.44.82 1.2 1.2 2.05.73 2.32-1.23 2.54-4.45 2.2-6.75-.1-.6-.24-1.22-.52-1.76-.85-1.6-2.06-.7-2.56-1.65-.38-.73.06-1.18.68-1.5.9-.5 1.6.55 1.96 1.23 1.14 2.13 1.45 4.74 1.12 7.12-.24 1.78-1.4 3.6-2.98 4.45-1.38.73-2.72.9-3.55-.68-.25-.45-.43-.93-.53-1.43l-1.15-5.16c-.04-.2-.08-.42-.17-.6-.23-.43-1.18.08-1.45.22l-.18-.32c.97-.87 2.05-1.64 2.88-2.68M749.95 749.28c1.4 2.6 1.82 5.73-.66 7.05-2.6 1.38-4.94-1-6.26-3.5-1.42-2.68-1.7-5.7.75-7 1.98-1.07 4.5.34 6.15 3.45m-1.4.85c-1.7-3.15-3.3-4.58-4.64-3.87-1.25.67-.98 2.83.66 5.9 1.63 3.1 3.22 4.47 4.52 3.77 1.3-.68 1.05-2.8-.54-5.8M761.64 750.77l-4.2 2.22-.1-.24c1.08-.65 1.23-1.14.78-1.98l-3.6-6.8c-.3-.53-.55-.68-.86-.52-.16.1-.37.3-.6.55l-.32.38-.1-.2 1.97-2.84.17-.02 4.8 9.06c.36.65.8.76 1.95.16l.12.23M754.87 729.13l.56-.3c.77 2.8-.73 4.96-4.77 7.1-3.97 2.1-5.68 2.52-12.5 4.82-3.12 1.06-5.6 2.06-6.8 2.7-2.9 1.54-5 3.56-4.83 5.3l-.56.3c-.7-2.97 1.52-5.38 5.1-7.3 1.94-1 6.14-2.58 12.02-4.52 3.13-1.04 6.32-2.4 7.6-3.08 3.06-1.62 4.48-3.34 4.17-5.02M779.64 727L767 733.7l-.76-1.4 12.64-6.72.76 1.4m2.28 4.3L769.27 738l-.75-1.4 12.64-6.73.76 1.42M790.33 724.07l24.37-12.94-.68-1.3-24.37 12.95zM785.95 705.56l-.3-.22c.28-.5.78-.87 1.3-1.14 1.9-1.02 3.57-.15 4.94 2.43 1.18 2.25 2.44 6.85-1.1 8.74-1.5.8-2.7-.07-3.38-1.37-1.14-2.14-.6-5.2 1.6-6.38.5-.26 1.24-.44 1.86-.04-.12-.37-.27-.76-.46-1.12-.7-1.34-1.9-2.52-3.45-1.7-.4.22-.7.48-1.02.8m5.08 3.26c-.52-1-1.2-1.03-1.62-.82-1.5.8-1.6 3.76-.48 5.87.3.58.85 1.45 1.8.95 1.18-.62 1.27-2.62.87-4.4-.14-.57-.32-1.13-.57-1.6M795.27 703.94l1.28 5.67c.03.18.1.36.2.52.3.58.83.85 1.44.52 1.63-.87 1.78-3.15 1.54-4.77-.07-.43-.17-.87-.37-1.25-.6-1.12-1.45-.5-1.8-1.16-.28-.5.04-.84.48-1.07.63-.35 1.12.38 1.38.87.8 1.5 1.02 3.35.78 5.03-.16 1.26-.97 2.55-2.1 3.14-.97.52-1.92.64-2.5-.47-.17-.32-.3-.66-.37-1.02l-.8-3.65c-.04-.14-.07-.3-.14-.42-.17-.3-.83.05-1.03.15l-.12-.22c.68-.6 1.45-1.15 2.03-1.9M808.46 706.8l.2 1.8-4.25 2.26-.06-.13.84-3.1c.45-1.6.4-2.65-.08-3.57-.53-1-1.4-1.23-2.33-.73-.8.4-.98.96-.85 2.26l-.26.06c-.45-1.4-.22-2.66 1.1-3.37 1.24-.66 2.47-.24 3.05.84.46.86.47 1.9.05 3.43l-.78 2.87 2.54-1.35c.47-.25.64-.5.67-1.3M796.63 725.68l-.3-.22c.28-.5.78-.87 1.3-1.14 1.9-1.02 3.57-.15 4.94 2.43 1.2 2.25 2.45 6.85-1.1 8.74-1.5.78-2.68-.08-3.37-1.37-1.14-2.14-.6-5.2 1.6-6.4.5-.25 1.24-.42 1.86-.03-.12-.37-.27-.76-.46-1.12-.7-1.34-1.9-2.52-3.45-1.7-.4.22-.7.48-1.02.8m5.08 3.26c-.5-1-1.2-1.03-1.6-.8-1.5.78-1.62 3.74-.5 5.85.3.57.86 1.44 1.8.94 1.18-.62 1.27-2.62.87-4.4-.13-.56-.3-1.13-.56-1.6M805.95 724.06l1.28 5.67c.03.17.1.35.2.52.3.57.83.84 1.44.5 1.64-.86 1.8-3.14 1.55-4.76-.07-.44-.17-.88-.37-1.25-.6-1.13-1.45-.5-1.8-1.17-.28-.5.04-.84.48-1.07.64-.33 1.12.4 1.38.9.8 1.5 1.03 3.34.8 5.02-.17 1.26-1 2.55-2.1 3.15-.98.5-1.93.63-2.52-.48-.17-.33-.3-.67-.37-1.02l-.8-3.66c-.03-.14-.06-.3-.12-.42-.16-.3-.83.05-1.03.16l-.12-.23c.68-.62 1.45-1.16 2.03-1.9M818.05 724.8c1 1.87 1.3 4.1-.47 5.05-1.87 1-3.54-.72-4.5-2.5-1-1.93-1.2-4.1.55-5.03 1.43-.76 3.23.25 4.42 2.48m-1.02.6c-1.2-2.25-2.36-3.27-3.3-2.77-.92.48-.73 2.03.45 4.24 1.17 2.2 2.3 3.2 3.25 2.7.92-.5.75-2-.4-4.16M826.07 704.18c.37.7.1 1.6-.58 1.97-.72.37-1.66.05-2-.6-.34-.64-.1-1.6.62-1.98.7-.37 1.6-.07 1.95.6M835.83 693.47l1.8 8.02c.05.24.16.48.28.72.45.82 1.2 1.2 2.05.73 2.32-1.23 2.54-4.45 2.2-6.75-.1-.6-.24-1.22-.52-1.76-.85-1.6-2.05-.7-2.55-1.64-.4-.73.05-1.2.68-1.52.9-.48 1.6.56 1.95 1.24 1.14 2.13 1.45 4.74 1.12 7.12-.24 1.78-1.4 3.6-2.98 4.45-1.37.72-2.72.88-3.55-.7-.25-.44-.42-.92-.52-1.42l-1.15-5.17c-.05-.2-.1-.4-.18-.6-.23-.4-1.17.1-1.45.23l-.17-.32c.97-.86 2.05-1.63 2.87-2.67M854.38 697.6l.28 2.52-5.93 3.15-.1-.2 1.18-4.3c.64-2.25.57-3.7-.1-4.98-.74-1.4-1.97-1.72-3.26-1.03-1.1.58-1.36 1.34-1.18 3.15l-.36.1c-.62-1.95-.3-3.7 1.55-4.7 1.72-.9 3.43-.32 4.23 1.18.64 1.2.65 2.65.06 4.8l-1.1 4 3.56-1.9c.64-.33.87-.66.92-1.78M847.9 680.13l.56-.3c.8 2.5-.33 4.36-3.14 5.85-2.77 1.47-3.36 1.35-8.22 2.72-2.25.64-3.83 1.18-4.67 1.62-2.02 1.07-2.98 2.43-2.7 3.94l-.56.3c-.85-2.64.4-4.4 2.88-5.72 1.34-.7 4.15-1.62 8.34-2.75 2.26-.6 3.88-1.2 4.78-1.67 2.13-1.13 3.1-2.52 2.72-4"/><path d="M772.34 793h144.5v44.4h-144.5z" fill="#fff3d9"/><path d="M779.1 810.2l-2.23 8.13c-.08.25-.1.52-.1.8 0 .95.5 1.65 1.5 1.65 2.7 0 4.44-2.83 5.24-5.07.2-.6.4-1.22.4-1.84 0-1.85-1.54-1.63-1.54-2.72 0-.85.63-1.05 1.35-1.05 1.06 0 1.2 1.26 1.2 2.06 0 2.47-1 5-2.44 7-1.07 1.5-3 2.6-4.84 2.6-1.6 0-2.9-.5-2.9-2.33 0-.53.08-1.05.23-1.55l1.44-5.25c.04-.2.12-.42.12-.62 0-.5-1.1-.5-1.42-.5v-.36c1.3-.33 2.64-.5 3.9-1.05M793.97 819.46c0 3.04-1.1 6.08-4 6.08-3 0-3.98-3.3-3.98-6.2 0-3.1 1.2-6 4.05-6 2.32 0 3.92 2.5 3.92 6.12m-1.7.1c0-3.68-.77-5.75-2.32-5.75-1.47 0-2.26 2.1-2.26 5.68 0 3.58.76 5.6 2.28 5.6 1.5 0 2.3-2.03 2.3-5.53M805.28 824.02l-.96 2.42h-6.9v-.22l3.14-3.33c1.66-1.76 2.3-3.1 2.3-4.6 0-1.6-.96-2.5-2.46-2.5-1.27 0-1.9.57-2.6 2.3l-.37-.1c.38-2.05 1.5-3.5 3.68-3.5 2 0 3.27 1.36 3.27 3.1 0 1.4-.68 2.73-2.26 4.4l-2.9 3.1h4.13c.74 0 1.12-.2 1.7-1.2M808.14 803.54h.65c-.66 2.92-3.06 4.15-7.75 4.15-4.62 0-6.37-.46-13.66-1.66-3.36-.55-6.08-.82-7.48-.82-3.38 0-6.25.82-6.95 2.47h-.65c.8-3.03 3.97-4.16 8.15-4.16 2.24 0 6.82.6 13.1 1.68 3.33.57 6.88.87 8.38.87 3.54 0 5.67-.88 6.2-2.56M831.65 813.53h-14.72v-1.65h14.72v1.65m0 5h-14.72v-1.65h14.72v1.65M842.76 816.03h28.35v-1.5h-28.34zM847.7 796.95l-.17-.35c.5-.3 1.13-.4 1.73-.4 2.22 0 3.32 1.58 3.32 4.58 0 2.62-1.08 7.4-5.2 7.4-1.74 0-2.4-1.36-2.4-2.86 0-2.5 1.95-5 4.53-5 .57 0 1.33.18 1.7.83.07-.38.13-.8.13-1.23 0-1.56-.52-3.2-2.32-3.2-.46 0-.85.1-1.3.23m3.04 5.4c0-1.14-.6-1.5-1.07-1.5-1.75 0-3.27 2.62-3.27 5.07 0 .67.07 1.73 1.18 1.73 1.36 0 2.4-1.76 2.9-3.56.16-.6.26-1.2.26-1.75M856.94 799.97l-1.57 5.76c-.05.17-.07.37-.07.56 0 .66.35 1.16 1.06 1.16 1.9 0 3.14-2 3.7-3.6.15-.4.27-.85.27-1.3 0-1.3-1.08-1.14-1.08-1.92 0-.6.45-.74.96-.74.75 0 .84.9.84 1.47 0 1.74-.7 3.53-1.7 4.94-.77 1.07-2.13 1.85-3.44 1.85-1.13 0-2.05-.36-2.05-1.65 0-.37.05-.74.16-1.1l1.03-3.7c.04-.14.1-.3.1-.44 0-.35-.78-.35-1-.35v-.26c.9-.23 1.86-.35 2.74-.74M862.3 804.2l-.2-.06c.37-1.2 1.17-2.05 2.5-2.05 1.16 0 1.96.68 1.96 1.72 0 .6-.33 1.24-1.18 1.75.56.24.8.4 1.05.67.36.4.56.98.56 1.63 0 .68-.22 1.3-.6 1.78-.6.8-1.8 1.18-2.93 1.18-.92 0-1.42-.27-1.42-.73 0-.26.23-.45.52-.45.22 0 .42.07.77.33.47.33.74.4 1.1.4.93 0 1.64-.87 1.64-1.95 0-.96-.44-1.58-1.32-1.83-.28-.1-.57-.13-1.3-.13v-.18c.5-.17.82-.3 1.07-.46.62-.36 1.03-.93 1.03-1.7 0-.86-.53-1.3-1.37-1.3-.8 0-1.38.4-1.9 1.35M847.7 820.53l-.17-.35c.5-.3 1.13-.4 1.73-.4 2.22 0 3.32 1.58 3.32 4.58 0 2.62-1.08 7.4-5.2 7.4-1.74 0-2.4-1.36-2.4-2.86 0-2.5 1.95-5 4.53-5 .57 0 1.33.18 1.7.83.07-.38.13-.8.13-1.23 0-1.56-.52-3.2-2.32-3.2-.46 0-.85.1-1.3.23m3.04 5.4c0-1.14-.6-1.5-1.07-1.5-1.75 0-3.27 2.62-3.27 5.07 0 .67.07 1.73 1.18 1.73 1.36 0 2.4-1.76 2.9-3.56.16-.6.26-1.2.26-1.74M856.94 823.55l-1.57 5.76c-.05.18-.07.38-.07.57 0 .67.35 1.17 1.06 1.17 1.9 0 3.14-2 3.7-3.6.15-.4.27-.85.27-1.3 0-1.3-1.08-1.14-1.08-1.92 0-.6.45-.74.96-.74.75 0 .84.9.84 1.47 0 1.74-.7 3.53-1.7 4.94-.77 1.05-2.13 1.83-3.44 1.83-1.13 0-2.05-.36-2.05-1.65 0-.37.05-.74.16-1.1l1.03-3.7c.04-.14.1-.3.1-.44 0-.35-.78-.35-1-.35v-.28c.9-.23 1.86-.35 2.74-.74M867.56 830.05c0 2.18-.8 4.35-2.86 4.35-2.17 0-2.86-2.35-2.86-4.43 0-2.24.87-4.3 2.9-4.3 1.67 0 2.82 1.78 2.82 4.38m-1.2.06c0-2.62-.57-4.1-1.7-4.1-1.04 0-1.6 1.5-1.6 4.06 0 2.57.55 4.02 1.64 4.02 1.08 0 1.65-1.46 1.65-3.97M884.78 815.2c0 .8-.68 1.5-1.48 1.5-.82 0-1.52-.74-1.52-1.5 0-.74.7-1.5 1.52-1.5.8 0 1.48.7 1.48 1.5M898.8 810.2l-2.23 8.13c-.08.25-.1.52-.1.8 0 .95.5 1.65 1.5 1.65 2.7 0 4.44-2.83 5.24-5.07.2-.6.4-1.22.4-1.84 0-1.85-1.54-1.63-1.54-2.72 0-.85.63-1.05 1.35-1.05 1.06 0 1.18 1.26 1.18 2.06 0 2.47-.97 5-2.42 7-1.07 1.5-3 2.6-4.84 2.6-1.6 0-2.9-.5-2.9-2.33 0-.53.07-1.05.22-1.55l1.45-5.25c.04-.2.12-.42.12-.62 0-.5-1.1-.5-1.43-.5v-.36c1.3-.33 2.64-.5 3.9-1.05M906.34 816.28l-.28-.07c.5-1.67 1.62-2.85 3.46-2.85 1.64 0 2.76.97 2.76 2.42 0 .85-.46 1.73-1.65 2.44.78.34 1.1.55 1.47.94.5.55.78 1.36.78 2.28 0 .94-.3 1.8-.82 2.47-.84 1.12-2.52 1.64-4.1 1.64-1.28 0-1.97-.38-1.97-1 0-.38.3-.65.7-.65.3 0 .6.1 1.1.45.64.46 1 .55 1.5.55 1.32 0 2.3-1.2 2.3-2.7 0-1.34-.6-2.2-1.83-2.56-.4-.13-.8-.18-1.8-.18v-.25c.67-.22 1.13-.4 1.48-.62.87-.5 1.43-1.3 1.43-2.37 0-1.2-.74-1.8-1.9-1.8-1.1 0-1.9.57-2.64 1.88M916.17 803.9h.65c-.47 2.64-2.4 3.8-5.67 3.8-3.22 0-3.7-.4-8.76-1.5-2.36-.5-4.06-.78-5.03-.78-2.35 0-3.88.77-4.35 2.27h-.65c.5-2.8 2.47-3.8 5.37-3.8 1.55 0 4.55.52 8.9 1.52 2.34.54 4.1.8 5.14.8 2.47 0 4.02-.8 4.4-2.33"/><path d="M1437 629.34h97.1v26.63H1437z" fill="#fff" fill-opacity="0"/><path d="M1443.5 637.85h.97c1.65 0 1.52-2.02 2.64-3.7.82-1.23 1.95-2.35 3.94-2.35 1.3 0 2.07.63 2.07 1.54 0 .74-.54 1.05-1.07 1.05-.73 0-.9-.3-.9-.66 0-.37.22-.76.22-.97 0-.13-.07-.2-.4-.2-1.3 0-2.32 1.4-2.87 3.44l-.5 1.85h2.1l-.32 1h-2l-2.05 8c-.18.7-.4 1.7-.78 2.67-.86 2.18-2.28 4.67-4.58 4.67-1.26 0-1.9-.64-1.9-1.43 0-.63.38-1.28 1.14-1.28.7 0 .97.46.97.85 0 .5-.42.53-.42.84 0 .15.15.23.4.23 1.7 0 2.48-4.14 2.87-5.63l2.28-8.96h-2.02M1461.07 653.5l-.32.42c-4.13-2.35-6.38-6.78-6.38-11.23 0-4.85 2.27-8.62 6.46-11.1l.24.4c-3.64 3.12-4.45 5.56-4.45 10.6 0 4.88.78 7.84 4.45 10.9M1469.84 641.75l1.18-1.8c.68-1.06 1.6-2.2 2.9-2.2.84 0 1.3.3 1.3.86 0 .5-.35 1.1-1.03 1.1-.6 0-.72-.23-1.17-.23-.78 0-1.07.42-1.44 1l-1.45 2.22c.8 1.6 1.4 5.15 2.57 5.15.42 0 1.05-.37 1.6-1.5l.36.27c-.3.4-1.5 2.9-3 2.9-1.08 0-1.58-1.07-1.92-2l-1.05-2.97-1.64 2.57c-.83 1.28-1.6 2.4-3.06 2.4-.94 0-1.36-.65-1.36-1.23 0-.43.34-.98 1-.98.68 0 .57.53 1.23.53.3 0 1-.26 1.83-1.55l1.7-2.64-.86-2.4c-.45-1.27-1.13-2.34-2.57-2.34-.34 0-.73.05-1 .16l-.07-.47 3.45-.86c1.15.63 1.65 1.7 1.97 2.57M1483.55 653.23h-5.1v-.28c1.36-.07 1.75-.46 1.75-1.48v-8.3c0-.64-.17-.92-.56-.92-.18 0-.5.1-.83.23l-.5.18v-.26l3.33-1.68.16.05v11.06c0 .8.36 1.12 1.75 1.12v.28M1490.32 652.98l-.27-.5c1.45-.97 2.18-1.93 2.18-2.8 0-.18-.16-.34-.37-.34-.2 0-.47.1-.76.1-.97 0-1.52-.44-1.52-1.33 0-.88.63-1.48 1.57-1.48 1.18 0 2.1.9 2.1 2.28 0 1.57-1.13 3.22-2.93 4.08M1507.05 641.75l1.18-1.8c.68-1.06 1.6-2.2 2.9-2.2.84 0 1.3.3 1.3.86 0 .5-.35 1.1-1.03 1.1-.58 0-.7-.23-1.16-.23-.78 0-1.07.42-1.44 1l-1.44 2.22c.8 1.6 1.4 5.15 2.57 5.15.42 0 1.05-.37 1.6-1.5l.36.27c-.32.4-1.5 2.9-3.02 2.9-1.07 0-1.57-1.07-1.9-2l-1.06-2.97-1.65 2.57c-.83 1.28-1.6 2.4-3.06 2.4-.93 0-1.35-.65-1.35-1.23 0-.43.34-.98 1-.98.67 0 .57.53 1.22.53.32 0 1-.26 1.84-1.55l1.7-2.64-.86-2.4c-.44-1.27-1.12-2.34-2.56-2.34-.34 0-.73.05-1 .16l-.07-.47 3.46-.86c1.15.63 1.65 1.7 1.97 2.57M1522.24 650.7l-1 2.53H1514V653l3.3-3.5c1.74-1.82 2.4-3.23 2.4-4.8 0-1.7-1-2.6-2.57-2.6-1.33 0-1.98.58-2.72 2.4l-.38-.1c.4-2.16 1.57-3.68 3.85-3.68 2.1 0 3.43 1.42 3.43 3.26 0 1.46-.73 2.85-2.37 4.6l-3.06 3.25h4.33c.78 0 1.17-.2 1.78-1.25M1526.1 632l.33-.4c4 2.4 6.38 6.77 6.38 11.22 0 4.85-2.3 8.56-6.45 11.1l-.24-.42c3.73-3.06 4.46-5.52 4.46-10.6 0-4.9-.65-7.9-4.45-10.9"/><path d="M772.34 934.76h383v26.63h-383z" fill="#fff" fill-opacity="0"/><path d="M778.83 943.26h.97c1.65 0 1.52-2 2.64-3.7.8-1.22 1.94-2.34 3.93-2.34 1.3 0 2.07.62 2.07 1.54 0 .73-.55 1.05-1.07 1.05-.74 0-.92-.28-.92-.65 0-.36.23-.76.23-.97 0-.13-.07-.2-.4-.2-1.3 0-2.32 1.4-2.87 3.45l-.5 1.83h2.1l-.3 1h-2l-2.06 8c-.2.72-.4 1.7-.8 2.68-.85 2.18-2.27 4.66-4.57 4.66-1.26 0-1.9-.63-1.9-1.4 0-.64.38-1.3 1.14-1.3.72 0 .98.48.98.87 0 .5-.42.52-.42.84 0 .17.16.24.4.24 1.7 0 2.48-4.13 2.87-5.63l2.28-8.94h-2M796.4 958.92l-.3.42c-4.15-2.36-6.4-6.78-6.4-11.23 0-4.84 2.27-8.6 6.46-11.1l.24.42c-3.64 3.12-4.45 5.56-4.45 10.6 0 4.88.78 7.84 4.45 10.9M805.17 947.17l1.18-1.8c.68-1.06 1.6-2.2 2.9-2.2.84 0 1.3.3 1.3.85 0 .5-.35 1.1-1.03 1.1-.58 0-.7-.23-1.15-.23-.8 0-1.08.4-1.44.98l-1.44 2.23c.77 1.63 1.37 5.17 2.55 5.17.42 0 1.05-.37 1.6-1.5l.37.27c-.32.4-1.5 2.9-3.02 2.9-1.07 0-1.57-1.07-1.9-2l-1.05-2.97-1.65 2.56c-.84 1.3-1.6 2.4-3.07 2.4-.94 0-1.36-.64-1.36-1.22 0-.4.34-.96 1-.96.68 0 .57.53 1.23.53.3 0 1-.27 1.83-1.55l1.7-2.64-.86-2.4c-.45-1.27-1.13-2.34-2.57-2.34-.34 0-.73.05-1 .15l-.07-.48 3.45-.86c1.16.63 1.65 1.7 1.97 2.57M818.88 958.65h-5.1v-.28c1.36-.07 1.75-.46 1.75-1.48v-8.32c0-.63-.17-.9-.55-.9-.2 0-.5.08-.84.2l-.5.2v-.26l3.32-1.68.16.05v11.04c0 .8.37 1.13 1.76 1.13v.28M825.65 958.4l-.26-.5c1.43-.97 2.16-1.94 2.16-2.8 0-.18-.16-.34-.37-.34-.22 0-.48.1-.77.1-.97 0-1.52-.44-1.52-1.33 0-.9.64-1.5 1.6-1.5 1.16 0 2.08.92 2.08 2.28 0 1.58-1.13 3.23-2.93 4.1M842.38 947.17l1.18-1.8c.68-1.06 1.6-2.2 2.9-2.2.84 0 1.3.3 1.3.85 0 .5-.35 1.1-1.03 1.1-.58 0-.7-.23-1.16-.23-.78 0-1.07.4-1.44.98l-1.44 2.23c.78 1.63 1.38 5.17 2.56 5.17.42 0 1.05-.37 1.6-1.5l.36.27c-.3.4-1.5 2.9-3 2.9-1.08 0-1.58-1.07-1.92-2l-1.05-2.97-1.65 2.56c-.83 1.3-1.6 2.4-3.06 2.4-.94 0-1.36-.64-1.36-1.22 0-.4.34-.96 1-.96.68 0 .57.53 1.23.53.32 0 1-.27 1.84-1.55l1.7-2.64-.86-2.4c-.45-1.27-1.13-2.34-2.57-2.34-.33 0-.72.05-1 .15l-.06-.48 3.45-.86c1.14.63 1.64 1.7 1.96 2.57M857.57 956.1l-1 2.55h-7.24v-.22l3.3-3.5c1.74-1.83 2.4-3.24 2.4-4.8 0-1.7-1-2.62-2.57-2.62-1.33 0-1.98.6-2.72 2.4l-.4-.08c.4-2.17 1.6-3.68 3.86-3.68 2.1 0 3.43 1.42 3.43 3.25 0 1.46-.72 2.84-2.37 4.58l-3.06 3.26h4.34c.77 0 1.16-.2 1.77-1.24M861.44 937.42l.32-.4c4 2.4 6.4 6.77 6.4 11.22 0 4.84-2.32 8.56-6.48 11.1l-.24-.42c3.72-3.06 4.45-5.52 4.45-10.6 0-4.9-.66-7.9-4.46-10.9M893.4 946.33h-15.43v-1.73h15.42v1.73m0 5.23h-15.43v-1.72h15.42v1.72M909.2 937.22l-3.87 15.47s-.03.1-.03.28c0 .18.1.34.32.34.6 0 1.38-1.02 1.62-1.44l.42.3c-.9 1.06-2.02 2.8-3.54 2.8-.78 0-1.02-.7-1.02-1.35 0-.3.08-.68.16-.94l3.35-13.36c.1-.34.1-.55.1-.63 0-.3-.22-.57-.82-.57-.18 0-.5.05-.7.08l-.1-.38M922.5 952.2l-.13.15c-.73.9-2 2.57-3.35 2.57-.83 0-1.07-.6-1.07-1.2 0-.35.1-.77.18-1.06l1.5-5.78c.05-.2.18-.74.18-1.1 0-.5-.15-1-.62-1-1 0-2.64 2.25-3.46 3.5-.94 1.4-1.62 2.63-1.78 3.18l-.86 3.25h-2.02l2.5-9.8c0-.46-.1-.82-.8-.82-.26 0-.54.05-.73.07l-.05-.4 4.16-.6-1.33 4.96h.1c.12 0 1.4-1.82 1.45-1.9 1.05-1.3 2.62-3.04 4.2-3.04 1.14 0 1.46.76 1.46 1.62 0 .66-.15 1.3-.28 1.84l-1.54 6.04c-.03.06-.03.14-.03.27.03.15.1.36.4.36.62 0 1.25-.95 1.62-1.4M931.25 958.92l-.3.42c-4.15-2.36-6.4-6.78-6.4-11.23 0-4.84 2.28-8.6 6.47-11.1l.23.42c-3.64 3.12-4.45 5.56-4.45 10.6 0 4.88.8 7.84 4.45 10.9M940.02 947.17l1.18-1.8c.68-1.06 1.6-2.2 2.9-2.2.85 0 1.3.3 1.3.85 0 .5-.35 1.1-1.03 1.1-.58 0-.7-.23-1.15-.23-.8 0-1.08.4-1.44.98l-1.44 2.23c.78 1.63 1.4 5.17 2.56 5.17.42 0 1.05-.37 1.6-1.5l.37.27c-.32.4-1.5 2.9-3 2.9-1.1 0-1.58-1.07-1.92-2l-1.05-2.97-1.65 2.56c-.84 1.3-1.6 2.4-3.07 2.4-.94 0-1.36-.64-1.36-1.22 0-.4.34-.96 1-.96.68 0 .57.53 1.23.53.3 0 1-.27 1.83-1.55l1.7-2.64-.86-2.4c-.45-1.27-1.13-2.34-2.57-2.34-.34 0-.73.05-1 .15l-.07-.48 3.46-.86c1.15.63 1.65 1.7 1.96 2.57M953.73 958.65h-5.1v-.28c1.36-.07 1.75-.46 1.75-1.48v-8.32c0-.63-.16-.9-.55-.9-.2 0-.5.08-.84.2l-.5.2v-.26l3.3-1.68.18.05v11.04c0 .8.37 1.13 1.75 1.13v.28M959.1 937.42l.3-.4c4 2.4 6.4 6.77 6.4 11.22 0 4.84-2.3 8.56-6.48 11.1l-.23-.42c3.7-3.06 4.44-5.52 4.44-10.6 0-4.9-.66-7.9-4.45-10.9M989.54 948.95h-6.84v6.83h-1.72v-6.83h-6.84v-1.73h6.84v-6.84h1.72v6.84h6.84v1.73M1004.62 947.17l1.18-1.8c.68-1.06 1.6-2.2 2.9-2.2.84 0 1.3.3 1.3.85 0 .5-.35 1.1-1.03 1.1-.58 0-.7-.23-1.15-.23-.8 0-1.08.4-1.44.98l-1.44 2.23c.78 1.63 1.38 5.17 2.56 5.17.42 0 1.05-.37 1.6-1.5l.37.27c-.32.4-1.5 2.9-3.02 2.9-1.07 0-1.57-1.07-1.9-2l-1.05-2.97-1.65 2.56c-.84 1.3-1.6 2.4-3.07 2.4-.94 0-1.36-.64-1.36-1.22 0-.4.34-.96 1-.96.68 0 .57.53 1.23.53.3 0 1-.27 1.83-1.55l1.7-2.64-.86-2.4c-.45-1.27-1.13-2.34-2.57-2.34-.34 0-.73.05-1 .15l-.07-.48 3.45-.86c1.16.63 1.65 1.7 1.97 2.57M1018.33 958.65h-5.1v-.28c1.36-.07 1.75-.46 1.75-1.48v-8.32c0-.63-.17-.9-.55-.9-.2 0-.5.08-.84.2l-.5.2v-.26l3.3-1.68.17.05v11.04c0 .8.37 1.13 1.76 1.13v.28M1030.94 947.17l1.18-1.8c.68-1.06 1.6-2.2 2.9-2.2.84 0 1.3.3 1.3.85 0 .5-.36 1.1-1.04 1.1-.57 0-.7-.23-1.15-.23-.78 0-1.07.4-1.44.98l-1.45 2.23c.8 1.63 1.4 5.17 2.57 5.17.42 0 1.05-.37 1.6-1.5l.36.27c-.3.4-1.5 2.9-3 2.9-1.08 0-1.58-1.07-1.92-2l-1.05-2.97-1.64 2.56c-.84 1.3-1.6 2.4-3.06 2.4-.94 0-1.36-.64-1.36-1.22 0-.4.34-.96 1-.96.67 0 .57.53 1.22.53.32 0 1-.27 1.84-1.55l1.7-2.64-.87-2.4c-.44-1.27-1.12-2.34-2.56-2.34-.34 0-.74.05-1 .15l-.08-.48 3.45-.86c1.15.63 1.65 1.7 1.96 2.57M1046.13 956.1l-1 2.55h-7.24v-.22l3.3-3.5c1.73-1.83 2.4-3.24 2.4-4.8 0-1.7-1-2.62-2.58-2.62-1.33 0-1.98.6-2.72 2.4l-.4-.08c.4-2.17 1.58-3.68 3.86-3.68 2.1 0 3.42 1.42 3.42 3.25 0 1.46-.72 2.84-2.36 4.58l-3.06 3.26h4.33c.77 0 1.16-.2 1.77-1.24M1071.3 948.95h-14.57v-1.73h14.58v1.73M1089.04 943.16l-.63 3.82h-.38c0-1.67-.94-3.14-2.4-3.14-.66 0-1.34.45-1.34 1.52 0 1.44 3.5 3.85 3.5 6.34 0 1.62-1.25 3.27-3.53 3.27-.9 0-2.57-.53-2.88-.53-.24 0-.47.1-.8.55h-.43l.65-4.1h.4c0 1.66 1.1 3.4 2.74 3.4 1.54 0 1.9-1.3 1.9-2.32 0-2.14-3.4-3.45-3.4-6.02 0-2.07 1.55-2.8 3-2.8 1.1 0 1.64.52 2.4.52.3 0 .57-.26.78-.52h.42M1097.1 939.9c0 .67-.57 1.2-1.25 1.2-.76 0-1.26-.53-1.26-1.2 0-.67.5-1.32 1.25-1.32.68 0 1.26.65 1.26 1.3m-.78 3.28l-2.4 9.53c-.03.15-.03.25-.03.36 0 .18.14.26.33.26.57 0 .73-.32 1.67-1.34l.34.27c-.9 1.17-2.22 2.74-3.5 2.74-.74 0-1.05-.5-1.05-1.2 0-.32 0-.82 2.05-8.86.03-.05.06-.24.06-.3 0-.46-.2-.6-.8-.6-.24 0-.55.06-.74.1l-.08-.4M1110.75 952.2l-.13.15c-.74.9-2 2.57-3.35 2.57-.84 0-1.08-.6-1.08-1.2 0-.35.1-.77.18-1.06l1.5-5.78c.04-.2.17-.74.17-1.1 0-.5-.16-1-.63-1-1 0-2.64 2.25-3.45 3.5-.95 1.4-1.63 2.63-1.78 3.18l-.88 3.25h-2l2.47-9.8c0-.46-.08-.82-.8-.82-.25 0-.54.05-.73.07l-.05-.4 4.17-.6-1.35 4.96h.08c.13 0 1.4-1.82 1.47-1.9 1.04-1.3 2.6-3.04 4.2-3.04 1.14 0 1.45.76 1.45 1.62 0 .66-.16 1.3-.3 1.84l-1.53 6.04c-.03.06-.03.14-.03.27.02.15.1.36.4.36.6 0 1.24-.95 1.6-1.4M1119.52 958.92l-.3.42c-4.15-2.36-6.4-6.78-6.4-11.23 0-4.84 2.28-8.6 6.47-11.1l.22.42c-3.64 3.12-4.45 5.56-4.45 10.6 0 4.88.78 7.84 4.45 10.9M1128.27 947.17l1.17-1.8c.7-1.06 1.6-2.2 2.9-2.2.85 0 1.3.3 1.3.85 0 .5-.35 1.1-1.03 1.1-.56 0-.7-.23-1.14-.23-.78 0-1.07.4-1.44.98l-1.44 2.23c.8 1.63 1.4 5.17 2.57 5.17.42 0 1.04-.37 1.6-1.5l.36.27c-.3.4-1.48 2.9-3 2.9-1.07 0-1.57-1.07-1.9-2l-1.06-2.97-1.65 2.56c-.85 1.3-1.6 2.4-3.07 2.4-.95 0-1.36-.64-1.36-1.22 0-.4.34-.96 1-.96.67 0 .57.53 1.22.53.3 0 1-.27 1.82-1.55l1.7-2.64-.86-2.4c-.44-1.27-1.12-2.34-2.56-2.34-.34 0-.74.05-1 .15l-.08-.48 3.46-.86c1.15.63 1.65 1.7 1.96 2.57M1143.46 956.1l-1 2.55h-7.24v-.22l3.3-3.5c1.74-1.83 2.4-3.24 2.4-4.8 0-1.7-1-2.62-2.57-2.62-1.33 0-1.98.6-2.72 2.4l-.4-.08c.4-2.17 1.58-3.68 3.86-3.68 2.08 0 3.4 1.42 3.4 3.25 0 1.46-.7 2.84-2.36 4.58l-3.05 3.26h4.32c.78 0 1.17-.2 1.78-1.24M1147.36 937.42l.3-.4c4.02 2.4 6.4 6.77 6.4 11.22 0 4.84-2.3 8.56-6.47 11.1l-.24-.42c3.7-3.06 4.45-5.52 4.45-10.6 0-4.9-.65-7.9-4.44-10.9"/><path d="M500 806.1h128.65v23.48H500z" fill="#fff3d9"/><path d="M505.27 813.72l-1.83 6.7c-.06.2-.08.43-.08.65 0 .78.4 1.36 1.23 1.36 2.2 0 3.64-2.32 4.3-4.17.16-.5.3-1 .3-1.52 0-1.52-1.25-1.33-1.25-2.24 0-.7.52-.86 1.1-.86.88 0 .98 1.05.98 1.7 0 2.04-.8 4.1-2 5.75-.88 1.22-2.46 2.13-3.98 2.13-1.3 0-2.38-.4-2.38-1.9 0-.44.06-.87.2-1.3l1.18-4.3c.04-.16.1-.35.1-.5 0-.42-.9-.42-1.17-.42v-.3c1.07-.26 2.18-.4 3.2-.86M517.5 821.34c0 2.5-.92 5-3.3 5-2.47 0-3.27-2.7-3.27-5.08 0-2.57 1-4.94 3.34-4.94 1.9 0 3.22 2.05 3.22 5.02m-1.4.08c0-3.02-.64-4.72-1.9-4.72-1.22 0-1.87 1.7-1.87 4.66 0 2.94.64 4.6 1.88 4.6 1.25 0 1.9-1.67 1.9-4.54M519.55 808.55h.54c-.4 2.18-1.98 3.12-4.67 3.12-2.65 0-3.04-.33-7.2-1.23-1.94-.4-3.33-.64-4.13-.64-1.93 0-3.2.64-3.58 1.87H500c.4-2.3 2.02-3.12 4.4-3.12 1.28 0 3.74.43 7.3 1.25 1.94.45 3.38.66 4.24.66 2.03 0 3.3-.66 3.6-1.9M538.87 816.47h-12.1v-1.35h12.1v1.35m0 4.1h-12.1v-1.35h12.1v1.36M551.08 813.72l-1.82 6.7c-.07.2-.1.43-.1.65 0 .78.42 1.36 1.25 1.36 2.22 0 3.66-2.32 4.32-4.17.16-.5.3-1 .3-1.52 0-1.52-1.25-1.33-1.25-2.24 0-.7.52-.86 1.1-.86.87 0 .98 1.05.98 1.7 0 2.04-.8 4.1-2 5.75-.88 1.22-2.46 2.13-3.98 2.13-1.3 0-2.38-.4-2.38-1.9 0-.44.05-.87.18-1.3l1.2-4.3c.03-.16.1-.35.1-.5 0-.42-.9-.42-1.18-.42v-.3c1.07-.26 2.17-.4 3.2-.86M563.3 821.34c0 2.5-.9 5-3.27 5-2.48 0-3.28-2.7-3.28-5.08 0-2.57 1-4.94 3.34-4.94 1.9 0 3.2 2.05 3.2 5.02m-1.38.08c0-3.02-.64-4.72-1.92-4.72-1.2 0-1.85 1.7-1.85 4.66 0 2.94.63 4.6 1.88 4.6 1.24 0 1.9-1.67 1.9-4.54M571.44 827.08h-4v-.22c1.07-.06 1.37-.36 1.37-1.16v-6.52c0-.5-.12-.7-.42-.7-.15 0-.4.06-.66.16l-.4.15v-.2l2.6-1.33.14.04v8.67c0 .63.3.9 1.38.9v.2M574.96 808.26h.53c-.54 2.4-2.5 3.4-6.37 3.4-3.8 0-5.24-.36-11.23-1.35-2.75-.44-5-.66-6.14-.66-2.77 0-5.13.67-5.7 2.03h-.54c.66-2.48 3.26-3.4 6.7-3.4 1.84 0 5.6.48 10.75 1.37 2.75.47 5.66.72 6.9.72 2.9 0 4.66-.72 5.1-2.1M593.12 818.53h-5.35v5.35h-1.36v-5.35h-5.35v-1.36h5.36v-5.36h1.37v5.37h5.35v1.36M604.23 813.72l-1.83 6.7c-.06.2-.08.43-.08.65 0 .78.4 1.36 1.23 1.36 2.22 0 3.66-2.32 4.3-4.17.18-.5.32-1 .32-1.52 0-1.52-1.25-1.33-1.25-2.24 0-.7.5-.86 1.1-.86.87 0 .97 1.05.97 1.7 0 2.04-.8 4.1-2 5.75-.88 1.22-2.46 2.13-3.98 2.13-1.32 0-2.38-.4-2.38-1.9 0-.44.06-.87.18-1.3l1.2-4.3c.03-.16.1-.35.1-.5 0-.42-.9-.42-1.17-.42v-.3c1.06-.26 2.17-.4 3.2-.86M616.46 821.34c0 2.5-.92 5-3.28 5-2.48 0-3.28-2.7-3.28-5.08 0-2.57 1-4.94 3.34-4.94 1.9 0 3.22 2.05 3.22 5.02m-1.4.08c0-3.02-.63-4.72-1.9-4.72-1.2 0-1.87 1.7-1.87 4.66 0 2.94.63 4.6 1.88 4.6 1.23 0 1.9-1.67 1.9-4.54M625.75 825.1l-.8 1.98h-5.66v-.18l2.57-2.74c1.37-1.44 1.9-2.54 1.9-3.77 0-1.33-.8-2.06-2.03-2.06-1.04 0-1.55.46-2.13 1.9l-.3-.1c.3-1.68 1.24-2.87 3.02-2.87 1.64 0 2.7 1.1 2.7 2.55 0 1.15-.58 2.23-1.87 3.6l-2.4 2.55h3.4c.6 0 .92-.16 1.4-.97M628.1 808.26h.54c-.54 2.4-2.5 3.4-6.37 3.4-3.8 0-5.23-.36-11.23-1.35-2.75-.44-4.98-.66-6.13-.66-2.76 0-5.12.67-5.7 2.03h-.53c.65-2.48 3.26-3.4 6.7-3.4 1.84 0 5.6.48 10.75 1.37 2.75.47 5.66.72 6.9.72 2.9 0 4.65-.72 5.08-2.1"/><g><path d="M940.28 619.74l116.9-67.6 21.84 37.77-116.9 67.6z" fill="#fff3d9"/><path d="M953.9 630.23l2.2 8.32c.05.26.17.5.3.76.5.84 1.3 1.2 2.17.7 2.38-1.38 2.48-4.76 2.04-7.15-.12-.63-.28-1.27-.6-1.82-.94-1.64-2.17-.66-2.73-1.63-.44-.75 0-1.24.65-1.6.93-.55 1.7.5 2.1 1.22 1.26 2.18 1.68 4.9 1.42 7.4-.18 1.87-1.32 3.83-2.95 4.77-1.42.8-2.82 1.03-3.75-.58-.27-.47-.47-.97-.6-1.48l-1.4-5.37c-.04-.2-.1-.44-.2-.62-.25-.44-1.22.12-1.5.3l-.2-.34c.98-.94 2.08-1.78 2.9-2.9M973.46 633.85l.4 2.62-6.1 3.52-.1-.2 1.07-4.54c.57-2.4.45-3.9-.32-5.23-.8-1.4-2.1-1.7-3.43-.94-1.12.64-1.38 1.45-1.12 3.34l-.37.1c-.73-2-.47-3.86 1.45-4.96 1.76-1.02 3.58-.47 4.47 1.07.7 1.23.78 2.75.24 5.02l-1 4.23 3.66-2.1c.65-.4.88-.75.9-1.92M966.02 615.8l.58-.32c.93 2.58-.18 4.57-3.07 6.24-2.84 1.64-3.47 1.53-8.5 3.15-2.33.76-3.97 1.38-4.83 1.88-2.07 1.2-3.02 2.66-2.67 4.22l-.57.33c-1-2.72.24-4.6 2.8-6.1 1.36-.78 4.28-1.84 8.62-3.18 2.35-.7 4.02-1.38 4.95-1.92 2.18-1.26 3.14-2.76 2.7-4.3M991.68 612.33l-12.98 7.5-.84-1.45 12.98-7.5.84 1.45m2.55 4.4l-12.98 7.5-.84-1.45 13-7.5.83 1.45M1002.76 608.86l25.02-14.46-.77-1.33-25 14.47zM997.48 589.66l-.34-.22c.3-.52.8-.94 1.32-1.25 1.97-1.14 3.74-.3 5.27 2.35 1.34 2.3 2.83 7.08-.82 9.2-1.52.87-2.8 0-3.57-1.3-1.27-2.2-.83-5.44 1.45-6.75.5-.3 1.27-.5 1.93-.12-.13-.38-.3-.78-.5-1.15-.8-1.37-2.1-2.56-3.7-1.64-.4.23-.7.5-1.02.86m5.43 3.22c-.57-1.02-1.3-1.04-1.7-.8-1.55.9-1.55 4-.3 6.16.34.6.95 1.5 1.93.92 1.2-.7 1.22-2.78.73-4.62-.15-.6-.37-1.18-.65-1.66M1007.17 587.6l1.55 5.9c.04.17.12.35.22.53.35.6.9.84 1.53.48 1.7-.96 1.76-3.35 1.45-5.04-.1-.45-.2-.9-.44-1.3-.66-1.14-1.53-.45-1.93-1.14-.3-.53 0-.88.46-1.14.67-.38 1.2.37 1.5.87.9 1.54 1.2 3.47 1 5.24-.12 1.3-.93 2.7-2.08 3.36-1 .57-2 .73-2.65-.4-.18-.34-.33-.7-.4-1.06l-1-3.8c-.04-.13-.08-.3-.15-.43-.18-.3-.87.1-1.07.2l-.13-.23c.7-.67 1.47-1.26 2.05-2.06M1020.87 589.77l-1.15.66 1.08 1.87-.87.5-1.08-1.86-3.13 1.8-.4-.7.62-7 .5-.3 2.87 4.98 1.16-.67.4.72m-2.42.45l-2.22-3.83-.47 5.37 2.7-1.55M1009.42 610.3l-.34-.2c.3-.53.8-.95 1.32-1.26 1.97-1.13 3.74-.3 5.27 2.36 1.34 2.3 2.83 7.08-.82 9.2-1.53.87-2.8 0-3.58-1.3-1.27-2.2-.83-5.44 1.45-6.75.5-.3 1.27-.5 1.93-.12-.14-.38-.3-.78-.52-1.15-.8-1.37-2.1-2.56-3.68-1.64-.42.24-.7.52-1.03.87m5.43 3.23c-.58-1.02-1.3-1.04-1.72-.8-1.54.9-1.54 4-.3 6.16.35.58.96 1.48 1.94.9 1.2-.68 1.22-2.77.73-4.6-.15-.6-.37-1.2-.65-1.67M1019.1 608.26l1.56 5.88c.04.18.12.36.22.54.35.6.9.84 1.53.48 1.7-.97 1.77-3.36 1.46-5.05-.1-.44-.2-.9-.44-1.28-.66-1.15-1.53-.46-1.93-1.15-.3-.53 0-.88.45-1.14.66-.38 1.2.37 1.48.87.9 1.54 1.2 3.47 1.02 5.24-.13 1.32-.94 2.7-2.1 3.37-1 .58-1.98.74-2.64-.4-.17-.33-.32-.68-.4-1.05l-1-3.8c-.03-.13-.07-.3-.14-.42-.18-.32-.87.08-1.07.2l-.14-.24c.7-.68 1.47-1.27 2.05-2.07M1033.02 610.75l.28 1.87-4.37 2.53-.08-.13.77-3.26c.4-1.72.32-2.8-.23-3.75-.6-1-1.52-1.22-2.47-.67-.8.47-1 1.05-.8 2.4l-.27.08c-.52-1.43-.34-2.76 1.04-3.55 1.26-.73 2.56-.34 3.2.77.5.88.56 1.97.17 3.6l-.7 3.03 2.6-1.5c.48-.28.65-.54.65-1.38M1039.4 586.7c.42.7.18 1.66-.52 2.07-.73.42-1.73.12-2.1-.54-.4-.66-.16-1.68.57-2.1.7-.4 1.65-.14 2.06.57M1049.2 575.12l2.2 8.32c.07.26.2.5.33.75.48.83 1.28 1.2 2.16.68 2.37-1.37 2.47-4.75 2.03-7.15-.13-.63-.3-1.27-.6-1.82-.95-1.62-2.18-.64-2.74-1.6-.45-.76 0-1.26.64-1.63.93-.53 1.7.53 2.1 1.23 1.26 2.2 1.68 4.9 1.42 7.4-.18 1.88-1.32 3.83-2.95 4.78-1.4.8-2.8 1.03-3.73-.58-.27-.46-.47-.96-.6-1.48l-1.4-5.36c-.05-.2-.1-.44-.2-.62-.25-.44-1.22.12-1.5.3l-.2-.34c.98-.95 2.08-1.8 2.9-2.92M1068.5 578.28l-1.6.93 1.5 2.6-1.22.7-1.5-2.6-4.37 2.53-.56-1 .88-9.76.7-.4 4 6.94 1.6-.92.58 1m-3.4.63l-3.1-5.33-.64 7.5 3.74-2.16M1061.34 560.7l.58-.33c.93 2.57-.18 4.57-3.07 6.24-2.84 1.65-3.47 1.54-8.5 3.16-2.33.76-3.97 1.38-4.83 1.88-2.07 1.2-3.02 2.65-2.67 4.22l-.57.33c-1-2.73.24-4.62 2.8-6.1 1.36-.8 4.28-1.86 8.62-3.2 2.35-.7 4.02-1.38 4.95-1.9 2.18-1.27 3.14-2.77 2.7-4.3"/></g><defs><path fill="#333" d="M63-220v92h138v28H63V0H30v-248h175v28H63" id="c"/><path fill="#333" d="M100-194c62-1 85 37 85 99 1 63-27 99-86 99S16-35 15-95c0-66 28-99 85-99zM99-20c44 1 53-31 53-75 0-43-8-75-51-75s-53 32-53 75 10 74 51 75" id="d"/><path fill="#333" d="M114-163C36-179 61-72 57 0H25l-1-190h30c1 12-1 29 2 39 6-27 23-49 58-41v29" id="e"/><path fill="#333" d="M206 0h-36l-40-164L89 0H53L-1-190h32L70-26l43-164h34l41 164 42-164h31" id="f"/><path fill="#333" d="M141-36C126-15 110 5 73 4 37 3 15-17 15-53c-1-64 63-63 125-63 3-35-9-54-41-54-24 1-41 7-42 31l-33-3c5-37 33-52 76-52 45 0 72 20 72 64v82c-1 20 7 32 28 27v20c-31 9-61-2-59-35zM48-53c0 20 12 33 32 33 41-3 63-29 60-74-43 2-92-5-92 41" id="g"/><path fill="#333" d="M85-194c31 0 48 13 60 33l-1-100h32l1 261h-30c-2-10 0-23-3-31C134-8 116 4 85 4 32 4 16-35 15-94c0-66 23-100 70-100zm9 24c-40 0-46 34-46 75 0 40 6 74 45 74 42 0 51-32 51-76 0-42-9-74-50-73" id="h"/><g id="a"><use transform="matrix(0.06172839506172839,0,0,0.06172839506172839,0,0)" xlink:href="#c"/><use transform="matrix(0.06172839506172839,0,0,0.06172839506172839,13.518518518518517,0)" xlink:href="#d"/><use transform="matrix(0.06172839506172839,0,0,0.06172839506172839,25.864197530864196,0)" xlink:href="#e"/><use transform="matrix(0.06172839506172839,0,0,0.06172839506172839,33.20987654320987,0)" xlink:href="#f"/><use transform="matrix(0.06172839506172839,0,0,0.06172839506172839,49.197530864197525,0)" xlink:href="#g"/><use transform="matrix(0.06172839506172839,0,0,0.06172839506172839,61.5432098765432,0)" xlink:href="#e"/><use transform="matrix(0.06172839506172839,0,0,0.06172839506172839,68.88888888888889,0)" xlink:href="#h"/></g><path fill="#333" d="M160-131c35 5 61 23 61 61C221 17 115-2 30 0v-248c76 3 177-17 177 60 0 33-19 50-47 57zm-97-11c50-1 110 9 110-42 0-47-63-36-110-37v79zm0 115c55-2 124 14 124-45 0-56-70-42-124-44v89" id="i"/><path fill="#333" d="M96-169c-40 0-48 33-48 73s9 75 48 75c24 0 41-14 43-38l32 2c-6 37-31 61-74 61-59 0-76-41-82-99-10-93 101-131 147-64 4 7 5 14 7 22l-32 3c-4-21-16-35-41-35" id="j"/><path fill="#333" d="M143 0L79-87 56-68V0H24v-261h32v163l83-92h37l-77 82L181 0h-38" id="k"/><path fill="#333" d="M135-143c-3-34-86-38-87 0 15 53 115 12 119 90S17 21 10-45l28-5c4 36 97 45 98 0-10-56-113-15-118-90-4-57 82-63 122-42 12 7 21 19 24 35" id="l"/><g id="b"><use transform="matrix(0.06172839506172839,0,0,0.06172839506172839,0,0)" xlink:href="#i"/><use transform="matrix(0.06172839506172839,0,0,0.06172839506172839,14.814814814814813,0)" xlink:href="#g"/><use transform="matrix(0.06172839506172839,0,0,0.06172839506172839,27.160493827160494,0)" xlink:href="#j"/><use transform="matrix(0.06172839506172839,0,0,0.06172839506172839,38.27160493827161,0)" xlink:href="#k"/><use transform="matrix(0.06172839506172839,0,0,0.06172839506172839,49.38271604938272,0)" xlink:href="#f"/><use transform="matrix(0.06172839506172839,0,0,0.06172839506172839,65.37037037037038,0)" xlink:href="#g"/><use transform="matrix(0.06172839506172839,0,0,0.06172839506172839,77.71604938271606,0)" xlink:href="#e"/><use transform="matrix(0.06172839506172839,0,0,0.06172839506172839,85.06172839506175,0)" xlink:href="#h"/><use transform="matrix(0.06172839506172839,0,0,0.06172839506172839,97.40740740740743,0)" xlink:href="#l"/></g></defs></g></svg>