<svg xmlns="http://www.w3.org/2000/svg" xmlns:lucid="lucid" width="1146" height="396"><g lucid:page-tab-id="0_0"><path d="M477 60c0 11.05-8.95 20-20 20s-20-8.95-20-20 8.95-20 20-20 20 8.95 20 20zM737 60c0 11.05-8.95 20-20 20s-20-8.95-20-20 8.95-20 20-20 20 8.95 20 20z" stroke="#000" fill="#f4d9ff"/><path d="M218 60h202.12" stroke="#5e5e5e" fill="none"/><path d="M218 60.5h-.56l.06-.48-.02-.52h.53z" stroke="#5e5e5e" stroke-width=".05" fill="#5e5e5e"/><path d="M434.88 60l-14.26 4.64v-9.28z" stroke="#5e5e5e" fill="#5e5e5e"/><path d="M478 60h202.12" stroke="#5e5e5e" fill="none"/><path d="M478 60.5h-.56l.06-.48-.02-.52h.53z" stroke="#5e5e5e" stroke-width=".05" fill="#5e5e5e"/><path d="M694.88 60l-14.26 4.64v-9.28z" stroke="#5e5e5e" fill="#5e5e5e"/><path d="M217.94 60.23l209.4 108.4" stroke="#5e5e5e" fill="none"/><path d="M218.2 59.8l-.47.88-.3-.15.07-.5-.02-.6z" stroke="#5e5e5e" stroke-width=".05" fill="#5e5e5e"/><path d="M440.46 175.42l-14.8-2.45 4.26-8.23z" stroke="#5e5e5e" fill="#5e5e5e"/><path d="M477.93 189.74L682.4 68.36" stroke="#5e5e5e" fill="none"/><path d="M478.2 190.17l-.77.46.07-.6-.02-.6.2-.12z" stroke="#5e5e5e" stroke-width=".05" fill="#5e5e5e"/><path d="M695.1 60.83l-9.9 11.26-4.73-7.98z" stroke="#5e5e5e" fill="#5e5e5e"/><path d="M217.95 319.77l211-106.96" stroke="#5e5e5e" fill="none"/><path d="M218.18 320.2l-.75.4.07-.58-.02-.57.25-.13z" stroke="#5e5e5e" stroke-width=".05" fill="#5e5e5e"/><path d="M442.13 206.13l-10.63 10.6-4.2-8.28z" stroke="#5e5e5e" fill="#5e5e5e"/><path d="M218 320h462.12" stroke="#5e5e5e" fill="none"/><path d="M218 320.5h-.56l.06-.48-.02-.52h.53z" stroke="#5e5e5e" stroke-width=".05" fill="#5e5e5e"/><path d="M694.88 320l-14.26 4.64v-9.28z" stroke="#5e5e5e" fill="#5e5e5e"/><path d="M733.65 307.43l155.43-84.28" stroke="#5e5e5e" fill="none"/><path d="M733.9 307.86l-.37.2-.65-.78.54-.3z" stroke="#5e5e5e" stroke-width=".05" fill="#5e5e5e"/><path d="M902.07 216.1L891.73 227l-4.42-8.15z" stroke="#5e5e5e" fill="#5e5e5e"/><path d="M734.37 71.55l155.25 104.32" stroke="#5e5e5e" fill="none"/><path d="M734.66 71.14l-.56.83-.44-.3.6-.8z" stroke="#5e5e5e" stroke-width=".05" fill="#5e5e5e"/><path d="M901.87 184.1l-14.42-4.1 5.17-7.7z" stroke="#5e5e5e" fill="#5e5e5e"/><path d="M443.85 50H469v21.66h-25.15z" fill="#fff" fill-opacity="0"/><path d="M450.32 53.1L448 61.6c-.1.27-.12.55-.12.84 0 1 .53 1.73 1.57 1.73 2.83 0 4.66-2.97 5.5-5.33.2-.62.4-1.28.4-1.93 0-1.94-1.6-1.7-1.6-2.86 0-.9.65-1.1 1.4-1.1 1.1 0 1.24 1.34 1.24 2.18 0 2.6-1.03 5.23-2.55 7.33-1.12 1.56-3.14 2.7-5.08 2.7-1.67 0-3.03-.5-3.03-2.42 0-.55.07-1.1.23-1.63l1.52-5.5c.04-.2.12-.44.12-.65 0-.53-1.15-.53-1.5-.53v-.4c1.37-.33 2.78-.5 4.1-1.1M464.4 68.92h-5.1v-.28c1.36-.07 1.75-.46 1.75-1.48v-8.3c0-.64-.17-.92-.56-.92-.2 0-.5.1-.84.22l-.5.2v-.27l3.3-1.7.18.06V67.5c0 .8.37 1.14 1.76 1.14v.28"/><path d="M704.43 48.34h25.14V70h-25.14z" fill="#fff" fill-opacity="0"/><path d="M710.9 51.43l-2.34 8.54c-.08.26-.1.55-.1.83 0 1 .52 1.73 1.57 1.73 2.83 0 4.66-2.96 5.5-5.3.2-.64.4-1.3.4-1.95 0-1.94-1.6-1.7-1.6-2.86 0-.9.65-1.1 1.4-1.1 1.1 0 1.24 1.34 1.24 2.18 0 2.6-1.02 5.24-2.54 7.33-1.13 1.57-3.14 2.72-5.08 2.72-1.68 0-3.04-.52-3.04-2.43 0-.55.1-1.1.25-1.63l1.52-5.5c.05-.2.13-.45.13-.66 0-.52-1.16-.52-1.5-.52v-.4c1.37-.34 2.78-.52 4.1-1.1M726.44 64.17h-1.9v3.1h-1.45v-3.1h-5.2v-1.2l5.82-8.22h.8v8.23h1.92v1.2m-3.35-1.2v-6.35l-4.46 6.35h4.45"/><path d="M1037 184.2h97.1v26.63H1037z" fill="#fff" fill-opacity="0"/><path d="M1043.5 192.7h.96c1.65 0 1.52-2.02 2.65-3.7.82-1.22 1.95-2.35 3.94-2.35 1.3 0 2.06.63 2.06 1.55 0 .73-.55 1.04-1.07 1.04-.73 0-.92-.28-.92-.65 0-.38.25-.77.25-.98 0-.13-.08-.2-.4-.2-1.3 0-2.32 1.4-2.87 3.45l-.5 1.83h2.1l-.32 1h-2l-2.06 8c-.18.72-.4 1.7-.78 2.68-.87 2.17-2.28 4.66-4.6 4.66-1.24 0-1.87-.63-1.87-1.4 0-.64.36-1.3 1.12-1.3.7 0 .97.47.97.87 0 .5-.42.53-.42.85 0 .15.16.23.4.23 1.7 0 2.48-4.14 2.88-5.63l2.27-8.95h-2M1061.06 208.36l-.3.42c-4.15-2.36-6.4-6.78-6.4-11.23 0-4.85 2.28-8.62 6.47-11.1l.23.4c-3.64 3.13-4.45 5.56-4.45 10.62 0 4.87.8 7.83 4.46 10.9M1069.84 196.6l1.17-1.8c.7-1.05 1.6-2.2 2.92-2.2.84 0 1.28.3 1.28.86 0 .5-.34 1.1-1.02 1.1-.57 0-.7-.24-1.15-.24-.8 0-1.07.42-1.44 1l-1.45 2.23c.8 1.62 1.4 5.15 2.57 5.15.42 0 1.04-.36 1.6-1.5l.36.27c-.3.4-1.5 2.9-3 2.9-1.08 0-1.58-1.06-1.92-2l-1.05-2.97-1.64 2.57c-.84 1.28-1.6 2.4-3.06 2.4-.95 0-1.37-.65-1.37-1.22 0-.42.35-.97 1-.97.68 0 .58.52 1.23.52.3 0 1-.26 1.83-1.54l1.7-2.65-.87-2.4c-.44-1.25-1.12-2.33-2.56-2.33-.34 0-.74.06-1 .16l-.08-.47 3.45-.86c1.15.62 1.65 1.7 1.96 2.56M1083.55 208.1h-5.1v-.3c1.36-.06 1.75-.45 1.75-1.47v-8.3c0-.64-.17-.92-.56-.92-.18 0-.5.1-.83.23l-.5.2v-.27l3.32-1.7.17.07v11.05c0 .8.36 1.13 1.75 1.13v.3M1090.3 207.84l-.25-.5c1.44-.97 2.17-1.94 2.17-2.8 0-.2-.15-.34-.36-.34-.2 0-.47.1-.76.1-.97 0-1.52-.44-1.52-1.33 0-.9.63-1.5 1.57-1.5 1.18 0 2.1.92 2.1 2.28 0 1.57-1.13 3.22-2.94 4.1M1107.04 196.6l1.18-1.8c.68-1.05 1.6-2.2 2.9-2.2.85 0 1.3.3 1.3.86 0 .5-.35 1.1-1.03 1.1-.58 0-.72-.24-1.16-.24-.8 0-1.07.42-1.44 1l-1.44 2.23c.78 1.62 1.4 5.15 2.56 5.15.42 0 1.05-.36 1.6-1.5l.37.27c-.33.4-1.5 2.9-3.02 2.9-1.08 0-1.57-1.06-1.9-2l-1.06-2.97-1.65 2.57c-.84 1.28-1.6 2.4-3.06 2.4-.94 0-1.36-.65-1.36-1.22 0-.42.34-.97 1-.97.68 0 .57.52 1.23.52.3 0 1-.26 1.83-1.54l1.7-2.65-.86-2.4c-.44-1.25-1.13-2.33-2.57-2.33-.34 0-.73.06-1 .16l-.07-.47 3.46-.86c1.15.62 1.65 1.7 1.96 2.56M1122.24 205.55l-1 2.54H1114v-.24l3.3-3.5c1.73-1.83 2.4-3.23 2.4-4.8 0-1.7-1-2.62-2.57-2.62-1.34 0-1.98.6-2.72 2.4l-.38-.08c.4-2.17 1.57-3.7 3.85-3.7 2.1 0 3.42 1.44 3.42 3.27 0 1.46-.73 2.85-2.38 4.6l-3.05 3.25h4.33c.78 0 1.17-.2 1.78-1.24M1126.1 186.86l.32-.42c4 2.4 6.4 6.78 6.4 11.24 0 4.84-2.3 8.56-6.48 11.1l-.23-.42c3.73-3.06 4.46-5.53 4.46-10.6 0-4.9-.66-7.9-4.45-10.9"/><path d="M424.43 11.8h76.68v26.63h-76.67z" fill="#fff" fill-opacity="0"/><path d="M431.7 14.26l-3.86 15.47s-.03.1-.03.3c0 .17.12.33.33.33.6 0 1.38-1.02 1.62-1.44l.42.3c-.9 1.06-2.02 2.8-3.54 2.8-.78 0-1.02-.7-1.02-1.35 0-.3.1-.68.17-.94l3.35-13.35c.08-.34.08-.55.08-.63 0-.3-.2-.58-.8-.58-.2 0-.5.06-.72.08l-.08-.4M445 29.23l-.14.16c-.74.88-2 2.56-3.35 2.56-.83 0-1.07-.6-1.07-1.2 0-.35.1-.77.2-1.05l1.48-5.78c.06-.2.2-.73.2-1.1 0-.5-.17-1-.64-1-1 0-2.64 2.26-3.45 3.5-.94 1.4-1.62 2.63-1.77 3.18l-.87 3.25h-2l2.47-9.8c0-.47-.07-.83-.78-.83-.26 0-.55.05-.73.08l-.06-.4 4.17-.6-1.34 4.95h.07c.13 0 1.4-1.83 1.47-1.9 1.04-1.32 2.6-3.05 4.2-3.05 1.14 0 1.45.76 1.45 1.62 0 .66-.17 1.3-.3 1.84l-1.54 6.05c-.03.06-.03.14-.03.27.03.15.1.36.4.36.62 0 1.25-.94 1.62-1.38M453.76 35.96l-.3.42c-4.15-2.35-6.4-6.78-6.4-11.23 0-4.84 2.28-8.62 6.47-11.1l.23.42c-3.64 3.1-4.45 5.55-4.45 10.6 0 4.87.8 7.83 4.46 10.9M461 19.86l-2.34 8.54c-.08.26-.1.55-.1.83 0 1 .52 1.73 1.56 1.73 2.83 0 4.66-2.96 5.5-5.3.2-.64.4-1.3.4-1.95 0-1.93-1.6-1.7-1.6-2.84 0-.9.65-1.1 1.4-1.1 1.1 0 1.24 1.33 1.24 2.17 0 2.6-1.02 5.24-2.54 7.33-1.12 1.57-3.14 2.72-5.08 2.72-1.67 0-3.03-.52-3.03-2.43 0-.55.08-1.1.24-1.62l1.52-5.5c.05-.2.13-.45.13-.66 0-.52-1.16-.52-1.5-.52v-.4c1.36-.33 2.77-.52 4.08-1.1M479.27 31.6h-10.32v-1.22h10.32v1.22M487.75 35.68h-5.1v-.28c1.36-.08 1.74-.46 1.74-1.48v-8.3c0-.64-.17-.92-.56-.92-.2 0-.5.1-.83.22l-.5.2v-.27l3.32-1.7.17.07v11.05c0 .8.36 1.13 1.75 1.13v.28M493.12 14.47l.3-.42c4.02 2.4 6.4 6.78 6.4 11.23 0 4.84-2.3 8.56-6.47 11.1l-.23-.42c3.72-3.06 4.45-5.52 4.45-10.6 0-4.9-.66-7.9-4.45-10.9"/><path d="M682.28 16.78h79.9v23.3h-79.9z" fill="#fff" fill-opacity="0"/><path d="M688.75 21.52l-2.33 8.54c-.08.26-.1.55-.1.83 0 1 .52 1.72 1.57 1.72 2.8 0 4.65-2.96 5.48-5.3.2-.64.4-1.3.4-1.95 0-1.94-1.6-1.7-1.6-2.85 0-.9.65-1.1 1.4-1.1 1.1 0 1.24 1.33 1.24 2.17 0 2.58-1.02 5.23-2.54 7.32-1.12 1.57-3.14 2.72-5.08 2.72-1.67 0-3.03-.52-3.03-2.43 0-.54.08-1.1.23-1.6l1.52-5.5c.05-.22.13-.46.13-.67 0-.52-1.15-.52-1.5-.52v-.38c1.37-.34 2.8-.53 4.1-1.1M702.83 37.35h-5.1v-.28c1.36-.07 1.75-.46 1.75-1.48v-8.32c0-.63-.17-.9-.56-.9-.18 0-.5.1-.83.22l-.5.18v-.26l3.3-1.68.17.05v11.04c0 .8.37 1.13 1.76 1.13v.28M729.9 27.65h-6.85v6.83h-1.73v-6.83h-6.83v-1.73h6.82V19.1h1.73v6.82h6.84v1.73M743.48 21.52l-2.33 8.54c-.08.26-.1.55-.1.83 0 1 .5 1.72 1.56 1.72 2.84 0 4.67-2.96 5.5-5.3.22-.64.4-1.3.4-1.95 0-1.94-1.6-1.7-1.6-2.85 0-.9.66-1.1 1.42-1.1 1.1 0 1.23 1.33 1.23 2.17 0 2.58-1.02 5.23-2.54 7.32-1.12 1.57-3.13 2.72-5.07 2.72-1.68 0-3.04-.52-3.04-2.43 0-.54.07-1.1.23-1.6l1.52-5.5c.05-.22.13-.46.13-.67 0-.52-1.15-.52-1.5-.52v-.38c1.37-.34 2.78-.53 4.1-1.1M759.04 34.82l-1 2.53h-7.24v-.22l3.3-3.5c1.74-1.83 2.4-3.24 2.4-4.8 0-1.7-1-2.62-2.57-2.62-1.33 0-1.98.6-2.72 2.4l-.38-.08c.4-2.16 1.57-3.68 3.85-3.68 2.1 0 3.42 1.42 3.42 3.26 0 1.46-.73 2.85-2.38 4.6l-3.05 3.24H757c.78 0 1.17-.2 1.78-1.24"/><path d="M424.43 139.17h82.13v21.66h-82.13z" fill="#fff" fill-opacity="0"/><path d="M430.9 142.26l-2.33 8.53c-.08.26-.1.54-.1.83 0 1 .52 1.73 1.57 1.73 2.83 0 4.66-2.96 5.5-5.3.2-.64.4-1.3.4-1.95 0-1.93-1.6-1.7-1.6-2.85 0-.9.65-1.1 1.4-1.1 1.1 0 1.24 1.34 1.24 2.18 0 2.6-1.02 5.23-2.54 7.33-1.13 1.57-3.15 2.72-5.08 2.72-1.68 0-3.04-.52-3.04-2.43 0-.55.08-1.1.23-1.63l1.52-5.5c.06-.2.13-.44.13-.65 0-.52-1.15-.52-1.5-.52v-.4c1.37-.34 2.8-.52 4.1-1.1M449.18 154h-10.3v-1.22h10.3V154M457.66 158.07h-5.1v-.27c1.36-.08 1.75-.47 1.75-1.48V148c0-.63-.16-.9-.55-.9-.18 0-.5.1-.83.22l-.5.18v-.26l3.3-1.68.18.06v11.05c0 .8.37 1.13 1.76 1.13v.27M473.4 147.52c0 .84-.7 1.57-1.55 1.57-.86 0-1.6-.8-1.6-1.58s.74-1.57 1.6-1.57c.84 0 1.55.73 1.55 1.57M487.88 142.26l-2.33 8.53c-.08.26-.1.54-.1.83 0 1 .52 1.73 1.57 1.73 2.82 0 4.66-2.96 5.5-5.3.2-.64.4-1.3.4-1.95 0-1.93-1.6-1.7-1.6-2.85 0-.9.64-1.1 1.4-1.1 1.1 0 1.23 1.34 1.23 2.18 0 2.6-1.02 5.23-2.54 7.33-1.1 1.57-3.13 2.72-5.07 2.72-1.67 0-3.03-.52-3.03-2.43 0-.55.08-1.1.23-1.63l1.52-5.5c.05-.2.13-.44.13-.65 0-.52-1.15-.52-1.5-.52v-.4c1.37-.34 2.8-.52 4.1-1.1M503.48 151.98c0 3.18-1.17 6.37-4.18 6.37-3.17 0-4.2-3.44-4.2-6.48 0-3.28 1.3-6.3 4.27-6.3 2.42 0 4.1 2.62 4.1 6.4m-1.77.1c0-3.85-.8-6-2.44-6-1.54 0-2.37 2.17-2.37 5.93s.8 5.87 2.4 5.87c1.57 0 2.4-2.13 2.4-5.8"/><path d="M657.3 270.56h75.32v26.63H657.3z" fill="#fff" fill-opacity="0"/><path d="M667.5 278.96l-.63 3.82h-.4c0-1.68-.94-3.14-2.4-3.14-.66 0-1.34.44-1.34 1.52 0 1.44 3.5 3.85 3.5 6.33 0 1.62-1.25 3.27-3.52 3.27-.88 0-2.56-.53-2.87-.53-.24 0-.48.1-.8.55h-.44l.65-4.1h.42c0 1.66 1.07 3.4 2.72 3.4 1.54 0 1.9-1.3 1.9-2.32 0-2.15-3.4-3.45-3.4-6.02 0-2.07 1.54-2.8 2.98-2.8 1.13 0 1.65.52 2.4.52.3 0 .6-.26.8-.52h.42M675.54 275.68c0 .7-.58 1.2-1.26 1.2-.76 0-1.26-.5-1.26-1.2 0-.65.5-1.3 1.26-1.3.68 0 1.26.65 1.26 1.3m-.8 3.28l-2.4 9.53c-.02.15-.02.25-.02.36 0 .18.15.26.34.26.57 0 .73-.32 1.67-1.34l.34.26c-.9 1.18-2.22 2.75-3.5 2.75-.74 0-1.05-.5-1.05-1.2 0-.33 0-.82 2.06-8.86.03-.05.06-.24.06-.32 0-.44-.2-.57-.8-.57-.25 0-.56.05-.75.1l-.1-.42M689.2 288l-.13.15c-.73.9-2 2.56-3.35 2.56-.84 0-1.07-.6-1.07-1.2 0-.33.1-.75.18-1.04l1.5-5.78c.05-.2.18-.74.18-1.1 0-.5-.15-1-.62-1-1 0-2.65 2.25-3.46 3.48-.94 1.42-1.62 2.65-1.78 3.2l-.86 3.25h-2.02l2.5-9.8c0-.46-.1-.83-.8-.83-.26 0-.55.06-.73.08l-.05-.4 4.16-.6-1.33 4.96h.08c.14 0 1.42-1.83 1.47-1.9 1.05-1.3 2.62-3.04 4.2-3.04 1.14 0 1.46.76 1.46 1.62 0 .66-.15 1.3-.28 1.83l-1.55 6.06c-.02.06-.02.13-.02.26.02.16.1.37.4.37.62 0 1.25-.95 1.6-1.4M697.95 294.72l-.3.42c-4.15-2.36-6.4-6.78-6.4-11.23 0-4.84 2.28-8.6 6.46-11.1l.25.42c-3.64 3.12-4.45 5.55-4.45 10.6 0 4.88.78 7.84 4.45 10.9M705.2 278.62l-2.33 8.53c-.08.27-.1.55-.1.84 0 1 .52 1.72 1.57 1.72 2.83 0 4.66-2.96 5.5-5.32.2-.62.4-1.28.4-1.93 0-1.94-1.6-1.7-1.6-2.86 0-.88.65-1.1 1.4-1.1 1.1 0 1.24 1.35 1.24 2.2 0 2.58-1.02 5.22-2.54 7.32-1.13 1.57-3.14 2.72-5.08 2.72-1.68 0-3.04-.52-3.04-2.43 0-.54.08-1.1.24-1.62l1.52-5.5c.05-.2.13-.44.13-.65 0-.52-1.15-.52-1.5-.52v-.4c1.38-.33 2.8-.5 4.1-1.1M720.8 288.34c0 3.18-1.16 6.37-4.18 6.37-3.17 0-4.18-3.44-4.18-6.47 0-3.28 1.27-6.3 4.25-6.3 2.42 0 4.1 2.6 4.1 6.4m-1.77.1c0-3.85-.82-6-2.45-6-1.53 0-2.37 2.17-2.37 5.93s.83 5.87 2.42 5.87c1.57 0 2.4-2.13 2.4-5.8M724.63 273.22l.32-.42c4 2.4 6.4 6.8 6.4 11.24 0 4.84-2.32 8.56-6.48 11.1l-.24-.42c3.72-3.06 4.45-5.52 4.45-10.6 0-4.9-.65-7.9-4.45-10.9"/><path d="M477 190c0 11.05-8.95 20-20 20s-20-8.95-20-20 8.95-20 20-20 20 8.95 20 20z" stroke="#000" fill="#f4d9ff"/><path d="M444.43 179.17h25.14v21.66h-25.14z" fill="#fff" fill-opacity="0"/><path d="M450.9 182.26l-2.34 8.53c-.08.26-.1.54-.1.83 0 1 .52 1.73 1.57 1.73 2.83 0 4.66-2.96 5.5-5.3.2-.64.4-1.3.4-1.95 0-1.93-1.6-1.7-1.6-2.85 0-.9.65-1.1 1.4-1.1 1.1 0 1.24 1.34 1.24 2.18 0 2.6-1.02 5.23-2.54 7.33-1.13 1.57-3.14 2.72-5.08 2.72-1.68 0-3.04-.52-3.04-2.43 0-.55.1-1.1.25-1.63l1.52-5.5c.05-.2.13-.44.13-.65 0-.52-1.16-.52-1.5-.52v-.4c1.37-.34 2.78-.52 4.1-1.1M466.46 195.55l-1 2.54h-7.24v-.23l3.3-3.5c1.73-1.83 2.4-3.24 2.4-4.8 0-1.7-1-2.63-2.57-2.63-1.34 0-1.98.6-2.72 2.4l-.4-.08c.4-2.17 1.58-3.7 3.86-3.7 2.08 0 3.4 1.44 3.4 3.27 0 1.47-.7 2.85-2.36 4.6l-3.05 3.25h4.32c.78 0 1.17-.2 1.78-1.24"/><path d="M217 320c0 11.05-8.95 20-20 20s-20-8.95-20-20 8.95-20 20-20 20 8.95 20 20z" stroke="#000" fill="#f4d9ff"/><path d="M183.85 310H209v21.66h-25.15z" fill="#fff" fill-opacity="0"/><path d="M190.32 313.1L188 321.6c-.1.27-.12.55-.12.84 0 1 .53 1.73 1.57 1.73 2.83 0 4.66-2.97 5.5-5.33.2-.62.4-1.28.4-1.93 0-1.94-1.6-1.7-1.6-2.86 0-.9.65-1.1 1.4-1.1 1.1 0 1.24 1.34 1.24 2.18 0 2.6-1.03 5.23-2.55 7.33-1.12 1.56-3.14 2.7-5.08 2.7-1.67 0-3.03-.5-3.03-2.42 0-.55.07-1.1.23-1.63l1.52-5.5c.04-.2.12-.44.12-.65 0-.53-1.15-.53-1.5-.53v-.4c1.37-.33 2.78-.5 4.1-1.1M205.92 322.8c0 3.2-1.17 6.38-4.2 6.38-3.15 0-4.17-3.45-4.17-6.48 0-3.28 1.28-6.3 4.26-6.3 2.43 0 4.12 2.6 4.12 6.4m-1.78.1c0-3.85-.8-6-2.44-6-1.54 0-2.37 2.17-2.37 5.93s.8 5.87 2.4 5.87c1.58 0 2.4-2.13 2.4-5.8"/><path d="M737 320c0 11.05-8.95 20-20 20s-20-8.95-20-20 8.95-20 20-20 20 8.95 20 20z" stroke="#000" fill="#f4d9ff"/><path d="M704.43 309.17h25.14v21.66h-25.14z" fill="#fff" fill-opacity="0"/><path d="M710.9 312.26l-2.34 8.53c-.08.26-.1.54-.1.83 0 1 .52 1.73 1.57 1.73 2.83 0 4.66-2.96 5.5-5.3.2-.64.4-1.3.4-1.95 0-1.93-1.6-1.7-1.6-2.85 0-.9.65-1.1 1.4-1.1 1.1 0 1.24 1.34 1.24 2.18 0 2.6-1.02 5.23-2.54 7.33-1.13 1.57-3.14 2.72-5.08 2.72-1.68 0-3.04-.52-3.04-2.43 0-.55.1-1.1.25-1.63l1.52-5.5c.05-.2.13-.44.13-.65 0-.52-1.16-.52-1.5-.52v-.4c1.37-.34 2.78-.52 4.1-1.1M718.8 318.65l-.3-.08c.55-1.75 1.72-3 3.64-3 1.72 0 2.9 1.02 2.9 2.54 0 .9-.5 1.83-1.73 2.57.82.35 1.16.57 1.55.98.5.57.8 1.42.8 2.4 0 .97-.3 1.87-.84 2.58-.88 1.18-2.64 1.72-4.3 1.72-1.34 0-2.06-.4-2.06-1.06 0-.4.33-.67.76-.67.3 0 .6.1 1.13.48.68.5 1.07.58 1.6.58 1.36 0 2.4-1.26 2.4-2.83 0-1.4-.65-2.3-1.93-2.68-.4-.13-.83-.2-1.9-.2v-.25c.72-.24 1.2-.44 1.57-.67.9-.5 1.5-1.35 1.5-2.48 0-1.25-.78-1.88-2-1.88-1.15 0-2 .58-2.76 1.95"/><path d="M937 200c0 11.05-8.95 20-20 20s-20-8.95-20-20 8.95-20 20-20 20 8.95 20 20z" stroke="#000" fill="#ffdda6"/><path d="M904.43 189.17h25.14v21.66h-25.14z" fill="#fff" fill-opacity="0"/><path d="M910.9 192.26l-2.34 8.53c-.08.26-.1.54-.1.83 0 1 .52 1.73 1.57 1.73 2.83 0 4.66-2.96 5.5-5.3.2-.64.4-1.3.4-1.95 0-1.93-1.6-1.7-1.6-2.85 0-.9.65-1.1 1.4-1.1 1.1 0 1.24 1.34 1.24 2.18 0 2.6-1.02 5.23-2.54 7.33-1.13 1.57-3.14 2.72-5.08 2.72-1.68 0-3.04-.52-3.04-2.43 0-.55.1-1.1.25-1.63l1.52-5.5c.05-.2.13-.44.13-.65 0-.52-1.16-.52-1.5-.52v-.4c1.37-.34 2.78-.52 4.1-1.1M925.8 195.48l-.68 1.58c-.05.13-.2.24-.5.24h-3.6l-.73 1.57c2.64.5 3.56.9 4.62 2.37.48.67.65 1.37.65 2.35 0 1.77-.56 2.92-1.82 3.84-.87.63-1.9.9-3.14.9-1.38 0-2.34-.44-2.34-1.14 0-.46.3-.7.83-.7.4 0 .77.1 1.36.57.52.43.94.6 1.3.6 1.3 0 2.5-1.54 2.5-3.13 0-1.2-.4-2.12-1.23-2.78-.87-.7-2.16-1.3-3.94-1.3-.18 0-.23-.03-.23-.15v-.08l2.03-4.4h3.83c.43 0 .6-.08.9-.47"/><path d="M938 200h62.62" stroke="#5e5e5e" fill="none"/><path d="M938 200.5h-.56l.06-.48-.02-.52h.53z" stroke="#5e5e5e" stroke-width=".05" fill="#5e5e5e"/><path d="M1015.38 200l-14.26 4.64v-9.28z" stroke="#5e5e5e" fill="#5e5e5e"/><path d="M217 60c0 11.05-8.95 20-20 20s-20-8.95-20-20 8.95-20 20-20 20 8.95 20 20z" stroke="#000" fill="#f4d9ff"/><path d="M179.16 50.83H217V72.5h-37.84z" fill="#fff" fill-opacity="0"/><path d="M185.63 53.92l-2.33 8.53c-.08.26-.1.55-.1.84 0 1 .52 1.72 1.56 1.72 2.83 0 4.66-2.96 5.5-5.32.2-.63.4-1.28.4-1.93 0-1.94-1.6-1.7-1.6-2.86 0-.88.65-1.1 1.4-1.1 1.1 0 1.24 1.35 1.24 2.18 0 2.6-1.02 5.24-2.54 7.34-1.12 1.57-3.14 2.72-5.08 2.72-1.67 0-3.03-.52-3.03-2.44 0-.55.07-1.1.23-1.62l1.52-5.5c.05-.2.13-.44.13-.65 0-.53-1.15-.53-1.5-.53v-.4c1.37-.33 2.78-.5 4.1-1.1M203.9 65.66h-10.3v-1.22h10.3v1.22M212.38 69.73h-5.1v-.28c1.37-.07 1.75-.46 1.75-1.48v-8.3c0-.64-.16-.92-.55-.92-.2 0-.5.1-.83.23l-.5.18v-.26l3.3-1.68.18.05v11.05c0 .8.37 1.13 1.75 1.13v.28"/><path d="M57 320c0 11.05-8.95 20-20 20s-20-8.95-20-20 8.95-20 20-20 20 8.95 20 20z" stroke="#000" fill="#99d5ca"/><path d="M23.85 310h26.3v20h-26.3z" fill="#fff" fill-opacity="0"/><path d="M31.84 315.77l1.17-1.8c.7-1.05 1.6-2.2 2.92-2.2.84 0 1.28.3 1.28.86 0 .5-.34 1.1-1.02 1.1-.57 0-.7-.23-1.15-.23-.78 0-1.07.4-1.44 1l-1.45 2.22c.8 1.62 1.4 5.15 2.57 5.15.42 0 1.04-.36 1.6-1.5l.36.27c-.3.4-1.5 2.9-3 2.9-1.08 0-1.58-1.06-1.92-2l-1.05-2.96-1.64 2.56c-.84 1.28-1.6 2.4-3.06 2.4-.95 0-1.36-.64-1.36-1.22 0-.42.34-.97 1-.97.67 0 .57.52 1.22.52.32 0 1-.26 1.83-1.54l1.7-2.64-.87-2.42c-.44-1.26-1.12-2.33-2.56-2.33-.34 0-.74.05-1 .15l-.08-.47 3.45-.86c1.15.63 1.65 1.7 1.96 2.56M47.03 324.72l-1 2.54H38.8v-.22l3.28-3.5c1.75-1.84 2.4-3.24 2.4-4.82 0-1.68-1-2.6-2.56-2.6-1.33 0-1.98.6-2.72 2.4l-.4-.1c.4-2.16 1.58-3.68 3.86-3.68 2.1 0 3.42 1.43 3.42 3.26 0 1.46-.72 2.85-2.37 4.6l-3.04 3.25H45c.77 0 1.16-.2 1.77-1.24"/><path d="M57 60.83c0 11.04-8.95 20-20 20s-20-8.96-20-20c0-11.05 8.95-20 20-20s20 8.95 20 20z" stroke="#000" fill="#99d5ca"/><path d="M23.85 50.83h26.3v20h-26.3z" fill="#fff" fill-opacity="0"/><path d="M31.84 56.6L33 54.8c.7-1.05 1.6-2.2 2.92-2.2.84 0 1.28.3 1.28.86 0 .5-.34 1.1-1.02 1.1-.57 0-.7-.24-1.15-.24-.78 0-1.07.42-1.44 1l-1.45 2.23c.8 1.62 1.4 5.15 2.57 5.15.42 0 1.04-.36 1.6-1.5l.36.27c-.3.4-1.5 2.9-3 2.9-1.08 0-1.58-1.06-1.92-2L30.7 59.4l-1.64 2.57c-.84 1.28-1.6 2.4-3.06 2.4-.95 0-1.36-.65-1.36-1.22 0-.42.34-.97 1-.97.67 0 .57.52 1.22.52.32 0 1-.26 1.83-1.54l1.7-2.65-.87-2.4c-.44-1.25-1.12-2.33-2.56-2.33-.34 0-.74.06-1 .16l-.08-.47 3.45-.86c1.15.62 1.65 1.7 1.96 2.56M45.55 68.1h-5.1v-.3c1.36-.06 1.75-.45 1.75-1.47v-8.3c0-.64-.17-.92-.56-.92-.18 0-.5.1-.83.23l-.5.2v-.27l3.32-1.7.17.07v11.05c0 .8.36 1.13 1.75 1.13v.3"/><path d="M58 60.83h102.15" stroke="#5e5e5e" fill="none"/><path d="M58 61.33h-.56l.06-.48-.02-.52H58z" stroke="#5e5e5e" stroke-width=".05" fill="#5e5e5e"/><path d="M174.9 60.83l-14.25 4.63V56.2z" stroke="#5e5e5e" fill="#5e5e5e"/><path d="M58 320h102.12" stroke="#5e5e5e" fill="none"/><path d="M58 320.5h-.56l.06-.48-.02-.52H58z" stroke="#5e5e5e" stroke-width=".05" fill="#5e5e5e"/><path d="M174.88 320l-14.26 4.64v-9.28z" stroke="#5e5e5e" fill="#5e5e5e"/><path d="M904.43 155.86h79.88v23.3h-79.87z" fill="#fff" fill-opacity="0"/><path d="M910.9 160.6l-2.34 8.54c-.08.26-.1.55-.1.84 0 1 .52 1.72 1.57 1.72 2.83 0 4.66-2.96 5.5-5.3.2-.64.4-1.3.4-1.95 0-1.94-1.6-1.7-1.6-2.85 0-.9.65-1.1 1.4-1.1 1.1 0 1.24 1.33 1.24 2.17 0 2.6-1.02 5.24-2.54 7.33-1.13 1.57-3.14 2.72-5.08 2.72-1.68 0-3.04-.52-3.04-2.43 0-.56.1-1.1.25-1.63l1.52-5.5c.05-.2.13-.45.13-.66 0-.5-1.16-.5-1.5-.5v-.4c1.37-.34 2.78-.53 4.1-1.1M926.44 173.34h-1.9v3.1h-1.45v-3.1h-5.2v-1.18l5.82-8.24h.8v8.24h1.92v1.18m-3.35-1.18v-6.35l-4.46 6.36h4.45M951.64 166.73h-14.6V165h14.6v1.73M965.62 160.6l-2.33 8.54c-.1.26-.12.55-.12.84 0 1 .53 1.72 1.58 1.72 2.82 0 4.66-2.96 5.5-5.3.2-.64.4-1.3.4-1.95 0-1.94-1.6-1.7-1.6-2.85 0-.9.64-1.1 1.4-1.1 1.1 0 1.23 1.33 1.23 2.17 0 2.6-1.03 5.24-2.54 7.33-1.13 1.57-3.15 2.72-5.08 2.72-1.68 0-3.04-.52-3.04-2.43 0-.56.08-1.1.23-1.63l1.52-5.5c.04-.2.12-.45.12-.66 0-.5-1.15-.5-1.5-.5v-.4c1.37-.34 2.8-.53 4.1-1.1M973.54 167l-.3-.08c.54-1.76 1.7-3 3.63-3 1.72 0 2.9 1.02 2.9 2.53 0 .9-.5 1.82-1.73 2.56.8.36 1.14.58 1.53 1 .52.56.82 1.42.82 2.38 0 .98-.33 1.9-.87 2.6-.88 1.17-2.64 1.7-4.3 1.7-1.34 0-2.06-.38-2.06-1.04 0-.4.33-.67.76-.67.3 0 .6.1 1.12.48.7.48 1.08.57 1.6.57 1.37 0 2.4-1.25 2.4-2.83 0-1.4-.64-2.32-1.92-2.7-.4-.12-.83-.18-1.9-.18v-.26c.7-.24 1.2-.44 1.56-.66.9-.52 1.5-1.35 1.5-2.48 0-1.26-.78-1.9-2-1.9-1.15 0-2 .6-2.76 1.97"/><path d="M265.5 360h383v26.63h-383z" fill="#fff" fill-opacity="0"/><path d="M272 368.5h.96c1.65 0 1.52-2 2.65-3.7.82-1.22 1.95-2.34 3.94-2.34 1.3 0 2.07.62 2.07 1.54 0 .73-.54 1.05-1.07 1.05-.73 0-.9-.3-.9-.66 0-.37.22-.77.22-.98 0-.13-.08-.2-.4-.2-1.3 0-2.32 1.4-2.87 3.45l-.5 1.83h2.1l-.32 1h-2l-2.06 8c-.18.72-.4 1.7-.78 2.68-.87 2.18-2.28 4.66-4.6 4.66-1.24 0-1.87-.62-1.87-1.4 0-.64.37-1.3 1.13-1.3.7 0 .96.48.96.87 0 .5-.4.53-.4.85 0 .16.14.23.38.23 1.7 0 2.5-4.13 2.88-5.62l2.28-8.96h-2.02M289.57 384.16l-.32.42c-4.14-2.35-6.4-6.78-6.4-11.23 0-4.85 2.3-8.62 6.48-11.1l.24.42c-3.64 3.1-4.46 5.55-4.46 10.6 0 4.87.8 7.83 4.47 10.9M298.34 372.4l1.18-1.8c.68-1.05 1.6-2.2 2.9-2.2.84 0 1.3.3 1.3.86 0 .5-.35 1.1-1.04 1.1-.57 0-.7-.23-1.15-.23-.78 0-1.07.42-1.44 1l-1.45 2.22c.8 1.62 1.4 5.16 2.57 5.16.42 0 1.05-.36 1.6-1.5l.36.28c-.3.4-1.5 2.9-3 2.9-1.08 0-1.58-1.07-1.92-2l-1.05-2.97-1.64 2.57c-.84 1.3-1.6 2.4-3.06 2.4-.94 0-1.36-.64-1.36-1.22 0-.42.34-.97 1-.97.67 0 .57.53 1.22.53.32 0 1-.25 1.84-1.54l1.7-2.64-.87-2.4c-.44-1.27-1.12-2.34-2.56-2.34-.34 0-.74.05-1 .16l-.08-.48 3.45-.86c1.15.63 1.65 1.7 1.96 2.57M312.05 383.9h-5.1v-.3c1.36-.06 1.75-.45 1.75-1.47v-8.3c0-.64-.17-.92-.56-.92-.18 0-.5.1-.83.23l-.5.2v-.27l3.32-1.68.17.05v11.05c0 .8.36 1.13 1.75 1.13v.3M318.8 383.64l-.25-.5c1.44-.97 2.18-1.94 2.18-2.8 0-.18-.16-.34-.37-.34-.2 0-.47.1-.76.1-.97 0-1.52-.44-1.52-1.33 0-.9.63-1.5 1.57-1.5 1.18 0 2.1.92 2.1 2.28 0 1.58-1.13 3.23-2.94 4.1M335.55 372.4l1.18-1.8c.68-1.05 1.6-2.2 2.9-2.2.84 0 1.28.3 1.28.86 0 .5-.33 1.1-1 1.1-.58 0-.7-.23-1.16-.23-.78 0-1.07.42-1.44 1l-1.44 2.22c.8 1.62 1.4 5.16 2.57 5.16.42 0 1.04-.36 1.6-1.5l.36.28c-.32.4-1.5 2.9-3.02 2.9-1.07 0-1.57-1.07-1.9-2l-1.06-2.97-1.65 2.57c-.84 1.3-1.6 2.4-3.06 2.4-.94 0-1.35-.64-1.35-1.22 0-.42.34-.97 1-.97.67 0 .57.53 1.22.53.32 0 1-.25 1.83-1.54l1.7-2.64-.86-2.4c-.44-1.27-1.12-2.34-2.56-2.34-.34 0-.74.05-1 .16l-.08-.48 3.46-.86c1.15.63 1.65 1.7 1.96 2.57M350.74 381.35l-1 2.54h-7.24v-.23l3.3-3.5c1.74-1.83 2.4-3.24 2.4-4.8 0-1.7-1-2.62-2.57-2.62-1.33 0-1.98.6-2.72 2.4l-.38-.1c.4-2.16 1.57-3.67 3.85-3.67 2.1 0 3.42 1.42 3.42 3.25 0 1.47-.73 2.86-2.38 4.6l-3.05 3.25h4.33c.78 0 1.17-.2 1.78-1.24M354.6 362.67l.32-.42c4 2.4 6.4 6.78 6.4 11.23 0 4.84-2.3 8.56-6.48 11.1l-.23-.42c3.73-3.06 4.46-5.52 4.46-10.6 0-4.9-.65-7.9-4.45-10.9M386.55 371.57h-15.42v-1.73h15.42v1.73m0 5.24h-15.42v-1.72h15.42v1.73M402.37 362.46l-3.87 15.47s-.03.1-.03.3c0 .17.1.33.3.33.62 0 1.4-1.02 1.64-1.44l.43.3c-.9 1.06-2.02 2.8-3.54 2.8-.8 0-1.03-.7-1.03-1.35 0-.3.08-.68.16-.94l3.35-13.35c.08-.34.08-.55.08-.63 0-.32-.2-.58-.8-.58-.2 0-.5.05-.72.08l-.08-.4M415.67 377.43l-.13.16c-.73.88-2 2.56-3.35 2.56-.85 0-1.08-.6-1.08-1.2 0-.35.1-.77.18-1.05l1.5-5.78c.04-.2.18-.73.18-1.1 0-.5-.16-1-.63-1-1 0-2.65 2.26-3.46 3.5-.95 1.4-1.63 2.63-1.8 3.18l-.85 3.25h-2.02l2.5-9.8c0-.47-.1-.83-.8-.83-.26 0-.55.05-.73.08l-.05-.4 4.16-.6-1.33 4.95h.08c.13 0 1.42-1.83 1.47-1.9 1.05-1.32 2.62-3.05 4.2-3.05 1.14 0 1.45.76 1.45 1.62 0 .66-.15 1.3-.28 1.84l-1.56 6.05c-.02.06-.02.14-.02.27.02.15.1.36.4.36.62 0 1.25-.94 1.6-1.38M424.42 384.16l-.32.42c-4.13-2.35-6.4-6.78-6.4-11.23 0-4.85 2.3-8.62 6.48-11.1l.24.42c-3.64 3.1-4.45 5.55-4.45 10.6 0 4.87.78 7.83 4.45 10.9M433.2 372.4l1.17-1.8c.68-1.05 1.6-2.2 2.9-2.2.84 0 1.3.3 1.3.86 0 .5-.35 1.1-1.03 1.1-.58 0-.7-.23-1.16-.23-.78 0-1.07.42-1.44 1l-1.44 2.22c.8 1.62 1.4 5.16 2.57 5.16.42 0 1.05-.36 1.6-1.5l.36.28c-.3.4-1.5 2.9-3 2.9-1.08 0-1.58-1.07-1.92-2l-1.04-2.97-1.65 2.57c-.82 1.3-1.58 2.4-3.05 2.4-.94 0-1.36-.64-1.36-1.22 0-.42.33-.97.98-.97.7 0 .58.53 1.23.53.33 0 1-.25 1.85-1.54l1.7-2.64-.86-2.4c-.46-1.27-1.14-2.34-2.58-2.34-.34 0-.73.05-1 .16l-.07-.48 3.45-.86c1.15.63 1.65 1.7 1.97 2.57M446.9 383.9h-5.1v-.3c1.36-.06 1.75-.45 1.75-1.47v-8.3c0-.64-.17-.92-.56-.92-.2 0-.5.1-.84.23l-.5.2v-.27l3.32-1.68.16.05v11.05c0 .8.37 1.13 1.76 1.13v.3M452.25 362.67l.32-.42c4 2.4 6.4 6.78 6.4 11.23 0 4.84-2.32 8.56-6.48 11.1l-.25-.42c3.72-3.06 4.45-5.52 4.45-10.6 0-4.9-.65-7.9-4.45-10.9M482.7 374.2h-6.83V381h-1.73v-6.83h-6.83v-1.74h6.84v-6.84h1.73v6.84h6.84v1.73M497.8 372.4l1.17-1.8c.68-1.05 1.6-2.2 2.9-2.2.84 0 1.3.3 1.3.86 0 .5-.35 1.1-1.04 1.1-.57 0-.7-.23-1.15-.23-.78 0-1.07.42-1.44 1l-1.44 2.22c.8 1.62 1.4 5.16 2.57 5.16.42 0 1.05-.36 1.6-1.5l.36.28c-.3.4-1.5 2.9-3 2.9-1.08 0-1.58-1.07-1.92-2l-1.04-2.97-1.65 2.57c-.83 1.3-1.58 2.4-3.05 2.4-.94 0-1.36-.64-1.36-1.22 0-.42.33-.97.98-.97.68 0 .58.53 1.23.53.33 0 1-.25 1.85-1.54l1.7-2.64-.87-2.4c-.44-1.27-1.12-2.34-2.56-2.34-.34 0-.74.05-1 .16l-.08-.48 3.46-.86c1.15.63 1.65 1.7 1.96 2.57M511.5 383.9h-5.1v-.3c1.36-.06 1.75-.45 1.75-1.47v-8.3c0-.64-.17-.92-.56-.92-.2 0-.5.1-.84.23l-.5.2v-.27l3.3-1.68.18.05v11.05c0 .8.37 1.13 1.76 1.13v.3M524.1 372.4l1.18-1.8c.68-1.05 1.6-2.2 2.9-2.2.85 0 1.3.3 1.3.86 0 .5-.35 1.1-1.03 1.1-.58 0-.7-.23-1.15-.23-.8 0-1.08.42-1.44 1l-1.44 2.22c.78 1.62 1.4 5.16 2.56 5.16.42 0 1.05-.36 1.6-1.5l.37.28c-.32.4-1.5 2.9-3 2.9-1.1 0-1.58-1.07-1.92-2l-1.05-2.97-1.65 2.57c-.84 1.3-1.6 2.4-3.07 2.4-.94 0-1.36-.64-1.36-1.22 0-.42.34-.97 1-.97.68 0 .57.53 1.23.53.3 0 1-.25 1.83-1.54l1.7-2.64-.86-2.4c-.45-1.27-1.13-2.34-2.57-2.34-.34 0-.73.05-1 .16l-.07-.48 3.46-.86c1.15.63 1.65 1.7 1.96 2.57M539.3 381.35l-1 2.54h-7.24v-.23l3.3-3.5c1.73-1.83 2.4-3.24 2.4-4.8 0-1.7-1-2.62-2.57-2.62-1.35 0-2 .6-2.74 2.4l-.38-.1c.38-2.16 1.57-3.67 3.85-3.67 2.1 0 3.42 1.42 3.42 3.25 0 1.47-.72 2.86-2.37 4.6l-3.05 3.25h4.33c.78 0 1.17-.2 1.78-1.24M564.48 374.2H549.9v-1.74h14.58v1.73M582.2 368.4l-.62 3.82h-.4c0-1.67-.94-3.14-2.4-3.14-.66 0-1.34.45-1.34 1.52 0 1.44 3.5 3.85 3.5 6.34 0 1.62-1.25 3.27-3.52 3.27-.9 0-2.57-.5-2.88-.5-.24 0-.48.1-.8.54h-.43l.66-4.1h.42c0 1.66 1.07 3.4 2.72 3.4 1.55 0 1.9-1.3 1.9-2.32 0-2.14-3.4-3.45-3.4-6.02 0-2.07 1.55-2.8 3-2.8 1.12 0 1.64.52 2.4.52.3 0 .58-.26.8-.52h.4M590.27 365.13c0 .68-.57 1.2-1.25 1.2-.76 0-1.26-.52-1.26-1.2 0-.66.5-1.3 1.26-1.3.68 0 1.25.64 1.25 1.3m-.78 3.27l-2.42 9.53c-.03.16-.03.26-.03.37 0 .18.16.26.34.26.57 0 .73-.3 1.67-1.34l.34.27c-.9 1.16-2.22 2.74-3.5 2.74-.73 0-1.05-.5-1.05-1.2 0-.32 0-.82 2.07-8.86.03-.05.05-.23.05-.3 0-.46-.2-.6-.8-.6-.24 0-.56.06-.74.12l-.08-.42M603.92 377.43l-.14.16c-.73.88-2 2.56-3.35 2.56-.84 0-1.07-.6-1.07-1.2 0-.35.1-.77.18-1.05l1.5-5.78c.05-.2.18-.73.18-1.1 0-.5-.16-1-.63-1-1 0-2.65 2.26-3.47 3.5-.94 1.4-1.62 2.63-1.78 3.18l-.86 3.25h-2.03l2.5-9.8c0-.47-.1-.83-.8-.83-.26 0-.55.05-.73.08l-.05-.4 4.15-.6-1.33 4.95h.08c.13 0 1.4-1.83 1.46-1.9 1.05-1.32 2.62-3.05 4.2-3.05 1.14 0 1.46.76 1.46 1.62 0 .66-.16 1.3-.3 1.84l-1.54 6.05c-.02.06-.02.14-.02.27.02.15.1.36.4.36.62 0 1.25-.94 1.62-1.38M612.7 384.16l-.33.42c-4.13-2.35-6.4-6.78-6.4-11.23 0-4.85 2.3-8.62 6.48-11.1l.24.42c-3.65 3.1-4.46 5.55-4.46 10.6 0 4.87.78 7.83 4.45 10.9M621.43 372.4l1.18-1.8c.7-1.05 1.6-2.2 2.92-2.2.84 0 1.28.3 1.28.86 0 .5-.34 1.1-1.02 1.1-.58 0-.7-.23-1.15-.23-.8 0-1.08.42-1.44 1l-1.45 2.22c.78 1.62 1.4 5.16 2.56 5.16.43 0 1.06-.36 1.6-1.5l.38.28c-.32.4-1.5 2.9-3 2.9-1.1 0-1.6-1.07-1.93-2l-1.04-2.97-1.64 2.57c-.84 1.3-1.6 2.4-3.07 2.4-.95 0-1.37-.64-1.37-1.22 0-.42.34-.97 1-.97.68 0 .57.53 1.23.53.3 0 1-.25 1.83-1.54l1.7-2.64-.87-2.4c-.45-1.27-1.13-2.34-2.57-2.34-.34 0-.73.05-1 .16l-.07-.48 3.45-.86c1.15.63 1.65 1.7 1.96 2.57M636.62 381.35l-1 2.54h-7.23v-.23l3.28-3.5c1.74-1.83 2.4-3.24 2.4-4.8 0-1.7-1-2.62-2.56-2.62-1.34 0-2 .6-2.73 2.4l-.4-.1c.4-2.16 1.58-3.67 3.86-3.67 2.1 0 3.42 1.42 3.42 3.25 0 1.47-.72 2.86-2.37 4.6l-3.04 3.25h4.33c.77 0 1.15-.2 1.77-1.24M640.52 362.67l.32-.42c4 2.4 6.4 6.78 6.4 11.23 0 4.84-2.32 8.56-6.48 11.1l-.24-.42c3.72-3.06 4.45-5.52 4.45-10.6 0-4.9-.65-7.9-4.45-10.9"/></g></svg>