<svg xmlns="http://www.w3.org/2000/svg" xmlns:xlink="http://www.w3.org/1999/xlink" xmlns:lucid="lucid" width="772" height="526"><g transform="translate(-586 -384)" lucid:page-tab-id="0_0"><path d="M884 501.66c0 11.04-8.95 20-20 20s-20-8.96-20-20c0-11.05 8.95-20 20-20s20 8.95 20 20z" stroke="#000" fill="#f4d9ff"/><path d="M602.92 760h26.3v20h-26.3z" fill="#c3f7c8"/><path d="M610.9 765.77l1.2-1.8c.67-1.05 1.6-2.2 2.9-2.2.83 0 1.28.3 1.28.86 0 .5-.34 1.1-1.02 1.1-.58 0-.7-.23-1.16-.23-.78 0-1.07.4-1.44 1l-1.44 2.22c.8 1.62 1.4 5.15 2.57 5.15.4 0 1.04-.36 1.6-1.5l.35.27c-.3.4-1.5 2.9-3 2.9-1.08 0-1.58-1.06-1.92-2l-1.05-2.96-1.65 2.56c-.83 1.28-1.6 2.4-3.06 2.4-.94 0-1.36-.64-1.36-1.22 0-.42.35-.97 1-.97.68 0 .58.52 1.23.52.32 0 1-.26 1.84-1.54l1.7-2.64-.86-2.42c-.44-1.26-1.12-2.33-2.56-2.33-.34 0-.73.05-1 .15l-.07-.47 3.45-.86c1.15.63 1.65 1.7 1.97 2.56M626.1 774.72l-1 2.54h-7.24v-.22l3.3-3.5c1.74-1.84 2.4-3.24 2.4-4.82 0-1.68-1-2.6-2.57-2.6-1.34 0-2 .6-2.73 2.4l-.4-.1c.4-2.16 1.6-3.68 3.86-3.68 2.1 0 3.43 1.43 3.43 3.26 0 1.46-.72 2.85-2.37 4.6l-3.07 3.25h4.34c.77 0 1.16-.2 1.77-1.24"/><path d="M884 769.66c0 11.04-8.95 20-20 20s-20-8.96-20-20c0-11.05 8.95-20 20-20s20 8.95 20 20zM1128 637.5c0 11.06-8.95 20-20 20s-20-8.94-20-20c0-11.03 8.95-20 20-20s20 8.97 20 20z" stroke="#000" fill="#f4d9ff"/><path d="M602.92 490h26.3v20h-26.3z" fill="#c3f7c8"/><path d="M610.9 495.77l1.2-1.8c.67-1.05 1.6-2.2 2.9-2.2.83 0 1.28.3 1.28.86 0 .5-.34 1.1-1.02 1.1-.58 0-.7-.23-1.16-.23-.78 0-1.07.4-1.44 1l-1.44 2.22c.8 1.62 1.4 5.15 2.57 5.15.4 0 1.04-.36 1.6-1.5l.35.27c-.3.4-1.5 2.9-3 2.9-1.08 0-1.58-1.06-1.92-2l-1.05-2.96-1.65 2.56c-.83 1.28-1.6 2.4-3.06 2.4-.94 0-1.36-.64-1.36-1.22 0-.42.35-.97 1-.97.68 0 .58.52 1.23.52.32 0 1-.26 1.84-1.54l1.7-2.64-.86-2.42c-.44-1.26-1.12-2.33-2.56-2.33-.34 0-.73.05-1 .15l-.07-.47 3.45-.86c1.15.63 1.65 1.7 1.97 2.56M624.62 507.26h-5.1v-.28c1.36-.07 1.75-.46 1.75-1.48v-8.3c0-.64-.17-.92-.56-.92-.17 0-.5.1-.82.22l-.5.2v-.27l3.32-1.7.16.07v11.05c0 .8.37 1.13 1.76 1.13v.28"/><path d="M640.5 489.25h190.98M640.5 489.25h-.5" stroke="#5e5e5e" fill="none"/><path d="M846.25 489.25l-14.27 4.64v-9.3z" stroke="#5e5e5e" fill="#5e5e5e"/><path d="M884.4 490.28l191.46 129.67" stroke="#5e5e5e" fill="none"/><path d="M884.7 489.87l-.56.83-.14-.1v-.6h-.9l-1.86-1.27.56-.83z" stroke="#5e5e5e" stroke-width=".05" fill="#5e5e5e"/><path d="M1088.1 628.23l-14.43-4.16 5.2-7.67z" stroke="#5e5e5e" fill="#5e5e5e"/><path d="M640.32 500.4L839.1 742.6M640.33 500.4l-.33-.4" stroke="#5e5e5e" fill="none"/><path d="M848.47 754l-12.63-8.07 7.16-5.88z" stroke="#5e5e5e" fill="#5e5e5e"/><path d="M640.82 769.6l198.76-240.3M640.83 769.6l-.33.4" stroke="#5e5e5e" fill="none"/><path d="M849 517.9l-5.52 13.96-7.15-5.9z" stroke="#5e5e5e" fill="#5e5e5e"/><path d="M641 770h186.13M641 770h-.5" stroke="#5e5e5e" fill="none"/><path d="M841.9 770l-14.27 4.64v-9.28z" stroke="#5e5e5e" fill="#5e5e5e"/><path d="M883.74 762.62l189.8-116.54" stroke="#5e5e5e" fill="none"/><path d="M884 763.04l-.5.3-.04-.15-.36-.77.4-.25z" stroke="#5e5e5e" stroke-width=".05" fill="#5e5e5e"/><path d="M1086.12 638.36l-9.73 11.4-4.86-7.9z" stroke="#5e5e5e" fill="#5e5e5e"/><path d="M849.85 490H884v20h-34.15z" fill="#fff" fill-opacity="0"/><path d="M856.92 495.28l.73 6.15c1.6-2.17 2.5-3.74 3.1-4.82.5-.96.72-1.48.72-1.95 0-.55-1.36-.8-1.36-1.8 0-.6.48-1.06 1.24-1.06.84 0 1.5.6 1.5 1.62 0 2.04-4.25 8.32-5.35 9.7-1.92 2.42-3.62 5-5.4 5-.97 0-1.47-.82-1.47-1.45 0-.8.7-1.08 1.05-1.08 1.13 0 1.07.8 1.5.8.44 0 1.93-1.62 2.6-2.67l-.98-8.22c-.13-1.17-.37-2.74-1.84-2.74-.28 0-.7.08-.94.1l-.05-.4 3.93-.67c.6.86.78 1.54 1.02 3.48M870.13 507.24h-5.1v-.27c1.36-.08 1.75-.47 1.75-1.5v-8.3c0-.63-.17-.9-.56-.9-.18 0-.5.1-.83.22l-.5.17v-.26l3.3-1.67.17.05v11.06c0 .8.37 1.13 1.76 1.13v.27M879.4 507.24h-5.12v-.27c1.37-.08 1.75-.47 1.75-1.5v-8.3c0-.63-.16-.9-.55-.9-.2 0-.5.1-.83.22l-.5.17v-.26l3.3-1.67.18.05v11.06c0 .8.37 1.13 1.76 1.13v.27"/><path d="M846.92 759.66h34.16v20h-34.16z" fill="#fff" fill-opacity="0"/><path d="M854 764.93l.73 6.16c1.6-2.2 2.5-3.76 3.1-4.83.5-.97.72-1.5.72-1.96 0-.54-1.36-.8-1.36-1.8 0-.58.46-1.05 1.22-1.05.84 0 1.5.6 1.5 1.62 0 2.05-4.25 8.33-5.35 9.72-1.9 2.4-3.6 4.96-5.4 4.96-.96 0-1.46-.8-1.46-1.44 0-.78.72-1.07 1.06-1.07 1.12 0 1.07.8 1.5.8.43 0 1.93-1.6 2.6-2.66l-1-8.23c-.12-1.18-.35-2.75-1.82-2.75-.3 0-.7.08-.94.1l-.06-.4 3.93-.67c.6.87.8 1.55 1.02 3.48M867.2 776.9h-5.1v-.28c1.37-.07 1.75-.46 1.75-1.48v-8.3c0-.64-.16-.92-.55-.92-.2 0-.5.1-.83.22l-.5.2v-.27l3.3-1.68.18.04v11.05c0 .8.37 1.12 1.76 1.12v.28M877.94 774.36l-1 2.54h-7.24v-.22l3.3-3.5c1.74-1.83 2.4-3.24 2.4-4.8 0-1.7-1-2.62-2.57-2.62-1.33 0-1.98.6-2.72 2.4l-.38-.1c.4-2.16 1.58-3.67 3.85-3.67 2.1 0 3.43 1.4 3.43 3.24 0 1.47-.72 2.85-2.37 4.6l-3.06 3.25h4.34c.78 0 1.17-.2 1.78-1.25"/><path d="M1093.85 627.5h24.88v20h-24.88z" fill="#fff" fill-opacity="0"/><path d="M1100.92 632.8l.73 6.14c1.6-2.17 2.5-3.74 3.1-4.82.5-.96.72-1.5.72-1.96 0-.55-1.36-.8-1.36-1.8 0-.58.48-1.05 1.24-1.05.84 0 1.5.6 1.5 1.63 0 2.04-4.25 8.33-5.35 9.7-1.92 2.42-3.62 5-5.4 5-.97 0-1.47-.82-1.47-1.45 0-.8.7-1.07 1.05-1.07 1.13 0 1.07.82 1.5.82.44 0 1.93-1.63 2.6-2.67l-.98-8.23c-.13-1.17-.37-2.75-1.84-2.75-.28 0-.7.08-.94.1l-.05-.4 3.93-.66c.6.87.78 1.55 1.02 3.5M1115.62 642.23l-1 2.54h-7.24v-.22l3.3-3.5c1.74-1.83 2.4-3.24 2.4-4.8 0-1.7-1-2.62-2.57-2.62-1.32 0-1.97.6-2.7 2.4l-.4-.1c.4-2.16 1.57-3.67 3.85-3.67 2.1 0 3.42 1.42 3.42 3.25 0 1.48-.72 2.87-2.37 4.6l-3.05 3.26h4.33c.78 0 1.17-.2 1.78-1.24"/><path d="M660 464.87h41.46v21.66H660z" fill="#fff" fill-opacity="0"/><path d="M673.9 468.06l-2.1 7.57c-.15.6-.3 1.2-.3 1.83 0 1.02.5 1.6 1.54 1.6 2.83 0 4.3-3 5.1-5.32.22-.63.4-1.28.4-1.94 0-1.93-1.55-1.72-1.6-2.85-.05-.94.8-1.1 1.42-1.1 1.1 0 1.23 1.34 1.23 2.17 0 3.83-2.76 10.06-7.24 10.06-1.8 0-2.9-.73-2.9-2.62 0-1.1.3-2.23.6-3.27-1.05 2.32-3.2 5.88-6.13 5.88-1.47 0-2.04-.9-2.04-2.28 0-.86.27-1.68.48-2.5l1.23-4.62c.1-.24.14-.5.14-.76 0-.63-1-.58-1.4-.58v-.4c1.38-.23 2.74-.6 4.05-1.14l.1.08-2.13 8.04c-.08.34-.3 1.17-.3 1.9 0 .7.17 1.24.75 1.24 1.52-.03 3.38-3 4-3.96 1.4-2.12 2.07-4.16 2.88-7.04h2.2M687.6 483.77h-5.12v-.28c1.37-.08 1.76-.47 1.76-1.5v-8.3c0-.63-.17-.9-.56-.9-.18 0-.5.1-.83.2l-.5.2v-.26l3.3-1.68.18.05v11.06c0 .8.37 1.13 1.76 1.13v.27M696.84 483.77h-5.1v-.28c1.36-.08 1.75-.47 1.75-1.5v-8.3c0-.63-.17-.9-.56-.9-.2 0-.5.1-.84.2l-.5.2v-.26l3.32-1.68.16.05v11.06c0 .8.38 1.13 1.76 1.13v.27"/><path d="M660 580h41.46v21.66H660z" fill="#fff" fill-opacity="0"/><path d="M673.9 583.2l-2.1 7.56c-.15.6-.3 1.2-.3 1.83 0 1 .5 1.6 1.54 1.6 2.83 0 4.3-3.02 5.1-5.33.22-.62.4-1.28.4-1.93 0-1.94-1.55-1.73-1.6-2.86-.05-.94.8-1.1 1.42-1.1 1.1 0 1.23 1.34 1.23 2.18 0 3.82-2.76 10.05-7.24 10.05-1.8 0-2.9-.72-2.9-2.6 0-1.1.3-2.23.6-3.28-1.05 2.33-3.2 5.9-6.13 5.9-1.47 0-2.04-.9-2.04-2.3 0-.85.27-1.66.48-2.47l1.23-4.64c.1-.23.14-.5.14-.75 0-.63-1-.58-1.4-.58v-.4c1.38-.22 2.74-.6 4.05-1.14l.1.08-2.13 8.05c-.08.34-.3 1.18-.3 1.9 0 .7.17 1.24.75 1.24 1.52-.04 3.38-3 4-3.96 1.4-2.13 2.07-4.17 2.88-7.05h2.2M687.6 598.9h-5.12v-.27c1.37-.08 1.76-.47 1.76-1.5v-8.3c0-.63-.17-.9-.56-.9-.18 0-.5.1-.83.22l-.5.18v-.26l3.3-1.68.18.04v11.06c0 .8.37 1.13 1.76 1.13v.27M698.32 596.37l-1 2.53h-7.23v-.22l3.28-3.5c1.74-1.83 2.4-3.24 2.4-4.8 0-1.7-1-2.62-2.56-2.62-1.34 0-2 .6-2.73 2.4l-.4-.1c.4-2.15 1.58-3.67 3.86-3.67 2.1 0 3.42 1.4 3.42 3.25 0 1.46-.72 2.85-2.37 4.6l-3.04 3.25h4.33c.77 0 1.15-.2 1.77-1.24"/><path d="M660 681.66h41.46v21.66H660z" fill="#fff" fill-opacity="0"/><path d="M673.9 684.85l-2.1 7.57c-.15.6-.3 1.2-.3 1.83 0 1.02.5 1.6 1.54 1.6 2.83 0 4.3-3 5.1-5.32.22-.63.4-1.28.4-1.94 0-1.94-1.55-1.73-1.6-2.86-.05-.94.8-1.1 1.42-1.1 1.1 0 1.23 1.34 1.23 2.17 0 3.84-2.76 10.07-7.24 10.07-1.8 0-2.9-.73-2.9-2.62 0-1.1.3-2.23.6-3.27-1.05 2.33-3.2 5.9-6.13 5.9-1.47 0-2.04-.9-2.04-2.3 0-.85.27-1.67.48-2.48l1.23-4.63c.1-.24.14-.5.14-.76 0-.62-1-.57-1.4-.57v-.4c1.38-.23 2.74-.6 4.05-1.14l.1.07-2.13 8.03c-.08.35-.3 1.18-.3 1.92 0 .68.17 1.23.75 1.23 1.52-.03 3.38-3 4-3.96 1.4-2.13 2.07-4.17 2.88-7.05h2.2M687.6 700.56h-5.12v-.28c1.37-.07 1.76-.46 1.76-1.48v-8.3c0-.64-.17-.92-.56-.92-.18 0-.5.1-.83.22l-.5.2v-.27l3.3-1.68.18.05v11.05c0 .8.37 1.13 1.76 1.13v.28M690.68 691.12l-.3-.08c.54-1.75 1.7-3 3.63-3 1.73 0 2.9 1.02 2.9 2.54 0 .9-.48 1.82-1.72 2.56.8.35 1.15.57 1.53.98.53.57.83 1.42.83 2.4 0 .97-.32 1.87-.85 2.58-.9 1.18-2.65 1.72-4.3 1.72-1.35 0-2.07-.4-2.07-1.06 0-.38.34-.66.77-.66.3 0 .6.1 1.13.48.68.48 1.07.57 1.6.57 1.36 0 2.4-1.26 2.4-2.83 0-1.4-.65-2.3-1.93-2.68-.4-.13-.83-.2-1.9-.2v-.25c.72-.25 1.2-.45 1.57-.67.9-.52 1.5-1.36 1.5-2.5 0-1.24-.78-1.87-2-1.87-1.15 0-2 .6-2.76 1.96"/><path d="M660 783.32h41.46v21.65H660z" fill="#fff" fill-opacity="0"/><path d="M673.9 786.5l-2.1 7.57c-.15.6-.3 1.2-.3 1.84 0 1.03.5 1.6 1.54 1.6 2.83 0 4.3-3 5.1-5.3.22-.64.4-1.3.4-1.95 0-1.94-1.55-1.73-1.6-2.85-.05-.95.8-1.1 1.42-1.1 1.1 0 1.23 1.33 1.23 2.17 0 3.82-2.76 10.06-7.24 10.06-1.8 0-2.9-.74-2.9-2.62 0-1.1.3-2.22.6-3.27-1.05 2.33-3.2 5.9-6.13 5.9-1.47 0-2.04-.9-2.04-2.28 0-.87.27-1.68.48-2.5l1.23-4.62c.1-.24.14-.5.14-.76 0-.63-1-.58-1.4-.58v-.4c1.38-.24 2.74-.6 4.05-1.15l.1.07-2.13 8.04c-.08.34-.3 1.18-.3 1.9 0 .7.17 1.24.75 1.24 1.52-.02 3.38-2.98 4-3.95 1.4-2.12 2.07-4.16 2.88-7.04h2.2M687.6 802.22h-5.12v-.28c1.37-.07 1.76-.46 1.76-1.48v-8.3c0-.64-.17-.92-.56-.92-.18 0-.5.1-.83.22l-.5.2v-.27l3.3-1.7.18.06v11.05c0 .8.37 1.14 1.76 1.14v.28M698.3 799.13h-1.9v3.1h-1.44v-3.1h-5.2v-1.2l5.82-8.23h.82v8.24h1.9v1.2m-3.34-1.2v-6.35l-4.45 6.34h4.46"/><path d="M900 540h41.46v21.66H900z" fill="#fff" fill-opacity="0"/><path d="M913.9 543.2l-2.1 7.56c-.15.6-.3 1.2-.3 1.83 0 1 .5 1.6 1.54 1.6 2.83 0 4.3-3.02 5.1-5.33.22-.62.4-1.28.4-1.93 0-1.94-1.55-1.73-1.6-2.86-.05-.94.8-1.1 1.42-1.1 1.1 0 1.23 1.34 1.23 2.18 0 3.82-2.76 10.05-7.24 10.05-1.8 0-2.9-.72-2.9-2.6 0-1.1.3-2.23.6-3.28-1.05 2.33-3.2 5.9-6.13 5.9-1.47 0-2.04-.9-2.04-2.3 0-.85.27-1.66.48-2.47l1.23-4.64c.1-.23.14-.5.14-.75 0-.63-1-.58-1.4-.58v-.4c1.38-.22 2.74-.6 4.05-1.14l.1.08-2.13 8.05c-.08.34-.3 1.18-.3 1.9 0 .7.17 1.24.75 1.24 1.52-.04 3.38-3 4-3.96 1.4-2.13 2.07-4.17 2.88-7.05h2.2M929.07 556.37l-1 2.53h-7.24v-.22l3.3-3.5c1.74-1.83 2.4-3.24 2.4-4.8 0-1.7-1-2.62-2.57-2.62-1.33 0-1.98.6-2.72 2.4l-.4-.1c.4-2.15 1.58-3.67 3.86-3.67 2.1 0 3.42 1.4 3.42 3.25 0 1.46-.72 2.85-2.37 4.6l-3.05 3.25h4.33c.78 0 1.17-.2 1.78-1.24M936.84 558.9h-5.1v-.27c1.36-.08 1.75-.47 1.75-1.5v-8.3c0-.63-.17-.9-.56-.9-.2 0-.5.1-.84.22l-.5.18v-.26l3.32-1.68.16.04v11.06c0 .8.38 1.13 1.76 1.13v.27"/><path d="M900 703.03h41.46v21.65H900z" fill="#fff" fill-opacity="0"/><path d="M913.9 706.22l-2.1 7.57c-.15.6-.3 1.2-.3 1.82 0 1.02.5 1.6 1.54 1.6 2.83 0 4.3-3 5.1-5.32.22-.63.4-1.28.4-1.94 0-1.93-1.55-1.72-1.6-2.85-.05-.93.8-1.1 1.42-1.1 1.1 0 1.23 1.35 1.23 2.18 0 3.83-2.76 10.06-7.24 10.06-1.8 0-2.9-.73-2.9-2.62 0-1.1.3-2.23.6-3.27-1.05 2.33-3.2 5.9-6.13 5.9-1.47 0-2.04-.9-2.04-2.3 0-.85.27-1.67.48-2.48l1.23-4.63c.1-.24.14-.5.14-.76 0-.63-1-.58-1.4-.58v-.4c1.38-.23 2.74-.6 4.05-1.14l.1.08-2.13 8.03c-.08.35-.3 1.18-.3 1.92 0 .67.17 1.22.75 1.22 1.52-.03 3.38-3 4-3.96 1.4-2.12 2.07-4.16 2.88-7.04h2.2M929.07 719.4l-1 2.53h-7.24v-.22l3.3-3.5c1.74-1.82 2.4-3.23 2.4-4.8 0-1.7-1-2.6-2.57-2.6-1.33 0-1.98.58-2.72 2.4l-.4-.1c.4-2.17 1.58-3.68 3.86-3.68 2.1 0 3.42 1.42 3.42 3.25 0 1.47-.72 2.85-2.37 4.6l-3.05 3.25h4.33c.78 0 1.17-.2 1.78-1.24M938.32 719.4l-1 2.53h-7.23v-.22l3.28-3.5c1.74-1.82 2.4-3.23 2.4-4.8 0-1.7-1-2.6-2.56-2.6-1.34 0-2 .58-2.73 2.4l-.4-.1c.4-2.17 1.58-3.68 3.86-3.68 2.1 0 3.42 1.42 3.42 3.25 0 1.47-.72 2.85-2.37 4.6l-3.04 3.25h4.33c.77 0 1.15-.2 1.77-1.24"/><path d="M760 446.8h47.64V490H760z" fill="#fff3d9"/><path d="M763.14 467.6h41.35v-1.56h-41.36zM776.26 450.36l-.2-.37c.53-.33 1.2-.44 1.83-.44 2.32 0 3.47 1.67 3.47 4.8 0 2.75-1.13 7.77-5.46 7.77-1.8 0-2.5-1.42-2.5-3 0-2.6 2.04-5.26 4.75-5.26.6 0 1.38.2 1.77.9.08-.4.13-.86.13-1.3 0-1.63-.53-3.35-2.42-3.35-.5 0-.9.1-1.37.24m3.18 5.66c0-1.2-.63-1.6-1.13-1.6-1.82 0-3.4 2.77-3.4 5.34 0 .7.06 1.82 1.23 1.82 1.42 0 2.52-1.86 3.03-3.74.17-.62.28-1.24.28-1.82M794.96 449.84l-.78 2.92h-.3c.02-.24.04-.44.04-.64-.06-1.37-1.08-1.62-2.02-1.62h-2.96l-1.1 4.6h1.47c1.12 0 1.93-.24 2.34-1.76h.3l-1.08 4.48h-.3c0-.24.1-.8.1-1.1 0-.88-.76-.96-1.33-.96h-1.67l-1.22 4.78c-.02.07-.04.13-.04.18 0 .3.3.5 1.17.5h1.24c2.93 0 3.97-.87 4.77-2.96h.3l-1.23 3.67h-10.57l.07-.3h.36c1.35 0 1.77-.52 1.92-1.15l2.22-9.03c.08-.33.1-.54.1-.67 0-.44-.3-.65-1.4-.65H785l.07-.3h9.9M768.32 472.33l-.18-.37c.52-.32 1.18-.43 1.8-.43 2.34 0 3.5 1.67 3.5 4.8 0 2.75-1.14 7.77-5.47 7.77-1.8 0-2.52-1.43-2.52-3 0-2.6 2.06-5.26 4.76-5.26.6 0 1.4.2 1.8.9.06-.42.12-.86.12-1.3 0-1.63-.54-3.35-2.43-3.35-.5 0-.9.08-1.38.23m3.2 5.66c0-1.2-.64-1.6-1.14-1.6-1.83 0-3.43 2.76-3.43 5.33 0 .7.08 1.8 1.24 1.8 1.42 0 2.5-1.84 3.03-3.72.17-.6.28-1.24.28-1.8M783.26 475.57l-1.48 5.35c-.1.42-.22.85-.22 1.3 0 .7.35 1.12 1.1 1.12 2 0 3.03-2.13 3.6-3.76.15-.44.28-.9.28-1.37 0-1.36-1.1-1.2-1.13-2-.03-.67.57-.78 1-.78.8 0 .88.94.88 1.53 0 2.7-1.94 7.1-5.1 7.1-1.3 0-2.06-.5-2.06-1.84 0-.77.22-1.56.42-2.3-.74 1.65-2.26 4.16-4.33 4.16-1.03 0-1.43-.63-1.43-1.6 0-.62.2-1.2.35-1.77l.87-3.28c.04-.17.08-.35.08-.54 0-.44-.7-.4-1-.4v-.28c.98-.17 1.94-.43 2.87-.82l.07.06-1.5 5.68c-.05.24-.2.83-.2 1.35 0 .48.1.87.52.87 1.07-.02 2.4-2.1 2.83-2.8.98-1.5 1.46-2.94 2.04-4.97h1.56M793 486.7h-3.65v-.2c.98-.05 1.26-.33 1.26-1.06v-5.96c0-.46-.1-.65-.4-.65-.12 0-.35.06-.6.15l-.34.14v-.2l2.37-1.2.12.04v7.93c0 .56.27.8 1.26.8v.2M799.65 486.7H796v-.2c.97-.05 1.25-.33 1.25-1.06v-5.96c0-.46-.12-.65-.4-.65-.13 0-.36.06-.6.15l-.36.14v-.2l2.37-1.2.12.04v7.93c0 .56.25.8 1.25.8v.2"/><path d="M1261.46 627.5h80.72v26.65h-80.72z" fill="#fc9432"/><path d="M1280.68 630.36l-1.1 4.14h-.42c.03-.34.05-.63.05-.92-.07-1.94-1.5-2.28-2.84-2.28h-4.2l-1.56 6.5h2.1c1.56 0 2.72-.34 3.3-2.5h.4l-1.5 6.35h-.45c.02-.34.15-1.13.15-1.57 0-1.23-1.07-1.34-1.88-1.34h-2.36l-1.73 6.76c-.02.1-.05.18-.05.26 0 .42.42.7 1.65.7h1.75c4.14 0 5.6-1.23 6.73-4.18h.43l-1.72 5.18h-14.95l.1-.42h.5c1.92 0 2.52-.73 2.73-1.62l3.14-12.78c.1-.47.13-.76.13-.94 0-.63-.42-.92-1.96-.92h-.5l.1-.42h13.98M1288.64 651.68l-.32.4c-4.13-2.34-6.38-6.77-6.38-11.22 0-4.84 2.27-8.6 6.46-11.1l.24.42c-3.64 3.1-4.45 5.55-4.45 10.6 0 4.87.77 7.83 4.44 10.9M1296.5 639.42l.73 6.15c1.6-2.17 2.5-3.74 3.1-4.8.5-.98.72-1.5.72-1.98 0-.56-1.36-.82-1.36-1.8 0-.6.46-1.06 1.22-1.06.84 0 1.5.6 1.5 1.62 0 2.04-4.25 8.33-5.35 9.72-1.9 2.4-3.6 4.97-5.4 4.97-.96 0-1.46-.8-1.46-1.44 0-.77.72-1.06 1.06-1.06 1.12 0 1.07.8 1.5.8.43 0 1.93-1.6 2.6-2.66l-1-8.22c-.12-1.18-.35-2.75-1.82-2.75-.3 0-.7.1-.94.1l-.06-.4 3.93-.66c.6.86.8 1.54 1.02 3.48M1311.2 648.87l-1 2.53h-7.24v-.22l3.3-3.5c1.73-1.83 2.4-3.24 2.4-4.8 0-1.7-1-2.62-2.57-2.62-1.35 0-2 .6-2.74 2.4l-.38-.1c.38-2.15 1.57-3.67 3.85-3.67 2.1 0 3.42 1.4 3.42 3.25 0 1.46-.72 2.85-2.37 4.6l-3.05 3.25h4.33c.78 0 1.16-.2 1.78-1.24M1316.47 651.15l-.26-.5c1.45-.96 2.18-1.93 2.18-2.8 0-.18-.15-.34-.36-.34-.2 0-.47.12-.76.12-.97 0-1.52-.45-1.52-1.34 0-.9.63-1.5 1.57-1.5 1.2 0 2.1.93 2.1 2.3 0 1.56-1.12 3.2-2.93 4.07M1332.63 636l-.26 1h-1.84l-2.04 8.37c-.03.07-.06.2-.06.28 0 .16.08.32.42.32 0 0 .6-.05 1.57-1.36l.34.3c-.63.8-1.94 2.8-3.48 2.8-.82 0-1.03-.66-1.03-1.37 0-.34.05-.68.13-.96l2.12-8.38h-2.02l.13-.77c1.97-.37 3.56-1.34 4.64-3.62h.34l-.8 3.4h1.83M1334.2 630.18l.3-.42c4.02 2.4 6.4 6.78 6.4 11.23 0 4.84-2.3 8.55-6.46 11.1l-.24-.42c3.72-3.07 4.45-5.53 4.45-10.6 0-4.9-.65-7.92-4.45-10.9"/><path d="M1129 637.52l116.08 1.24" stroke="#5e5e5e" fill="none"/><path d="M1129.02 637.02v1h-.58l.06-.5-.02-.5z" stroke="#5e5e5e" stroke-width=".05" fill="#5e5e5e"/><path d="M1259.84 638.92l-14.3 4.48.1-9.27z" stroke="#5e5e5e" fill="#5e5e5e"/><path d="M760 532.5h47.64v43.2H760z" fill="#fff3d9"/><path d="M763.14 553.3h41.35v-1.57h-41.36zM776.26 536.05l-.2-.37c.53-.3 1.2-.42 1.83-.42 2.32 0 3.47 1.66 3.47 4.8 0 2.75-1.13 7.77-5.46 7.77-1.8 0-2.5-1.43-2.5-3 0-2.6 2.04-5.26 4.75-5.26.6 0 1.38.2 1.77.9.08-.42.13-.86.13-1.3 0-1.64-.53-3.36-2.42-3.36-.5 0-.9.1-1.37.25m3.18 5.67c0-1.2-.63-1.6-1.13-1.6-1.82 0-3.4 2.76-3.4 5.34 0 .7.06 1.8 1.23 1.8 1.42 0 2.52-1.84 3.03-3.73.17-.6.28-1.24.28-1.8M794.96 535.53l-.78 2.93h-.3c.02-.24.04-.44.04-.65-.06-1.36-1.08-1.6-2.02-1.6h-2.96l-1.1 4.6h1.47c1.12 0 1.93-.25 2.34-1.77h.3l-1.08 4.48h-.3c0-.23.1-.78.1-1.1 0-.87-.76-.94-1.33-.94h-1.67l-1.22 4.78c-.02.07-.04.12-.04.18 0 .3.3.5 1.17.5h1.24c2.93 0 3.97-.87 4.77-2.96h.3l-1.23 3.66h-10.57l.07-.3h.36c1.35 0 1.77-.5 1.92-1.14l2.22-9.03c.08-.34.1-.54.1-.67 0-.45-.3-.65-1.4-.65H785l.07-.3h9.9M768.32 558.02l-.18-.37c.52-.3 1.18-.42 1.8-.42 2.34 0 3.5 1.66 3.5 4.8 0 2.75-1.14 7.77-5.47 7.77-1.8 0-2.52-1.43-2.52-3 0-2.6 2.06-5.26 4.76-5.26.6 0 1.4.2 1.8.9.06-.42.12-.86.12-1.3 0-1.64-.54-3.36-2.43-3.36-.5 0-.9.1-1.38.24m3.2 5.67c0-1.22-.64-1.6-1.14-1.6-1.83 0-3.43 2.75-3.43 5.33 0 .7.08 1.8 1.24 1.8 1.42 0 2.5-1.84 3.03-3.73.17-.6.28-1.24.28-1.8M783.26 561.26l-1.48 5.35c-.1.44-.22.86-.22 1.3 0 .73.35 1.14 1.1 1.14 2 0 3.03-2.13 3.6-3.76.15-.44.28-.9.28-1.37 0-1.36-1.1-1.2-1.13-2-.03-.67.57-.8 1-.8.8 0 .88.96.88 1.55 0 2.7-1.94 7.1-5.1 7.1-1.3 0-2.06-.5-2.06-1.84 0-.77.22-1.57.42-2.3-.74 1.64-2.26 4.16-4.33 4.16-1.03 0-1.43-.63-1.43-1.6 0-.62.2-1.2.35-1.77l.87-3.3c.04-.15.08-.34.08-.52 0-.45-.7-.4-1-.4v-.3c.98-.16 1.94-.4 2.87-.8l.07.05-1.5 5.7c-.05.23-.2.82-.2 1.34 0 .48.1.87.52.87 1.07-.02 2.4-2.1 2.83-2.8.98-1.5 1.46-2.94 2.04-4.98h1.56M793 572.4h-3.65v-.2c.98-.06 1.26-.34 1.26-1.07v-5.96c0-.45-.1-.65-.4-.65-.12 0-.35.07-.6.16l-.34.13v-.17l2.37-1.2.12.03v7.93c0 .56.27.8 1.26.8v.2M795.23 565.62l-.2-.05c.37-1.26 1.2-2.15 2.6-2.15 1.22 0 2.06.73 2.06 1.82 0 .64-.35 1.3-1.24 1.83.58.25.82.4 1.1.7.37.42.58 1.03.58 1.72 0 .7-.22 1.34-.6 1.85-.65.85-1.9 1.23-3.1 1.23-.96 0-1.48-.28-1.48-.76 0-.28.24-.47.55-.47.23 0 .45.08.82.34.5.34.77.4 1.14.4.98 0 1.73-.9 1.73-2.03 0-1-.48-1.66-1.4-1.92-.3-.1-.6-.14-1.35-.14v-.17c.5-.17.85-.32 1.12-.48.65-.37 1.07-.97 1.07-1.78 0-.9-.56-1.35-1.43-1.35-.82 0-1.43.42-1.97 1.4"/><path d="M760 695.57h47.64v43.2H760z" fill="#fff3d9"/><path d="M763.14 716.4h41.35v-1.6h-41.36zM776.26 699.13l-.2-.37c.53-.3 1.2-.42 1.83-.42 2.32 0 3.47 1.66 3.47 4.8 0 2.75-1.13 7.77-5.46 7.77-1.8 0-2.5-1.42-2.5-3 0-2.6 2.04-5.25 4.75-5.25.6 0 1.38.2 1.77.9.08-.42.13-.86.13-1.3 0-1.64-.53-3.36-2.42-3.36-.5 0-.9.1-1.37.23m3.18 5.67c0-1.2-.63-1.6-1.13-1.6-1.82 0-3.4 2.76-3.4 5.34 0 .7.06 1.8 1.23 1.8 1.42 0 2.52-1.84 3.03-3.73.17-.6.28-1.23.28-1.8M794.96 698.6l-.78 2.94h-.3c.02-.24.04-.44.04-.65-.06-1.38-1.08-1.62-2.02-1.62h-2.96l-1.1 4.6h1.47c1.12 0 1.93-.25 2.34-1.77h.3l-1.08 4.5h-.3c0-.25.1-.8.1-1.12 0-.87-.76-.94-1.33-.94h-1.67l-1.22 4.78c-.02.07-.04.12-.04.18 0 .3.3.5 1.17.5h1.24c2.93 0 3.97-.87 4.77-2.96h.3l-1.23 3.66h-10.57l.07-.3h.36c1.35 0 1.77-.5 1.92-1.14l2.22-9.03c.08-.34.1-.54.1-.67 0-.45-.3-.65-1.4-.65H785l.07-.3h9.9M768.32 721.1l-.18-.37c.52-.3 1.18-.42 1.8-.42 2.34 0 3.5 1.67 3.5 4.82 0 2.74-1.14 7.76-5.47 7.76-1.8 0-2.52-1.43-2.52-3 0-2.6 2.06-5.26 4.76-5.26.6 0 1.4.2 1.8.9.06-.42.12-.86.12-1.3 0-1.64-.54-3.36-2.43-3.36-.5 0-.9.1-1.38.24m3.2 5.67c0-1.2-.64-1.6-1.14-1.6-1.83 0-3.43 2.76-3.43 5.34 0 .7.08 1.82 1.24 1.82 1.42 0 2.5-1.85 3.03-3.74.17-.6.28-1.24.28-1.8M783.26 724.34l-1.48 5.35c-.1.42-.22.84-.22 1.3 0 .7.35 1.12 1.1 1.12 2 0 3.03-2.13 3.6-3.76.15-.45.28-.9.28-1.37 0-1.38-1.1-1.23-1.13-2.03-.03-.67.57-.78 1-.78.8 0 .88.94.88 1.53 0 2.7-1.94 7.1-5.1 7.1-1.3 0-2.06-.5-2.06-1.84 0-.8.22-1.6.42-2.33-.74 1.65-2.26 4.17-4.33 4.17-1.03 0-1.43-.63-1.43-1.6 0-.62.2-1.2.35-1.77l.87-3.28c.04-.17.08-.36.08-.54 0-.45-.7-.4-1-.4v-.3c.98-.16 1.94-.4 2.87-.8l.07.05-1.5 5.7c-.05.24-.2.83-.2 1.35 0 .48.1.87.52.87 1.07-.02 2.4-2.1 2.83-2.8.98-1.5 1.46-2.94 2.04-4.98h1.56M793 735.47h-3.65v-.2c.98-.05 1.26-.33 1.26-1.06v-5.95c0-.45-.1-.65-.4-.65-.12 0-.35.07-.6.16l-.34.13v-.2l2.37-1.2.12.04v7.93c0 .57.27.8 1.26.8v.2M800.7 733.66l-.7 1.8h-5.2v-.14l2.37-2.5c1.25-1.33 1.72-2.34 1.72-3.47 0-1.2-.72-1.87-1.85-1.87-.96 0-1.42.43-1.95 1.73l-.28-.06c.28-1.55 1.13-2.64 2.76-2.64 1.5 0 2.46 1.02 2.46 2.34 0 1.05-.52 2.04-1.7 3.3l-2.2 2.33h3.1c.57 0 .85-.15 1.3-.9"/><path d="M760 780h47.64v43.2H760z" fill="#fff3d9"/><path d="M763.14 800.82h41.35v-1.57h-41.36zM776.26 783.57l-.2-.37c.53-.32 1.2-.43 1.83-.43 2.32 0 3.47 1.67 3.47 4.8 0 2.75-1.13 7.77-5.46 7.77-1.8 0-2.5-1.42-2.5-3 0-2.6 2.04-5.26 4.75-5.26.6 0 1.38.2 1.77.9.08-.4.13-.86.13-1.3 0-1.63-.53-3.35-2.42-3.35-.5 0-.9.1-1.37.24m3.18 5.66c0-1.2-.63-1.6-1.13-1.6-1.82 0-3.4 2.77-3.4 5.34 0 .7.06 1.82 1.23 1.82 1.42 0 2.52-1.87 3.03-3.75.17-.6.28-1.24.28-1.82M794.96 783.05l-.78 2.92h-.3c.02-.24.04-.44.04-.64-.06-1.37-1.08-1.6-2.02-1.6h-2.96l-1.1 4.58h1.47c1.12 0 1.93-.23 2.34-1.75h.3l-1.08 4.48h-.3c0-.24.1-.8.1-1.1 0-.88-.76-.96-1.33-.96h-1.67l-1.22 4.78c-.02.07-.04.13-.04.18 0 .3.3.5 1.17.5h1.24c2.93 0 3.97-.87 4.77-2.96h.3l-1.23 3.67h-10.57l.07-.3h.36c1.35 0 1.77-.52 1.92-1.15l2.22-9.04c.08-.33.1-.54.1-.67 0-.45-.3-.66-1.4-.66H785l.07-.3h9.9M768.32 805.54l-.18-.37c.52-.32 1.18-.43 1.8-.43 2.34 0 3.5 1.67 3.5 4.8 0 2.75-1.14 7.77-5.47 7.77-1.8 0-2.52-1.42-2.52-3 0-2.6 2.06-5.25 4.76-5.25.6 0 1.4.2 1.8.9.06-.42.12-.86.12-1.3 0-1.63-.54-3.35-2.43-3.35-.5 0-.9.1-1.38.24m3.2 5.66c0-1.2-.64-1.6-1.14-1.6-1.83 0-3.43 2.77-3.43 5.34 0 .7.08 1.8 1.24 1.8 1.42 0 2.5-1.84 3.03-3.72.17-.62.28-1.25.28-1.82M783.26 808.78l-1.48 5.35c-.1.42-.22.85-.22 1.3 0 .7.35 1.12 1.1 1.12 2 0 3.03-2.13 3.6-3.76.15-.45.28-.9.28-1.38 0-1.37-1.1-1.22-1.13-2-.03-.68.57-.8 1-.8.8 0 .88.95.88 1.54 0 2.7-1.94 7.1-5.1 7.1-1.3 0-2.06-.5-2.06-1.84 0-.78.22-1.57.42-2.3-.74 1.64-2.26 4.15-4.33 4.15-1.03 0-1.43-.63-1.43-1.6 0-.62.2-1.2.35-1.77l.87-3.27c.04-.17.08-.35.08-.54 0-.45-.7-.42-1-.42v-.27c.98-.16 1.94-.42 2.87-.8l.07.05-1.5 5.68c-.05.24-.2.83-.2 1.35 0 .48.1.87.52.87 1.07-.02 2.4-2.1 2.83-2.8.98-1.5 1.46-2.94 2.04-4.97h1.56M793 819.9h-3.65v-.2c.98-.04 1.26-.32 1.26-1.05v-5.96c0-.47-.1-.66-.4-.66-.12 0-.35.06-.6.16l-.34.13v-.2l2.37-1.2.12.04v7.93c0 .57.27.8 1.26.8v.2M800.7 817.7h-1.37v2.2h-1.03v-2.2h-3.72v-.86l4.17-5.9h.58v5.9h1.37v.85m-2.4-.86v-4.55l-3.2 4.54h3.2"/><path d="M845.68 789.66h42.48v43.2h-42.48z" fill="#fff3d9"/><path d="M848.83 810.48H885v-1.57h-36.17zM859.35 793.22l-.2-.37c.53-.3 1.2-.42 1.83-.42 2.33 0 3.48 1.66 3.48 4.8 0 2.75-1.13 7.77-5.46 7.77-1.82 0-2.52-1.43-2.52-3 0-2.6 2.06-5.26 4.76-5.26.6 0 1.4.2 1.78.9.07-.42.13-.86.13-1.3 0-1.63-.54-3.36-2.43-3.36-.5 0-.9.1-1.37.24m3.18 5.67c0-1.2-.63-1.6-1.13-1.6-1.83 0-3.42 2.76-3.42 5.33 0 .7.07 1.8 1.24 1.8 1.43 0 2.52-1.84 3.04-3.73.16-.6.27-1.24.27-1.8M878.05 792.7l-.78 2.93h-.3c.02-.24.04-.44.04-.65-.04-1.37-1.06-1.6-2-1.6h-2.97l-1.1 4.58h1.47c1.1 0 1.93-.24 2.33-1.75h.3l-1.07 4.5h-.32c.02-.26.1-.8.1-1.13 0-.87-.75-.94-1.32-.94h-1.67l-1.22 4.78c-.02.08-.04.14-.04.2 0 .3.3.5 1.16.5h1.24c2.93 0 3.96-.88 4.76-2.97h.3l-1.23 3.66h-10.57l.08-.3h.35c1.34 0 1.77-.52 1.9-1.15l2.24-9.03c.07-.34.1-.54.1-.67 0-.44-.3-.65-1.4-.65h-.35l.06-.3h9.9M854 815.2l-.18-.38c.52-.3 1.2-.42 1.82-.42 2.33 0 3.48 1.66 3.48 4.8 0 2.75-1.13 7.77-5.46 7.77-1.82 0-2.52-1.43-2.52-3 0-2.6 2.05-5.26 4.76-5.26.6 0 1.38.2 1.77.9.08-.4.13-.85.13-1.3 0-1.63-.53-3.35-2.42-3.35-.5 0-.9.1-1.37.24m3.2 5.66c0-1.2-.64-1.6-1.14-1.6-1.83 0-3.42 2.76-3.42 5.34 0 .7.07 1.8 1.24 1.8 1.42 0 2.52-1.84 3.03-3.73.18-.6.3-1.24.3-1.8M864.12 821.08l.5 4.35c1.14-1.54 1.8-2.65 2.2-3.4.37-.7.52-1.06.52-1.4 0-.38-.97-.57-.97-1.27 0-.4.34-.74.87-.74.6 0 1.06.42 1.06 1.15 0 1.44-3 5.88-3.78 6.86-1.35 1.7-2.55 3.52-3.8 3.52-.7 0-1.05-.57-1.05-1.02 0-.55.5-.76.74-.76.8 0 .77.58 1.07.58.3 0 1.37-1.15 1.85-1.9l-.7-5.8c-.1-.84-.26-1.95-1.3-1.95-.2 0-.5.06-.67.08l-.03-.3 2.77-.46c.42.6.55 1.1.72 2.46M873.54 830.85h-3.66v-.2c.98-.05 1.26-.33 1.26-1.06v-5.97c0-.45-.12-.65-.4-.65-.13 0-.36.06-.6.16l-.36.13v-.2l2.38-1.2.12.04v7.94c0 .57.26.8 1.26.8v.2M881.24 829.03l-.72 1.82h-5.2v-.16l2.37-2.52c1.24-1.3 1.72-2.32 1.72-3.45 0-1.2-.72-1.87-1.84-1.87-.96 0-1.43.42-1.96 1.72l-.28-.06c.28-1.56 1.13-2.65 2.77-2.65 1.5 0 2.46 1.03 2.46 2.34 0 1.06-.52 2.06-1.7 3.3l-2.2 2.34h3.12c.56 0 .84-.15 1.27-.9"/><path d="M1000 529.22h47.64v43.2H1000z" fill="#fff3d9"/><path d="M1003.14 550.04h41.35v-1.57h-41.36zM1016.26 532.8l-.2-.38c.53-.3 1.2-.43 1.83-.43 2.32 0 3.47 1.66 3.47 4.8 0 2.75-1.13 7.76-5.46 7.76-1.8 0-2.5-1.42-2.5-3 0-2.6 2.04-5.25 4.75-5.25.6 0 1.38.2 1.77.9.08-.4.13-.85.13-1.3 0-1.63-.53-3.35-2.42-3.35-.5 0-.9.1-1.37.24m3.18 5.66c0-1.2-.63-1.6-1.13-1.6-1.82 0-3.4 2.76-3.4 5.34 0 .7.06 1.8 1.23 1.8 1.42 0 2.52-1.84 3.03-3.73.17-.6.28-1.24.28-1.8M1034.96 532.27l-.78 2.93h-.3c.02-.24.04-.45.04-.65-.06-1.37-1.08-1.6-2.02-1.6h-2.96l-1.1 4.58h1.47c1.12 0 1.93-.24 2.34-1.76h.3l-1.08 4.48h-.3c0-.24.1-.8.1-1.1 0-.88-.76-.95-1.33-.95h-1.67l-1.22 4.77c-.02.08-.04.13-.04.2 0 .28.3.5 1.17.5h1.24c2.93 0 3.97-.88 4.77-2.97h.3l-1.23 3.66h-10.57l.07-.3h.36c1.35 0 1.77-.5 1.92-1.14l2.22-9.04c.08-.33.1-.53.1-.66 0-.45-.3-.65-1.4-.65h-.34l.07-.3h9.9M1008.32 554.76l-.18-.37c.52-.33 1.18-.44 1.8-.44 2.34 0 3.5 1.67 3.5 4.82 0 2.74-1.14 7.75-5.47 7.75-1.8 0-2.52-1.42-2.52-3 0-2.6 2.06-5.25 4.76-5.25.6 0 1.4.2 1.8.9.06-.42.12-.87.12-1.3 0-1.64-.54-3.36-2.43-3.36-.5 0-.9.1-1.38.24m3.2 5.66c0-1.2-.64-1.6-1.14-1.6-1.83 0-3.43 2.77-3.43 5.34 0 .7.08 1.82 1.24 1.82 1.42 0 2.5-1.85 3.03-3.74.17-.6.28-1.24.28-1.82M1023.26 558l-1.48 5.35c-.1.43-.22.85-.22 1.3 0 .72.35 1.12 1.1 1.12 2 0 3.03-2.12 3.6-3.75.15-.45.28-.9.28-1.37 0-1.37-1.1-1.23-1.13-2.02-.03-.67.57-.78 1-.78.8 0 .88.95.88 1.54 0 2.7-1.94 7.1-5.1 7.1-1.3 0-2.06-.52-2.06-1.85 0-.78.22-1.58.42-2.32-.74 1.65-2.26 4.17-4.33 4.17-1.03 0-1.43-.63-1.43-1.6 0-.62.2-1.2.35-1.77l.87-3.28c.04-.17.08-.35.08-.54 0-.43-.7-.4-1-.4v-.27c.98-.17 1.94-.43 2.87-.82l.07.07-1.5 5.68c-.05.24-.2.84-.2 1.35 0 .5.1.87.52.87 1.07 0 2.4-2.1 2.83-2.8.98-1.5 1.46-2.93 2.04-4.97h1.56M1034.07 567.3l-.7 1.83h-5.2v-.16l2.36-2.5c1.25-1.32 1.73-2.33 1.73-3.46 0-1.2-.72-1.86-1.85-1.86-.95 0-1.4.42-1.94 1.73l-.28-.07c.28-1.55 1.13-2.64 2.76-2.64 1.5 0 2.46 1.02 2.46 2.33 0 1.04-.52 2.04-1.7 3.3l-2.2 2.32h3.1c.57 0 .85-.14 1.3-.9M1039.65 569.13H1036v-.2c.97-.05 1.25-.33 1.25-1.06v-5.96c0-.44-.12-.64-.4-.64-.13 0-.36.07-.6.16l-.36.13v-.18l2.37-1.2.12.03v7.92c0 .57.25.8 1.25.8v.2"/><path d="M842.76 438.45h42.48v43.2h-42.48z" fill="#fff3d9"/><path d="M845.9 459.27h36.2v-1.57h-36.2zM856.43 442l-.2-.36c.53-.3 1.2-.42 1.83-.42 2.33 0 3.48 1.66 3.48 4.8 0 2.75-1.13 7.77-5.47 7.77-1.8 0-2.5-1.44-2.5-3 0-2.62 2.04-5.27 4.74-5.27.6 0 1.4.2 1.8.9.07-.42.12-.86.12-1.3 0-1.63-.54-3.36-2.42-3.36-.5 0-.9.1-1.37.24m3.18 5.68c0-1.2-.62-1.6-1.12-1.6-1.83 0-3.42 2.77-3.42 5.34 0 .7.07 1.8 1.24 1.8 1.42 0 2.5-1.84 3.03-3.73.17-.62.28-1.25.28-1.82M875.12 441.5l-.77 2.92h-.3c.02-.24.04-.44.04-.65-.07-1.37-1.1-1.6-2.03-1.6h-2.96l-1.1 4.58h1.48c1.1 0 1.92-.24 2.33-1.76h.3l-1.07 4.47h-.3c0-.24.1-.8.1-1.1 0-.88-.76-.95-1.33-.95h-1.67l-1.22 4.78c0 .07-.03.13-.03.18 0 .3.3.5 1.17.5h1.24c2.92 0 3.96-.87 4.76-2.96h.3l-1.23 3.66h-10.56l.07-.3h.37c1.35 0 1.77-.5 1.92-1.14l2.2-9.03c.1-.33.1-.53.1-.66 0-.44-.3-.65-1.38-.65h-.36l.08-.3h9.88M851.08 463.98l-.18-.37c.52-.3 1.18-.4 1.8-.4 2.35 0 3.5 1.65 3.5 4.8 0 2.74-1.14 7.76-5.47 7.76-1.8 0-2.5-1.43-2.5-3 0-2.6 2.04-5.26 4.74-5.26.6 0 1.4.2 1.78.9.07-.42.13-.86.13-1.3 0-1.64-.54-3.36-2.43-3.36-.5 0-.9.1-1.37.24m3.2 5.67c0-1.2-.64-1.6-1.14-1.6-1.83 0-3.43 2.76-3.43 5.34 0 .7.1 1.8 1.26 1.8 1.42 0 2.5-1.85 3.03-3.74.16-.6.27-1.24.27-1.8M861.2 469.87l.5 4.35c1.14-1.54 1.8-2.65 2.2-3.4.37-.7.5-1.06.5-1.4 0-.38-.95-.57-.95-1.27 0-.4.33-.74.87-.74.6 0 1.06.43 1.06 1.16 0 1.44-3 5.88-3.78 6.86-1.35 1.7-2.55 3.52-3.8 3.52-.7 0-1.05-.57-1.05-1.02 0-.55.5-.76.74-.76.8 0 .75.58 1.05.58.3 0 1.37-1.15 1.85-1.9l-.7-5.8c-.1-.84-.27-1.95-1.3-1.95-.2 0-.5.05-.67.07l-.04-.3 2.77-.46c.43.62.56 1.1.72 2.47M870.62 479.64h-3.67v-.2c.98-.05 1.26-.33 1.26-1.06v-5.96c0-.45-.1-.65-.4-.65-.12 0-.34.06-.58.16l-.36.13v-.2l2.38-1.2.1.04v7.93c0 .57.28.8 1.28.8v.2M877.25 479.64h-3.66v-.2c.97-.05 1.25-.33 1.25-1.06v-5.96c0-.45-.12-.65-.4-.65-.13 0-.36.06-.6.16l-.35.13v-.2l2.37-1.2.12.04v7.93c0 .57.26.8 1.25.8v.2"/><path d="M1000 706.45h47.64v43.2H1000z" fill="#fff3d9"/><path d="M1003.14 727.27h41.35v-1.57h-41.36zM1016.26 710l-.2-.36c.53-.3 1.2-.42 1.83-.42 2.32 0 3.47 1.66 3.47 4.8 0 2.75-1.13 7.77-5.46 7.77-1.8 0-2.5-1.44-2.5-3 0-2.62 2.04-5.27 4.75-5.27.6 0 1.38.2 1.77.9.08-.42.13-.86.13-1.3 0-1.63-.53-3.36-2.42-3.36-.5 0-.9.1-1.37.24m3.18 5.68c0-1.2-.63-1.6-1.13-1.6-1.82 0-3.4 2.77-3.4 5.34 0 .7.06 1.8 1.23 1.8 1.42 0 2.52-1.84 3.03-3.73.17-.62.28-1.25.28-1.82M1034.96 709.5l-.78 2.92h-.3c.02-.24.04-.44.04-.65-.06-1.37-1.08-1.6-2.02-1.6h-2.96l-1.1 4.58h1.47c1.12 0 1.93-.24 2.34-1.76h.3l-1.08 4.47h-.3c0-.24.1-.8.1-1.1 0-.88-.76-.95-1.33-.95h-1.67l-1.22 4.78c-.02.07-.04.13-.04.18 0 .3.3.5 1.17.5h1.24c2.93 0 3.97-.87 4.77-2.96h.3l-1.23 3.66h-10.57l.07-.3h.36c1.35 0 1.77-.5 1.92-1.14l2.22-9.03c.08-.33.1-.53.1-.66 0-.44-.3-.65-1.4-.65h-.34l.07-.3h9.9M1008.32 731.98l-.18-.37c.52-.3 1.18-.4 1.8-.4 2.34 0 3.5 1.65 3.5 4.8 0 2.74-1.14 7.76-5.47 7.76-1.8 0-2.52-1.43-2.52-3 0-2.6 2.06-5.26 4.76-5.26.6 0 1.4.2 1.8.9.06-.42.12-.86.12-1.3 0-1.64-.54-3.36-2.43-3.36-.5 0-.9.1-1.38.24m3.2 5.67c0-1.2-.64-1.6-1.14-1.6-1.83 0-3.43 2.76-3.43 5.34 0 .7.08 1.8 1.24 1.8 1.42 0 2.5-1.85 3.03-3.74.17-.6.28-1.24.28-1.8M1023.26 735.22l-1.48 5.35c-.1.43-.22.85-.22 1.3 0 .72.35 1.13 1.1 1.13 2 0 3.03-2.13 3.6-3.76.15-.44.28-.9.28-1.37 0-1.37-1.1-1.22-1.13-2.02-.03-.66.57-.78 1-.78.8 0 .88.95.88 1.54 0 2.7-1.94 7.12-5.1 7.12-1.3 0-2.06-.52-2.06-1.85 0-.78.22-1.57.42-2.3-.74 1.63-2.26 4.15-4.33 4.15-1.03 0-1.43-.63-1.43-1.6 0-.62.2-1.2.35-1.77l.87-3.28c.04-.16.08-.35.08-.53 0-.45-.7-.4-1-.4v-.3c.98-.15 1.94-.4 2.87-.8l.07.05-1.5 5.68c-.05.24-.2.83-.2 1.35 0 .48.1.87.52.87 1.07-.02 2.4-2.1 2.83-2.8.98-1.5 1.46-2.94 2.04-4.98h1.56M1034.07 744.54l-.7 1.82h-5.2v-.16l2.36-2.5c1.25-1.33 1.73-2.34 1.73-3.46 0-1.2-.72-1.88-1.85-1.88-.95 0-1.4.43-1.94 1.73l-.28-.08c.28-1.55 1.13-2.64 2.76-2.64 1.5 0 2.46 1.02 2.46 2.34 0 1.05-.52 2.04-1.7 3.3l-2.2 2.33h3.1c.57 0 .85-.15 1.3-.9M1040.7 744.54l-.7 1.82h-5.2v-.16l2.37-2.5c1.25-1.33 1.72-2.34 1.72-3.46 0-1.2-.72-1.88-1.85-1.88-.96 0-1.42.43-1.95 1.73l-.28-.08c.28-1.55 1.13-2.64 2.76-2.64 1.5 0 2.46 1.02 2.46 2.34 0 1.05-.52 2.04-1.7 3.3l-2.2 2.33h3.1c.57 0 .85-.15 1.3-.9"/><path d="M1090.08 574.3h35.84v43.2h-35.84z" fill="#fff3d9"/><path d="M1093.22 595.12h29.54v-1.57h-29.54zM1100.42 577.87l-.2-.37c.53-.32 1.2-.43 1.83-.43 2.33 0 3.48 1.67 3.48 4.82 0 2.73-1.13 7.74-5.46 7.74-1.82 0-2.52-1.42-2.52-3 0-2.6 2.06-5.25 4.76-5.25.6 0 1.4.2 1.8.88.06-.4.1-.86.1-1.3 0-1.63-.52-3.35-2.4-3.35-.5 0-.92.1-1.38.24m3.18 5.66c0-1.2-.63-1.6-1.13-1.6-1.83 0-3.42 2.77-3.42 5.34 0 .7.07 1.82 1.24 1.82 1.42 0 2.5-1.86 3.03-3.75.16-.6.27-1.24.27-1.82M1119.12 577.35l-.78 2.93h-.3c.02-.24.04-.45.04-.65-.05-1.37-1.07-1.6-2.02-1.6h-2.96l-1.1 4.58h1.47c1.1 0 1.93-.23 2.33-1.75h.3l-1.07 4.48h-.32c.03-.24.12-.8.12-1.1 0-.88-.76-.96-1.33-.96h-1.68l-1.22 4.78c-.02.08-.04.13-.04.2 0 .28.3.5 1.17.5h1.24c2.93 0 3.96-.88 4.76-2.98h.3l-1.23 3.67h-10.57l.08-.3h.36c1.35 0 1.78-.5 1.92-1.14l2.23-9.04c.08-.33.1-.54.1-.67 0-.45-.3-.65-1.4-.65h-.34l.07-.3h9.9M1098.4 599.84l-.18-.37c.52-.32 1.18-.43 1.8-.43 2.35 0 3.5 1.67 3.5 4.82 0 2.74-1.14 7.75-5.47 7.75-1.8 0-2.52-1.4-2.52-3 0-2.6 2.06-5.24 4.76-5.24.58 0 1.38.2 1.77.88.07-.4.13-.85.13-1.3 0-1.62-.54-3.34-2.43-3.34-.5 0-.9.1-1.37.24m3.2 5.66c0-1.2-.64-1.6-1.14-1.6-1.83 0-3.43 2.77-3.43 5.34 0 .7.08 1.82 1.24 1.82 1.43 0 2.52-1.85 3.04-3.74.18-.6.3-1.24.3-1.82M1108.5 605.73l.53 4.35c1.13-1.54 1.78-2.65 2.18-3.4.38-.7.53-1.07.53-1.4 0-.4-.96-.57-.96-1.28 0-.4.33-.74.87-.74.6 0 1.06.43 1.06 1.15 0 1.45-3 5.9-3.78 6.88-1.35 1.7-2.56 3.52-3.8 3.52-.7 0-1.05-.58-1.05-1.02 0-.56.5-.76.74-.76.8 0 .77.57 1.06.57.32 0 1.37-1.15 1.86-1.9l-.7-5.8c-.1-.84-.27-1.95-1.3-1.95-.2 0-.5.05-.67.07l-.04-.3 2.8-.46c.42.6.55 1.1.7 2.47M1119 613.67l-.7 1.8h-5.2v-.14l2.36-2.5c1.25-1.33 1.73-2.34 1.73-3.47 0-1.2-.73-1.87-1.86-1.87-.95 0-1.42.42-1.95 1.72l-.3-.07c.3-1.55 1.14-2.64 2.77-2.64 1.5 0 2.46 1.03 2.46 2.35 0 1.05-.52 2.04-1.7 3.3l-2.2 2.33h3.12c.55 0 .83-.15 1.27-.9"/><path d="M1141.23 648.94h5m4.98 0h9.98m5 0h9.97m5 0h9.97m5 0h9.96m5 0h9.97m5 0h9.97m4.98 0h9.98m5 0h4.98" stroke="#5e5e5e" fill="none"/><path d="M1126.46 648.94l14.27-4.64v9.27z" stroke="#5e5e5e" fill="#5e5e5e"/><path d="M1261.46 649.44h-.5v-1h.5z" stroke="#5e5e5e" stroke-width=".05" fill="#5e5e5e"/><path d="M897.65 511.34l4.2 2.8m4.2 2.8l8.43 5.6m4.2 2.8l8.43 5.6m4.22 2.78l8.42 5.6m4.2 2.8l8.43 5.6m4.2 2.8l8.43 5.58m4.2 2.8l8.43 5.6m4.2 2.8l8.43 5.6m4.2 2.8l8.43 5.58m4.2 2.8l8.42 5.6m4.2 2.8l8.43 5.6m4.2 2.8l8.43 5.58m4.2 2.8l8.43 5.6m4.22 2.8l8.4 5.6m4.22 2.8l8.42 5.58m4.2 2.8l4.22 2.8" stroke="#5e5e5e" fill="none"/><path d="M885.35 503.17l14.44 4.04-5.14 7.73z" stroke="#5e5e5e" fill="#5e5e5e"/><path d="M1087.57 636.96l-.07.53.02.63-.72-.48.55-.84z" stroke="#5e5e5e" stroke-width=".05" fill="#5e5e5e"/><path d="M897.98 764.86l4.25-2.62m4.25-2.63l8.5-5.23m4.26-2.62l8.5-5.24m4.26-2.62l8.5-5.24m4.26-2.62l8.5-5.25m4.26-2.62l8.5-5.24m4.26-2.6l8.5-5.26m4.26-2.62l8.5-5.24m4.26-2.62l8.5-5.25m4.26-2.6l8.5-5.25m4.26-2.62l8.5-5.25m4.26-2.62l8.5-5.24m4.26-2.63l8.5-5.25m4.26-2.62l8.5-5.24m4.26-2.64l8.5-5.24m4.26-2.62l4.25-2.62" stroke="#5e5e5e" fill="none"/><path d="M885.4 772.6l9.72-11.42 4.86 7.9z" stroke="#5e5e5e" fill="#5e5e5e"/><path d="M1090 647.07l-.38.24-.52-.84.48-.3z" stroke="#5e5e5e" stroke-width=".05" fill="#5e5e5e"/><path d="M650.73 767l3.22-3.92m3.23-3.92l6.45-7.84m3.22-3.92l6.45-7.84m3.22-3.92l6.45-7.83m3.23-3.9l6.45-7.85m3.22-3.92l6.45-7.84m3.22-3.93l6.45-7.84m3.22-3.92l6.45-7.83m3.22-3.92l6.44-7.84m3.22-3.9l6.45-7.85m3.24-3.92l6.45-7.84m3.2-3.93l6.46-7.84m3.22-3.92l6.45-7.83m3.23-3.92l6.44-7.84m3.23-3.9l6.45-7.85m3.22-3.92l6.45-7.84m3.23-3.93l6.44-7.84m3.23-3.92l6.45-7.83m3.22-3.92l6.45-7.84m3.22-3.9l6.44-7.85m3.23-3.92l6.45-7.84m3.22-3.93l3.23-3.92" stroke="#5e5e5e" fill="none"/><path d="M641.35 778.4l5.48-13.95 7.16 5.9z" stroke="#5e5e5e" fill="#5e5e5e"/><path d="M854.18 519.66l.5.2-.44.52-.77-.64.3-.37z" stroke="#5e5e5e" stroke-width=".05" fill="#5e5e5e"/><path d="M639.63 509.2l3.12 3.8m3.12 3.8l6.24 7.6m3.13 3.8l6.24 7.58m3.12 3.8l6.23 7.6m3.12 3.78l6.24 7.6m3.1 3.8l6.25 7.58m3.12 3.8l6.24 7.6m3.14 3.78l6.24 7.6m3.12 3.8l6.24 7.58m3.12 3.8l6.24 7.6m3.12 3.78l6.24 7.6m3.12 3.8l6.24 7.58m3.12 3.8l6.24 7.6m3.12 3.8l6.24 7.58m3.12 3.8l6.24 7.58m3.12 3.8l6.24 7.6m3.12 3.8l6.25 7.58m3.12 3.8l6.24 7.58m3.1 3.8l6.25 7.6m3.12 3.8l6.24 7.58m3.13 3.8l6.24 7.58m3.12 3.8l6.23 7.6m3.12 3.8l3.12 3.78" stroke="#5e5e5e" fill="none"/><path d="M630.25 497.8l12.64 8.08-7.17 5.9z" stroke="#5e5e5e" fill="#5e5e5e"/><path d="M846.14 759.63l-.15.2-.32.8-.5-.6.77-.64z" stroke="#5e5e5e" stroke-width=".05" fill="#5e5e5e"/><path d="M656.7 779.62h4.87m4.86-.02l9.73-.02m4.87-.02l9.73-.02m4.86 0l9.73-.03m4.87 0l9.72-.02m4.87-.02l9.74-.02m4.86 0l9.73-.03m4.87 0l9.73-.02m4.86-.02l9.72-.02m4.86 0l9.73-.03m4.88 0l9.73-.02m4.87-.02l9.73-.02m4.87 0l9.72-.03m4.86 0h4.86" stroke="#5e5e5e" fill="none"/><path d="M641.94 779.65L656.2 775l.02 9.26z" stroke="#5e5e5e" fill="#5e5e5e"/><path d="M846.92 779.66h3v.02h-3.5v-1h.5z" stroke="#5e5e5e" stroke-width=".05" fill="#5e5e5e"/><path d="M647.35 498.68h5.03m5.02 0h10.06m5.02 0h10.05m5.03 0h10.05m5.04 0h10.05m5.02 0h10.05m5.02 0h10.05m5.02 0h10.06m5.02 0H773m5.03 0h10.05m5.03 0h10.06m5.03 0h10.04m5.02 0h10.06m5.02 0h5.03" stroke="#5e5e5e" fill="none"/><path d="M632.6 498.68l14.25-4.64v9.27z" stroke="#5e5e5e" fill="#5e5e5e"/><path d="M843.8 499.18h-.44v-1h.57z" stroke="#5e5e5e" stroke-width=".05" fill="#5e5e5e"/><path d="M863.3 886.84h4.93m4.92 0H883m4.9 0h9.85m4.92 0h9.84m4.93 0h9.85m4.92 0h9.84m4.92 0h9.84m4.92 0h9.84m4.92 0h9.84m4.93 0h9.84m4.9 0h9.85m4.92 0h9.84m4.93 0h9.84m4.92 0h9.83m4.93 0h9.84m4.92 0h9.84m4.92 0h4.92" stroke="#5e5e5e" fill="none"/><path d="M848.54 886.84l14.27-4.63v9.28z" stroke="#5e5e5e" fill="#5e5e5e"/><path d="M1099.5 886.84h.5M847.42 420h236.2M847.44 420h-.52" stroke="#5e5e5e" fill="none"/><path d="M1098.38 420l-14.26 4.64v-9.28z" stroke="#5e5e5e" fill="#5e5e5e"/><path d="M854.96 380h240v60h-240z" fill="none"/><use xlink:href="#a" transform="matrix(1,0,0,1,854.959806231998,380) translate(79.38271604938271 34.44444444444444)"/><path d="M900 849.67c0-3.3 2.7-6 6-6h137.92c3.3 0 6 2.7 6 6v28c0 3.3-2.7 6-6 6H906c-3.3 0-6-2.7-6-6z" stroke="#000" stroke-opacity="0" fill="#fff3d9"/><use xlink:href="#b" transform="matrix(1,0,0,1,912.0000000000001,855.6708562450905) translate(8.740740740740726 17.77777777777778)"/><defs><path fill="#333" d="M63-220v92h138v28H63V0H30v-248h175v28H63" id="c"/><path fill="#333" d="M100-194c62-1 85 37 85 99 1 63-27 99-86 99S16-35 15-95c0-66 28-99 85-99zM99-20c44 1 53-31 53-75 0-43-8-75-51-75s-53 32-53 75 10 74 51 75" id="d"/><path fill="#333" d="M114-163C36-179 61-72 57 0H25l-1-190h30c1 12-1 29 2 39 6-27 23-49 58-41v29" id="e"/><path fill="#333" d="M206 0h-36l-40-164L89 0H53L-1-190h32L70-26l43-164h34l41 164 42-164h31" id="f"/><path fill="#333" d="M141-36C126-15 110 5 73 4 37 3 15-17 15-53c-1-64 63-63 125-63 3-35-9-54-41-54-24 1-41 7-42 31l-33-3c5-37 33-52 76-52 45 0 72 20 72 64v82c-1 20 7 32 28 27v20c-31 9-61-2-59-35zM48-53c0 20 12 33 32 33 41-3 63-29 60-74-43 2-92-5-92 41" id="g"/><path fill="#333" d="M85-194c31 0 48 13 60 33l-1-100h32l1 261h-30c-2-10 0-23-3-31C134-8 116 4 85 4 32 4 16-35 15-94c0-66 23-100 70-100zm9 24c-40 0-46 34-46 75 0 40 6 74 45 74 42 0 51-32 51-76 0-42-9-74-50-73" id="h"/><g id="a"><use transform="matrix(0.06172839506172839,0,0,0.06172839506172839,0,0)" xlink:href="#c"/><use transform="matrix(0.06172839506172839,0,0,0.06172839506172839,13.518518518518517,0)" xlink:href="#d"/><use transform="matrix(0.06172839506172839,0,0,0.06172839506172839,25.864197530864196,0)" xlink:href="#e"/><use transform="matrix(0.06172839506172839,0,0,0.06172839506172839,33.20987654320987,0)" xlink:href="#f"/><use transform="matrix(0.06172839506172839,0,0,0.06172839506172839,49.197530864197525,0)" xlink:href="#g"/><use transform="matrix(0.06172839506172839,0,0,0.06172839506172839,61.5432098765432,0)" xlink:href="#e"/><use transform="matrix(0.06172839506172839,0,0,0.06172839506172839,68.88888888888889,0)" xlink:href="#h"/></g><path fill="#333" d="M160-131c35 5 61 23 61 61C221 17 115-2 30 0v-248c76 3 177-17 177 60 0 33-19 50-47 57zm-97-11c50-1 110 9 110-42 0-47-63-36-110-37v79zm0 115c55-2 124 14 124-45 0-56-70-42-124-44v89" id="i"/><path fill="#333" d="M96-169c-40 0-48 33-48 73s9 75 48 75c24 0 41-14 43-38l32 2c-6 37-31 61-74 61-59 0-76-41-82-99-10-93 101-131 147-64 4 7 5 14 7 22l-32 3c-4-21-16-35-41-35" id="j"/><path fill="#333" d="M143 0L79-87 56-68V0H24v-261h32v163l83-92h37l-77 82L181 0h-38" id="k"/><path fill="#333" d="M135-143c-3-34-86-38-87 0 15 53 115 12 119 90S17 21 10-45l28-5c4 36 97 45 98 0-10-56-113-15-118-90-4-57 82-63 122-42 12 7 21 19 24 35" id="l"/><g id="b"><use transform="matrix(0.06172839506172839,0,0,0.06172839506172839,0,0)" xlink:href="#i"/><use transform="matrix(0.06172839506172839,0,0,0.06172839506172839,14.814814814814813,0)" xlink:href="#g"/><use transform="matrix(0.06172839506172839,0,0,0.06172839506172839,27.160493827160494,0)" xlink:href="#j"/><use transform="matrix(0.06172839506172839,0,0,0.06172839506172839,38.27160493827161,0)" xlink:href="#k"/><use transform="matrix(0.06172839506172839,0,0,0.06172839506172839,49.38271604938272,0)" xlink:href="#f"/><use transform="matrix(0.06172839506172839,0,0,0.06172839506172839,65.37037037037038,0)" xlink:href="#g"/><use transform="matrix(0.06172839506172839,0,0,0.06172839506172839,77.71604938271606,0)" xlink:href="#e"/><use transform="matrix(0.06172839506172839,0,0,0.06172839506172839,85.06172839506175,0)" xlink:href="#h"/><use transform="matrix(0.06172839506172839,0,0,0.06172839506172839,97.40740740740743,0)" xlink:href="#l"/></g></defs></g></svg>