<svg xmlns="http://www.w3.org/2000/svg" xmlns:xlink="http://www.w3.org/1999/xlink" xmlns:lucid="lucid" width="1312" height="1109"><g transform="translate(-299 -145)" lucid:page-tab-id="0_0"><path d="M1380 340h234.9v100H1380z" fill="none"/><use xlink:href="#a" transform="matrix(1,0,0,1,1380,340) translate(15.425925925925952 21.333333333333332)"/><use xlink:href="#b" transform="matrix(1,0,0,1,1380,340) translate(145.64814814814815 21.333333333333332)"/><use xlink:href="#c" transform="matrix(1,0,0,1,1380,340) translate(19.09259259259261 53.33333333333333)"/><use xlink:href="#d" transform="matrix(1,0,0,1,1380,340) translate(63.53703703703705 53.33333333333333)"/><use xlink:href="#e" transform="matrix(1,0,0,1,1380,340) translate(159.61111111111111 53.33333333333333)"/><use xlink:href="#f" transform="matrix(1,0,0,1,1380,340) translate(18.314814814814824 85.33333333333333)"/><use xlink:href="#g" transform="matrix(1,0,0,1,1380,340) translate(70.16666666666667 85.33333333333333)"/><use xlink:href="#h" transform="matrix(1,0,0,1,1380,340) translate(151.57407407407408 85.33333333333333)"/><use xlink:href="#i" transform="matrix(1,0,0,1,1380,340) translate(179.64814814814815 85.33333333333333)"/><use xlink:href="#j" transform="matrix(1,0,0,1,1380,340) translate(31.72222222222223 117.33333333333333)"/><use xlink:href="#k" transform="matrix(1,0,0,1,1380,340) translate(107.2037037037037 117.33333333333333)"/><path d="M997.98 140h289.1v166.85h-289.1z" fill="none"/><use xlink:href="#a" transform="matrix(1,0,0,1,997.979324887829,140) translate(20.703703703703724 40.83333333333333)"/><use xlink:href="#l" transform="matrix(1,0,0,1,997.979324887829,140) translate(150.92592592592592 40.83333333333333)"/><use xlink:href="#i" transform="matrix(1,0,0,1,997.979324887829,140) translate(232.25925925925924 40.83333333333333)"/><use xlink:href="#m" transform="matrix(1,0,0,1,997.979324887829,140) translate(10.259259259259267 72.83333333333333)"/><use xlink:href="#n" transform="matrix(1,0,0,1,997.979324887829,140) translate(214.55555555555554 72.83333333333333)"/><use xlink:href="#o" transform="matrix(1,0,0,1,997.979324887829,140) translate(10.96296296296299 104.83333333333333)"/><use xlink:href="#c" transform="matrix(1,0,0,1,997.979324887829,140) translate(82.00000000000001 104.83333333333333)"/><use xlink:href="#p" transform="matrix(1,0,0,1,997.979324887829,140) translate(126.44444444444446 104.83333333333333)"/><use xlink:href="#f" transform="matrix(1,0,0,1,997.979324887829,140) translate(190.14814814814815 104.83333333333333)"/><use xlink:href="#i" transform="matrix(1,0,0,1,997.979324887829,140) translate(242 104.83333333333333)"/><use xlink:href="#g" transform="matrix(1,0,0,1,997.979324887829,140) translate(65.81481481481482 136.83333333333334)"/><use xlink:href="#q" transform="matrix(1,0,0,1,997.979324887829,140) translate(147.22222222222223 136.83333333333334)"/><path d="M674.12 1053.02c0 103.27-80.6 186.98-180 186.98s-180-83.7-180-186.98c0-103.27 80.6-187 180-187s180 83.73 180 187z" stroke="#5e5e5e" stroke-width="3" fill="#cfe4ff"/><path d="M1180 592.88c0 103.27-80.6 186.98-180 186.98s-180-83.7-180-186.98c0-103.27 80.6-186.98 180-186.98s180 83.7 180 186.98z" stroke="#5e5e5e" stroke-width="3" fill="#c3f7c8"/><path d="M562.2 301.18L845.7 452.3M562.26 301.2L560 300" stroke="#5e5e5e" stroke-width="5" fill="none"/><path d="M860.47 460.2l-14.77-2.62 4.36-8.18z" stroke="#5e5e5e" stroke-width="5" fill="#5e5e5e"/><path d="M851.2 740.64L635.73 931.12" stroke="#5e5e5e" stroke-width="5" fill="none"/><path d="M863.77 729.53l-7.62 12.92-6.14-6.94z" stroke="#5e5e5e" stroke-width="5" fill="#5e5e5e"/><path d="M637.43 932.95l-2.03 1.8-3.1-3.94 1.8-1.6z" stroke="#5e5e5e" stroke-width=".05" fill="#5e5e5e"/><path d="M477.94 1027.92h75.63v62.68h-75.63z" fill="#fff" fill-opacity="0"/><path d="M512.84 1035.93l-5.26 19c-.4 1.5-.8 3.02-.8 4.6 0 2.56 1.26 4 3.9 4 7.1 0 10.77-7.56 12.8-13.34.53-1.6 1-3.23 1-4.87 0-4.86-3.9-4.34-4.02-7.16-.13-2.37 1.97-2.76 3.55-2.76 2.77 0 3.1 3.36 3.1 5.46 0 9.6-6.9 25.24-18.14 25.24-4.54 0-7.3-1.84-7.3-6.58 0-2.76.8-5.58 1.52-8.2-2.63 5.84-8.02 14.78-15.38 14.78-3.68 0-5.13-2.24-5.13-5.72 0-2.17.73-4.2 1.25-6.25l3.1-11.63c.2-.6.32-1.25.32-1.9 0-1.58-2.5-1.45-3.55-1.45v-.98c3.47-.6 6.9-1.52 10.18-2.9l.26.2-5.32 20.18c-.2.85-.73 2.95-.73 4.8 0 1.7.4 3.08 1.83 3.08 3.8-.06 8.48-7.5 10.06-9.92 3.47-5.3 5.18-10.44 7.22-17.67h5.52M546.15 1049.1c0 1.2-1.03 2.14-2.23 2.14-1.35 0-2.23-.93-2.23-2.14 0-1.16.87-2.32 2.22-2.32 1.2 0 2.23 1.16 2.23 2.32m-.98 5.8l-5.02 19.76c-1.02 4.1-3.62 9.43-8.64 9.43-2.45 0-3.38-1.54-3.38-2.85 0-1.02.56-2.4 2.18-2.4.9 0 1.63.7 1.63 1.75 0 .7-.74.84-.74 1.58 0 .2.22.47.45.47 2.14 0 3.67-3.53 4.8-8l4.26-16.86c0-.57-.45-1.03-1.48-1.03-.37 0-.93.1-1.25.23l-.14-.8"/><path d="M444.78 220h98.7v72.9h-98.7z" fill="#fff" fill-opacity="0"/><path d="M473.9 241.04l4.28-6.58c2.48-3.82 5.82-8.02 10.6-8.02 3.05 0 4.67 1.15 4.67 3.15 0 1.8-1.24 4-3.72 4-2.1 0-2.58-.86-4.2-.86-2.86 0-3.9 1.53-5.25 3.63l-5.25 8.1c2.86 5.93 5.06 18.8 9.35 18.8 1.53 0 3.82-1.32 5.83-5.43l1.34.96c-1.14 1.43-5.44 10.6-10.97 10.6-3.92 0-5.73-3.92-6.97-7.36l-3.82-10.78-6 9.35c-3.06 4.7-5.83 8.8-11.18 8.8-3.43 0-4.96-2.4-4.96-4.5 0-1.52 1.24-3.53 3.63-3.53 2.48 0 2.1 1.9 4.48 1.9 1.15 0 3.63-.94 6.68-5.62l6.2-9.64-3.14-8.77c-1.64-4.58-4.12-8.5-9.37-8.5-1.24 0-2.67.2-3.62.58l-.28-1.7 12.6-3.16c4.2 2.3 6 6.2 7.16 9.36M532.83 254.02l-.27.8c-4.52.5-6.4 1.7-8.97 3.93l-7.16 6.2 4.3 10.26c1.03 2.37 1.84 4 3.6 4 2 0 3.5-2.9 4.98-4.93l1.02.74c-.8 1.42-4 8.64-8.57 8.64-3.1 0-4.52-3.57-5.27-5.33l-4.25-9.9-3.78 3.3-3.03 11.2h-5.13l10-39.74c.13-.4.2-.88.2-1.35 0-.73-.68-1.47-2.16-1.47-.6 0-1.28 0-1.82.13l-.2-.94 10.66-1.7-7.63 30.78 11.27-10.06c.74-.67 1.42-1.55 1.42-2.42 0-.8-1.08-1.3-1.76-1.3h-.8l.26-.8h13.1"/><path d="M880 476.73h119.13v68.83H880z" fill="#fff3d9"/><path d="M884.65 512.44h46.02v-2.33h-46.02zM896.77 482.23l-.28-.55c.76-.47 1.75-.63 2.68-.63 3.45 0 5.15 2.47 5.15 7.12 0 4.05-1.67 11.48-8.08 11.48-2.7 0-3.73-2.1-3.73-4.44 0-3.85 3.04-7.77 7.04-7.77.88 0 2.05.3 2.63 1.32.1-.6.18-1.26.18-1.92 0-2.4-.8-4.96-3.6-4.96-.73 0-1.33.14-2 .36m4.7 8.38c0-1.77-.93-2.35-1.67-2.35-2.7 0-5.06 4.08-5.06 7.9 0 1.03.1 2.67 1.84 2.67 2.1 0 3.72-2.73 4.5-5.53.23-.9.4-1.84.4-2.7M923.8 487.32v.44c-2.63.36-3.32 3.4-3.86 5.83-.8 3.5-3.95 6.05-7.34 6.05l-1.15 4.7h-2.22l1.18-4.7h-.27c-2.13 0-4.2-1.13-4.2-4.52 0-1.54.9-3.18.9-5 0-1.1-.4-2.23-1.68-2.37l.13-.44c.53-.05 1.02-.05 1.5-.05 1.57 0 2.42 1.48 2.42 3.04 0 1.54-.85 3.5-.85 5.07 0 2.06.88 3.26 2.28 3.45l2.73-11.2h2.22l-2.74 11.2c2-.38 3.97-2.13 4.66-5.12.77-3.28 1.4-6.38 5.6-6.38h.7M892.3 519.4l-.26-.53c.77-.47 1.75-.63 2.68-.63 3.45 0 5.15 2.46 5.15 7.12 0 4.05-1.67 11.47-8.08 11.47-2.7 0-3.73-2.1-3.73-4.43 0-3.87 3.04-7.78 7.04-7.78.88 0 2.06.3 2.64 1.3.1-.6.2-1.25.2-1.9 0-2.4-.8-4.96-3.6-4.96-.74 0-1.34.14-2.03.35m4.72 8.4c0-1.78-.93-2.36-1.67-2.36-2.7 0-5.06 4.08-5.06 7.9 0 1.03.1 2.67 1.82 2.67 2.1 0 3.73-2.73 4.5-5.52.24-.9.4-1.84.4-2.68M908.22 528.64l1.24-1.9c.7-1.08 1.67-2.3 3.04-2.3.87 0 1.34.34 1.34.92 0 .52-.36 1.15-1.07 1.15-.6 0-.74-.24-1.2-.24-.83 0-1.13.44-1.5 1.04l-1.52 2.33c.82 1.7 1.45 5.4 2.7 5.4.43 0 1.08-.4 1.66-1.57l.4.28c-.34.4-1.57 3.04-3.16 3.04-1.12 0-1.64-1.12-2-2.1l-1.1-3.1-1.72 2.68c-.87 1.34-1.67 2.52-3.2 2.52-1 0-1.43-.7-1.43-1.3 0-.43.35-1 1.03-1 .72 0 .6.55 1.3.55.32 0 1.03-.28 1.9-1.62l1.8-2.76-.92-2.52c-.45-1.3-1.16-2.43-2.67-2.43-.36 0-.77.04-1.04.15l-.1-.5 3.62-.9c1.2.66 1.73 1.78 2.06 2.7M925.3 532.25l-.07.24c-1.32.12-1.87.48-2.62 1.12l-2.07 1.8 1.26 3c.28.68.52 1.16 1.03 1.16.6 0 1.02-.85 1.45-1.44l.3.22c-.24.4-1.16 2.5-2.5 2.5-.9 0-1.3-1.03-1.53-1.54l-1.24-2.9-1.1.98-.87 3.26h-1.5l2.9-11.57c.05-.13.07-.27.07-.4 0-.22-.2-.44-.62-.44-.18 0-.38 0-.53.04l-.06-.27 3.1-.5-2.23 8.96 3.28-2.93c.22-.2.4-.46.4-.7 0-.25-.3-.38-.5-.38h-.23l.07-.25h3.8M970.72 508.56H947.9V506h22.82v2.56m0 7.75H947.9v-2.55h22.82v2.56M991.33 514.6h-.66c.04-1.54.35-3.48 1.7-6.85 1-2.48 1.98-4.92 1.98-7.24 0-2.67-1.86-4.56-4.22-4.56-1.86 0-3.64 1.16-3.64 2.4 0 1.43 1.46 1.6 1.46 2.86 0 .97-.62 1.67-1.6 1.67-1.08 0-1.85-.97-1.85-2.56 0-3.2 2.64-5.53 6.36-5.53 3.76 0 7.05 2.37 7.05 6.12 0 2.36-.72 3.67-4.05 7.63-1.4 1.66-2.1 3.44-2.52 6.08zm1.78 4.62c0 1.12-.84 2.05-2 2.05-1.32 0-2.1-.97-2.1-2.05 0-1.17.9-2.06 2.1-2.06 1.08 0 2 .97 2 2.06"/><path d="M1160 692.82h220.55V798.4H1160z" fill="#fff3d9"/><path d="M1167.68 743.68h61.15v-3.83h-61.15zM1180.4 701.54l-.45-.9c1.26-.78 2.9-1.05 4.43-1.05 5.7 0 8.5 4.06 8.5 11.75 0 6.7-2.76 18.95-13.34 18.95-4.43 0-6.15-3.48-6.15-7.33 0-6.37 5-12.84 11.6-12.84 1.46 0 3.4.5 4.35 2.17.18-1 .32-2.08.32-3.17 0-3.98-1.3-8.18-5.93-8.18-1.22 0-2.2.22-3.34.6m7.78 13.83c0-2.94-1.54-3.9-2.76-3.9-4.48 0-8.37 6.74-8.37 13.03 0 1.73.18 4.44 3.03 4.44 3.48 0 6.15-4.52 7.42-9.13.4-1.5.68-3.02.68-4.42M1223.1 721.2l-2.77 8.6h-25.73l.18-.72h.77c3.4 0 4.48-1.27 4.84-2.8l5.33-21.58c.18-.72.3-1.63.3-2.03 0-.86-.62-1.68-3.43-1.68h-.8l.17-.73h14.8l-.2.72h-.8c-3.4 0-4.35 1.17-4.75 2.84l-5.52 21.76c-.18.67-.23 1.3-.23 1.4 0 1 1.27 1.08 1.8 1.08h5.53c4.6 0 6.92-1 9-5.2.32-.5.54-1.04.77-1.67h.72M1180.33 755.2l-.45-.9c1.27-.77 2.9-1.04 4.43-1.04 5.7 0 8.52 4.07 8.52 11.76 0 6.7-2.76 18.95-13.35 18.95-4.43 0-6.15-3.48-6.15-7.33 0-6.37 5.02-12.84 11.63-12.84 1.44 0 3.4.5 4.34 2.17.17-1 .3-2.08.3-3.16 0-3.97-1.3-8.18-5.92-8.18-1.22 0-2.22.23-3.35.6m7.78 13.83c0-2.94-1.52-3.9-2.75-3.9-4.47 0-8.36 6.75-8.36 13.03 0 1.72.17 4.43 3.02 4.43 3.48 0 6.15-4.5 7.4-9.12.42-1.5.7-3.03.7-4.43M1224.97 763.62v.72c-4.34.6-5.47 5.6-6.37 9.64-1.32 5.8-6.52 10-12.12 10l-1.9 7.77h-3.67l1.96-7.78h-.45c-3.52 0-6.9-1.85-6.9-7.46 0-2.52 1.43-5.24 1.43-8.27 0-1.8-.63-3.66-2.76-3.9l.23-.7c.86-.1 1.67-.1 2.5-.1 2.57 0 3.97 2.44 3.97 5.02 0 2.53-1.4 5.74-1.4 8.37 0 3.4 1.44 5.38 3.75 5.7l4.52-18.5h3.67l-4.52 18.5c3.3-.64 6.56-3.53 7.7-8.46 1.26-5.43 2.3-10.54 9.22-10.54h1.17M1295.04 737.3h-37.68v-4.23h37.68v4.22m0 12.78h-37.68v-4.22h37.68v4.22M1369.9 729.67v1.03c-6.15.83-7.75 7.93-9.03 13.62-1.86 8.2-9.2 14.14-17.15 14.14l-2.68 11h-5.18l2.75-11h-.63c-5 0-9.8-2.62-9.8-10.55 0-3.58 2.06-7.4 2.06-11.7 0-2.56-.9-5.18-3.9-5.5l.3-1.03c1.23-.12 2.38-.12 3.53-.12 3.65 0 5.63 3.45 5.63 7.1 0 3.58-2 8.12-2 11.83 0 4.8 2.06 7.6 5.32 8.06l6.4-26.16h5.18l-6.4 26.16c4.67-.9 9.28-5 10.88-11.96 1.8-7.68 3.26-14.9 13.05-14.9h1.66M1378.78 713.68h1.66c-1.2 6.78-6.14 9.73-14.52 9.73-8.25 0-9.47-1.02-22.45-3.83-6-1.28-10.36-2-12.86-2-6 0-9.9 2-11.12 5.84h-1.66c1.28-7.16 6.33-9.72 13.75-9.72 3.97 0 11.64 1.35 22.77 3.9 6.02 1.4 10.5 2.05 13.18 2.05 6.33 0 10.3-2.05 11.26-5.95"/><path d="M880 660h122.82v71.6H880z" fill="#fff3d9"/><path d="M884.67 695.86h49.37v-2.33h-49.37zM898.44 665.52l-.28-.55c.77-.47 1.76-.63 2.7-.63 3.46 0 5.17 2.47 5.17 7.15 0 4.06-1.68 11.5-8.12 11.5-2.68 0-3.73-2.1-3.73-4.44 0-3.88 3.06-7.82 7.07-7.82.88 0 2.06.3 2.64 1.32.1-.6.2-1.26.2-1.92 0-2.42-.8-4.98-3.6-4.98-.75 0-1.36.14-2.04.36m4.73 8.4c0-1.77-.94-2.35-1.68-2.35-2.73 0-5.1 4.1-5.1 7.92 0 1.04.1 2.7 1.84 2.7 2.12 0 3.74-2.76 4.5-5.57.26-.9.43-1.84.43-2.7M925.6 670.63v.44c-2.66.36-3.34 3.42-3.9 5.86-.8 3.52-3.95 6.08-7.36 6.08l-1.16 4.74h-2.23l1.18-4.73h-.27c-2.15 0-4.2-1.12-4.2-4.53 0-1.54.87-3.2.87-5.03 0-1.1-.38-2.23-1.68-2.37l.14-.44c.5-.05 1-.05 1.5-.05 1.57 0 2.42 1.48 2.42 3.05 0 1.54-.85 3.5-.85 5.1 0 2.05.88 3.26 2.28 3.46l2.76-11.26h2.23l-2.75 11.25c2-.4 4-2.16 4.68-5.16.77-3.3 1.4-6.4 5.6-6.4h.73M892.37 702.87l-.28-.55c.76-.47 1.75-.63 2.7-.63 3.45 0 5.16 2.46 5.16 7.14 0 4.07-1.68 11.52-8.12 11.52-2.7 0-3.74-2.12-3.74-4.45 0-3.87 3.06-7.8 7.07-7.8.88 0 2.07.3 2.64 1.3.12-.6.2-1.25.2-1.9 0-2.43-.8-5-3.6-5-.74 0-1.35.15-2.03.37m4.73 8.4c0-1.77-.94-2.35-1.68-2.35-2.72 0-5.1 4.1-5.1 7.92 0 1.05.12 2.7 1.85 2.7 2.12 0 3.75-2.75 4.52-5.56.23-.9.4-1.84.4-2.7M914.56 707.68l-2.2 7.95c-.16.63-.33 1.27-.33 1.93 0 1.07.53 1.67 1.63 1.67 2.97 0 4.5-3.16 5.36-5.58.22-.66.4-1.35.4-2.04 0-2.02-1.6-1.8-1.66-2.98-.06-1 .82-1.16 1.48-1.16 1.16 0 1.3 1.4 1.3 2.28 0 4.02-2.9 10.57-7.6 10.57-1.9 0-3.05-.76-3.05-2.74 0-1.16.32-2.34.62-3.44-1.1 2.45-3.35 6.2-6.44 6.2-1.54 0-2.14-.95-2.14-2.4 0-.9.3-1.77.52-2.62l1.3-4.87c.08-.25.13-.52.13-.8 0-.66-1.05-.6-1.5-.6v-.4c1.46-.26 2.9-.65 4.27-1.22l.1.1-2.22 8.43c-.08.36-.3 1.24-.3 2 0 .73.16 1.3.77 1.3 1.6-.02 3.55-3.13 4.2-4.15 1.47-2.23 2.18-4.37 3.03-7.4h2.3M928.64 713.04c0 .5-.43.9-.95.9-.58 0-.95-.4-.95-.9s.37-1 .94-1c.5 0 .94.5.94 1m-.4 2.46l-2.14 8.4c-.44 1.72-1.54 4-3.67 4-1.05 0-1.44-.66-1.44-1.2 0-.45.22-1.04.9-1.04.4 0 .7.3.7.75 0 .3-.3.37-.3.68 0 .08.1.2.2.2.9 0 1.54-1.5 2.02-3.4l1.8-7.15c0-.24-.2-.44-.62-.44-.16 0-.4.03-.53.1l-.06-.34M974.3 691.97h-22.9v-2.57h22.9v2.57m0 7.78h-22.9v-2.57h22.9v2.57M995 698.04h-.65c.03-1.56.35-3.5 1.7-6.9 1.02-2.48 2-4.93 2-7.26 0-2.7-1.88-4.6-4.25-4.6-1.87 0-3.66 1.17-3.66 2.42 0 1.44 1.48 1.6 1.48 2.88 0 .97-.62 1.67-1.6 1.67-1.08 0-1.86-.97-1.86-2.57 0-3.23 2.64-5.56 6.38-5.56 3.77 0 7.08 2.37 7.08 6.15 0 2.37-.74 3.7-4.08 7.66-1.4 1.67-2.1 3.46-2.53 6.1zm1.8 4.63c0 1.13-.86 2.06-2.03 2.06-1.32 0-2.1-.97-2.1-2.06 0-1.17.9-2.06 2.1-2.06 1.1 0 2.03.98 2.03 2.07"/><path d="M1184 592.88h291.14" stroke="#5e5e5e" stroke-width="5" fill="none"/><path d="M1184.06 595.38h-2.6l.04-2.5-.03-2.5h2.6z" stroke="#5e5e5e" stroke-width=".05" fill="#5e5e5e"/><path d="M1491.9 592.88l-14.26 4.64v-9.28z" stroke="#5e5e5e" stroke-width="5" fill="#fff"/><path d="M314.12 440H778.7v94.6H314.12z" fill="#fff3d9"/><path d="M341.73 485.45l2.4-3.67c1.38-2.13 3.24-4.47 5.9-4.47 1.7 0 2.6.65 2.6 1.76 0 1-.68 2.24-2.06 2.24-1.17 0-1.44-.48-2.35-.48-1.6 0-2.18.85-2.92 2.02l-2.93 4.53c1.6 3.3 2.82 10.5 5.22 10.5.84 0 2.12-.76 3.23-3.05l.75.54c-.64.8-3.04 5.9-6.12 5.9-2.2 0-3.2-2.18-3.9-4.1l-2.12-6-3.35 5.2c-1.72 2.62-3.26 4.9-6.24 4.9-1.92 0-2.77-1.33-2.77-2.5 0-.85.68-1.97 2-1.97 1.4 0 1.18 1.06 2.5 1.06.65 0 2.04-.53 3.74-3.14l3.46-5.38-1.76-4.9c-.9-2.55-2.3-4.74-5.2-4.74-.7 0-1.5.1-2.04.32l-.16-.96 7.03-1.75c2.34 1.28 3.36 3.47 4 5.22M374.6 492.7l-.14.44c-2.52.27-3.57.95-5 2.2l-4 3.45 2.42 5.7c.56 1.33 1 2.23 2 2.23 1.12 0 1.95-1.62 2.78-2.74l.56.4c-.45.8-2.22 4.82-4.78 4.82-1.73 0-2.52-2-2.94-2.98l-2.37-5.53-2.1 1.86-1.7 6.24h-2.86l5.57-22.17c.08-.22.1-.5.1-.75 0-.4-.36-.83-1.2-.83-.33 0-.7 0-1 .08l-.12-.53 5.95-.94-4.26 17.16 6.3-5.6c.4-.38.8-.87.8-1.36 0-.45-.6-.72-1-.72h-.44l.15-.45h7.3M390.45 463.36h1.38c-1.38 6.23-6.5 8.84-16.5 8.84-9.86 0-13.58-.96-29.13-3.52-7.13-1.17-12.94-1.76-15.92-1.76-7.2 0-13.3 1.76-14.8 5.28h-1.38c1.7-6.45 8.46-8.84 17.35-8.84 4.8 0 14.54 1.27 27.9 3.56 7.14 1.23 14.7 1.87 17.9 1.87 7.55 0 12.08-1.88 13.2-5.44M440.55 483.75H409.2v-3.52h31.35v3.52m0 10.65H409.2v-3.52h31.35v3.52M464.24 489.07h63.25v-3.2h-63.26zM480.95 454l-.38-.76c1.06-.64 2.4-.87 3.7-.87 4.73 0 7.07 3.4 7.07 9.8 0 5.56-2.3 15.76-11.1 15.76-3.7 0-5.13-2.9-5.13-6.1 0-5.3 4.2-10.68 9.7-10.68 1.2 0 2.8.4 3.6 1.8.15-.83.27-1.73.27-2.63 0-3.32-1.1-6.82-4.94-6.82-1 0-1.84.2-2.78.5m6.47 11.5c0-2.44-1.28-3.23-2.3-3.23-3.72 0-6.96 5.6-6.96 10.85 0 1.43.15 3.68 2.53 3.68 2.88 0 5.1-3.76 6.16-7.6.34-1.24.56-2.52.56-3.7M516.48 470.37l-2.3 7.15h-21.4l.14-.6h.64c2.82 0 3.73-1.06 4.03-2.34l4.43-17.95c.15-.6.26-1.36.26-1.7 0-.7-.54-1.4-2.87-1.4h-.68l.15-.6h12.3l-.14.6h-.68c-2.82 0-3.6 1-3.95 2.38l-4.6 18.12c-.14.56-.18 1.1-.18 1.17 0 .8 1.06.9 1.5.9h4.6c3.84 0 5.76-.84 7.5-4.34.25-.4.44-.87.63-1.4h.6M474.77 498.66l-.37-.75c1.05-.63 2.4-.86 3.7-.86 4.73 0 7.06 3.4 7.06 9.8 0 5.56-2.3 15.76-11.1 15.76-3.7 0-5.12-2.9-5.12-6.1 0-5.3 4.18-10.7 9.67-10.7 1.22 0 2.84.43 3.63 1.82.15-.83.26-1.73.26-2.63 0-3.33-1.1-6.83-4.94-6.83-1.02 0-1.85.2-2.8.5m6.5 11.5c0-2.44-1.3-3.23-2.3-3.23-3.74 0-6.97 5.6-6.97 10.85 0 1.42.14 3.67 2.5 3.67 2.9 0 5.13-3.76 6.18-7.6.34-1.24.57-2.52.57-3.7M496.64 511.35l1.7-2.6c.98-1.5 2.3-3.16 4.18-3.16 1.2 0 1.84.44 1.84 1.23 0 .72-.5 1.58-1.47 1.58-.84 0-1.02-.33-1.66-.33-1.13 0-1.55.6-2.08 1.43l-2.07 3.2c1.12 2.34 2 7.42 3.68 7.42.6 0 1.5-.53 2.3-2.15l.53.38c-.45.56-2.14 4.18-4.32 4.18-1.55 0-2.26-1.55-2.75-2.9l-1.5-4.25-2.38 3.68c-1.2 1.85-2.3 3.47-4.4 3.47-1.36 0-1.96-.94-1.96-1.77 0-.6.48-1.4 1.42-1.4.98 0 .83.76 1.77.76.44 0 1.42-.38 2.63-2.22l2.44-3.8-1.24-3.47c-.64-1.8-1.62-3.35-3.7-3.35-.48 0-1.04.08-1.42.23l-.1-.67 4.97-1.24c1.65.9 2.37 2.44 2.82 3.68M520.12 516.3l-.1.33c-1.82.2-2.57.67-3.6 1.56l-2.86 2.48 1.73 4.1c.4.95.72 1.6 1.42 1.6.8 0 1.4-1.17 2-1.98l.4.3c-.32.57-1.6 3.45-3.43 3.45-1.25 0-1.82-1.43-2.1-2.13l-1.7-3.97-1.53 1.33-1.2 4.48h-2.06l4-15.9c.06-.16.08-.35.08-.54 0-.3-.27-.6-.86-.6-.24 0-.5 0-.73.06l-.1-.38 4.28-.67-3.05 12.3 4.5-4.02c.3-.26.57-.6.57-.96 0-.32-.43-.5-.7-.5h-.33l.1-.34h5.25M582.65 483.75H551.3v-3.52h31.35v3.52m0 10.65H551.3v-3.52h31.35v3.52M606.4 489.07h50.9v-3.2h-50.9zM616.98 454l-.38-.76c1.06-.64 2.4-.87 3.7-.87 4.74 0 7.07 3.4 7.07 9.8 0 5.56-2.3 15.76-11.1 15.76-3.7 0-5.12-2.9-5.12-6.1 0-5.3 4.18-10.68 9.67-10.68 1.2 0 2.82.4 3.6 1.8.16-.83.28-1.73.28-2.63 0-3.32-1.1-6.82-4.93-6.82-1.02 0-1.85.2-2.8.5m6.5 11.5c0-2.44-1.3-3.23-2.3-3.23-3.74 0-6.97 5.6-6.97 10.85 0 1.43.15 3.68 2.52 3.68 2.9 0 5.12-3.76 6.17-7.6.33-1.24.56-2.52.56-3.7M652.52 470.37l-2.3 7.15H628.8l.15-.6h.64c2.8 0 3.72-1.06 4.02-2.34l4.44-17.95c.15-.6.26-1.36.26-1.7 0-.7-.52-1.4-2.86-1.4h-.67l.14-.6h12.3l-.15.6h-.68c-2.83 0-3.62 1-3.96 2.38l-4.6 18.12c-.14.56-.18 1.1-.18 1.17 0 .8 1.06.9 1.5.9h4.6c3.84 0 5.76-.84 7.5-4.34.26-.4.44-.87.63-1.4h.62M616.93 498.66l-.38-.75c1.06-.63 2.4-.86 3.7-.86 4.73 0 7.07 3.4 7.07 9.8 0 5.56-2.3 15.76-11.1 15.76-3.7 0-5.13-2.9-5.13-6.1 0-5.3 4.17-10.7 9.67-10.7 1.2 0 2.82.43 3.6 1.82.16-.83.27-1.73.27-2.63 0-3.33-1.1-6.83-4.93-6.83-1 0-1.83.2-2.77.5m6.47 11.5c0-2.44-1.28-3.23-2.3-3.23-3.72 0-6.96 5.6-6.96 10.85 0 1.42.15 3.67 2.52 3.67 2.9 0 5.12-3.76 6.18-7.6.34-1.24.56-2.52.56-3.7M654.08 505.66v.6c-3.6.5-4.55 4.67-5.3 8.02-1.1 4.82-5.43 8.32-10.1 8.32l-1.58 6.48h-3.04l1.6-6.48h-.36c-2.94 0-5.76-1.54-5.76-6.2 0-2.12 1.2-4.37 1.2-6.9 0-1.5-.52-3.05-2.3-3.23l.2-.6c.7-.08 1.4-.08 2.06-.08 2.15 0 3.32 2.02 3.32 4.17 0 2.1-1.17 4.78-1.17 6.96 0 2.82 1.2 4.48 3.12 4.74l3.77-15.4h3.05l-3.78 15.4c2.75-.52 5.46-2.93 6.4-7.04 1.06-4.5 1.92-8.77 7.68-8.77h.98M686.36 487.32c0 1.7-1.44 3.2-3.14 3.2-1.76 0-3.25-1.6-3.25-3.2s1.5-3.2 3.25-3.2c1.7 0 3.14 1.5 3.14 3.2M709.04 489.07h63.25v-3.2h-63.26zM725.7 447.55l-.38-.75c1.06-.64 2.4-.87 3.7-.87 4.74 0 7.07 3.4 7.07 9.8 0 5.56-2.3 15.76-11.1 15.76-3.7 0-5.13-2.9-5.13-6.1 0-5.3 4.17-10.7 9.67-10.7 1.2 0 2.82.42 3.6 1.8.16-.82.28-1.72.28-2.63 0-3.3-1.1-6.8-4.93-6.8-1.03 0-1.86.18-2.8.48m6.48 11.52c0-2.45-1.28-3.24-2.3-3.24-3.73 0-6.96 5.6-6.96 10.84 0 1.43.15 3.7 2.52 3.7 2.9 0 5.12-3.77 6.17-7.6.35-1.25.58-2.53.58-3.7M762.85 454.55v.6c-3.6.5-4.55 4.67-5.3 8.02-1.1 4.82-5.42 8.32-10.1 8.32l-1.57 6.47h-3.05l1.62-6.48h-.38c-2.94 0-5.76-1.55-5.76-6.22 0-2.1 1.22-4.37 1.22-6.9 0-1.5-.53-3.04-2.3-3.23l.2-.6c.7-.07 1.38-.07 2.06-.07 2.14 0 3.3 2.03 3.3 4.18 0 2.1-1.16 4.78-1.16 6.96 0 2.82 1.2 4.48 3.13 4.74l3.76-15.4h3.06l-3.76 15.4c2.74-.53 5.45-2.93 6.4-7.04 1.05-4.5 1.92-8.77 7.67-8.77h.98M719.58 498.66l-.38-.75c1.06-.63 2.4-.86 3.7-.86 4.73 0 7.07 3.4 7.07 9.8 0 5.56-2.3 15.76-11.1 15.76-3.7 0-5.13-2.9-5.13-6.1 0-5.3 4.18-10.7 9.68-10.7 1.2 0 2.82.43 3.6 1.82.16-.83.27-1.73.27-2.63 0-3.33-1.1-6.83-4.94-6.83-1 0-1.84.2-2.78.5m6.47 11.5c0-2.44-1.28-3.23-2.3-3.23-3.72 0-6.96 5.6-6.96 10.85 0 1.42.14 3.67 2.5 3.67 2.9 0 5.13-3.76 6.2-7.6.33-1.24.55-2.52.55-3.7M741.45 511.35l1.7-2.6c.97-1.5 2.3-3.16 4.17-3.16 1.2 0 1.84.44 1.84 1.23 0 .72-.48 1.58-1.46 1.58-.83 0-1.02-.33-1.66-.33-1.13 0-1.54.6-2.07 1.43l-2.07 3.2c1.13 2.34 2 7.42 3.7 7.42.6 0 1.5-.53 2.28-2.15l.53.38c-.44.56-2.13 4.18-4.32 4.18-1.54 0-2.26-1.55-2.74-2.9l-1.5-4.25-2.38 3.68c-1.2 1.85-2.3 3.47-4.4 3.47-1.36 0-1.96-.94-1.96-1.77 0-.6.5-1.4 1.43-1.4.98 0 .83.76 1.77.76.45 0 1.43-.38 2.63-2.22l2.45-3.8-1.24-3.47c-.64-1.8-1.62-3.35-3.7-3.35-.48 0-1.05.08-1.42.23l-.12-.67 4.97-1.24c1.66.9 2.37 2.44 2.83 3.68M764.92 516.3l-.1.33c-1.8.2-2.57.67-3.6 1.56l-2.86 2.48 1.73 4.1c.4.95.72 1.6 1.42 1.6.8 0 1.4-1.17 2-1.98l.4.3c-.32.57-1.6 3.45-3.42 3.45-1.24 0-1.8-1.43-2.1-2.13l-1.7-3.97-1.52 1.33-1.22 4.48h-2.05l4-15.9c.06-.16.1-.35.1-.54 0-.3-.28-.6-.87-.6-.25 0-.52 0-.73.06l-.08-.38 4.26-.67-3.05 12.3 4.5-4.02c.3-.26.57-.6.57-.96 0-.32-.43-.5-.7-.5h-.32l.1-.34h5.24"/><path d="M314.12 706.8h457v94.6h-457z" fill="#fff3d9"/><path d="M349.37 742.35l-4.12 14.86c-.3 1.2-.6 2.38-.6 3.6 0 2 .96 3.14 3.02 3.14 5.55 0 8.43-5.9 10.02-10.43.4-1.23.76-2.5.76-3.8 0-3.8-3.03-3.4-3.13-5.6-.1-1.85 1.54-2.16 2.77-2.16 2.16 0 2.42 2.62 2.42 4.27 0 7.5-5.4 19.75-14.2 19.75-3.54 0-5.7-1.44-5.7-5.14 0-2.15.62-4.36 1.2-6.42-2.07 4.58-6.28 11.57-12.04 11.57-2.88 0-4-1.75-4-4.47 0-1.7.55-3.3.96-4.9l2.42-9.1c.16-.45.26-.96.26-1.48 0-1.23-1.96-1.13-2.78-1.13v-.77c2.73-.46 5.4-1.18 7.97-2.26l.22.15-4.17 15.78c-.15.66-.56 2.3-.56 3.75 0 1.34.3 2.4 1.43 2.4 2.98-.04 6.63-5.85 7.86-7.75 2.72-4.16 4.05-8.17 5.65-13.83h4.32M375.42 752.66c0 .94-.8 1.67-1.74 1.67-1.06 0-1.75-.73-1.75-1.67 0-.9.7-1.82 1.75-1.82.94 0 1.74.9 1.74 1.82m-.76 4.54l-3.93 15.45c-.8 3.2-2.83 7.38-6.76 7.38-1.92 0-2.65-1.2-2.65-2.22 0-.8.44-1.88 1.7-1.88.7 0 1.28.54 1.28 1.38 0 .55-.58.65-.58 1.24 0 .14.18.36.36.36 1.68 0 2.87-2.76 3.75-6.25l3.34-13.2c0-.43-.36-.8-1.16-.8-.28 0-.72.08-.97.2l-.1-.63M387.82 728.37h1.34c-1.34 6-6.28 8.53-15.94 8.53-9.5 0-13.1-.92-28.12-3.4-6.9-1.12-12.5-1.7-15.37-1.7-6.94 0-12.86 1.7-14.3 5.1h-1.33c1.64-6.22 8.17-8.53 16.76-8.53 4.62 0 14.03 1.23 26.94 3.44 6.9 1.2 14.2 1.8 17.27 1.8 7.3 0 11.67-1.8 12.75-5.23M436.2 749.04h-30.28v-3.4h30.28v3.4m0 10.28h-30.28v-3.4h30.28v3.4M459.07 754.18h65.24v-3.1h-65.23zM477.32 720.3l-.37-.72c1.02-.62 2.33-.84 3.57-.84 4.58 0 6.83 3.27 6.83 9.45 0 5.37-2.22 15.22-10.72 15.22-3.56 0-4.95-2.8-4.95-5.9 0-5.1 4.04-10.3 9.35-10.3 1.16 0 2.72.4 3.48 1.73.16-.8.27-1.67.27-2.54 0-3.2-1.05-6.57-4.76-6.57-.97 0-1.77.18-2.68.47m6.25 11.13c0-2.37-1.24-3.13-2.22-3.13-3.6 0-6.72 5.42-6.72 10.47 0 1.38.14 3.56 2.43 3.56 2.8 0 4.95-3.63 5.96-7.34.33-1.2.55-2.45.55-3.57M511.63 736.12l-2.22 6.9h-20.67l.15-.58h.6c2.74 0 3.6-1.02 3.9-2.25l4.3-17.35c.14-.58.25-1.3.25-1.64 0-.68-.5-1.33-2.77-1.33h-.65l.16-.58h11.88l-.14.57h-.66c-2.72 0-3.5.94-3.8 2.3l-4.45 17.47c-.15.55-.2 1.05-.2 1.13 0 .8 1.03.87 1.46.87h4.44c3.7 0 5.56-.8 7.23-4.18.25-.4.44-.84.62-1.34h.58M469.25 763.44l-.37-.73c1.02-.6 2.33-.83 3.57-.83 4.58 0 6.83 3.28 6.83 9.45 0 5.38-2.22 15.23-10.72 15.23-3.57 0-4.95-2.8-4.95-5.88 0-5.13 4.05-10.33 9.35-10.33 1.17 0 2.73.4 3.5 1.75.14-.8.25-1.68.25-2.56 0-3.2-1.06-6.58-4.76-6.58-.98 0-1.78.2-2.7.48m6.26 11.12c0-2.36-1.24-3.13-2.22-3.13-3.6 0-6.72 5.42-6.72 10.47 0 1.38.14 3.56 2.43 3.56 2.8 0 4.94-3.63 5.95-7.34.33-1.2.55-2.43.55-3.56M498.58 769.8l-2.9 10.5c-.23.84-.44 1.67-.44 2.55 0 1.4.7 2.2 2.14 2.2 3.92 0 5.96-4.17 7.1-7.36.28-.9.53-1.8.53-2.7 0-2.7-2.13-2.4-2.2-3.97-.08-1.3 1.1-1.52 1.96-1.52 1.52 0 1.7 1.86 1.7 3.02 0 5.3-3.8 13.96-10.03 13.96-2.5 0-4.03-1.02-4.03-3.63 0-1.53.44-3.1.84-4.55-1.46 3.24-4.44 8.18-8.5 8.18-2.04 0-2.84-1.23-2.84-3.16 0-1.2.4-2.33.7-3.45l1.7-6.44c.1-.32.18-.7.18-1.05 0-.87-1.38-.8-1.97-.8v-.55c1.94-.32 3.83-.83 5.65-1.6l.14.1-2.95 11.17c-.1.47-.4 1.64-.4 2.66 0 .94.22 1.7 1.02 1.7 2.1-.03 4.7-4.14 5.56-5.48 1.92-2.95 2.87-5.78 4-9.78h3.05M517.18 776.88c0 .67-.58 1.2-1.25 1.2-.76 0-1.26-.53-1.26-1.2 0-.66.5-1.3 1.26-1.3.67 0 1.25.64 1.25 1.3m-.55 3.25l-2.82 11.08c-.56 2.3-2.02 5.3-4.83 5.3-1.38 0-1.9-.86-1.9-1.6 0-.56.3-1.34 1.22-1.34.48 0 .9.4.9 1 0 .38-.42.46-.42.87 0 .1.13.26.26.26 1.2 0 2.06-2 2.7-4.5l2.4-9.45c0-.3-.27-.57-.85-.57-.22 0-.53.05-.7.13l-.1-.44M577.63 749.04h-30.28v-3.4h30.28v3.4m0 10.28h-30.28v-3.4h30.28v3.4M600.5 754.18h49.15v-3.1H600.5zM610.73 720.3l-.37-.72c1.02-.62 2.33-.84 3.57-.84 4.58 0 6.83 3.27 6.83 9.45 0 5.37-2.22 15.22-10.72 15.22-3.56 0-4.95-2.8-4.95-5.9 0-5.1 4.03-10.3 9.34-10.3 1.16 0 2.72.4 3.48 1.73.15-.8.26-1.67.26-2.54 0-3.2-1.06-6.57-4.76-6.57-.98 0-1.78.18-2.7.47m6.26 11.13c0-2.37-1.24-3.13-2.22-3.13-3.6 0-6.72 5.42-6.72 10.47 0 1.38.14 3.56 2.43 3.56 2.8 0 4.95-3.63 5.96-7.34.33-1.2.55-2.45.55-3.57M645.04 736.12l-2.22 6.9h-20.68l.15-.58h.6c2.73 0 3.6-1.02 3.9-2.25l4.28-17.35c.15-.58.26-1.3.26-1.64 0-.68-.5-1.33-2.77-1.33h-.65l.15-.58h11.88l-.14.57h-.65c-2.72 0-3.5.94-3.82 2.3l-4.43 17.47c-.15.55-.18 1.05-.18 1.13 0 .8 1.02.87 1.45.87h4.44c3.7 0 5.57-.8 7.24-4.18.25-.4.44-.84.62-1.34h.58M610.68 763.44l-.37-.73c1.03-.6 2.34-.83 3.57-.83 4.58 0 6.84 3.28 6.84 9.45 0 5.38-2.2 15.23-10.7 15.23-3.58 0-4.96-2.8-4.96-5.88 0-5.13 4.04-10.33 9.34-10.33 1.17 0 2.73.4 3.5 1.75.14-.8.25-1.68.25-2.56 0-3.2-1.06-6.58-4.76-6.58-1 0-1.8.2-2.7.48m6.26 11.12c0-2.36-1.24-3.13-2.22-3.13-3.6 0-6.7 5.42-6.7 10.47 0 1.38.13 3.56 2.42 3.56 2.8 0 4.95-3.63 5.96-7.34.33-1.2.55-2.43.55-3.56M646.55 770.2v.58c-3.5.47-4.4 4.5-5.12 7.74-1.06 4.65-5.24 8.03-9.75 8.03l-1.52 6.26h-2.95l1.58-6.25h-.37c-2.82 0-5.55-1.5-5.55-6 0-2.03 1.17-4.2 1.17-6.64 0-1.45-.5-2.94-2.22-3.12l.18-.58c.7-.07 1.35-.07 2-.07 2.07 0 3.2 1.96 3.2 4.03 0 2.04-1.13 4.62-1.13 6.72 0 2.73 1.16 4.33 3.02 4.58l3.63-14.86h2.95L632 785.46c2.67-.5 5.28-2.83 6.2-6.8 1-4.35 1.84-8.46 7.4-8.46h.95M677.77 752.48c0 1.65-1.38 3.1-3.03 3.1-1.7 0-3.14-1.56-3.14-3.1s1.44-3.08 3.14-3.08c1.65 0 3.03 1.44 3.03 3.08M699.62 754.18h65.24v-3.1h-65.24zM717.82 714.08l-.37-.72c1.02-.62 2.33-.84 3.56-.84 4.6 0 6.85 3.27 6.85 9.45 0 5.38-2.22 15.23-10.73 15.23-3.56 0-4.94-2.8-4.94-5.9 0-5.1 4.04-10.3 9.34-10.3 1.17 0 2.73.4 3.5 1.73.14-.8.25-1.67.25-2.54 0-3.2-1.06-6.6-4.77-6.6-.98 0-1.78.2-2.68.48m6.25 11.13c0-2.36-1.24-3.12-2.22-3.12-3.6 0-6.72 5.42-6.72 10.47 0 1.38.14 3.56 2.43 3.56 2.8 0 4.94-3.62 5.96-7.33.33-1.2.55-2.44.55-3.56M753.7 720.84v.6c-3.5.46-4.4 4.5-5.14 7.73-1.05 4.65-5.23 8.03-9.74 8.03l-1.52 6.25h-2.95l1.57-6.25h-.37c-2.83 0-5.56-1.5-5.56-6 0-2.03 1.15-4.2 1.15-6.65 0-1.45-.5-2.94-2.2-3.12l.17-.6c.7-.06 1.34-.06 2-.06 2.07 0 3.2 1.96 3.2 4.04 0 2.04-1.13 4.62-1.13 6.73 0 2.73 1.15 4.33 3 4.58l3.64-14.86h2.95l-3.65 14.87c2.65-.5 5.27-2.83 6.18-6.8 1.02-4.35 1.85-8.46 7.4-8.46h.96M709.8 763.44l-.37-.73c1.02-.6 2.33-.83 3.56-.83 4.57 0 6.83 3.28 6.83 9.45 0 5.38-2.22 15.23-10.73 15.23-3.56 0-4.94-2.8-4.94-5.88 0-5.13 4.04-10.33 9.34-10.33 1.17 0 2.73.4 3.5 1.75.14-.8.25-1.68.25-2.56 0-3.2-1.06-6.58-4.77-6.58-.98 0-1.78.2-2.68.48m6.25 11.12c0-2.36-1.24-3.13-2.22-3.13-3.6 0-6.72 5.42-6.72 10.47 0 1.38.15 3.56 2.44 3.56 2.8 0 4.94-3.63 5.96-7.34.33-1.2.55-2.43.55-3.56M739.13 769.8l-2.9 10.5c-.23.84-.45 1.67-.45 2.55 0 1.4.7 2.2 2.15 2.2 3.92 0 5.96-4.17 7.1-7.36.28-.9.53-1.8.53-2.7 0-2.7-2.14-2.4-2.22-3.97-.07-1.3 1.1-1.52 1.97-1.52 1.53 0 1.7 1.86 1.7 3.02 0 5.3-3.8 13.96-10.02 13.96-2.5 0-4.03-1.02-4.03-3.63 0-1.53.43-3.1.83-4.55-1.45 3.24-4.43 8.18-8.5 8.18-2.04 0-2.84-1.23-2.84-3.16 0-1.2.4-2.33.7-3.45l1.7-6.44c.1-.32.18-.7.18-1.05 0-.87-1.38-.8-1.96-.8v-.55c1.93-.32 3.82-.83 5.64-1.6l.14.1-2.94 11.17c-.1.47-.4 1.64-.4 2.66 0 .94.22 1.7 1 1.7 2.12-.03 4.7-4.14 5.58-5.48 1.92-2.95 2.87-5.78 4-9.78h3.05M757.73 776.88c0 .67-.58 1.2-1.26 1.2-.75 0-1.25-.53-1.25-1.2 0-.66.5-1.3 1.25-1.3.68 0 1.26.64 1.26 1.3m-.55 3.25l-2.82 11.08c-.57 2.3-2.03 5.3-4.84 5.3-1.4 0-1.9-.86-1.9-1.6 0-.56.3-1.34 1.22-1.34.5 0 .9.4.9 1 0 .38-.4.46-.4.87 0 .1.12.26.25.26 1.2 0 2.05-2 2.68-4.5l2.4-9.45c0-.3-.26-.57-.84-.57-.2 0-.52.05-.7.13l-.08-.44"/><path d="M980.63 570.25h45.5v48.86h-45.5z" fill-opacity="0"/><path d="M1026.1 574.7v1.02c-6.13.83-7.73 7.93-9 13.63-1.87 8.18-9.22 14.13-17.15 14.13l-2.7 11h-5.17l2.75-11h-.64c-5 0-9.8-2.62-9.8-10.55 0-3.58 2.05-7.42 2.05-11.7 0-2.57-.9-5.2-3.9-5.5l.3-1.03c1.23-.13 2.38-.13 3.53-.13 3.65 0 5.63 3.45 5.63 7.1 0 3.58-1.97 8.12-1.97 11.83 0 4.8 2.05 7.62 5.3 8.06l6.4-26.16h5.2l-6.4 26.16c4.66-.9 9.27-5 10.87-11.96 1.8-7.68 3.26-14.9 13.05-14.9h1.66"/><path d="M732.33 176.8l256.53 149.36-45.46 78.07-256.52-149.36z" fill="#fff3d9"/><path d="M714.03 220.36l52.2 30.4 1.53-2.64-52.2-30.4zM744.67 199.44l.05-.8c1.18-.02 2.4.45 3.46 1.06 3.92 2.28 4.22 6.2 1.14 11.48-2.68 4.6-9.47 11.9-16.74 7.68-3.04-1.78-2.83-4.85-1.3-7.5 2.55-4.37 8.6-6.8 13.12-4.17 1 .57 2.14 1.7 2.12 3.22.52-.6 1.05-1.3 1.48-2.05 1.6-2.73 2.37-6.15-.8-8-.83-.48-1.6-.72-2.53-.93m-.2 12.62c1.2-2.02.5-3.3-.33-3.77-3.07-1.8-8.44 1.27-10.95 5.6-.7 1.17-1.66 3.1.3 4.24 2.4 1.4 6.03-.64 8.74-3.3.88-.87 1.68-1.82 2.24-2.78M766.13 230.03l-5.33 4.8-17.68-10.3.42-.42.52.32c2.33 1.36 3.6.92 4.45 0l12.3-12.67c.42-.43.87-1 1.03-1.27.35-.6.24-1.4-1.7-2.53l-.55-.32.42-.43 10.15 5.92-.4.42-.57-.32c-2.33-1.36-3.45-.93-4.4.05L752.28 226c-.38.4-.67.82-.7.88-.4.68.43 1.25.8 1.47l3.8 2.2c3.16 1.85 5.14 2.1 8.25.03.42-.2.8-.5 1.2-.84l.5.3M718.1 233.34l.06-.8c1.18-.02 2.4.44 3.46 1.06 3.92 2.28 4.22 6.2 1.14 11.47-2.68 4.6-9.47 11.92-16.74 7.68-3.05-1.77-2.83-4.85-1.3-7.5 2.55-4.37 8.6-6.8 13.12-4.16 1 .57 2.14 1.7 2.12 3.2.52-.6 1.05-1.3 1.48-2.03 1.6-2.74 2.37-6.15-.8-8-.83-.48-1.6-.73-2.53-.93m-.18 12.62c1.18-2.02.5-3.3-.34-3.78-3.07-1.8-8.44 1.28-10.95 5.6-.7 1.18-1.65 3.12.3 4.26 2.4 1.4 6.04-.65 8.75-3.3.88-.87 1.68-1.82 2.24-2.78M730.07 254.32l2.64-1.33c1.54-.78 3.43-1.52 4.98-.6 1 .56 1.3 1.24.92 1.9-.34.6-1.16 1.07-1.97.6-.68-.4-.67-.77-1.2-1.08-.93-.54-1.56-.24-2.4.2l-3.24 1.63c-.2 2.47-1.93 7.08-.53 7.9.5.28 1.5.28 2.92-.67l.25.56c-.65.25-3.78 2.42-5.58 1.37-1.28-.73-1.12-2.35-.88-3.7l.8-4.24-3.74 1.9c-1.88.95-3.55 1.76-5.3.75-1.1-.64-1.16-1.7-.76-2.4.3-.5 1.07-.9 1.85-.45.8.47.32 1.02 1.1 1.47.37.22 1.36.38 3.24-.57l3.84-1.96.64-3.46c.34-1.8.27-3.55-1.44-4.54-.4-.24-.9-.45-1.3-.5l.24-.62 4.7 1.37c.93 1.54.78 3.15.56 4.4M747.06 269.7l-.25.2c-1.57-.7-2.43-.67-3.7-.43l-3.56.67-.54 4.22c-.12.97-.17 1.66.4 2 .68.4 1.73-.28 2.6-.66l.2.44c-.54.3-2.98 2.08-4.5 1.2-1-.6-.8-2.05-.7-2.77l.5-4.1-1.88.37-3.16 3.12-1.7-1 10.95-11.2c.13-.1.24-.24.33-.4.14-.24.06-.62-.43-.9-.2-.12-.42-.25-.62-.3l.1-.36 3.86 1.5-8.44 8.7 5.66-1.17c.37-.08.76-.24.93-.53.15-.26-.12-.63-.34-.76l-.27-.15.24-.23 4.32 2.52M814.2 272.8l-25.87-15.05 1.7-2.9 25.87 15.06-1.7 2.9m-5.1 8.8l-25.88-15.07 1.7-2.9 25.87 15.07-1.7 2.9M868.7 297.54l-.4.7c-4.55-1.88-8.5 2.36-11.65 5.76-4.54 4.88-11.98 6.02-17.42 2.85l-6.25 6.48-3.56-2.07 6.3-6.46-.45-.25c-3.43-2-5.67-5.72-2.5-11.17 1.43-2.46 4.37-4.27 6.1-7.22 1-1.75 1.44-3.9-.5-5.34l.64-.57c.9.4 1.68.86 2.47 1.32 2.5 1.46 2.5 4.62 1.03 7.13-1.43 2.46-4.6 4.78-6.1 7.33-1.9 3.3-1.63 6.05.43 7.66l14.86-15.42 3.55 2.07-14.86 15.4c3.55 1.27 8.36.3 12.24-3.85 4.3-4.56 8.2-8.94 14.93-5.02l1.14.66M881.2 290.1l1.15.68c-3.54 4.17-8.1 4.22-13.86.87-5.68-3.3-6.1-4.5-13.9-11.62-3.6-3.28-6.32-5.5-8.03-6.5-4.13-2.4-7.6-2.6-9.98-.45l-1.15-.67c3.74-4.4 8.24-4.13 13.34-1.17 2.7 1.6 7.44 5.58 14.07 11.8 3.56 3.36 6.38 5.6 8.23 6.67 4.35 2.53 7.9 2.7 10.1.4M889.92 320.83c-.82 1.4-2.72 1.95-4.13 1.13-1.46-.84-1.92-2.88-1.16-4.2.77-1.3 2.77-1.92 4.22-1.07 1.4.8 1.88 2.73 1.06 4.13M907.75 333.16l52.2 30.4 1.53-2.65-52.2-30.38zM941.44 306.9l.05-.8c1.17-.03 2.4.44 3.45 1.05 3.92 2.28 4.22 6.2 1.14 11.48-2.68 4.6-9.48 11.9-16.75 7.68-3.04-1.77-2.83-4.84-1.3-7.48 2.56-4.38 8.6-6.82 13.13-4.18 1 .58 2.13 1.7 2.1 3.23.53-.6 1.06-1.3 1.5-2.05 1.58-2.73 2.37-6.15-.8-8-.84-.48-1.62-.72-2.54-.93m-.2 12.6c1.2-2 .5-3.28-.33-3.76-3.06-1.8-8.43 1.28-10.94 5.6-.7 1.18-1.65 3.1.3 4.25 2.4 1.38 6.04-.65 8.75-3.32.9-.86 1.7-1.8 2.25-2.77M968.74 330.52l-.3.5c-3.2-1.33-6 1.66-8.22 4.07-3.22 3.44-8.47 4.25-12.33 2l-4.42 4.6-2.52-1.48 4.45-4.56-.3-.18c-2.42-1.4-4-4.04-1.77-7.9 1-1.74 3.1-3.02 4.3-5.1.73-1.24 1.03-2.77-.33-3.78l.44-.4c.63.28 1.2.6 1.74.93 1.78 1.03 1.76 3.27.73 5.04-1 1.74-3.25 3.38-4.3 5.2-1.35 2.32-1.16 4.26.3 5.4l10.5-10.9 2.52 1.47-10.5 10.9c2.52.88 5.9.2 8.66-2.74 3.04-3.22 5.8-6.3 10.55-3.55l.8.47M911.83 346.13l.05-.8c1.18-.02 2.4.44 3.46 1.06 3.92 2.27 4.22 6.18 1.14 11.46-2.68 4.6-9.47 11.92-16.74 7.68-3.05-1.77-2.83-4.85-1.3-7.5 2.55-4.37 8.6-6.8 13.12-4.16 1 .58 2.13 1.7 2.12 3.23.52-.6 1.05-1.3 1.48-2.04 1.6-2.74 2.37-6.15-.8-8-.83-.48-1.6-.72-2.53-.93m-.2 12.62c1.2-2.02.5-3.3-.33-3.78-3.07-1.8-8.44 1.3-10.96 5.6-.68 1.18-1.64 3.12.3 4.26 2.4 1.4 6.05-.65 8.76-3.3.88-.87 1.68-1.82 2.24-2.78M923.78 367.1l2.65-1.32c1.53-.77 3.4-1.5 4.97-.6 1 .58 1.3 1.26.92 1.9-.34.6-1.16 1.08-1.97.6-.68-.4-.67-.76-1.2-1.07-.93-.53-1.57-.23-2.4.2l-3.24 1.64c-.18 2.47-1.9 7.08-.5 7.9.48.3 1.48.28 2.9-.67l.27.56c-.65.25-3.78 2.42-5.58 1.37-1.3-.74-1.14-2.36-.9-3.7l.8-4.25-3.72 1.9c-1.88.95-3.55 1.76-5.3.75-1.1-.65-1.16-1.72-.76-2.4.3-.5 1.07-.9 1.85-.46.8.47.32 1.02 1.1 1.47.37.23 1.36.4 3.24-.56l3.86-1.96.63-3.45c.33-1.8.27-3.55-1.44-4.54-.4-.25-.9-.45-1.3-.5l.24-.62 4.7 1.36c.93 1.54.78 3.16.56 4.4M940.78 382.48l-.25.2c-1.58-.7-2.44-.66-3.7-.42l-3.57.68-.54 4.2c-.12 1-.17 1.68.4 2 .68.4 1.73-.27 2.6-.65l.2.43c-.54.3-2.98 2.08-4.5 1.2-1.02-.6-.8-2.05-.7-2.77l.5-4.1-1.88.37-3.16 3.12-1.7-1 10.94-11.2c.13-.1.24-.24.33-.4.14-.24.06-.62-.43-.9-.2-.12-.42-.25-.62-.3l.1-.36 3.85 1.48-8.43 8.7 5.66-1.16c.37-.08.76-.24.93-.53.17-.27-.1-.64-.32-.77l-.27-.15.25-.22 4.33 2.52"/><g><path d="M689.62 1005.73L940.17 801.4l62.65 76.82-250.55 204.34z" fill="#fff3d9"/><path d="M726 1040.13l53-43.2-2.06-2.5-52.97 43.2zM718.4 1000.54l-.78-.35c.4-1.2 1.33-2.23 2.33-3.05 3.72-3.03 7.72-1.87 11.8 3.15 3.57 4.37 8.3 13.83 1.4 19.47-2.9 2.36-5.88 1-7.92-1.5-3.4-4.17-3.56-11.06.75-14.58.94-.78 2.47-1.5 3.98-.9-.4-.75-.9-1.53-1.47-2.24-2.13-2.6-5.23-4.64-8.24-2.2-.8.66-1.32 1.34-1.87 2.18m12.43 4.9c-1.56-1.93-3.07-1.73-3.87-1.08-2.92 2.38-1.87 8.85 1.48 12.95.9 1.13 2.47 2.8 4.33 1.3 2.28-1.86 1.6-6.23-.02-9.92-.53-1.2-1.17-2.34-1.92-3.25M756.73 990.65l2.77 7.08-16.8 13.7-.26-.57.5-.4c2.2-1.82 2.25-3.22 1.66-4.42l-8-16.92c-.26-.56-.65-1.23-.87-1.5-.46-.55-1.3-.75-3.13.74l-.54.44-.26-.57 9.65-7.87.27.57-.54.43c-2.2 1.8-2.2 3.08-1.58 4.4l7.98 17.12c.24.54.55.98.6 1.04.53.65 1.4.03 1.76-.26l3.6-2.94c3-2.45 3.98-4.33 3.1-8.18-.06-.5-.2-.97-.4-1.5l.5-.4M740.4 1040.9l-.77-.34c.4-1.18 1.33-2.22 2.34-3.04 3.7-3.03 7.7-1.87 11.8 3.15 3.57 4.37 8.3 13.84 1.38 19.47-2.9 2.36-5.87 1-7.9-1.5-3.4-4.17-3.57-11.06.74-14.58.93-.77 2.47-1.48 3.98-.9-.42-.74-.9-1.52-1.48-2.23-2.12-2.6-5.22-4.64-8.23-2.2-.8.66-1.32 1.34-1.87 2.18m12.45 4.9c-1.57-1.92-3.08-1.72-3.88-1.07-2.92 2.38-1.87 8.85 1.48 12.95.9 1.13 2.47 2.8 4.33 1.28 2.28-1.85 1.6-6.22-.02-9.9-.53-1.2-1.17-2.34-1.9-3.26M768.43 1026.65l4.6 10.45c.38.83.75 1.65 1.33 2.36.94 1.15 2.03 1.34 3.2.38 3.2-2.6 2.08-7.34.88-10.7-.34-.9-.74-1.8-1.34-2.53-1.78-2.18-3.33-.52-4.42-1.74-.93-1-.13-1.96.58-2.54 1.24-1 2.6.37 3.38 1.32 3.52 4.3 6.15 13.86 1.1 17.98-2.03 1.66-3.95 1.84-5.68-.28-1-1.24-1.7-2.8-2.33-4.25.96 3.58 1.8 9.57-1.5 12.27-1.65 1.35-3.1.87-4.4-.7-.78-.97-1.2-2.15-1.7-3.25l-2.9-6.36c-.12-.34-.3-.68-.54-.98-.6-.7-1.66.27-2.13.65l-.36-.44c1.35-1.55 2.55-3.2 3.52-5.04h.2l5 11c.22.46.75 1.6 1.42 2.42.63.77 1.3 1.25 1.96.72 1.7-1.43 1.07-6.47.88-8.14-.38-3.67-1.5-6.6-3.22-10.6l2.47-2M788.22 1020.08c.45.55.33 1.35-.22 1.8-.6.5-1.36.4-1.8-.14-.44-.53-.47-1.4.14-1.9.56-.44 1.45-.3 1.88.24m1.72 3l5.05 10.87c1.04 2.24 1.84 5.64-.45 7.5-1.12.92-2.1.57-2.6-.03-.37-.46-.64-1.3.1-1.9.4-.34 1-.3 1.4.2.26.3-.03.65.25 1 .07.07.28.1.38.03.98-.8.36-2.98-.8-5.42l-4.3-9.27c-.2-.26-.6-.3-1.06.08-.17.14-.4.4-.5.58l-.34-.3M818.8 957.5l-24.6 20.06-2.25-2.75 24.6-20.05 2.24 2.76m6.8 8.36L801 985.9l-2.24-2.74 24.6-20.06 2.24 2.76M863.58 912.7l.55.67c-3.57 3.8-.83 9.3 1.36 13.7 3.14 6.33 1.5 14.12-3.67 18.35l4.1 8.6-3.38 2.76-4.06-8.64-.43.34c-3.25 2.66-7.78 3.5-12-1.68-1.9-2.34-2.62-5.93-4.9-8.73-1.36-1.67-3.34-2.9-5.47-1.5l-.34-.85c.73-.73 1.48-1.34 2.23-1.96 2.37-1.94 5.5-.74 7.44 1.64 1.9 2.34 3.03 6.36 5 8.78 2.56 3.13 5.4 3.88 7.76 2.43l-9.75-20.46 3.38-2.76 9.75 20.48c2.58-3.07 3.4-8.2.73-13.6-2.9-5.96-5.8-11.46.6-16.67l1.08-.9M860.87 897.54l1.1-.9c2.8 5.08 1.16 9.62-4.3 14.08-5.4 4.4-6.73 4.38-16.7 9.45-4.6 2.37-7.83 4.22-9.45 5.55-3.93 3.2-5.42 6.57-4.17 9.72l-1.1.9c-2.96-5.37-1.03-9.73 3.82-13.68 2.58-2.1 8.3-5.32 16.93-9.57 4.68-2.3 7.94-4.26 9.7-5.7 4.13-3.36 5.63-6.8 4.17-9.86M894.63 900.3c1.1 1.35.92 3.44-.42 4.53-1.37 1.12-3.56.82-4.58-.43s-.87-3.46.5-4.58c1.34-1.1 3.42-.84 4.5.5M913.5 887.22l52.97-43.2-2.04-2.5-52.98 43.2zM901.72 842.62l-.78-.35c.42-1.18 1.34-2.22 2.34-3.04 3.72-3.03 7.72-1.87 11.8 3.15 3.57 4.37 8.3 13.83 1.4 19.46-2.9 2.36-5.88 1-7.93-1.5-3.4-4.16-3.56-11.06.75-14.57.95-.77 2.48-1.48 4-.9-.42-.74-.9-1.52-1.5-2.23-2.1-2.6-5.2-4.64-8.2-2.2-.8.66-1.34 1.34-1.88 2.18m12.44 4.9c-1.56-1.93-3.07-1.73-3.87-1.08-2.93 2.38-1.88 8.85 1.46 12.95.92 1.1 2.48 2.8 4.34 1.27 2.27-1.85 1.6-6.22-.02-9.9-.53-1.2-1.17-2.35-1.92-3.26M935.33 824.35l.38.47c-2.5 2.7-.57 6.57.98 9.68 2.22 4.48 1.07 10-2.6 12.97l2.9 6.1-2.38 1.94-2.87-6.1-.3.24c-2.3 1.88-5.5 2.47-8.5-1.2-1.34-1.64-1.84-4.18-3.45-6.16-.96-1.18-2.36-2.05-3.87-1.07l-.23-.58c.52-.52 1.05-.95 1.58-1.38 1.68-1.38 3.9-.53 5.27 1.15 1.35 1.65 2.14 4.5 3.54 6.2 1.8 2.2 3.8 2.74 5.48 1.72l-6.9-14.48 2.4-1.95 6.9 14.47c1.8-2.17 2.4-5.8.5-9.6-2.06-4.23-4.1-8.1.42-11.8l.77-.62M927.9 888l-.8-.35c.43-1.17 1.35-2.2 2.35-3.03 3.72-3.04 7.72-1.87 11.8 3.15 3.57 4.36 8.3 13.83 1.4 19.46-2.9 2.36-5.88 1-7.93-1.5-3.4-4.17-3.56-11.06.75-14.57.95-.77 2.48-1.48 4-.9-.42-.74-.9-1.52-1.5-2.23-2.1-2.6-5.2-4.65-8.2-2.2-.8.66-1.33 1.34-1.88 2.17m12.43 4.9c-1.56-1.92-3.07-1.72-3.87-1.07-2.92 2.38-1.87 8.85 1.47 12.95.92 1.12 2.48 2.8 4.34 1.28 2.27-1.85 1.6-6.23-.02-9.9-.53-1.2-1.17-2.35-1.92-3.26M955.92 873.74l4.6 10.46c.37.82.75 1.65 1.33 2.35.94 1.16 2.03 1.35 3.2.38 3.2-2.6 2.08-7.34.88-10.68-.35-.9-.74-1.8-1.34-2.55-1.8-2.18-3.34-.52-4.44-1.74-.92-1.02-.12-1.97.6-2.54 1.23-1.02 2.6.37 3.37 1.3 3.52 4.32 6.15 13.88 1.1 18-2.04 1.65-3.95 1.84-5.68-.3-1.02-1.23-1.7-2.8-2.33-4.23.96 3.58 1.8 9.57-1.5 12.26-1.65 1.35-3.12.88-4.4-.7-.8-.96-1.2-2.14-1.72-3.25l-2.87-6.34c-.13-.34-.3-.7-.55-.98-.58-.7-1.65.26-2.12.65l-.37-.44c1.34-1.55 2.54-3.22 3.5-5.04h.2l5 11c.22.46.76 1.6 1.43 2.42.63.77 1.3 1.24 1.96.7 1.68-1.4 1.05-6.46.87-8.13-.38-3.66-1.5-6.6-3.23-10.58l2.48-2.03M975.7 867.17c.46.55.34 1.36-.2 1.8-.62.5-1.37.4-1.82-.14-.43-.53-.46-1.4.15-1.9.55-.43 1.45-.3 1.88.24m1.72 3l5.05 10.87c1.06 2.24 1.86 5.65-.43 7.5-1.12.92-2.1.57-2.6-.02-.38-.47-.64-1.3.1-1.9.4-.34 1-.3 1.4.2.26.3-.03.64.25.98.05.1.26.13.37.04.97-.8.36-2.97-.8-5.42l-4.3-9.27c-.2-.25-.6-.3-1.06.1-.16.13-.38.38-.48.56l-.36-.3"/></g><g><path d="M1380 654c0 3.3-2.7 6-6 6h-112c-3.3 0-6 2.7-6 6v8c0 3.3-1.8 4-4 1.54l-28-31.08c-2.2-2.46-2.2-6.46 0-8.92l28-31.08c2.2-2.46 4-1.77 4 1.54v8c0 3.3 2.7 6 6 6h112c3.3 0 6 2.7 6 6z" stroke="#5e5e5e" stroke-width="3" fill="#fff"/></g><g><use xlink:href="#r" transform="matrix(1,-2.4492935982947064e-16,2.4492935982947064e-16,1,1225.0000000000002,604.9999999999999) translate(13.696358024691358 39.65277777777778)"/><use xlink:href="#s" transform="matrix(1,-2.4492935982947064e-16,2.4492935982947064e-16,1,1225.0000000000002,604.9999999999999) translate(104.93092592592592 39.65277777777778)"/></g><g><path d="M851.26 417.55c-1.67 2.86-5.35 3.83-8.2 2.16l-96.7-56.5c-2.87-1.68-6.54-.7-8.2 2.15l-4.05 6.9c-1.66 2.87-3.56 2.56-4.23-.7l-8.47-40.94c-.67-3.23 1.34-6.68 4.5-7.7l39.83-12.7c3.16-1.02 4.36.5 2.7 3.35l-4.05 6.9c-1.67 2.86-.7 6.54 2.15 8.2l96.7 56.52c2.87 1.67 3.83 5.35 2.16 8.2z" stroke="#5e5e5e" stroke-width="3" fill="#fff"/></g><g><use xlink:href="#r" transform="matrix(0.8633869746220096,0.5045422995676907,-0.5045422995676907,0.8633869746220096,742.1576073406869,297.04192047035735) translate(13.696358024691358 39.65277777777778)"/><use xlink:href="#s" transform="matrix(0.8633869746220096,0.5045422995676907,-0.5045422995676907,0.8633869746220096,742.1576073406869,297.04192047035735) translate(104.93092592592592 39.65277777777778)"/></g><g><path d="M877.27 801.36c2.13 2.54 1.8 6.33-.74 8.46l-85.8 72c-2.52 2.13-2.86 5.9-.73 8.45l5.15 6.13c2.13 2.54 1.2 4.22-2.1 3.76l-41.4-5.83c-3.27-.46-5.84-3.52-5.73-6.83l1.45-41.8c.1-3.3 1.93-3.93 4.06-1.4l5.15 6.14c2.13 2.54 5.9 2.87 8.45.74l85.8-72c2.52-2.13 6.3-1.8 8.44.74z" stroke="#5e5e5e" stroke-width="3" fill="#fff"/></g><g><use xlink:href="#r" transform="matrix(0.7659684909041078,-0.6428781151525409,0.6428781151525409,0.7659684909041078,727.0442330302831,863.4759503031642) translate(13.696358024691358 39.65277777777778)"/><use xlink:href="#s" transform="matrix(0.7659684909041078,-0.6428781151525409,0.6428781151525409,0.7659684909041078,727.0442330302831,863.4759503031642) translate(104.93092592592592 39.65277777777778)"/></g><path d="M1379.02 406.83L1017.25 481" stroke="#5e5e5e" stroke-width="2" fill="none"/><path d="M1380 407.65l-.8.17-.4-1.96 1.2-.25z" stroke="#5e5e5e" stroke-width=".05" fill="#5e5e5e"/><path d="M1002.3 484.06l13.04-7.4 1.86 9.08z" stroke="#5e5e5e" stroke-width="2" fill="#5e5e5e"/><path d="M997.15 217.43l-74.7 50.75" stroke="#5e5e5e" stroke-width="2" fill="none"/><path d="M997.98 218.08l-.3.2-1.1-1.66 1.4-.96z" stroke="#5e5e5e" stroke-width=".05" fill="#5e5e5e"/><path d="M909.8 276.75l9.2-11.85 5.2 7.67z" stroke="#5e5e5e" stroke-width="2" fill="#5e5e5e"/><path d="M1379.18 407.2l-361.2 252.6" stroke="#5e5e5e" stroke-width="2" fill="none"/><path d="M1380 407.85l-.27.2-1.14-1.65 1.4-1z" stroke="#5e5e5e" stroke-width=".05" fill="#5e5e5e"/><path d="M1005.47 668.54l9.04-11.98 5.32 7.6z" stroke="#5e5e5e" stroke-width="2" fill="#5e5e5e"/><path d="M1379.1 407.05l-336.17 155.43" stroke="#5e5e5e" stroke-width="2" fill="none"/><path d="M1380 407.73l-.5.24-.85-1.82 1.35-.62z" stroke="#5e5e5e" stroke-width=".05" fill="#5e5e5e"/><path d="M1029.08 568.9l11-10.2 3.9 8.4z" stroke="#5e5e5e" stroke-width="2" fill="#5e5e5e"/><path d="M1160 885h189.83v142.92H1160z" fill="none"/><g><use xlink:href="#t" transform="matrix(1,0,0,1,1160,884.9861243142333) translate(-1.9999999999999858 60.83333333333333)"/><use xlink:href="#u" transform="matrix(1,0,0,1,1160,884.9861243142333) translate(63.18518518518519 92.83333333333333)"/></g><path d="M1300.5 905.78l43.3-90.7M1300.5 905.75l-.43.93" stroke="#5e5e5e" stroke-width="2" fill="none"/><path d="M1350.38 801.3l-1.96 14.88-8.37-4z" stroke="#5e5e5e" stroke-width="2" fill="#5e5e5e"/><path d="M910.7 1027.92h289.1v166.85H910.7z" fill="none"/><g><use xlink:href="#a" transform="matrix(1,0,0,1,910.7077421604463,1027.9200521776456) translate(20.703703703703724 40.83333333333333)"/><use xlink:href="#l" transform="matrix(1,0,0,1,910.7077421604463,1027.9200521776456) translate(150.92592592592592 40.83333333333333)"/><use xlink:href="#i" transform="matrix(1,0,0,1,910.7077421604463,1027.9200521776456) translate(232.25925925925924 40.83333333333333)"/><use xlink:href="#m" transform="matrix(1,0,0,1,910.7077421604463,1027.9200521776456) translate(10.259259259259267 72.83333333333333)"/><use xlink:href="#n" transform="matrix(1,0,0,1,910.7077421604463,1027.9200521776456) translate(214.55555555555554 72.83333333333333)"/><use xlink:href="#o" transform="matrix(1,0,0,1,910.7077421604463,1027.9200521776456) translate(10.96296296296299 104.83333333333333)"/><use xlink:href="#c" transform="matrix(1,0,0,1,910.7077421604463,1027.9200521776456) translate(82.00000000000001 104.83333333333333)"/><use xlink:href="#p" transform="matrix(1,0,0,1,910.7077421604463,1027.9200521776456) translate(126.44444444444446 104.83333333333333)"/><use xlink:href="#f" transform="matrix(1,0,0,1,910.7077421604463,1027.9200521776456) translate(190.14814814814815 104.83333333333333)"/><use xlink:href="#i" transform="matrix(1,0,0,1,910.7077421604463,1027.9200521776456) translate(242 104.83333333333333)"/><use xlink:href="#g" transform="matrix(1,0,0,1,910.7077421604463,1027.9200521776456) translate(65.81481481481482 136.83333333333334)"/><use xlink:href="#q" transform="matrix(1,0,0,1,910.7077421604463,1027.9200521776456) translate(147.22222222222223 136.83333333333334)"/></g><path d="M910 1090.97l-62.4-62.4" stroke="#5e5e5e" stroke-width="2" fill="none"/><path d="M910.7 1090.26v2.83l-1.42-1.44 1.4-1.42z" stroke="#5e5e5e" stroke-width=".05" fill="#5e5e5e"/><path d="M836.8 1017.77l13.37 6.8-6.56 6.57z" stroke="#5e5e5e" stroke-width="2" fill="#5e5e5e"/><defs><path fill="#333" d="M212-179c-10-28-35-45-73-45-59 0-87 40-87 99 0 60 29 101 89 101 43 0 62-24 78-52l27 14C228-24 195 4 139 4 59 4 22-46 18-125c-6-104 99-153 187-111 19 9 31 26 39 46" id="v"/><path fill="#333" d="M100-194c62-1 85 37 85 99 1 63-27 99-86 99S16-35 15-95c0-66 28-99 85-99zM99-20c44 1 53-31 53-75 0-43-8-75-51-75s-53 32-53 75 10 74 51 75" id="w"/><path fill="#333" d="M210-169c-67 3-38 105-44 169h-31v-121c0-29-5-50-35-48C34-165 62-65 56 0H25l-1-190h30c1 10-1 24 2 32 10-44 99-50 107 0 11-21 27-35 58-36 85-2 47 119 55 194h-31v-121c0-29-5-49-35-48" id="x"/><path fill="#333" d="M115-194c55 1 70 41 70 98S169 2 115 4C84 4 66-9 55-30l1 105H24l-1-265h31l2 30c10-21 28-34 59-34zm-8 174c40 0 45-34 45-75s-6-73-45-74c-42 0-51 32-51 76 0 43 10 73 51 73" id="y"/><path fill="#333" d="M84 4C-5 8 30-112 23-190h32v120c0 31 7 50 39 49 72-2 45-101 50-169h31l1 190h-30c-1-10 1-25-2-33-11 22-28 36-60 37" id="z"/><path fill="#333" d="M59-47c-2 24 18 29 38 22v24C64 9 27 4 27-40v-127H5v-23h24l9-43h21v43h35v23H59v120" id="A"/><path fill="#333" d="M100-194c63 0 86 42 84 106H49c0 40 14 67 53 68 26 1 43-12 49-29l28 8c-11 28-37 45-77 45C44 4 14-33 15-96c1-61 26-98 85-98zm52 81c6-60-76-77-97-28-3 7-6 17-6 28h103" id="B"/><path fill="#333" d="M85-194c31 0 48 13 60 33l-1-100h32l1 261h-30c-2-10 0-23-3-31C134-8 116 4 85 4 32 4 16-35 15-94c0-66 23-100 70-100zm9 24c-40 0-46 34-46 75 0 40 6 74 45 74 42 0 51-32 51-76 0-42-9-74-50-73" id="C"/><g id="a"><use transform="matrix(0.07407407407407407,0,0,0.07407407407407407,0,0)" xlink:href="#v"/><use transform="matrix(0.07407407407407407,0,0,0.07407407407407407,19.185185185185183,0)" xlink:href="#w"/><use transform="matrix(0.07407407407407407,0,0,0.07407407407407407,34,0)" xlink:href="#x"/><use transform="matrix(0.07407407407407407,0,0,0.07407407407407407,56.148148148148145,0)" xlink:href="#y"/><use transform="matrix(0.07407407407407407,0,0,0.07407407407407407,70.96296296296296,0)" xlink:href="#z"/><use transform="matrix(0.07407407407407407,0,0,0.07407407407407407,85.77777777777777,0)" xlink:href="#A"/><use transform="matrix(0.07407407407407407,0,0,0.07407407407407407,93.18518518518518,0)" xlink:href="#B"/><use transform="matrix(0.07407407407407407,0,0,0.07407407407407407,108,0)" xlink:href="#C"/></g><path fill="#333" d="M114-163C36-179 61-72 57 0H25l-1-190h30c1 12-1 29 2 39 6-27 23-49 58-41v29" id="D"/><path fill="#333" d="M24-231v-30h32v30H24zM24 0v-190h32V0H24" id="E"/><path fill="#333" d="M117-194c89-4 53 116 60 194h-32v-121c0-31-8-49-39-48C34-167 62-67 57 0H25l-1-190h30c1 10-1 24 2 32 11-22 29-35 61-36" id="F"/><path fill="#333" d="M177-190C167-65 218 103 67 71c-23-6-38-20-44-43l32-5c15 47 100 32 89-28v-30C133-14 115 1 83 1 29 1 15-40 15-95c0-56 16-97 71-98 29-1 48 16 59 35 1-10 0-23 2-32h30zM94-22c36 0 50-32 50-73 0-42-14-75-50-75-39 0-46 34-46 75s6 73 46 73" id="G"/><g id="b"><use transform="matrix(0.07407407407407407,0,0,0.07407407407407407,0,0)" xlink:href="#C"/><use transform="matrix(0.07407407407407407,0,0,0.07407407407407407,14.814814814814813,0)" xlink:href="#z"/><use transform="matrix(0.07407407407407407,0,0,0.07407407407407407,29.629629629629626,0)" xlink:href="#D"/><use transform="matrix(0.07407407407407407,0,0,0.07407407407407407,38.44444444444444,0)" xlink:href="#E"/><use transform="matrix(0.07407407407407407,0,0,0.07407407407407407,44.29629629629629,0)" xlink:href="#F"/><use transform="matrix(0.07407407407407407,0,0,0.07407407407407407,59.1111111111111,0)" xlink:href="#G"/></g><path fill="#333" d="M106-169C34-169 62-67 57 0H25v-261h32l-1 103c12-21 28-36 61-36 89 0 53 116 60 194h-32v-121c2-32-8-49-39-48" id="H"/><g id="c"><use transform="matrix(0.07407407407407407,0,0,0.07407407407407407,0,0)" xlink:href="#A"/><use transform="matrix(0.07407407407407407,0,0,0.07407407407407407,7.4074074074074066,0)" xlink:href="#H"/><use transform="matrix(0.07407407407407407,0,0,0.07407407407407407,22.22222222222222,0)" xlink:href="#B"/></g><path fill="#333" d="M101-234c-31-9-42 10-38 44h38v23H63V0H32v-167H5v-23h27c-7-52 17-82 69-68v24" id="I"/><path fill="#333" d="M206 0h-36l-40-164L89 0H53L-1-190h32L70-26l43-164h34l41 164 42-164h31" id="J"/><path fill="#333" d="M141-36C126-15 110 5 73 4 37 3 15-17 15-53c-1-64 63-63 125-63 3-35-9-54-41-54-24 1-41 7-42 31l-33-3c5-37 33-52 76-52 45 0 72 20 72 64v82c-1 20 7 32 28 27v20c-31 9-61-2-59-35zM48-53c0 20 12 33 32 33 41-3 63-29 60-74-43 2-92-5-92 41" id="K"/><g id="d"><use transform="matrix(0.07407407407407407,0,0,0.07407407407407407,0,0)" xlink:href="#I"/><use transform="matrix(0.07407407407407407,0,0,0.07407407407407407,7.4074074074074066,0)" xlink:href="#w"/><use transform="matrix(0.07407407407407407,0,0,0.07407407407407407,22.22222222222222,0)" xlink:href="#D"/><use transform="matrix(0.07407407407407407,0,0,0.07407407407407407,31.037037037037038,0)" xlink:href="#J"/><use transform="matrix(0.07407407407407407,0,0,0.07407407407407407,50.22222222222222,0)" xlink:href="#K"/><use transform="matrix(0.07407407407407407,0,0,0.07407407407407407,65.03703703703704,0)" xlink:href="#D"/><use transform="matrix(0.07407407407407407,0,0,0.07407407407407407,73.85185185185185,0)" xlink:href="#C"/></g><path fill="#333" d="M135-143c-3-34-86-38-87 0 15 53 115 12 119 90S17 21 10-45l28-5c4 36 97 45 98 0-10-56-113-15-118-90-4-57 82-63 122-42 12 7 21 19 24 35" id="L"/><g id="e"><use transform="matrix(0.07407407407407407,0,0,0.07407407407407407,0,0)" xlink:href="#y"/><use transform="matrix(0.07407407407407407,0,0,0.07407407407407407,14.814814814814813,0)" xlink:href="#K"/><use transform="matrix(0.07407407407407407,0,0,0.07407407407407407,29.629629629629626,0)" xlink:href="#L"/><use transform="matrix(0.07407407407407407,0,0,0.07407407407407407,42.96296296296296,0)" xlink:href="#L"/></g><g id="f"><use transform="matrix(0.07407407407407407,0,0,0.07407407407407407,0,0)" xlink:href="#K"/><use transform="matrix(0.07407407407407407,0,0,0.07407407407407407,14.814814814814813,0)" xlink:href="#F"/><use transform="matrix(0.07407407407407407,0,0,0.07407407407407407,29.629629629629626,0)" xlink:href="#C"/></g><g id="g"><use transform="matrix(0.07407407407407407,0,0,0.07407407407407407,0,0)" xlink:href="#L"/><use transform="matrix(0.07407407407407407,0,0,0.07407407407407407,13.333333333333332,0)" xlink:href="#A"/><use transform="matrix(0.07407407407407407,0,0,0.07407407407407407,20.74074074074074,0)" xlink:href="#w"/><use transform="matrix(0.07407407407407407,0,0,0.07407407407407407,35.55555555555556,0)" xlink:href="#D"/><use transform="matrix(0.07407407407407407,0,0,0.07407407407407407,44.370370370370374,0)" xlink:href="#B"/><use transform="matrix(0.07407407407407407,0,0,0.07407407407407407,59.18518518518519,0)" xlink:href="#C"/></g><g id="h"><use transform="matrix(0.07407407407407407,0,0,0.07407407407407407,0,0)" xlink:href="#E"/><use transform="matrix(0.07407407407407407,0,0,0.07407407407407407,5.851851851851851,0)" xlink:href="#F"/></g><g id="i"><use transform="matrix(0.07407407407407407,0,0,0.07407407407407407,0,0)" xlink:href="#A"/><use transform="matrix(0.07407407407407407,0,0,0.07407407407407407,7.4074074074074066,0)" xlink:href="#H"/><use transform="matrix(0.07407407407407407,0,0,0.07407407407407407,22.22222222222222,0)" xlink:href="#B"/></g><g id="j"><use transform="matrix(0.07407407407407407,0,0,0.07407407407407407,0,0)" xlink:href="#G"/><use transform="matrix(0.07407407407407407,0,0,0.07407407407407407,14.814814814814813,0)" xlink:href="#D"/><use transform="matrix(0.07407407407407407,0,0,0.07407407407407407,23.629629629629623,0)" xlink:href="#K"/><use transform="matrix(0.07407407407407407,0,0,0.07407407407407407,38.44444444444444,0)" xlink:href="#y"/><use transform="matrix(0.07407407407407407,0,0,0.07407407407407407,53.25925925925926,0)" xlink:href="#H"/></g><path fill="#333" d="M179-190L93 31C79 59 56 82 12 73V49c39 6 53-20 64-50L1-190h34L92-34l54-156h33" id="M"/><g id="k"><use transform="matrix(0.07407407407407407,0,0,0.07407407407407407,0,0)" xlink:href="#x"/><use transform="matrix(0.07407407407407407,0,0,0.07407407407407407,22.148148148148145,0)" xlink:href="#B"/><use transform="matrix(0.07407407407407407,0,0,0.07407407407407407,36.96296296296296,0)" xlink:href="#x"/><use transform="matrix(0.07407407407407407,0,0,0.07407407407407407,59.11111111111111,0)" xlink:href="#w"/><use transform="matrix(0.07407407407407407,0,0,0.07407407407407407,73.92592592592592,0)" xlink:href="#D"/><use transform="matrix(0.07407407407407407,0,0,0.07407407407407407,82.74074074074073,0)" xlink:href="#M"/></g><g id="l"><use transform="matrix(0.07407407407407407,0,0,0.07407407407407407,0,0)" xlink:href="#C"/><use transform="matrix(0.07407407407407407,0,0,0.07407407407407407,14.814814814814813,0)" xlink:href="#z"/><use transform="matrix(0.07407407407407407,0,0,0.07407407407407407,29.629629629629626,0)" xlink:href="#D"/><use transform="matrix(0.07407407407407407,0,0,0.07407407407407407,38.44444444444444,0)" xlink:href="#E"/><use transform="matrix(0.07407407407407407,0,0,0.07407407407407407,44.29629629629629,0)" xlink:href="#F"/><use transform="matrix(0.07407407407407407,0,0,0.07407407407407407,59.1111111111111,0)" xlink:href="#G"/></g><path fill="#333" d="M115-194c53 0 69 39 70 98 0 66-23 100-70 100C84 3 66-7 56-30L54 0H23l1-261h32v101c10-23 28-34 59-34zm-8 174c40 0 45-34 45-75 0-40-5-75-45-74-42 0-51 32-51 76 0 43 10 73 51 73" id="N"/><path fill="#333" d="M96-169c-40 0-48 33-48 73s9 75 48 75c24 0 41-14 43-38l32 2c-6 37-31 61-74 61-59 0-76-41-82-99-10-93 101-131 147-64 4 7 5 14 7 22l-32 3c-4-21-16-35-41-35" id="O"/><path fill="#333" d="M143 0L79-87 56-68V0H24v-261h32v163l83-92h37l-77 82L181 0h-38" id="P"/><g id="m"><use transform="matrix(0.07407407407407407,0,0,0.07407407407407407,0,0)" xlink:href="#N"/><use transform="matrix(0.07407407407407407,0,0,0.07407407407407407,14.814814814814813,0)" xlink:href="#K"/><use transform="matrix(0.07407407407407407,0,0,0.07407407407407407,29.629629629629626,0)" xlink:href="#O"/><use transform="matrix(0.07407407407407407,0,0,0.07407407407407407,42.96296296296296,0)" xlink:href="#P"/><use transform="matrix(0.07407407407407407,0,0,0.07407407407407407,56.29629629629629,0)" xlink:href="#y"/><use transform="matrix(0.07407407407407407,0,0,0.07407407407407407,71.1111111111111,0)" xlink:href="#D"/><use transform="matrix(0.07407407407407407,0,0,0.07407407407407407,79.92592592592591,0)" xlink:href="#w"/><use transform="matrix(0.07407407407407407,0,0,0.07407407407407407,94.74074074074072,0)" xlink:href="#y"/><use transform="matrix(0.07407407407407407,0,0,0.07407407407407407,109.55555555555553,0)" xlink:href="#K"/><use transform="matrix(0.07407407407407407,0,0,0.07407407407407407,124.37037037037035,0)" xlink:href="#G"/><use transform="matrix(0.07407407407407407,0,0,0.07407407407407407,139.18518518518516,0)" xlink:href="#K"/><use transform="matrix(0.07407407407407407,0,0,0.07407407407407407,153.99999999999997,0)" xlink:href="#A"/><use transform="matrix(0.07407407407407407,0,0,0.07407407407407407,161.4074074074074,0)" xlink:href="#E"/><use transform="matrix(0.07407407407407407,0,0,0.07407407407407407,167.25925925925924,0)" xlink:href="#w"/><use transform="matrix(0.07407407407407407,0,0,0.07407407407407407,182.07407407407408,0)" xlink:href="#F"/></g><g id="n"><use transform="matrix(0.07407407407407407,0,0,0.07407407407407407,0,0)" xlink:href="#L"/><use transform="matrix(0.07407407407407407,0,0,0.07407407407407407,13.333333333333332,0)" xlink:href="#A"/><use transform="matrix(0.07407407407407407,0,0,0.07407407407407407,20.74074074074074,0)" xlink:href="#K"/><use transform="matrix(0.07407407407407407,0,0,0.07407407407407407,35.55555555555556,0)" xlink:href="#G"/><use transform="matrix(0.07407407407407407,0,0,0.07407407407407407,50.37037037037037,0)" xlink:href="#B"/></g><g id="o"><use transform="matrix(0.07407407407407407,0,0,0.07407407407407407,0,0)" xlink:href="#z"/><use transform="matrix(0.07407407407407407,0,0,0.07407407407407407,14.814814814814813,0)" xlink:href="#L"/><use transform="matrix(0.07407407407407407,0,0,0.07407407407407407,28.148148148148145,0)" xlink:href="#E"/><use transform="matrix(0.07407407407407407,0,0,0.07407407407407407,34,0)" xlink:href="#F"/><use transform="matrix(0.07407407407407407,0,0,0.07407407407407407,48.81481481481481,0)" xlink:href="#G"/></g><path fill="#333" d="M30 0v-248h33v221h125V0H30" id="Q"/><g id="p"><use transform="matrix(0.07407407407407407,0,0,0.07407407407407407,0,0)" xlink:href="#Q"/><use transform="matrix(0.07407407407407407,0,0,0.07407407407407407,14.814814814814813,0)" xlink:href="#w"/><use transform="matrix(0.07407407407407407,0,0,0.07407407407407407,29.629629629629626,0)" xlink:href="#L"/><use transform="matrix(0.07407407407407407,0,0,0.07407407407407407,42.96296296296296,0)" xlink:href="#L"/></g><path fill="#333" d="M108 0H70L1-190h34L89-25l56-165h34" id="R"/><path fill="#333" d="M24 0v-261h32V0H24" id="S"/><g id="q"><use transform="matrix(0.07407407407407407,0,0,0.07407407407407407,0,0)" xlink:href="#R"/><use transform="matrix(0.07407407407407407,0,0,0.07407407407407407,13.333333333333332,0)" xlink:href="#K"/><use transform="matrix(0.07407407407407407,0,0,0.07407407407407407,28.148148148148145,0)" xlink:href="#S"/><use transform="matrix(0.07407407407407407,0,0,0.07407407407407407,34,0)" xlink:href="#z"/><use transform="matrix(0.07407407407407407,0,0,0.07407407407407407,48.81481481481481,0)" xlink:href="#B"/><use transform="matrix(0.07407407407407407,0,0,0.07407407407407407,63.62962962962962,0)" xlink:href="#L"/></g><path fill="#333" d="M143 4C61 4 22-44 18-125c-5-107 100-154 193-111 17 8 29 25 37 43l-32 9c-13-25-37-40-76-40-61 0-88 39-88 99 0 61 29 100 91 101 35 0 62-11 79-27v-45h-74v-28h105v86C228-13 192 4 143 4" id="T"/><g id="r"><use transform="matrix(0.06172839506172839,0,0,0.06172839506172839,0,0)" xlink:href="#T"/><use transform="matrix(0.06172839506172839,0,0,0.06172839506172839,17.28395061728395,0)" xlink:href="#D"/><use transform="matrix(0.06172839506172839,0,0,0.06172839506172839,24.629629629629626,0)" xlink:href="#K"/><use transform="matrix(0.06172839506172839,0,0,0.06172839506172839,36.9753086419753,0)" xlink:href="#C"/><use transform="matrix(0.06172839506172839,0,0,0.06172839506172839,49.32098765432098,0)" xlink:href="#E"/><use transform="matrix(0.06172839506172839,0,0,0.06172839506172839,54.197530864197525,0)" xlink:href="#B"/><use transform="matrix(0.06172839506172839,0,0,0.06172839506172839,66.5432098765432,0)" xlink:href="#F"/><use transform="matrix(0.06172839506172839,0,0,0.06172839506172839,78.88888888888889,0)" xlink:href="#A"/></g><g id="s"><use transform="matrix(0.06172839506172839,0,0,0.06172839506172839,0,0)" xlink:href="#I"/><use transform="matrix(0.06172839506172839,0,0,0.06172839506172839,6.172839506172839,0)" xlink:href="#S"/><use transform="matrix(0.06172839506172839,0,0,0.06172839506172839,11.049382716049383,0)" xlink:href="#w"/><use transform="matrix(0.06172839506172839,0,0,0.06172839506172839,23.395061728395063,0)" xlink:href="#J"/></g><path fill="#333" d="M160-131c35 5 61 23 61 61C221 17 115-2 30 0v-248c76 3 177-17 177 60 0 33-19 50-47 57zm-97-11c50-1 110 9 110-42 0-47-63-36-110-37v79zm0 115c55-2 124 14 124-45 0-56-70-42-124-44v89" id="U"/><g id="t"><use transform="matrix(0.07407407407407407,0,0,0.07407407407407407,0,0)" xlink:href="#U"/><use transform="matrix(0.07407407407407407,0,0,0.07407407407407407,17.77777777777778,0)" xlink:href="#K"/><use transform="matrix(0.07407407407407407,0,0,0.07407407407407407,32.592592592592595,0)" xlink:href="#O"/><use transform="matrix(0.07407407407407407,0,0,0.07407407407407407,45.925925925925924,0)" xlink:href="#P"/><use transform="matrix(0.07407407407407407,0,0,0.07407407407407407,59.25925925925925,0)" xlink:href="#y"/><use transform="matrix(0.07407407407407407,0,0,0.07407407407407407,74.07407407407406,0)" xlink:href="#D"/><use transform="matrix(0.07407407407407407,0,0,0.07407407407407407,82.88888888888887,0)" xlink:href="#w"/><use transform="matrix(0.07407407407407407,0,0,0.07407407407407407,97.70370370370368,0)" xlink:href="#y"/><use transform="matrix(0.07407407407407407,0,0,0.07407407407407407,112.51851851851849,0)" xlink:href="#K"/><use transform="matrix(0.07407407407407407,0,0,0.07407407407407407,127.33333333333329,0)" xlink:href="#G"/><use transform="matrix(0.07407407407407407,0,0,0.07407407407407407,142.14814814814812,0)" xlink:href="#K"/><use transform="matrix(0.07407407407407407,0,0,0.07407407407407407,156.96296296296293,0)" xlink:href="#A"/><use transform="matrix(0.07407407407407407,0,0,0.07407407407407407,164.37037037037035,0)" xlink:href="#B"/><use transform="matrix(0.07407407407407407,0,0,0.07407407407407407,179.18518518518516,0)" xlink:href="#C"/></g><g id="u"><use transform="matrix(0.07407407407407407,0,0,0.07407407407407407,0,0)" xlink:href="#R"/><use transform="matrix(0.07407407407407407,0,0,0.07407407407407407,13.333333333333332,0)" xlink:href="#K"/><use transform="matrix(0.07407407407407407,0,0,0.07407407407407407,28.148148148148145,0)" xlink:href="#S"/><use transform="matrix(0.07407407407407407,0,0,0.07407407407407407,34,0)" xlink:href="#z"/><use transform="matrix(0.07407407407407407,0,0,0.07407407407407407,48.81481481481481,0)" xlink:href="#B"/></g></defs></g></svg>