<svg xmlns="http://www.w3.org/2000/svg" xmlns:xlink="http://www.w3.org/1999/xlink" xmlns:lucid="lucid" width="1428" height="1212"><g transform="translate(-103 -164)" lucid:page-tab-id="0_0"><path d="M1291.4 280h234.9v100h-234.9z" fill="none"/><use xlink:href="#a" transform="matrix(1,0,0,1,1291.391627106471,280) translate(13.919753086419746 17.77777777777778)"/><use xlink:href="#b" transform="matrix(1,0,0,1,1291.391627106471,280) translate(122.43827160493827 17.77777777777778)"/><use xlink:href="#c" transform="matrix(1,0,0,1,1291.391627106471,280) translate(190.21604938271605 17.77777777777778)"/><use xlink:href="#d" transform="matrix(1,0,0,1,1291.391627106471,280) translate(32.407407407407405 44.44444444444444)"/><use xlink:href="#e" transform="matrix(1,0,0,1,1291.391627106471,280) translate(112.46913580246913 44.44444444444444)"/><use xlink:href="#f" transform="matrix(1,0,0,1,1291.391627106471,280) translate(165.55555555555554 44.44444444444444)"/><use xlink:href="#g" transform="matrix(1,0,0,1,1291.391627106471,280) translate(25 71.11111111111111)"/><use xlink:href="#h" transform="matrix(1,0,0,1,1291.391627106471,280) translate(92.83950617283949 71.11111111111111)"/><use xlink:href="#i" transform="matrix(1,0,0,1,1291.391627106471,280) translate(116.23456790123456 71.11111111111111)"/><use xlink:href="#j" transform="matrix(1,0,0,1,1291.391627106471,280) translate(153.2716049382716 71.11111111111111)"/><use xlink:href="#k" transform="matrix(1,0,0,1,1291.391627106471,280) translate(77.46913580246914 97.77777777777777)"/><path d="M1020 200h249.72v126.85H1020z" fill="none"/><use xlink:href="#a" transform="matrix(1,0,0,1,1020,200) translate(21.419753086419746 27.94444444444445)"/><use xlink:href="#b" transform="matrix(1,0,0,1,1020,200) translate(129.93827160493828 27.94444444444445)"/><use xlink:href="#c" transform="matrix(1,0,0,1,1020,200) translate(197.71604938271605 27.94444444444445)"/><use xlink:href="#l" transform="matrix(1,0,0,1,1020,200) translate(12.716049382716065 54.61111111111112)"/><use xlink:href="#m" transform="matrix(1,0,0,1,1020,200) translate(182.96296296296293 54.61111111111112)"/><use xlink:href="#n" transform="matrix(1,0,0,1,1020,200) translate(13.302469135802468 81.27777777777779)"/><use xlink:href="#i" transform="matrix(1,0,0,1,1020,200) translate(72.5 81.27777777777779)"/><use xlink:href="#o" transform="matrix(1,0,0,1,1020,200) translate(109.53703703703704 81.27777777777779)"/><use xlink:href="#p" transform="matrix(1,0,0,1,1020,200) translate(162.62345679012344 81.27777777777779)"/><use xlink:href="#c" transform="matrix(1,0,0,1,1020,200) translate(205.83333333333331 81.27777777777779)"/><use xlink:href="#g" transform="matrix(1,0,0,1,1020,200) translate(59.012345679012356 107.94444444444446)"/><use xlink:href="#q" transform="matrix(1,0,0,1,1020,200) translate(126.85185185185185 107.94444444444446)"/><path d="M674.12 1053.02c0 103.27-80.6 186.98-180 186.98s-180-83.7-180-186.98c0-103.27 80.6-187 180-187s180 83.73 180 187zM1180 592.88c0 103.27-80.6 186.98-180 186.98s-180-83.7-180-186.98c0-103.27 80.6-186.98 180-186.98s180 83.7 180 186.98z" stroke="#5e5e5e" stroke-width="3" fill="#c3f7c8"/><path d="M562.2 301.18L845.7 452.3M562.26 301.2L560 300" stroke="#5e5e5e" stroke-width="5" fill="none"/><path d="M860.47 460.2l-14.77-2.62 4.36-8.18z" stroke="#5e5e5e" stroke-width="5" fill="#5e5e5e"/><path d="M851.2 740.64L635.73 931.12" stroke="#5e5e5e" stroke-width="5" fill="none"/><path d="M863.77 729.53l-7.62 12.92-6.14-6.94z" stroke="#5e5e5e" stroke-width="5" fill="#5e5e5e"/><path d="M637.43 932.95l-2.03 1.8-3.1-3.94 1.8-1.6z" stroke="#5e5e5e" stroke-width=".05" fill="#5e5e5e"/><path d="M477.94 1027.92h32.37v50.2h-32.36z" fill="#fff" fill-opacity="0"/><path d="M510.27 1034.2l-.85 2.95h-5.32c.85 1 1.1 1.84 1.1 3.3 0 4.92-3.47 9-9.25 9.72-3.88.52-5.8 2.16-5.8 3.8 0 4.15 15.33 1.52 15.33 9.73 0 4.67-4.34 9.93-14.13 9.93-8.8 0-12.1-3.75-12.1-7.56 0-3.8 3.62-5.78 7.7-7.1-1.12-.72-1.58-1.97-1.58-3.1 0-2.48 2.43-5.7 5.58-5.7v-.27c-4.4-.98-6.17-4.07-6.17-7.16 0-5.2 4.46-10.38 11.43-10.38 2.77 0 4.8.85 5.8 1.84h8.27m-10.25 4.2c0-2.43-.66-4.07-3.55-4.07-3.55 0-6.44 4.66-6.44 9.13 0 3.03.8 5.33 3.68 5.33 4.68 0 6.32-6.72 6.32-10.4m.86 27.47c0-5.12-8.68-4.8-12.62-6.24-.53.33-1.18.66-1.7 1.05-1.72 1.25-3.16 2.96-3.16 4.73 0 3.1 2.9 6.4 9.13 6.4 5.98 0 8.35-3.04 8.35-5.93"/><path d="M657.9 380h69.77v46.94H657.9z" fill="#fff" fill-opacity="0"/><path d="M688.03 386.92l-4.54 16.4c-.35 1.3-.7 2.6-.7 3.97 0 2.2 1.08 3.46 3.35 3.46 6.13 0 9.3-6.53 11.07-11.52.46-1.37.85-2.8.85-4.2 0-4.2-3.35-3.75-3.46-6.2-.1-2.03 1.7-2.38 3.08-2.38 2.38 0 2.66 2.9 2.66 4.72 0 8.28-5.96 21.8-15.66 21.8-3.92 0-6.3-1.6-6.3-5.7 0-2.37.68-4.8 1.3-7.08-2.27 5.05-6.92 12.77-13.28 12.77-3.18 0-4.42-1.93-4.42-4.94 0-1.87.62-3.63 1.07-5.4l2.67-10.04c.17-.52.3-1.08.3-1.65 0-1.36-2.17-1.25-3.08-1.25v-.85c3-.5 5.96-1.3 8.8-2.5l.23.17-4.6 17.43c-.17.73-.63 2.55-.63 4.14 0 1.46.34 2.66 1.6 2.66 3.28-.06 7.3-6.47 8.68-8.57 3-4.6 4.48-9.04 6.24-15.28h4.77M717.68 421H706.6v-.6c2.97-.16 3.82-1 3.82-3.2v-18.02c0-1.37-.37-1.97-1.2-1.97-.4 0-1.1.2-1.8.5l-1.1.4v-.57l7.2-3.65.35.12v23.96c0 1.72.8 2.44 3.8 2.44v.6"/><path d="M880 476.73h124.46v68.83H880z" fill="#fff3d9"/><path d="M884.65 512.44h51.32v-2.33h-51.32zM900.76 482.1l-.28-.54c.77-.46 1.76-.63 2.7-.63 3.44 0 5.14 2.47 5.14 7.12 0 4.06-1.67 11.48-8.08 11.48-2.7 0-3.73-2.1-3.73-4.44 0-3.87 3.05-7.78 7.05-7.78.88 0 2.05.3 2.63 1.3.1-.6.2-1.25.2-1.9 0-2.42-.8-4.96-3.6-4.96-.74 0-1.34.13-2.02.35m4.7 8.4c0-1.8-.92-2.36-1.66-2.36-2.7 0-5.07 4.08-5.07 7.88 0 1.05.1 2.7 1.84 2.7 2.1 0 3.72-2.75 4.5-5.54.23-.9.4-1.84.4-2.7M915.1 487.26h1.02c1.73 0 1.6-2.1 2.77-3.86.84-1.3 2-2.47 4.1-2.47 1.36 0 2.16.66 2.16 1.62 0 .77-.58 1.1-1.12 1.1-.77 0-.96-.3-.96-.7 0-.37.24-.78.24-1 0-.14-.08-.22-.4-.22-1.38 0-2.44 1.48-3.02 3.6l-.52 1.93h2.2l-.34 1.04h-2.08l-2.16 8.38c-.2.74-.4 1.78-.82 2.8-.9 2.27-2.4 4.87-4.8 4.87-1.3 0-1.97-.66-1.97-1.48 0-.66.4-1.34 1.2-1.34.73 0 1 .5 1 .9 0 .52-.44.55-.44.88 0 .17.17.26.4.26 1.8 0 2.62-4.33 3.03-5.9l2.37-9.36h-2.1M892.3 519.4l-.26-.53c.77-.47 1.75-.63 2.68-.63 3.45 0 5.15 2.46 5.15 7.12 0 4.05-1.67 11.47-8.08 11.47-2.7 0-3.73-2.1-3.73-4.43 0-3.87 3.04-7.78 7.04-7.78.88 0 2.06.3 2.64 1.3.1-.6.2-1.25.2-1.9 0-2.4-.8-4.96-3.6-4.96-.74 0-1.34.14-2.03.35m4.72 8.4c0-1.78-.93-2.36-1.67-2.36-2.7 0-5.06 4.08-5.06 7.9 0 1.03.1 2.67 1.82 2.67 2.1 0 3.73-2.73 4.5-5.52.24-.9.4-1.84.4-2.68M914.4 524.2l-2.18 7.92c-.16.63-.33 1.26-.33 1.92 0 1.07.5 1.67 1.6 1.67 2.97 0 4.5-3.14 5.35-5.55.22-.66.4-1.34.4-2.03 0-2.02-1.6-1.8-1.66-2.98-.06-1 .8-1.15 1.47-1.15 1.15 0 1.3 1.4 1.3 2.26 0 4-2.9 10.52-7.57 10.52-1.9 0-3.04-.77-3.04-2.74 0-1.15.33-2.33.63-3.42-1.1 2.43-3.35 6.16-6.42 6.16-1.53 0-2.14-.93-2.14-2.38 0-.9.3-1.76.52-2.6l1.3-4.85c.07-.25.13-.52.13-.8 0-.66-1.05-.6-1.5-.6v-.4c1.46-.26 2.88-.64 4.25-1.22l.1.1-2.2 8.4c-.1.35-.3 1.23-.3 2 0 .7.16 1.28.76 1.28 1.6-.02 3.54-3.1 4.2-4.13 1.45-2.2 2.16-4.35 3-7.36h2.3M928.86 540.66h-5.42v-.3c1.45-.08 1.86-.5 1.86-1.57v-8.83c0-.67-.17-.96-.58-.96-.2 0-.54.1-.9.25l-.52.2v-.28l3.52-1.8.17.07v11.72c0 .85.4 1.2 1.86 1.2v.3M976.07 508.56h-22.82V506h22.82v2.56m0 7.75h-22.82v-2.55h22.82v2.56M996.67 514.6H996c.05-1.54.36-3.48 1.72-6.85 1-2.48 1.97-4.92 1.97-7.24 0-2.67-1.86-4.56-4.23-4.56-1.86 0-3.64 1.16-3.64 2.4 0 1.43 1.47 1.6 1.47 2.86 0 .97-.62 1.67-1.6 1.67-1.07 0-1.84-.97-1.84-2.56 0-3.2 2.63-5.53 6.35-5.53 3.77 0 7.06 2.37 7.06 6.12 0 2.36-.74 3.67-4.07 7.63-1.4 1.66-2.1 3.44-2.53 6.08zm1.78 4.62c0 1.12-.85 2.05-2 2.05-1.33 0-2.1-.97-2.1-2.05 0-1.17.9-2.06 2.1-2.06 1.08 0 2 .97 2 2.06"/><path d="M1160 692.82h201.3V798.4H1160z" fill="#fff3d9"/><path d="M1167.68 743.68h61.02v-3.83h-61.02zM1180.33 701.54l-.45-.9c1.27-.78 2.9-1.05 4.43-1.05 5.7 0 8.52 4.06 8.52 11.75 0 6.7-2.76 18.95-13.35 18.95-4.43 0-6.15-3.48-6.15-7.33 0-6.37 5.02-12.84 11.63-12.84 1.44 0 3.4.5 4.34 2.17.17-1 .3-2.08.3-3.17 0-3.98-1.3-8.18-5.92-8.18-1.22 0-2.22.22-3.35.6m7.78 13.83c0-2.94-1.52-3.9-2.75-3.9-4.47 0-8.36 6.74-8.36 13.03 0 1.73.17 4.44 3.02 4.44 3.48 0 6.15-4.52 7.4-9.13.42-1.5.7-3.02.7-4.42M1223.03 721.2l-2.76 8.6h-25.73l.18-.72h.77c3.38 0 4.46-1.27 4.82-2.8l5.34-21.58c.18-.72.32-1.63.32-2.03 0-.86-.64-1.68-3.44-1.68h-.8l.17-.73h14.8l-.18.72h-.82c-3.4 0-4.34 1.17-4.75 2.84l-5.5 21.76c-.2.67-.24 1.3-.24 1.4 0 1 1.28 1.08 1.82 1.08h5.52c4.6 0 6.92-1 9-5.2.3-.5.54-1.04.77-1.67h.73M1182.38 755.2l-.45-.9c1.27-.77 2.9-1.04 4.43-1.04 5.7 0 8.5 4.07 8.5 11.76 0 6.7-2.75 18.95-13.34 18.95-4.43 0-6.15-3.48-6.15-7.33 0-6.37 5.02-12.84 11.62-12.84 1.44 0 3.4.5 4.34 2.17.18-1 .3-2.08.3-3.16 0-3.97-1.3-8.18-5.9-8.18-1.23 0-2.23.23-3.36.6m7.78 13.83c0-2.94-1.54-3.9-2.76-3.9-4.48 0-8.37 6.75-8.37 13.03 0 1.72.2 4.43 3.03 4.43 3.5 0 6.16-4.5 7.42-9.12.4-1.5.68-3.03.68-4.43M1206.08 763.7h1.67c2.85 0 2.63-3.47 4.57-6.37 1.4-2.12 3.35-4.07 6.8-4.07 2.25 0 3.56 1.1 3.56 2.67 0 1.27-.95 1.8-1.86 1.8-1.26 0-1.58-.5-1.58-1.12 0-.62.4-1.3.4-1.66 0-.23-.13-.37-.67-.37-2.26 0-4.03 2.45-4.97 5.97l-.86 3.17h3.6l-.53 1.73h-3.43l-3.57 13.84c-.32 1.22-.68 2.94-1.36 4.6-1.5 3.77-3.93 8.06-7.9 8.06-2.18 0-3.27-1.08-3.27-2.44 0-1.1.64-2.23 1.95-2.23 1.22 0 1.67.82 1.67 1.5 0 .86-.73.9-.73 1.44 0 .28.27.42.68.42 2.94 0 4.3-7.15 4.97-9.72l3.94-15.47h-3.5M1294.9 737.3h-37.66v-4.23h37.67v4.22m0 12.78h-37.66v-4.22h37.67v4.22M1361.25 729.67v1.03c-6.14.83-7.74 7.93-9.02 13.62-1.85 8.2-9.2 14.14-17.14 14.14l-2.7 11h-5.18l2.75-11h-.64c-5 0-9.8-2.62-9.8-10.55 0-3.58 2.06-7.4 2.06-11.7 0-2.56-.9-5.18-3.9-5.5l.3-1.03c1.22-.12 2.37-.12 3.53-.12 3.64 0 5.63 3.45 5.63 7.1 0 3.58-2 8.12-2 11.83 0 4.8 2.06 7.6 5.32 8.06l6.4-26.16h5.18l-6.4 26.16c4.67-.9 9.28-5 10.88-11.96 1.8-7.68 3.26-14.9 13.05-14.9h1.65"/><path d="M880 660h125v69.13H880z" fill="#fff3d9"/><path d="M884.67 695.86h51.55v-2.33h-51.55zM900.85 665.4l-.28-.55c.77-.47 1.76-.63 2.7-.63 3.46 0 5.17 2.47 5.17 7.15 0 4.07-1.68 11.53-8.1 11.53-2.7 0-3.76-2.12-3.76-4.46 0-3.88 3.06-7.8 7.07-7.8.88 0 2.07.3 2.64 1.3.1-.6.2-1.26.2-1.92 0-2.42-.8-4.98-3.62-4.98-.74 0-1.34.14-2.03.36m4.73 8.42c0-1.8-.94-2.37-1.68-2.37-2.72 0-5.1 4.1-5.1 7.92 0 1.05.12 2.7 1.86 2.7 2.1 0 3.74-2.75 4.5-5.56.25-.9.42-1.83.42-2.68M915.26 670.57h1.02c1.73 0 1.6-2.12 2.78-3.88.85-1.3 2.03-2.48 4.12-2.48 1.38 0 2.18.66 2.18 1.62 0 .77-.58 1.1-1.13 1.1-.77 0-.96-.3-.96-.7 0-.37.24-.78.24-1 0-.14-.07-.22-.4-.22-1.37 0-2.45 1.48-3.02 3.63l-.53 1.92h2.2l-.33 1.05h-2.1l-2.16 8.4c-.2.76-.4 1.8-.83 2.82-.9 2.28-2.4 4.9-4.8 4.9-1.33 0-2-.66-2-1.5 0-.65.4-1.34 1.2-1.34.74 0 1 .5 1 .9 0 .53-.43.56-.43.9 0 .16.17.24.4.24 1.8 0 2.63-4.35 3.04-5.92l2.4-9.4H915M892.37 702.87l-.28-.55c.76-.47 1.75-.63 2.7-.63 3.45 0 5.16 2.46 5.16 7.14 0 4.07-1.68 11.52-8.12 11.52-2.7 0-3.74-2.12-3.74-4.45 0-3.87 3.06-7.8 7.07-7.8.88 0 2.07.3 2.64 1.3.12-.6.2-1.25.2-1.9 0-2.43-.8-5-3.6-5-.74 0-1.35.15-2.03.37m4.73 8.4c0-1.77-.94-2.35-1.68-2.35-2.72 0-5.1 4.1-5.1 7.92 0 1.05.12 2.7 1.85 2.7 2.12 0 3.75-2.75 4.52-5.56.23-.9.4-1.84.4-2.7M914.56 707.68l-2.2 7.95c-.16.63-.33 1.27-.33 1.93 0 1.07.53 1.67 1.63 1.67 2.97 0 4.5-3.16 5.36-5.58.22-.66.4-1.35.4-2.04 0-2.02-1.6-1.8-1.66-2.98-.06-1 .82-1.16 1.48-1.16 1.16 0 1.3 1.4 1.3 2.28 0 4.02-2.9 10.57-7.6 10.57-1.9 0-3.05-.76-3.05-2.74 0-1.16.32-2.34.62-3.44-1.1 2.45-3.35 6.2-6.44 6.2-1.54 0-2.14-.95-2.14-2.4 0-.9.3-1.77.52-2.62l1.3-4.87c.08-.25.13-.52.13-.8 0-.66-1.05-.6-1.5-.6v-.4c1.46-.26 2.9-.65 4.27-1.22l.1.1-2.22 8.43c-.08.36-.3 1.24-.3 2 0 .73.16 1.3.77 1.3 1.6-.02 3.55-3.13 4.2-4.15 1.47-2.23 2.18-4.37 3.03-7.4h2.3M930.65 721.5l-1.06 2.7h-7.73v-.23l3.5-3.73c1.87-1.96 2.58-3.45 2.58-5.13 0-1.8-1.07-2.77-2.74-2.77-1.4 0-2.1.63-2.9 2.56l-.4-.1c.4-2.32 1.67-3.93 4.1-3.93 2.23 0 3.65 1.52 3.65 3.47 0 1.56-.77 3.04-2.53 4.9l-3.25 3.46h4.6c.84 0 1.25-.2 1.9-1.32M976.5 691.97h-22.93v-2.57h22.92v2.57m0 7.78h-22.93v-2.57h22.92v2.57M997.2 698.04h-.68c.04-1.56.35-3.5 1.72-6.9 1-2.48 1.98-4.93 1.98-7.26 0-2.7-1.87-4.6-4.24-4.6-1.87 0-3.66 1.17-3.66 2.42 0 1.44 1.48 1.6 1.48 2.88 0 .97-.62 1.67-1.6 1.67-1.08 0-1.86-.97-1.86-2.57 0-3.23 2.64-5.56 6.38-5.56 3.77 0 7.08 2.37 7.08 6.15 0 2.37-.74 3.7-4.1 7.66-1.4 1.67-2.1 3.46-2.5 6.1zm1.78 4.63c0 1.13-.86 2.06-2.03 2.06-1.32 0-2.1-.97-2.1-2.06 0-1.17.9-2.06 2.1-2.06 1.1 0 2.03.98 2.03 2.07"/><path d="M1184 592.88h291.14" stroke="#5e5e5e" stroke-width="5" fill="none"/><path d="M1184.06 595.38h-2.6l.04-2.5-.03-2.5h2.6z" stroke="#5e5e5e" stroke-width=".05" fill="#5e5e5e"/><path d="M1491.9 592.88l-14.26 4.64v-9.28z" stroke="#5e5e5e" stroke-width="5" fill="#fff"/><path d="M500 467.26h302.22v85.26H500z" fill="#fff3d9"/><path d="M505.76 511.5h63.58v-2.9h-63.58zM524.13 479.87l-.34-.68c.94-.58 2.16-.8 3.3-.8 4.3 0 6.4 3.07 6.4 8.83 0 5.02-2.08 14.22-10.02 14.22-3.32 0-4.6-2.62-4.6-5.5 0-4.78 3.76-9.63 8.7-9.63 1.1 0 2.55.37 3.27 1.62.13-.74.23-1.56.23-2.37 0-3-.98-6.14-4.44-6.14-.92 0-1.66.17-2.5.44m5.82 10.38c0-2.2-1.15-2.92-2.06-2.92-3.36 0-6.28 5.06-6.28 9.77 0 1.3.13 3.33 2.27 3.33 2.6 0 4.6-3.4 5.56-6.85.3-1.12.5-2.28.5-3.33M556.15 494.63l-2.06 6.44h-19.32l.14-.54h.57c2.54 0 3.35-.95 3.62-2.1l4-16.18c.14-.55.24-1.23.24-1.53 0-.65-.47-1.26-2.57-1.26h-.62l.13-.54h11.1l-.13.54h-.6c-2.56 0-3.27.9-3.57 2.14l-4.14 16.32c-.14.5-.17.98-.17 1.05 0 .75.94.8 1.35.8h4.13c3.46 0 5.2-.73 6.76-3.9.23-.36.4-.77.57-1.24h.55M515.25 520.13l-.34-.68c.96-.58 2.18-.78 3.34-.78 4.27 0 6.38 3.05 6.38 8.82 0 5-2.07 14.2-10 14.2-3.34 0-4.63-2.6-4.63-5.5 0-4.77 3.76-9.62 8.7-9.62 1.1 0 2.56.37 3.27 1.62.14-.74.24-1.56.24-2.37 0-3-.98-6.14-4.44-6.14-.9 0-1.66.16-2.5.43m5.83 10.38c0-2.2-1.17-2.9-2.08-2.9-3.36 0-6.28 5.05-6.28 9.76 0 1.3.14 3.33 2.27 3.33 2.63 0 4.63-3.4 5.58-6.86.3-1.12.5-2.28.5-3.33M542.63 526.07l-2.7 9.8c-.22.78-.42 1.56-.42 2.38 0 1.32.65 2.06 2 2.06 3.67 0 5.57-3.9 6.63-6.87.27-.82.5-1.66.5-2.5 0-2.52-2-2.25-2.06-3.7-.07-1.23 1-1.43 1.83-1.43 1.42 0 1.6 1.73 1.6 2.8 0 4.96-3.57 13.04-9.37 13.04-2.34 0-3.77-.95-3.77-3.4 0-1.42.4-2.88.78-4.24-1.35 3.02-4.14 7.64-7.94 7.64-1.9 0-2.64-1.16-2.64-2.95 0-1.13.37-2.18.64-3.24l1.6-6c.1-.3.17-.65.17-.98 0-.82-1.3-.75-1.83-.75v-.5c1.8-.32 3.56-.8 5.25-1.5l.13.1-2.75 10.4c-.1.45-.37 1.54-.37 2.5 0 .87.2 1.58.96 1.58 1.97-.02 4.37-3.85 5.2-5.1 1.8-2.76 2.67-5.4 3.72-9.13h2.85M560.52 546.44h-6.7v-.36c1.8-.1 2.3-.6 2.3-1.95V533.2c0-.82-.22-1.2-.73-1.2-.25 0-.67.14-1.1.3l-.66.25v-.34L558 530l.2.07v14.52c0 1.04.5 1.48 2.32 1.48v.36M619 506.7h-28.26v-3.18H619v3.17m0 9.58h-28.26v-3.16H619v3.16M640.4 511.5h45.78v-2.9H640.4zM649.9 479.87l-.34-.68c.95-.58 2.17-.8 3.32-.8 4.28 0 6.38 3.07 6.38 8.83 0 5.02-2.07 14.22-10 14.22-3.33 0-4.62-2.62-4.62-5.5 0-4.78 3.76-9.63 8.72-9.63 1.08 0 2.54.37 3.25 1.62.15-.74.25-1.56.25-2.37 0-3-.98-6.14-4.44-6.14-.9 0-1.66.17-2.5.44m5.83 10.38c0-2.2-1.15-2.92-2.07-2.92-3.36 0-6.27 5.06-6.27 9.77 0 1.3.12 3.33 2.26 3.33 2.6 0 4.6-3.4 5.56-6.85.3-1.12.5-2.28.5-3.33M681.92 494.63l-2.07 6.44h-19.3l.13-.54h.58c2.55 0 3.36-.95 3.63-2.1l4-16.18c.13-.55.23-1.23.23-1.53 0-.65-.47-1.26-2.58-1.26h-.6l.13-.54h11.1l-.14.54h-.6c-2.56 0-3.27.9-3.58 2.14l-4.14 16.32c-.13.5-.17.98-.17 1.05 0 .75.95.8 1.36.8h4.15c3.46 0 5.2-.73 6.75-3.9.24-.36.4-.77.58-1.24h.54M651.43 520.13l-.34-.68c.94-.58 2.16-.78 3.32-.78 4.27 0 6.37 3.05 6.37 8.82 0 5-2.07 14.2-10 14.2-3.34 0-4.63-2.6-4.63-5.5 0-4.77 3.77-9.62 8.72-9.62 1.08 0 2.54.37 3.25 1.62.13-.74.24-1.56.24-2.37 0-3-1-6.14-4.46-6.14-.9 0-1.66.16-2.5.43m5.83 10.38c0-2.2-1.16-2.9-2.07-2.9-3.36 0-6.28 5.05-6.28 9.76 0 1.3.14 3.33 2.27 3.33 2.6 0 4.6-3.4 5.56-6.86.3-1.12.5-2.28.5-3.33M669.2 526.5h1.26c2.14 0 1.97-2.6 3.43-4.78 1.04-1.6 2.5-3.05 5.08-3.05 1.7 0 2.68.82 2.68 2 0 .95-.7 1.36-1.4 1.36-.94 0-1.18-.37-1.18-.85 0-.47.3-.98.3-1.25 0-.17-.1-.28-.5-.28-1.7 0-3.02 1.84-3.74 4.48l-.64 2.38h2.7l-.4 1.3h-2.57l-2.68 10.38c-.24.9-.5 2.2-1.02 3.46-1.12 2.8-2.95 6.04-5.94 6.04-1.63 0-2.45-.82-2.45-1.84 0-.8.48-1.66 1.46-1.66.93 0 1.27.6 1.27 1.12 0 .65-.55.68-.55 1.1 0 .2.2.3.5.3 2.22 0 3.23-5.37 3.74-7.3l2.95-11.6h-2.6M712.38 509.9c0 1.54-1.3 2.88-2.83 2.88-1.6 0-2.93-1.44-2.93-2.88s1.34-2.88 2.93-2.88c1.53 0 2.83 1.35 2.83 2.88M732.82 511.5h63.58v-2.9h-63.58zM752.77 473.92l-.34-.68c.95-.57 2.18-.78 3.33-.78 4.27 0 6.38 3.06 6.38 8.82 0 5.02-2.07 14.22-10 14.22-3.34 0-4.62-2.62-4.62-5.5 0-4.78 3.76-9.63 8.7-9.63 1.1 0 2.56.37 3.27 1.62.13-.75.23-1.57.23-2.38 0-3-1-6.14-4.45-6.14-.9 0-1.66.17-2.5.44m5.83 10.38c0-2.2-1.14-2.92-2.06-2.92-3.36 0-6.28 5.06-6.28 9.77 0 1.3.14 3.33 2.28 3.33 2.6 0 4.6-3.4 5.56-6.85.3-1.12.5-2.28.5-3.33M770.55 480.3h1.26c2.14 0 1.97-2.6 3.43-4.78 1.05-1.6 2.5-3.06 5.1-3.06 1.7 0 2.67.82 2.67 2 0 .95-.7 1.36-1.4 1.36-.94 0-1.18-.37-1.18-.85 0-.47.3-.98.3-1.25 0-.17-.1-.27-.5-.27-1.7 0-3.02 1.83-3.73 4.47l-.66 2.38h2.72l-.4 1.3h-2.6l-2.67 10.37c-.25.9-.52 2.2-1.03 3.46-1.12 2.8-2.95 6.04-5.93 6.04-1.63 0-2.45-.82-2.45-1.83 0-.82.47-1.67 1.45-1.67.92 0 1.26.6 1.26 1.12 0 .64-.53.67-.53 1.08 0 .2.2.3.5.3 2.2 0 3.23-5.36 3.74-7.3l2.96-11.6h-2.6M742.3 520.13l-.33-.68c.95-.58 2.18-.78 3.33-.78 4.27 0 6.38 3.05 6.38 8.82 0 5-2.07 14.2-10 14.2-3.34 0-4.63-2.6-4.63-5.5 0-4.77 3.77-9.62 8.72-9.62 1.1 0 2.55.37 3.26 1.62.14-.74.24-1.56.24-2.37 0-3-1-6.14-4.45-6.14-.9 0-1.66.16-2.5.43m5.83 10.38c0-2.2-1.16-2.9-2.07-2.9-3.36 0-6.28 5.05-6.28 9.76 0 1.3.14 3.33 2.28 3.33 2.6 0 4.6-3.4 5.56-6.86.3-1.12.5-2.28.5-3.33M769.7 526.07l-2.72 9.8c-.2.78-.4 1.56-.4 2.38 0 1.32.63 2.06 2 2.06 3.66 0 5.55-3.9 6.6-6.87.28-.82.52-1.66.52-2.5 0-2.52-2-2.25-2.07-3.7-.07-1.23 1-1.43 1.83-1.43 1.42 0 1.6 1.73 1.6 2.8 0 4.96-3.57 13.04-9.37 13.04-2.35 0-3.78-.95-3.78-3.4 0-1.42.4-2.88.78-4.24-1.35 3.02-4.13 7.64-7.93 7.64-1.9 0-2.65-1.16-2.65-2.95 0-1.13.37-2.18.64-3.24l1.6-6c.1-.3.17-.65.17-.98 0-.82-1.3-.75-1.83-.75v-.5c1.8-.32 3.56-.8 5.25-1.5l.14.1-2.76 10.4c-.1.45-.37 1.54-.37 2.5 0 .87.2 1.58.95 1.58 1.97-.02 4.38-3.85 5.2-5.1 1.8-2.76 2.67-5.4 3.72-9.13h2.85M787.58 546.44h-6.7v-.36c1.8-.1 2.3-.6 2.3-1.95V533.2c0-.82-.22-1.2-.73-1.2-.24 0-.66.14-1.1.3l-.65.25v-.34l4.35-2.2.22.07v14.52c0 1.04.5 1.48 2.3 1.48v.36"/><path d="M500 660h302.22v85.26H500z" fill="#fff3d9"/><path d="M505.76 704.23h63.58v-2.88h-63.58zM524.13 672.6l-.34-.67c.94-.57 2.16-.78 3.3-.78 4.3 0 6.4 3.06 6.4 8.82 0 5.02-2.08 14.22-10.02 14.22-3.32 0-4.6-2.62-4.6-5.5 0-4.8 3.76-9.64 8.7-9.64 1.1 0 2.55.37 3.27 1.63.13-.76.23-1.58.23-2.4 0-2.97-.98-6.13-4.44-6.13-.92 0-1.66.17-2.5.44m5.82 10.4c0-2.2-1.15-2.93-2.06-2.93-3.36 0-6.28 5.06-6.28 9.78 0 1.28.13 3.32 2.27 3.32 2.6 0 4.6-3.4 5.56-6.85.3-1.12.5-2.28.5-3.33M556.15 687.37l-2.06 6.44h-19.32l.14-.53h.57c2.54 0 3.35-.95 3.62-2.1l4-16.18c.14-.56.24-1.24.24-1.54 0-.65-.47-1.26-2.57-1.26h-.62l.13-.54h11.1l-.13.54h-.6c-2.56 0-3.27.9-3.57 2.14l-4.14 16.32c-.14.5-.17.98-.17 1.05 0 .76.94.83 1.35.83h4.13c3.46 0 5.2-.75 6.76-3.9.23-.38.4-.8.57-1.26h.55M515.25 712.87l-.34-.68c.96-.6 2.18-.8 3.34-.8 4.27 0 6.38 3.06 6.38 8.83 0 5.02-2.07 14.22-10 14.22-3.34 0-4.63-2.62-4.63-5.5 0-4.78 3.76-9.63 8.7-9.63 1.1 0 2.56.37 3.27 1.62.14-.74.24-1.56.24-2.37 0-3-.98-6.14-4.44-6.14-.9 0-1.66.17-2.5.44m5.83 10.38c0-2.2-1.17-2.92-2.08-2.92-3.36 0-6.28 5.06-6.28 9.77 0 1.3.14 3.33 2.27 3.33 2.63 0 4.63-3.4 5.58-6.85.3-1.12.5-2.28.5-3.33M542.63 718.8l-2.7 9.8c-.22.8-.42 1.57-.42 2.4 0 1.3.65 2.06 2 2.06 3.67 0 5.57-3.9 6.63-6.9.27-.8.5-1.65.5-2.5 0-2.5-2-2.24-2.06-3.7-.07-1.22 1-1.42 1.83-1.42 1.42 0 1.6 1.73 1.6 2.8 0 4.96-3.57 13.04-9.37 13.04-2.34 0-3.77-.95-3.77-3.4 0-1.42.4-2.88.78-4.23-1.35 3-4.14 7.63-7.94 7.63-1.9 0-2.64-1.16-2.64-2.95 0-1.12.37-2.17.64-3.23l1.6-6c.1-.3.17-.65.17-.98 0-.82-1.3-.75-1.83-.75v-.5c1.8-.3 3.56-.8 5.25-1.5l.13.1-2.75 10.4c-.1.46-.37 1.54-.37 2.5 0 .87.2 1.6.96 1.6 1.97-.05 4.37-3.88 5.2-5.14 1.8-2.75 2.67-5.4 3.72-9.12h2.85M562.47 735.85l-1.3 3.33h-9.53v-.3l4.33-4.6c2.3-2.4 3.17-4.25 3.17-6.3 0-2.23-1.32-3.44-3.38-3.44-1.76 0-2.6.78-3.58 3.16l-.5-.12c.5-2.85 2.06-4.84 5.05-4.84 2.75 0 4.5 1.87 4.5 4.28 0 1.92-.95 3.74-3.1 6.03l-4.03 4.28h5.7c1.02 0 1.53-.26 2.33-1.63M619 699.43h-28.26v-3.17H619v3.17m0 9.6h-28.26v-3.17H619v3.17M640.4 704.23h45.78v-2.88H640.4zM649.9 672.6l-.34-.67c.95-.57 2.17-.78 3.32-.78 4.28 0 6.38 3.06 6.38 8.82 0 5.02-2.07 14.22-10 14.22-3.33 0-4.62-2.62-4.62-5.5 0-4.8 3.76-9.64 8.72-9.64 1.08 0 2.54.37 3.25 1.63.15-.76.25-1.58.25-2.4 0-2.97-.98-6.13-4.44-6.13-.9 0-1.66.17-2.5.44m5.83 10.4c0-2.2-1.15-2.93-2.07-2.93-3.36 0-6.27 5.06-6.27 9.78 0 1.28.12 3.32 2.26 3.32 2.6 0 4.6-3.4 5.56-6.85.3-1.12.5-2.28.5-3.33M681.92 687.37l-2.07 6.44h-19.3l.13-.53h.58c2.55 0 3.36-.95 3.63-2.1l4-16.18c.13-.56.23-1.24.23-1.54 0-.65-.47-1.26-2.58-1.26h-.6l.13-.54h11.1l-.14.54h-.6c-2.56 0-3.27.9-3.58 2.14l-4.14 16.32c-.13.5-.17.98-.17 1.05 0 .76.95.83 1.36.83h4.15c3.46 0 5.2-.75 6.75-3.9.24-.38.4-.8.58-1.26h.54M651.43 712.87l-.34-.68c.94-.6 2.16-.8 3.32-.8 4.27 0 6.37 3.06 6.37 8.83 0 5.02-2.07 14.22-10 14.22-3.34 0-4.63-2.62-4.63-5.5 0-4.78 3.77-9.63 8.72-9.63 1.08 0 2.54.37 3.25 1.62.13-.74.24-1.56.24-2.37 0-3-1-6.14-4.46-6.14-.9 0-1.66.17-2.5.44m5.83 10.38c0-2.2-1.16-2.92-2.07-2.92-3.36 0-6.28 5.06-6.28 9.77 0 1.3.14 3.33 2.27 3.33 2.6 0 4.6-3.4 5.56-6.85.3-1.12.5-2.28.5-3.33M669.2 719.25h1.26c2.14 0 1.97-2.6 3.43-4.8 1.04-1.58 2.5-3.04 5.08-3.04 1.7 0 2.68.83 2.68 2 0 .96-.7 1.37-1.4 1.37-.94 0-1.18-.37-1.18-.85 0-.47.3-.98.3-1.25 0-.17-.1-.27-.5-.27-1.7 0-3.02 1.83-3.74 4.47l-.64 2.38h2.7l-.4 1.3h-2.57l-2.68 10.37c-.24.9-.5 2.2-1.02 3.46-1.12 2.8-2.95 6.04-5.94 6.04-1.63 0-2.45-.82-2.45-1.83 0-.83.48-1.68 1.46-1.68.93 0 1.27.6 1.27 1.12 0 .65-.55.68-.55 1.1 0 .2.2.3.5.3 2.22 0 3.23-5.37 3.74-7.3l2.95-11.6h-2.6M712.38 702.64c0 1.54-1.3 2.88-2.83 2.88-1.6 0-2.93-1.44-2.93-2.88s1.34-2.88 2.93-2.88c1.53 0 2.83 1.35 2.83 2.88M732.82 704.23h63.58v-2.88h-63.58zM752.77 666.66l-.34-.68c.95-.57 2.18-.78 3.33-.78 4.27 0 6.38 3.06 6.38 8.82 0 5.02-2.07 14.22-10 14.22-3.34 0-4.62-2.6-4.62-5.5 0-4.78 3.76-9.63 8.7-9.63 1.1 0 2.56.38 3.27 1.64.13-.75.23-1.57.23-2.38 0-2.98-1-6.14-4.45-6.14-.9 0-1.66.17-2.5.44m5.83 10.38c0-2.2-1.14-2.92-2.06-2.92-3.36 0-6.28 5.06-6.28 9.78 0 1.28.14 3.32 2.28 3.32 2.6 0 4.6-3.4 5.56-6.85.3-1.12.5-2.28.5-3.33M770.55 673.04h1.26c2.14 0 1.97-2.6 3.43-4.78 1.05-1.6 2.5-3.06 5.1-3.06 1.7 0 2.67.82 2.67 2 0 .95-.7 1.36-1.4 1.36-.94 0-1.18-.37-1.18-.85 0-.46.3-.97.3-1.24 0-.17-.1-.27-.5-.27-1.7 0-3.02 1.82-3.73 4.46l-.66 2.38h2.72l-.4 1.3h-2.6l-2.67 10.37c-.25.93-.52 2.2-1.03 3.47-1.12 2.82-2.95 6.04-5.93 6.04-1.63 0-2.45-.8-2.45-1.82 0-.82.47-1.67 1.45-1.67.92 0 1.26.62 1.26 1.13 0 .65-.53.68-.53 1.1 0 .2.2.3.5.3 2.2 0 3.23-5.37 3.74-7.3l2.96-11.6h-2.6M742.3 712.87l-.33-.68c.95-.6 2.18-.8 3.33-.8 4.27 0 6.38 3.06 6.38 8.83 0 5.02-2.07 14.22-10 14.22-3.34 0-4.63-2.62-4.63-5.5 0-4.78 3.77-9.63 8.72-9.63 1.1 0 2.55.37 3.26 1.62.14-.74.24-1.56.24-2.37 0-3-1-6.14-4.45-6.14-.9 0-1.66.17-2.5.44m5.83 10.38c0-2.2-1.16-2.92-2.07-2.92-3.36 0-6.28 5.06-6.28 9.77 0 1.3.14 3.33 2.28 3.33 2.6 0 4.6-3.4 5.56-6.85.3-1.12.5-2.28.5-3.33M769.7 718.8l-2.72 9.8c-.2.8-.4 1.57-.4 2.4 0 1.3.63 2.06 2 2.06 3.66 0 5.55-3.9 6.6-6.9.28-.8.52-1.65.52-2.5 0-2.5-2-2.24-2.07-3.7-.07-1.22 1-1.42 1.83-1.42 1.42 0 1.6 1.73 1.6 2.8 0 4.96-3.57 13.04-9.37 13.04-2.35 0-3.78-.95-3.78-3.4 0-1.42.4-2.88.78-4.23-1.35 3-4.13 7.63-7.93 7.63-1.9 0-2.65-1.16-2.65-2.95 0-1.12.37-2.17.64-3.23l1.6-6c.1-.3.17-.65.17-.98 0-.82-1.3-.75-1.83-.75v-.5c1.8-.3 3.56-.8 5.25-1.5l.14.1-2.76 10.4c-.1.46-.37 1.54-.37 2.5 0 .87.2 1.6.95 1.6 1.97-.05 4.38-3.88 5.2-5.14 1.8-2.75 2.67-5.4 3.72-9.12h2.85M789.53 735.85l-1.3 3.33h-9.52v-.3l4.34-4.6c2.28-2.4 3.16-4.25 3.16-6.3 0-2.23-1.32-3.44-3.38-3.44-1.76 0-2.6.78-3.58 3.16l-.5-.12c.5-2.85 2.06-4.84 5.05-4.84 2.74 0 4.5 1.87 4.5 4.28 0 1.92-.96 3.74-3.12 6.03l-4.02 4.28h5.7c1.02 0 1.53-.26 2.33-1.63"/><path d="M980.63 570.25H1020v65.06h-39.37z" fill-opacity="0"/><path d="M996.5 591.03h2.36c4.03 0 3.7-4.93 6.46-9.02 1.98-3 4.73-5.75 9.6-5.75 3.2 0 5.05 1.54 5.05 3.77 0 1.8-1.35 2.56-2.62 2.56-1.8 0-2.24-.7-2.24-1.6 0-.9.58-1.85.58-2.36 0-.32-.2-.5-.96-.5-3.2 0-5.7 3.44-7.03 8.43l-1.23 4.48h5.12l-.78 2.43h-4.86l-5.06 19.57c-.44 1.73-.95 4.16-1.9 6.53-2.13 5.3-5.58 11.4-11.2 11.4-3.08 0-4.62-1.55-4.62-3.47 0-1.54.9-3.14 2.76-3.14 1.72 0 2.36 1.15 2.36 2.1 0 1.22-1.02 1.3-1.02 2.05 0 .4.38.6.96.6 4.16 0 6.08-10.12 7.04-13.76l5.56-21.88h-4.93"/><path d="M765.53 185.72l232.45 154.4-47.18 71.02-232.44-154.4z" fill="#fff3d9"/><path d="M745.86 225.74l52.96 35.18 1.6-2.4-52.97-35.18zM778.65 209.57l.1-.75c1.1.04 2.24.55 3.2 1.2 3.56 2.35 3.62 6.06.43 10.86-2.78 4.2-9.6 10.7-16.2 6.3-2.77-1.83-2.4-4.72-.8-7.12 2.64-4 8.46-5.95 12.6-3.2.9.6 1.9 1.7 1.8 3.15.53-.53 1.06-1.16 1.5-1.83 1.67-2.5 2.6-5.66-.3-7.58-.75-.5-1.47-.8-2.33-1.03m-.88 11.88c1.22-1.84.65-3.07-.1-3.58-2.8-1.86-8.03.74-10.64 4.67-.72 1.07-1.73 2.84.05 4.02 2.18 1.45 5.72-.27 8.43-2.63.88-.76 1.7-1.6 2.27-2.48M797.17 239.58l-5.3 4.23-16.07-10.67.4-.38.5.32c2.1 1.4 3.3 1.07 4.18.26l12.3-11.27c.4-.38.86-.9 1.03-1.14.36-.54.3-1.3-1.44-2.47l-.5-.34.4-.37 9.24 6.14-.4.38-.52-.34c-2.12-1.4-3.2-1.06-4.15-.18l-12.48 11.3c-.4.35-.68.73-.72.78-.4.63.34 1.2.68 1.43l3.46 2.3c2.88 1.9 4.73 2.24 7.78.48.4-.17.77-.42 1.17-.72l.47.3M749 238.2l.08-.76c1.1.05 2.24.55 3.2 1.2 3.56 2.36 3.62 6.06.43 10.87-2.77 4.2-9.58 10.7-16.2 6.3-2.76-1.83-2.4-4.72-.8-7.12 2.65-3.98 8.48-5.94 12.6-3.2.9.6 1.9 1.72 1.8 3.16.54-.55 1.07-1.17 1.53-1.85 1.65-2.5 2.57-5.67-.3-7.58-.77-.5-1.5-.78-2.34-1.03m-.9 11.87c1.22-1.84.66-3.07-.1-3.57-2.8-1.86-8.03.73-10.64 4.66-.7 1.07-1.73 2.85.05 4.03 2.2 1.43 5.73-.3 8.44-2.64.87-.77 1.68-1.6 2.26-2.5M768.5 258.3l-7.68 6.65c-.6.54-1.2 1.08-1.65 1.76-.73 1.1-.6 2.1.52 2.84 3.04 2.02 6.78-.17 9.3-2.08.7-.53 1.35-1.1 1.82-1.8 1.4-2.1-.43-2.98.33-4.23.6-1.06 1.63-.63 2.3-.18 1.2.8.38 2.33-.22 3.23-2.74 4.13-10.17 8.88-15 5.67-1.96-1.3-2.62-2.87-1.27-4.9.8-1.2 1.94-2.2 3-3.1-2.8 1.76-7.67 4.06-10.84 1.96-1.58-1.04-1.56-2.42-.57-3.92.62-.93 1.5-1.6 2.32-2.32l4.65-4.12c.26-.2.5-.45.7-.73.44-.67-.67-1.32-1.12-1.62l.28-.43c1.66.74 3.4 1.32 5.2 1.67l.06.16-8.05 7.15c-.34.3-1.17 1.07-1.7 1.86-.48.72-.7 1.43-.08 1.84 1.65 1.06 5.78-.8 7.15-1.4 3.02-1.3 5.22-3 8.16-5.53l2.38 1.6M772.14 285.16l-5.6-3.7.2-.32c1.56.92 2.27.77 3-.34l6.05-9.1c.45-.7.47-1.1.04-1.4-.2-.13-.6-.26-1.07-.36l-.68-.16.18-.28 4.85.56.14.18-8.03 12.1c-.58.87-.42 1.5 1.1 2.52l-.2.3M842.84 284.4l-23.54-15.64 1.75-2.63 23.55 15.63-1.76 2.64m-5.3 8l-23.55-15.64 1.74-2.64 23.55 15.64-1.77 2.64M887.5 307.2l-.43.64c-4.2-2.03-8.13 1.75-11.3 4.77-4.55 4.36-11.62 5.02-16.57 1.73l-6.25 5.76-3.24-2.16 6.3-5.73-.4-.26c-3.12-2.07-5.03-5.7-1.74-10.66 1.5-2.23 4.36-3.78 6.14-6.46 1.06-1.6 1.6-3.6-.15-5.06l.62-.5c.8.42 1.53.9 2.25 1.38 2.28 1.5 2.1 4.5.57 6.77-1.5 2.25-4.62 4.26-6.16 6.58-2 3-1.88 5.6-.02 7.24l14.85-13.7 3.24 2.16-14.85 13.7c3.3 1.37 7.87.72 11.76-2.97 4.32-4.04 8.24-7.95 14.35-3.9l1.04.7M899.54 325.92c-.85 1.28-2.67 1.68-3.95.83-1.33-.87-1.65-2.82-.86-4.02.8-1.2 2.72-1.65 4.04-.77 1.27.85 1.6 2.68.76 3.96M915.7 338.55l52.95 35.18 1.6-2.4-52.96-35.18zM953.1 318.3l.1-.75c1.1.04 2.23.55 3.2 1.2 3.55 2.35 3.62 6.06.43 10.86-2.78 4.2-9.6 10.7-16.2 6.3-2.78-1.82-2.4-4.7-.8-7.12 2.64-3.98 8.46-5.94 12.6-3.2.9.6 1.9 1.72 1.8 3.16.52-.55 1.06-1.17 1.5-1.85 1.66-2.5 2.6-5.66-.3-7.58-.76-.5-1.47-.78-2.33-1.02m-.88 11.87c1.22-1.83.65-3.06-.1-3.57-2.8-1.86-8.04.74-10.65 4.67-.7 1.07-1.72 2.84.06 4.02 2.17 1.44 5.72-.28 8.42-2.64.88-.76 1.68-1.6 2.27-2.5M964.38 333.45l1.04.7c1.78 1.17 3.1-1.1 5.5-2.1 1.76-.74 3.78-1.15 5.93.28 1.42.93 1.78 2.16 1.13 3.15-.53.8-1.35.73-1.9.36-.8-.53-.8-.97-.53-1.37.26-.4.8-.65.95-.87.1-.15.06-.3-.28-.5-1.4-.95-3.53-.16-5.58 1.65l-1.85 1.63 2.25 1.5-1.06.85-2.15-1.43-7.98 7.16c-.7.64-1.64 1.56-2.76 2.32-2.48 1.73-5.8 3.4-8.28 1.75-1.35-.9-1.58-2.03-1.02-2.88.45-.68 1.32-1.12 2.14-.58.76.5.7 1.2.42 1.63-.35.54-.83.26-1.05.6-.1.17 0 .37.26.54 1.84 1.22 5.65-2.68 7.15-4l8.9-8.04-2.2-1.45M918.82 351l.1-.75c1.1.04 2.23.55 3.2 1.2 3.55 2.35 3.62 6.06.42 10.87-2.77 4.18-9.58 10.7-16.2 6.3-2.77-1.84-2.4-4.73-.8-7.13 2.65-4 8.47-5.95 12.6-3.2.9.6 1.9 1.7 1.8 3.14.53-.54 1.07-1.16 1.52-1.84 1.65-2.5 2.58-5.66-.3-7.58-.77-.5-1.48-.77-2.34-1.02m-.88 11.88c1.22-1.84.65-3.07-.1-3.58-2.8-1.86-8.04.74-10.65 4.67-.72 1.07-1.73 2.84.05 4.03 2.17 1.44 5.72-.28 8.42-2.63.88-.77 1.68-1.62 2.27-2.5M938.34 371.1l-7.7 6.66c-.6.54-1.2 1.08-1.64 1.75-.73 1.12-.6 2.1.52 2.84 3.05 2.03 6.8-.17 9.32-2.07.68-.53 1.35-1.1 1.82-1.8 1.4-2.1-.43-2.98.32-4.24.62-1.05 1.63-.62 2.3-.17 1.2.8.38 2.32-.22 3.23-2.74 4.1-10.17 8.87-15 5.66-1.95-1.3-2.62-2.88-1.26-4.9.78-1.2 1.93-2.2 3-3.1-2.8 1.75-7.68 4.06-10.84 1.95-1.6-1.04-1.57-2.4-.57-3.9.6-.94 1.5-1.6 2.3-2.34l4.66-4.12c.25-.2.5-.44.68-.72.45-.68-.66-1.34-1.1-1.64l.27-.42c1.68.74 3.4 1.32 5.22 1.67l.05.16-8.05 7.14c-.33.3-1.15 1.07-1.68 1.86-.5.73-.7 1.44-.1 1.85 1.67 1.06 5.8-.8 7.17-1.4 3.03-1.3 5.22-3 8.17-5.53l2.37 1.58M941.97 397.97l-5.6-3.72.2-.3c1.56.9 2.27.77 3-.34l6.06-9.1c.45-.68.47-1.1.05-1.4-.2-.12-.62-.25-1.08-.35l-.68-.16.2-.3 4.84.57.14.18-8.03 12.1c-.58.87-.42 1.5 1.1 2.5l-.2.32"/><g><path d="M729.78 980.24l216.26-176.36 53.88 66.07-216.25 176.37z" fill="#fff3d9"/><path d="M762.2 1010.88l49.27-40.2-1.82-2.22-49.27 40.2zM756.45 974.77l-.7-.32c.38-1.04 1.2-1.97 2.1-2.7 3.3-2.7 6.87-1.67 10.5 2.8 3.2 3.9 7.4 12.33 1.24 17.34-2.6 2.1-5.24.88-7.06-1.35-3.02-3.7-3.17-9.85.67-12.98.85-.68 2.22-1.32 3.56-.8-.36-.66-.8-1.35-1.3-1.98-1.9-2.33-4.66-4.15-7.34-1.96-.7.58-1.18 1.18-1.67 1.93m11.1 4.35c-1.4-1.7-2.75-1.53-3.46-.95-2.6 2.12-1.68 7.88 1.3 11.54.8 1 2.2 2.5 3.86 1.15 2.03-1.65 1.43-5.55-.02-8.83-.47-1.06-1.04-2.08-1.7-2.9M790.6 965.96l2.47 6.3-14.96 12.2-.23-.5.45-.37c1.97-1.6 2-2.87 1.48-3.93l-7.12-15.07c-.24-.5-.6-1.1-.78-1.33-.4-.5-1.17-.68-2.8.65l-.47.4-.24-.52 8.6-7 .23.5-.47.38c-1.98 1.6-1.97 2.74-1.4 3.9l7.1 15.27c.2.48.48.87.52.92.48.58 1.26.03 1.57-.22l3.2-2.62c2.7-2.2 3.56-3.86 2.77-7.3-.05-.43-.17-.85-.34-1.33l.42-.34M775.02 1011.57l-.7-.3c.38-1.05 1.2-1.98 2.1-2.7 3.3-2.7 6.86-1.68 10.5 2.8 3.18 3.88 7.4 12.32 1.24 17.33-2.58 2.1-5.23.9-7.05-1.34-3.02-3.7-3.16-9.85.67-12.98.84-.68 2.2-1.32 3.56-.8-.37-.66-.8-1.35-1.32-1.98-1.88-2.32-4.63-4.14-7.3-1.95-.72.57-1.2 1.18-1.68 1.92m11.08 4.36c-1.4-1.7-2.74-1.53-3.45-.95-2.6 2.12-1.67 7.88 1.3 11.54.83 1 2.22 2.5 3.88 1.14 2.02-1.65 1.43-5.55-.02-8.83-.46-1.06-1.03-2.08-1.7-2.9M800 998.87l4.08 9.32c.34.72.67 1.45 1.2 2.08.82 1.03 1.8 1.2 2.84.34 2.84-2.3 1.85-6.54.78-9.52-.3-.8-.66-1.6-1.2-2.26-1.58-1.95-2.96-.47-3.93-1.56-.83-.9-.12-1.75.5-2.26 1.12-.9 2.34.33 3.03 1.17 3.13 3.83 5.47 12.34.98 16-1.82 1.48-3.52 1.65-5.07-.24-.9-1.1-1.5-2.5-2.06-3.78.86 3.2 1.62 8.53-1.33 10.93-1.46 1.2-2.77.8-3.9-.6-.7-.87-1.1-1.92-1.54-2.9l-2.56-5.67c-.12-.3-.28-.6-.5-.87-.5-.63-1.46.23-1.88.58l-.32-.4c1.2-1.37 2.26-2.85 3.13-4.48h.17l4.45 9.8c.2.4.68 1.42 1.28 2.16.55.68 1.16 1.1 1.74.63 1.5-1.27.95-5.76.78-7.25-.34-3.26-1.33-5.87-2.87-9.43l2.2-1.8M826.13 999.54l1.1 3.4-7.38 6.02-.18-.22.45-6.3c.25-3.3-.24-5.3-1.55-6.9-1.4-1.72-3.2-1.83-4.8-.52-1.35 1.1-1.52 2.25-.76 4.7l-.47.24c-1.4-2.53-1.45-5.06.87-6.95 2.13-1.73 4.67-1.4 6.2.48 1.2 1.5 1.62 3.5 1.4 6.64l-.4 5.86 4.4-3.6c.8-.64 1.02-1.17.78-2.74M846.92 935.6l-21.9 17.85-2-2.45 21.9-17.87 2 2.46M853 943l-21.9 17.87-2.02-2.47 21.9-17.86 2 2.45M881.9 899.68l.5.6c-3.18 3.4-.74 8.28 1.2 12.2 2.82 5.63 1.36 12.58-3.25 16.34l3.66 7.67-3 2.45-3.62-7.7-.38.3c-2.9 2.37-6.93 3.12-10.7-1.5-1.7-2.08-2.32-5.28-4.35-7.77-1.2-1.5-2.98-2.6-4.88-1.35l-.3-.75c.65-.65 1.32-1.2 2-1.74 2.1-1.73 4.9-.66 6.63 1.46 1.7 2.08 2.7 5.66 4.46 7.82 2.27 2.8 4.8 3.45 6.9 2.17l-8.68-18.25 3-2.46 8.7 18.23c2.3-2.73 3.02-7.3.65-12.1-2.6-5.32-5.17-10.22.52-14.86l.96-.8M903.36 893.7c.97 1.2.8 3.06-.38 4.03-1.22 1-3.17.74-4.08-.38-.9-1.12-.78-3.08.44-4.08 1.2-.97 3.05-.75 4.02.44M920.2 882.02l49.27-40.18-1.82-2.24-49.27 40.2zM911.92 840.3l-.7-.32c.38-1.04 1.2-1.97 2.1-2.7 3.3-2.7 6.87-1.67 10.5 2.8 3.18 3.9 7.4 12.33 1.24 17.34-2.58 2.1-5.23.9-7.05-1.34-3-3.7-3.16-9.85.68-12.98.84-.68 2.2-1.32 3.55-.8-.37-.66-.8-1.35-1.32-1.98-1.87-2.32-4.63-4.14-7.3-1.95-.72.58-1.2 1.18-1.68 1.93m11.08 4.35c-1.4-1.7-2.73-1.53-3.44-.95-2.6 2.12-1.67 7.88 1.3 11.54.82 1 2.2 2.5 3.87 1.14 2.03-1.65 1.43-5.55-.02-8.83-.46-1.06-1.03-2.08-1.7-2.9M929.73 834l.97-.8c1.66-1.34-.12-3.26-.37-5.86-.2-1.9.02-3.96 2.02-5.6 1.3-1.06 2.6-1.05 3.34-.13.6.75.3 1.5-.23 1.94-.74.6-1.16.46-1.46.1-.3-.37-.37-.96-.54-1.17-.1-.13-.25-.15-.57.1-1.32 1.08-1.2 3.34-.07 5.84l1 2.26 2.1-1.72.5 1.26-2 1.63 4.5 9.74c.38.86 1 2.03 1.4 3.32.9 2.88 1.52 6.54-.8 8.42-1.26 1.03-2.4.92-3.05.13-.5-.63-.68-1.6.08-2.2.7-.6 1.36-.33 1.68.06.4.5 0 .88.27 1.2.14.15.36.1.6-.1 1.7-1.38-.9-6.18-1.72-8l-5.05-10.86-2.02 1.65M933.02 882.72l-.7-.3c.38-1.06 1.2-2 2.1-2.72 3.3-2.7 6.86-1.67 10.5 2.8 3.18 3.9 7.4 12.33 1.24 17.34-2.58 2.1-5.23.9-7.05-1.34-3.02-3.7-3.16-9.85.68-12.98.84-.68 2.2-1.3 3.55-.8-.37-.66-.8-1.35-1.32-1.98-1.88-2.32-4.63-4.14-7.3-1.95-.72.57-1.2 1.17-1.68 1.92m11.08 4.35c-1.4-1.7-2.74-1.53-3.44-.95-2.6 2.12-1.67 7.88 1.3 11.54.82 1 2.2 2.5 3.87 1.14 2.02-1.65 1.43-5.55-.02-8.83-.46-1.06-1.03-2.08-1.7-2.9M958 870l4.08 9.33c.34.73.67 1.46 1.2 2.1.82 1.02 1.8 1.2 2.85.33 2.84-2.3 1.84-6.54.77-9.5-.3-.82-.66-1.62-1.2-2.28-1.58-1.95-2.96-.47-3.93-1.56-.83-.9-.1-1.75.52-2.26 1.1-.9 2.32.33 3 1.17 3.13 3.84 5.47 12.35.98 16.02-1.82 1.48-3.52 1.64-5.06-.25-.9-1.1-1.5-2.5-2.08-3.78.86 3.2 1.62 8.53-1.33 10.93-1.46 1.2-2.77.78-3.9-.6-.7-.88-1.1-1.93-1.54-2.92l-2.56-5.66c-.1-.3-.28-.6-.5-.87-.5-.63-1.46.24-1.88.58l-.32-.4c1.2-1.37 2.26-2.85 3.13-4.48h.17l4.45 9.8c.2.4.68 1.42 1.28 2.16.55.68 1.16 1.1 1.74.64 1.5-1.27.95-5.77.8-7.25-.36-3.27-1.35-5.88-2.9-9.43l2.22-1.8M984.13 870.68l1.1 3.4-7.38 6.03-.18-.22.45-6.3c.25-3.3-.24-5.3-1.55-6.9-1.4-1.72-3.2-1.83-4.8-.52-1.35 1.1-1.5 2.25-.76 4.7l-.46.24c-1.4-2.53-1.46-5.06.86-6.95 2.13-1.74 4.67-1.4 6.2.47 1.2 1.5 1.62 3.5 1.4 6.65l-.4 5.85 4.4-3.6c.8-.64 1.02-1.17.78-2.74"/></g><g><path d="M1380 654c0 3.3-2.7 6-6 6h-112c-3.3 0-6 2.7-6 6v8c0 3.3-1.8 4-4 1.54l-28-31.08c-2.2-2.46-2.2-6.46 0-8.92l28-31.08c2.2-2.46 4-1.77 4 1.54v8c0 3.3 2.7 6 6 6h112c3.3 0 6 2.7 6 6z" stroke="#5e5e5e" stroke-width="3" fill="#fff"/></g><g><use xlink:href="#r" transform="matrix(1,-2.4492935982947064e-16,2.4492935982947064e-16,1,1225.0000000000002,604.9999999999999) translate(13.696358024691358 39.65277777777778)"/><use xlink:href="#s" transform="matrix(1,-2.4492935982947064e-16,2.4492935982947064e-16,1,1225.0000000000002,604.9999999999999) translate(104.93092592592592 39.65277777777778)"/></g><g><path d="M851.26 417.55c-1.67 2.86-5.35 3.83-8.2 2.16l-96.7-56.5c-2.87-1.68-6.54-.7-8.2 2.15l-4.05 6.9c-1.66 2.87-3.56 2.56-4.23-.7l-8.47-40.94c-.67-3.23 1.34-6.68 4.5-7.7l39.83-12.7c3.16-1.02 4.36.5 2.7 3.35l-4.05 6.9c-1.67 2.86-.7 6.54 2.15 8.2l96.7 56.52c2.87 1.67 3.83 5.35 2.16 8.2z" stroke="#5e5e5e" stroke-width="3" fill="#fff"/></g><g><use xlink:href="#r" transform="matrix(0.8633869746220096,0.5045422995676907,-0.5045422995676907,0.8633869746220096,742.1576073406869,297.04192047035735) translate(13.696358024691358 39.65277777777778)"/><use xlink:href="#s" transform="matrix(0.8633869746220096,0.5045422995676907,-0.5045422995676907,0.8633869746220096,742.1576073406869,297.04192047035735) translate(104.93092592592592 39.65277777777778)"/></g><g><path d="M877.27 801.36c2.13 2.54 1.8 6.33-.74 8.46l-85.8 72c-2.52 2.13-2.86 5.9-.73 8.45l5.15 6.13c2.13 2.54 1.2 4.22-2.1 3.76l-41.4-5.83c-3.27-.46-5.84-3.52-5.73-6.83l1.45-41.8c.1-3.3 1.93-3.93 4.06-1.4l5.15 6.14c2.13 2.54 5.9 2.87 8.45.74l85.8-72c2.52-2.13 6.3-1.8 8.44.74z" stroke="#5e5e5e" stroke-width="3" fill="#fff"/></g><g><use xlink:href="#r" transform="matrix(0.7659684909041078,-0.6428781151525409,0.6428781151525409,0.7659684909041078,727.0442330302831,863.4759503031642) translate(13.696358024691358 39.65277777777778)"/><use xlink:href="#s" transform="matrix(0.7659684909041078,-0.6428781151525409,0.6428781151525409,0.7659684909041078,727.0442330302831,863.4759503031642) translate(104.93092592592592 39.65277777777778)"/></g><path d="M330.9 1183.42L121.9 1358.4" stroke="#5e5e5e" stroke-width="5" fill="none"/><path d="M343.74 1172.66l-7.96 12.7-5.95-7.1z" stroke="#5e5e5e" stroke-width="5" fill="#5e5e5e"/><path d="M121.97 1358.35L120 1360M122.17 809.94l205.4 117.34M122.23 809.97L120 808.7" stroke="#5e5e5e" stroke-width="5" fill="none"/><path d="M342.12 935.6l-14.7-3.06 4.6-8.05z" stroke="#5e5e5e" stroke-width="5" fill="#5e5e5e"/><g><path d="M331.26 894.52c-1.67 2.86-5.35 3.82-8.2 2.15l-96.7-56.5c-2.87-1.68-6.54-.7-8.2 2.15l-4.05 6.9c-1.66 2.87-3.56 2.55-4.23-.7l-8.47-40.94c-.67-3.24 1.34-6.7 4.5-7.7l39.83-12.72c3.16-1 4.36.5 2.7 3.35l-4.05 6.92c-1.67 2.86-.7 6.54 2.15 8.2l96.7 56.52c2.87 1.67 3.83 5.34 2.16 8.2z" stroke="#5e5e5e" stroke-width="3" fill="#fff"/></g><g><use xlink:href="#r" transform="matrix(0.8633869746220096,0.5045422995676907,-0.5045422995676907,0.8633869746220096,222.15760734068684,774.0097722690206) translate(13.696358024691358 39.65277777777778)"/><use xlink:href="#s" transform="matrix(0.8633869746220096,0.5045422995676907,-0.5045422995676907,0.8633869746220096,222.15760734068684,774.0097722690206) translate(104.93092592592592 39.65277777777778)"/></g><g><path d="M337.27 1261.36c2.13 2.54 1.8 6.33-.74 8.46l-85.8 72c-2.52 2.13-2.86 5.9-.73 8.45l5.15 6.13c2.13 2.54 1.2 4.22-2.1 3.76l-41.4-5.83c-3.27-.46-5.84-3.52-5.73-6.83l1.45-41.8c.1-3.3 1.93-3.93 4.06-1.4l5.15 6.14c2.13 2.54 5.9 2.87 8.45.74l85.8-72c2.52-2.13 6.3-1.8 8.44.74z" stroke="#5e5e5e" stroke-width="3" fill="#fff"/></g><g><use xlink:href="#r" transform="matrix(0.7659684909041078,-0.6428781151525409,0.6428781151525409,0.7659684909041078,187.04423303028318,1323.4759503031642) translate(13.696358024691358 39.65277777777778)"/><use xlink:href="#s" transform="matrix(0.7659684909041078,-0.6428781151525409,0.6428781151525409,0.7659684909041078,187.04423303028318,1323.4759503031642) translate(104.93092592592592 39.65277777777778)"/></g><path d="M649 798.4h80.78v54.34h-80.8z" fill="#fff" fill-opacity="0"/><path d="M683.9 806.4l-5.27 19c-.4 1.5-.8 3-.8 4.6 0 2.55 1.26 4 3.9 4 7.1 0 10.77-7.56 12.8-13.34.53-1.58 1-3.22 1-4.87 0-4.87-3.9-4.34-4.02-7.17-.12-2.36 1.98-2.76 3.56-2.76 2.76 0 3.1 3.35 3.1 5.46 0 9.6-6.9 25.23-18.15 25.23-4.53 0-7.3-1.84-7.3-6.57 0-2.77.8-5.6 1.53-8.23-2.63 5.85-8.02 14.8-15.38 14.8-3.68 0-5.13-2.24-5.13-5.73 0-2.17.73-4.2 1.25-6.24l3.1-11.63c.2-.6.32-1.25.32-1.9 0-1.58-2.5-1.45-3.56-1.45v-1c3.48-.58 6.9-1.5 10.2-2.88l.25.2-5.33 20.17c-.2.87-.73 2.97-.73 4.8 0 1.72.4 3.1 1.84 3.1 3.8-.07 8.48-7.5 10.06-9.93 3.48-5.32 5.2-10.44 7.23-17.67h5.52M721.94 839.5l-2.5 6.37h-18.18v-.56l8.27-8.77c4.37-4.6 6.04-8.13 6.04-12.08 0-4.23-2.5-6.55-6.46-6.55-3.33 0-4.96 1.48-6.82 6.04l-.97-.24c.98-5.43 3.96-9.24 9.67-9.24 5.25 0 8.6 3.58 8.6 8.17 0 3.68-1.82 7.16-5.95 11.53l-7.67 8.17h10.88c1.95 0 2.92-.5 4.46-3.1"/><path d="M1319.1 320.46l-298.24 155.7M1319.1 320.47l.9-.47" stroke="#5e5e5e" stroke-width="2" fill="none"/><path d="M1007.33 483.2l10.5-10.7 4.3 8.22z" stroke="#5e5e5e" stroke-width="2" fill="#5e5e5e"/><path d="M1019.1 258.87l-66.83 31.83" stroke="#5e5e5e" stroke-width="2" fill="none"/><path d="M1020 259.55l-.5.23-.86-1.8 1.36-.65z" stroke="#5e5e5e" stroke-width=".05" fill="#5e5e5e"/><path d="M938.48 297.26l10.9-10.32 3.98 8.37z" stroke="#5e5e5e" stroke-width="2" fill="#5e5e5e"/><defs><path fill="#333" d="M212-179c-10-28-35-45-73-45-59 0-87 40-87 99 0 60 29 101 89 101 43 0 62-24 78-52l27 14C228-24 195 4 139 4 59 4 22-46 18-125c-6-104 99-153 187-111 19 9 31 26 39 46" id="t"/><path fill="#333" d="M100-194c62-1 85 37 85 99 1 63-27 99-86 99S16-35 15-95c0-66 28-99 85-99zM99-20c44 1 53-31 53-75 0-43-8-75-51-75s-53 32-53 75 10 74 51 75" id="u"/><path fill="#333" d="M210-169c-67 3-38 105-44 169h-31v-121c0-29-5-50-35-48C34-165 62-65 56 0H25l-1-190h30c1 10-1 24 2 32 10-44 99-50 107 0 11-21 27-35 58-36 85-2 47 119 55 194h-31v-121c0-29-5-49-35-48" id="v"/><path fill="#333" d="M115-194c55 1 70 41 70 98S169 2 115 4C84 4 66-9 55-30l1 105H24l-1-265h31l2 30c10-21 28-34 59-34zm-8 174c40 0 45-34 45-75s-6-73-45-74c-42 0-51 32-51 76 0 43 10 73 51 73" id="w"/><path fill="#333" d="M84 4C-5 8 30-112 23-190h32v120c0 31 7 50 39 49 72-2 45-101 50-169h31l1 190h-30c-1-10 1-25-2-33-11 22-28 36-60 37" id="x"/><path fill="#333" d="M59-47c-2 24 18 29 38 22v24C64 9 27 4 27-40v-127H5v-23h24l9-43h21v43h35v23H59v120" id="y"/><path fill="#333" d="M100-194c63 0 86 42 84 106H49c0 40 14 67 53 68 26 1 43-12 49-29l28 8c-11 28-37 45-77 45C44 4 14-33 15-96c1-61 26-98 85-98zm52 81c6-60-76-77-97-28-3 7-6 17-6 28h103" id="z"/><path fill="#333" d="M85-194c31 0 48 13 60 33l-1-100h32l1 261h-30c-2-10 0-23-3-31C134-8 116 4 85 4 32 4 16-35 15-94c0-66 23-100 70-100zm9 24c-40 0-46 34-46 75 0 40 6 74 45 74 42 0 51-32 51-76 0-42-9-74-50-73" id="A"/><g id="a"><use transform="matrix(0.06172839506172839,0,0,0.06172839506172839,0,0)" xlink:href="#t"/><use transform="matrix(0.06172839506172839,0,0,0.06172839506172839,15.987654320987653,0)" xlink:href="#u"/><use transform="matrix(0.06172839506172839,0,0,0.06172839506172839,28.333333333333332,0)" xlink:href="#v"/><use transform="matrix(0.06172839506172839,0,0,0.06172839506172839,46.79012345679012,0)" xlink:href="#w"/><use transform="matrix(0.06172839506172839,0,0,0.06172839506172839,59.1358024691358,0)" xlink:href="#x"/><use transform="matrix(0.06172839506172839,0,0,0.06172839506172839,71.48148148148148,0)" xlink:href="#y"/><use transform="matrix(0.06172839506172839,0,0,0.06172839506172839,77.65432098765432,0)" xlink:href="#z"/><use transform="matrix(0.06172839506172839,0,0,0.06172839506172839,90,0)" xlink:href="#A"/></g><path fill="#333" d="M114-163C36-179 61-72 57 0H25l-1-190h30c1 12-1 29 2 39 6-27 23-49 58-41v29" id="B"/><path fill="#333" d="M24-231v-30h32v30H24zM24 0v-190h32V0H24" id="C"/><path fill="#333" d="M117-194c89-4 53 116 60 194h-32v-121c0-31-8-49-39-48C34-167 62-67 57 0H25l-1-190h30c1 10-1 24 2 32 11-22 29-35 61-36" id="D"/><path fill="#333" d="M177-190C167-65 218 103 67 71c-23-6-38-20-44-43l32-5c15 47 100 32 89-28v-30C133-14 115 1 83 1 29 1 15-40 15-95c0-56 16-97 71-98 29-1 48 16 59 35 1-10 0-23 2-32h30zM94-22c36 0 50-32 50-73 0-42-14-75-50-75-39 0-46 34-46 75s6 73 46 73" id="E"/><g id="b"><use transform="matrix(0.06172839506172839,0,0,0.06172839506172839,0,0)" xlink:href="#A"/><use transform="matrix(0.06172839506172839,0,0,0.06172839506172839,12.345679012345679,0)" xlink:href="#x"/><use transform="matrix(0.06172839506172839,0,0,0.06172839506172839,24.691358024691358,0)" xlink:href="#B"/><use transform="matrix(0.06172839506172839,0,0,0.06172839506172839,32.03703703703704,0)" xlink:href="#C"/><use transform="matrix(0.06172839506172839,0,0,0.06172839506172839,36.91358024691358,0)" xlink:href="#D"/><use transform="matrix(0.06172839506172839,0,0,0.06172839506172839,49.25925925925926,0)" xlink:href="#E"/></g><path fill="#333" d="M106-169C34-169 62-67 57 0H25v-261h32l-1 103c12-21 28-36 61-36 89 0 53 116 60 194h-32v-121c2-32-8-49-39-48" id="F"/><g id="c"><use transform="matrix(0.06172839506172839,0,0,0.06172839506172839,0,0)" xlink:href="#y"/><use transform="matrix(0.06172839506172839,0,0,0.06172839506172839,6.172839506172839,0)" xlink:href="#F"/><use transform="matrix(0.06172839506172839,0,0,0.06172839506172839,18.51851851851852,0)" xlink:href="#z"/></g><path fill="#333" d="M101-234c-31-9-42 10-38 44h38v23H63V0H32v-167H5v-23h27c-7-52 17-82 69-68v24" id="G"/><path fill="#333" d="M206 0h-36l-40-164L89 0H53L-1-190h32L70-26l43-164h34l41 164 42-164h31" id="H"/><path fill="#333" d="M141-36C126-15 110 5 73 4 37 3 15-17 15-53c-1-64 63-63 125-63 3-35-9-54-41-54-24 1-41 7-42 31l-33-3c5-37 33-52 76-52 45 0 72 20 72 64v82c-1 20 7 32 28 27v20c-31 9-61-2-59-35zM48-53c0 20 12 33 32 33 41-3 63-29 60-74-43 2-92-5-92 41" id="I"/><g id="d"><use transform="matrix(0.06172839506172839,0,0,0.06172839506172839,0,0)" xlink:href="#G"/><use transform="matrix(0.06172839506172839,0,0,0.06172839506172839,6.172839506172839,0)" xlink:href="#u"/><use transform="matrix(0.06172839506172839,0,0,0.06172839506172839,18.51851851851852,0)" xlink:href="#B"/><use transform="matrix(0.06172839506172839,0,0,0.06172839506172839,25.864197530864196,0)" xlink:href="#H"/><use transform="matrix(0.06172839506172839,0,0,0.06172839506172839,41.85185185185185,0)" xlink:href="#I"/><use transform="matrix(0.06172839506172839,0,0,0.06172839506172839,54.197530864197525,0)" xlink:href="#B"/><use transform="matrix(0.06172839506172839,0,0,0.06172839506172839,61.5432098765432,0)" xlink:href="#A"/></g><path fill="#333" d="M135-143c-3-34-86-38-87 0 15 53 115 12 119 90S17 21 10-45l28-5c4 36 97 45 98 0-10-56-113-15-118-90-4-57 82-63 122-42 12 7 21 19 24 35" id="J"/><g id="e"><use transform="matrix(0.06172839506172839,0,0,0.06172839506172839,0,0)" xlink:href="#w"/><use transform="matrix(0.06172839506172839,0,0,0.06172839506172839,12.345679012345679,0)" xlink:href="#I"/><use transform="matrix(0.06172839506172839,0,0,0.06172839506172839,24.691358024691358,0)" xlink:href="#J"/><use transform="matrix(0.06172839506172839,0,0,0.06172839506172839,35.80246913580247,0)" xlink:href="#J"/></g><g id="f"><use transform="matrix(0.06172839506172839,0,0,0.06172839506172839,0,0)" xlink:href="#I"/><use transform="matrix(0.06172839506172839,0,0,0.06172839506172839,12.345679012345679,0)" xlink:href="#D"/><use transform="matrix(0.06172839506172839,0,0,0.06172839506172839,24.691358024691358,0)" xlink:href="#A"/></g><g id="g"><use transform="matrix(0.06172839506172839,0,0,0.06172839506172839,0,0)" xlink:href="#J"/><use transform="matrix(0.06172839506172839,0,0,0.06172839506172839,11.11111111111111,0)" xlink:href="#y"/><use transform="matrix(0.06172839506172839,0,0,0.06172839506172839,17.28395061728395,0)" xlink:href="#u"/><use transform="matrix(0.06172839506172839,0,0,0.06172839506172839,29.629629629629626,0)" xlink:href="#B"/><use transform="matrix(0.06172839506172839,0,0,0.06172839506172839,36.9753086419753,0)" xlink:href="#z"/><use transform="matrix(0.06172839506172839,0,0,0.06172839506172839,49.32098765432098,0)" xlink:href="#A"/></g><g id="h"><use transform="matrix(0.06172839506172839,0,0,0.06172839506172839,0,0)" xlink:href="#C"/><use transform="matrix(0.06172839506172839,0,0,0.06172839506172839,4.876543209876543,0)" xlink:href="#D"/></g><g id="i"><use transform="matrix(0.06172839506172839,0,0,0.06172839506172839,0,0)" xlink:href="#y"/><use transform="matrix(0.06172839506172839,0,0,0.06172839506172839,6.172839506172839,0)" xlink:href="#F"/><use transform="matrix(0.06172839506172839,0,0,0.06172839506172839,18.51851851851852,0)" xlink:href="#z"/></g><g id="j"><use transform="matrix(0.06172839506172839,0,0,0.06172839506172839,0,0)" xlink:href="#E"/><use transform="matrix(0.06172839506172839,0,0,0.06172839506172839,12.345679012345679,0)" xlink:href="#B"/><use transform="matrix(0.06172839506172839,0,0,0.06172839506172839,19.691358024691358,0)" xlink:href="#I"/><use transform="matrix(0.06172839506172839,0,0,0.06172839506172839,32.03703703703704,0)" xlink:href="#w"/><use transform="matrix(0.06172839506172839,0,0,0.06172839506172839,44.382716049382715,0)" xlink:href="#F"/></g><path fill="#333" d="M179-190L93 31C79 59 56 82 12 73V49c39 6 53-20 64-50L1-190h34L92-34l54-156h33" id="K"/><g id="k"><use transform="matrix(0.06172839506172839,0,0,0.06172839506172839,0,0)" xlink:href="#v"/><use transform="matrix(0.06172839506172839,0,0,0.06172839506172839,18.456790123456788,0)" xlink:href="#z"/><use transform="matrix(0.06172839506172839,0,0,0.06172839506172839,30.80246913580247,0)" xlink:href="#v"/><use transform="matrix(0.06172839506172839,0,0,0.06172839506172839,49.25925925925925,0)" xlink:href="#u"/><use transform="matrix(0.06172839506172839,0,0,0.06172839506172839,61.60493827160493,0)" xlink:href="#B"/><use transform="matrix(0.06172839506172839,0,0,0.06172839506172839,68.9506172839506,0)" xlink:href="#K"/></g><path fill="#333" d="M115-194c53 0 69 39 70 98 0 66-23 100-70 100C84 3 66-7 56-30L54 0H23l1-261h32v101c10-23 28-34 59-34zm-8 174c40 0 45-34 45-75 0-40-5-75-45-74-42 0-51 32-51 76 0 43 10 73 51 73" id="L"/><path fill="#333" d="M96-169c-40 0-48 33-48 73s9 75 48 75c24 0 41-14 43-38l32 2c-6 37-31 61-74 61-59 0-76-41-82-99-10-93 101-131 147-64 4 7 5 14 7 22l-32 3c-4-21-16-35-41-35" id="M"/><path fill="#333" d="M143 0L79-87 56-68V0H24v-261h32v163l83-92h37l-77 82L181 0h-38" id="N"/><g id="l"><use transform="matrix(0.06172839506172839,0,0,0.06172839506172839,0,0)" xlink:href="#L"/><use transform="matrix(0.06172839506172839,0,0,0.06172839506172839,12.345679012345679,0)" xlink:href="#I"/><use transform="matrix(0.06172839506172839,0,0,0.06172839506172839,24.691358024691358,0)" xlink:href="#M"/><use transform="matrix(0.06172839506172839,0,0,0.06172839506172839,35.80246913580247,0)" xlink:href="#N"/><use transform="matrix(0.06172839506172839,0,0,0.06172839506172839,46.91358024691358,0)" xlink:href="#w"/><use transform="matrix(0.06172839506172839,0,0,0.06172839506172839,59.25925925925926,0)" xlink:href="#B"/><use transform="matrix(0.06172839506172839,0,0,0.06172839506172839,66.60493827160494,0)" xlink:href="#u"/><use transform="matrix(0.06172839506172839,0,0,0.06172839506172839,78.95061728395062,0)" xlink:href="#w"/><use transform="matrix(0.06172839506172839,0,0,0.06172839506172839,91.2962962962963,0)" xlink:href="#I"/><use transform="matrix(0.06172839506172839,0,0,0.06172839506172839,103.64197530864199,0)" xlink:href="#E"/><use transform="matrix(0.06172839506172839,0,0,0.06172839506172839,115.98765432098767,0)" xlink:href="#I"/><use transform="matrix(0.06172839506172839,0,0,0.06172839506172839,128.33333333333334,0)" xlink:href="#y"/><use transform="matrix(0.06172839506172839,0,0,0.06172839506172839,134.50617283950618,0)" xlink:href="#C"/><use transform="matrix(0.06172839506172839,0,0,0.06172839506172839,139.3827160493827,0)" xlink:href="#u"/><use transform="matrix(0.06172839506172839,0,0,0.06172839506172839,151.72839506172838,0)" xlink:href="#D"/></g><g id="m"><use transform="matrix(0.06172839506172839,0,0,0.06172839506172839,0,0)" xlink:href="#J"/><use transform="matrix(0.06172839506172839,0,0,0.06172839506172839,11.11111111111111,0)" xlink:href="#y"/><use transform="matrix(0.06172839506172839,0,0,0.06172839506172839,17.28395061728395,0)" xlink:href="#I"/><use transform="matrix(0.06172839506172839,0,0,0.06172839506172839,29.629629629629626,0)" xlink:href="#E"/><use transform="matrix(0.06172839506172839,0,0,0.06172839506172839,41.9753086419753,0)" xlink:href="#z"/></g><g id="n"><use transform="matrix(0.06172839506172839,0,0,0.06172839506172839,0,0)" xlink:href="#x"/><use transform="matrix(0.06172839506172839,0,0,0.06172839506172839,12.345679012345679,0)" xlink:href="#J"/><use transform="matrix(0.06172839506172839,0,0,0.06172839506172839,23.45679012345679,0)" xlink:href="#C"/><use transform="matrix(0.06172839506172839,0,0,0.06172839506172839,28.333333333333336,0)" xlink:href="#D"/><use transform="matrix(0.06172839506172839,0,0,0.06172839506172839,40.67901234567901,0)" xlink:href="#E"/></g><path fill="#333" d="M30 0v-248h33v221h125V0H30" id="O"/><g id="o"><use transform="matrix(0.06172839506172839,0,0,0.06172839506172839,0,0)" xlink:href="#O"/><use transform="matrix(0.06172839506172839,0,0,0.06172839506172839,12.345679012345679,0)" xlink:href="#u"/><use transform="matrix(0.06172839506172839,0,0,0.06172839506172839,24.691358024691358,0)" xlink:href="#J"/><use transform="matrix(0.06172839506172839,0,0,0.06172839506172839,35.80246913580247,0)" xlink:href="#J"/></g><g id="p"><use transform="matrix(0.06172839506172839,0,0,0.06172839506172839,0,0)" xlink:href="#I"/><use transform="matrix(0.06172839506172839,0,0,0.06172839506172839,12.345679012345679,0)" xlink:href="#D"/><use transform="matrix(0.06172839506172839,0,0,0.06172839506172839,24.691358024691358,0)" xlink:href="#A"/></g><path fill="#333" d="M108 0H70L1-190h34L89-25l56-165h34" id="P"/><path fill="#333" d="M24 0v-261h32V0H24" id="Q"/><g id="q"><use transform="matrix(0.06172839506172839,0,0,0.06172839506172839,0,0)" xlink:href="#P"/><use transform="matrix(0.06172839506172839,0,0,0.06172839506172839,11.11111111111111,0)" xlink:href="#I"/><use transform="matrix(0.06172839506172839,0,0,0.06172839506172839,23.45679012345679,0)" xlink:href="#Q"/><use transform="matrix(0.06172839506172839,0,0,0.06172839506172839,28.333333333333336,0)" xlink:href="#x"/><use transform="matrix(0.06172839506172839,0,0,0.06172839506172839,40.67901234567901,0)" xlink:href="#z"/><use transform="matrix(0.06172839506172839,0,0,0.06172839506172839,53.02469135802469,0)" xlink:href="#J"/></g><path fill="#333" d="M143 4C61 4 22-44 18-125c-5-107 100-154 193-111 17 8 29 25 37 43l-32 9c-13-25-37-40-76-40-61 0-88 39-88 99 0 61 29 100 91 101 35 0 62-11 79-27v-45h-74v-28h105v86C228-13 192 4 143 4" id="R"/><g id="r"><use transform="matrix(0.06172839506172839,0,0,0.06172839506172839,0,0)" xlink:href="#R"/><use transform="matrix(0.06172839506172839,0,0,0.06172839506172839,17.28395061728395,0)" xlink:href="#B"/><use transform="matrix(0.06172839506172839,0,0,0.06172839506172839,24.629629629629626,0)" xlink:href="#I"/><use transform="matrix(0.06172839506172839,0,0,0.06172839506172839,36.9753086419753,0)" xlink:href="#A"/><use transform="matrix(0.06172839506172839,0,0,0.06172839506172839,49.32098765432098,0)" xlink:href="#C"/><use transform="matrix(0.06172839506172839,0,0,0.06172839506172839,54.197530864197525,0)" xlink:href="#z"/><use transform="matrix(0.06172839506172839,0,0,0.06172839506172839,66.5432098765432,0)" xlink:href="#D"/><use transform="matrix(0.06172839506172839,0,0,0.06172839506172839,78.88888888888889,0)" xlink:href="#y"/></g><g id="s"><use transform="matrix(0.06172839506172839,0,0,0.06172839506172839,0,0)" xlink:href="#G"/><use transform="matrix(0.06172839506172839,0,0,0.06172839506172839,6.172839506172839,0)" xlink:href="#Q"/><use transform="matrix(0.06172839506172839,0,0,0.06172839506172839,11.049382716049383,0)" xlink:href="#u"/><use transform="matrix(0.06172839506172839,0,0,0.06172839506172839,23.395061728395063,0)" xlink:href="#H"/></g></defs></g></svg>