<svg xmlns="http://www.w3.org/2000/svg" xmlns:xlink="http://www.w3.org/1999/xlink" xmlns:lucid="lucid" width="1493" height="1081"><g transform="translate(-227 -1591)" lucid:page-tab-id="0_0"><path d="M1090.08 1726c0-3.3 2.7-6 6-6h597.27c3.3 0 6 2.7 6 6v97.48c0 3.3-2.7 6-6 6h-597.27c-3.3 0-6-2.7-6-6z" stroke="#5e5e5e" stroke-width="3" fill="#edf5ff"/><path d="M1080 1731.97h249.26v97.5H1080z" fill="none"/><use xlink:href="#a" transform="matrix(1,0,0,1,1080,1731.9747493559394) translate(35.38271604938272 36.55555555555556)"/><use xlink:href="#b" transform="matrix(1,0,0,1,1080,1731.9747493559394) translate(37.06790123456793 73.88888888888889)"/><use xlink:href="#c" transform="matrix(1,0,0,1,1080,1731.9747493559394) translate(131.9567901234568 73.88888888888889)"/><path d="M604.2 2468.64c0 103.27-80.58 187-180 187-99.4 0-180-83.73-180-187 0-103.26 80.6-186.98 180-186.98 99.42 0 180 83.72 180 186.98zM1110.08 2008.5c0 103.27-80.6 187-180 187s-180-83.73-180-187c0-103.26 80.6-186.98 180-186.98s180 83.72 180 187z" stroke="#5e5e5e" stroke-width="3" fill="#c3f7c8"/><path d="M492.3 1716.8l283.46 151.14M492.34 1716.83l-2.26-1.2" stroke="#5e5e5e" stroke-width="5" fill="none"/><path d="M790.55 1875.83l-14.77-2.63 4.36-8.18z" stroke="#5e5e5e" stroke-width="5" fill="#5e5e5e"/><path d="M781.3 2156.26l-215.5 190.5" stroke="#5e5e5e" stroke-width="5" fill="none"/><path d="M793.85 2145.16l-7.6 12.92-6.15-6.94z" stroke="#5e5e5e" stroke-width="5" fill="#5e5e5e"/><path d="M567.5 2348.58l-2 1.78-3.12-3.92 1.82-1.6z" stroke="#5e5e5e" stroke-width=".05" fill="#5e5e5e"/><path d="M587.97 1795.63h69.78v46.94h-69.78z" fill="#fff" fill-opacity="0"/><path d="M618.1 1802.55l-4.53 16.4c-.34 1.3-.68 2.6-.68 3.97 0 2.2 1.07 3.46 3.34 3.46 6.13 0 9.3-6.52 11.06-11.52.46-1.36.86-2.78.86-4.2 0-4.2-3.35-3.74-3.47-6.2-.12-2.03 1.7-2.37 3.06-2.37 2.38 0 2.67 2.9 2.67 4.7 0 8.3-5.96 21.8-15.67 21.8-3.92 0-6.3-1.6-6.3-5.68 0-2.38.68-4.82 1.3-7.1-2.26 5.06-6.92 12.78-13.28 12.78-3.17 0-4.42-1.93-4.42-4.94 0-1.87.62-3.63 1.08-5.4l2.66-10.04c.17-.5.3-1.08.3-1.64 0-1.37-2.17-1.25-3.08-1.25v-.86c3-.5 5.96-1.3 8.8-2.5l.23.18-4.6 17.42c-.17.74-.62 2.56-.62 4.15 0 1.47.34 2.66 1.58 2.66 3.3-.05 7.34-6.47 8.7-8.57 3-4.58 4.48-9 6.24-15.25h4.77M647.76 1836.63H636.7v-.6c2.96-.16 3.8-1 3.8-3.2v-18.03c0-1.36-.36-1.96-1.2-1.96-.4 0-1.1.2-1.8.48l-1.1.4v-.56l7.2-3.65.35.13v23.95c0 1.73.8 2.45 3.8 2.45v.6"/><path d="M810.08 1892.36h156.36v68.83H810.08z" fill="#fff3d9"/><path d="M814.73 1928.06h51.33v-2.32h-51.33zM830.84 1897.74l-.27-.55c.76-.47 1.75-.64 2.68-.64 3.45 0 5.15 2.47 5.15 7.12 0 4.05-1.67 11.48-8.08 11.48-2.7 0-3.73-2.1-3.73-4.44 0-3.86 3.03-7.78 7.03-7.78.88 0 2.06.3 2.63 1.32.1-.6.2-1.26.2-1.92 0-2.4-.8-4.96-3.6-4.96-.73 0-1.34.14-2.02.36m4.7 8.38c0-1.78-.92-2.36-1.66-2.36-2.7 0-5.07 4.08-5.07 7.9 0 1.03.12 2.67 1.85 2.67 2.1 0 3.72-2.73 4.5-5.53.24-.9.4-1.83.4-2.68M845.2 1902.9h1c1.73 0 1.6-2.12 2.77-3.87.85-1.3 2.03-2.47 4.1-2.47 1.38 0 2.17.66 2.17 1.62 0 .76-.57 1.1-1.12 1.1-.77 0-.96-.3-.96-.7 0-.38.25-.8.25-1 0-.14-.08-.22-.4-.22-1.37 0-2.44 1.47-3.02 3.6l-.52 1.93h2.2l-.34 1.03h-2.08l-2.16 8.38c-.2.75-.4 1.8-.82 2.8-.9 2.27-2.38 4.88-4.8 4.88-1.3 0-1.97-.66-1.97-1.48 0-.66.38-1.34 1.17-1.34.74 0 1 .5 1 .9 0 .52-.42.55-.42.88 0 .16.16.24.4.24 1.8 0 2.6-4.32 3.02-5.9l2.38-9.35h-2.1M822.4 1935.04l-.28-.55c.77-.47 1.75-.64 2.68-.64 3.46 0 5.15 2.47 5.15 7.12 0 4.06-1.67 11.48-8.08 11.48-2.68 0-3.72-2.1-3.72-4.44 0-3.86 3.04-7.78 7.04-7.78.86 0 2.04.3 2.62 1.32.1-.6.2-1.26.2-1.92 0-2.4-.8-4.95-3.6-4.95-.74 0-1.34.12-2.03.34m4.7 8.38c0-1.78-.93-2.35-1.67-2.35-2.7 0-5.06 4.08-5.06 7.88 0 1.04.1 2.7 1.83 2.7 2.1 0 3.73-2.75 4.5-5.54.24-.9.4-1.83.4-2.68M844.5 1939.83l-2.2 7.92c-.16.63-.32 1.26-.32 1.92 0 1.06.52 1.67 1.6 1.67 2.97 0 4.5-3.15 5.35-5.56.22-.66.4-1.35.4-2.03 0-2.03-1.6-1.8-1.66-2.98-.05-1 .82-1.16 1.48-1.16 1.15 0 1.3 1.4 1.3 2.3 0 4-2.9 10.5-7.57 10.5-1.9 0-3.04-.76-3.04-2.73 0-1.15.33-2.33.63-3.43-1.1 2.44-3.34 6.16-6.4 6.16-1.54 0-2.14-.93-2.14-2.38 0-.9.3-1.75.52-2.6l1.28-4.85c.08-.24.14-.52.14-.8 0-.65-1.04-.6-1.48-.6v-.4c1.44-.25 2.87-.63 4.24-1.2l.1.07-2.2 8.4c-.1.37-.3 1.24-.3 2 0 .72.15 1.3.75 1.3 1.58-.03 3.53-3.13 4.18-4.14 1.45-2.22 2.17-4.35 3.02-7.37h2.3M858.94 1956.28h-5.42v-.3c1.45-.07 1.87-.48 1.87-1.56v-8.82c0-.67-.2-.96-.6-.96-.2 0-.53.1-.9.23l-.52.2v-.28l3.52-1.8.18.06v11.73c0 .83.4 1.2 1.86 1.2v.28M906.15 1924.2h-22.82v-2.57h22.82v2.56m0 7.74h-22.82v-2.56h22.82v2.56M939.38 1919.15l-3.1 11.2c-.23.9-.46 1.78-.46 2.7 0 1.52.74 2.37 2.28 2.37 4.2 0 6.36-4.45 7.56-7.86.3-.93.58-1.9.58-2.87 0-2.87-2.3-2.56-2.36-4.23-.08-1.4 1.16-1.63 2.1-1.63 1.6 0 1.8 1.98 1.8 3.22 0 5.66-4.06 14.87-10.68 14.87-2.68 0-4.3-1.08-4.3-3.87 0-1.63.46-3.3.9-4.84-1.56 3.45-4.74 8.7-9.08 8.7-2.16 0-3.02-1.3-3.02-3.36 0-1.27.43-2.47.74-3.68l1.82-6.85c.12-.35.2-.74.2-1.12 0-.92-1.48-.85-2.1-.85v-.58c2.05-.35 4.07-.9 6-1.7l.16.1-3.14 11.9c-.1.5-.42 1.75-.42 2.83 0 1 .23 1.82 1.08 1.82 2.25-.03 5-4.4 5.93-5.85 2.05-3.13 3.06-6.15 4.26-10.42h3.25M961.8 1938.67l-1.47 3.75h-10.7v-.33l4.87-5.2c2.57-2.7 3.56-4.78 3.56-7.1 0-2.5-1.48-3.87-3.8-3.87-1.98 0-2.94.88-4.03 3.56l-.58-.14c.58-3.2 2.33-5.45 5.7-5.45 3.1 0 5.06 2.1 5.06 4.83 0 2.16-1.05 4.2-3.5 6.8l-4.5 4.8h6.4c1.15 0 1.72-.3 2.63-1.83"/><path d="M1090.08 2108.45h201.3V2214h-201.3z" fill="#fff3d9"/><path d="M1097.76 2159.3h61.03v-3.83h-61.04zM1110.42 2117.16l-.46-.9c1.27-.77 2.9-1.04 4.44-1.04 5.7 0 8.5 4.07 8.5 11.76 0 6.7-2.76 18.95-13.34 18.95-4.44 0-6.15-3.5-6.15-7.33 0-6.38 5.03-12.84 11.63-12.84 1.45 0 3.4.5 4.34 2.17.18-1 .32-2.08.32-3.17 0-3.98-1.32-8.2-5.94-8.2-1.22 0-2.2.24-3.34.6m7.77 13.84c0-2.94-1.54-3.9-2.76-3.9-4.48 0-8.37 6.75-8.37 13.04 0 1.72.18 4.43 3.03 4.43 3.48 0 6.15-4.52 7.42-9.14.4-1.5.67-3.03.67-4.43M1153.1 2136.84l-2.75 8.6h-25.73l.18-.73h.77c3.4 0 4.47-1.26 4.84-2.8l5.34-21.57c.18-.73.32-1.63.32-2.04 0-.87-.63-1.68-3.44-1.68h-.8l.17-.72h14.78l-.18.72h-.82c-3.4 0-4.34 1.18-4.75 2.85l-5.5 21.75c-.2.68-.24 1.3-.24 1.4 0 1 1.26 1.1 1.8 1.1h5.52c4.6 0 6.92-1 9-5.2.3-.5.54-1.05.77-1.68h.7M1112.46 2170.83l-.45-.9c1.28-.77 2.9-1.04 4.44-1.04 5.7 0 8.5 4.06 8.5 11.75 0 6.7-2.75 18.95-13.34 18.95-4.43 0-6.15-3.48-6.15-7.33 0-6.38 5.02-12.84 11.63-12.84 1.44 0 3.4.5 4.34 2.17.18-1 .3-2.08.3-3.17 0-3.98-1.3-8.18-5.9-8.18-1.23 0-2.23.22-3.36.58m7.78 13.84c0-2.94-1.54-3.9-2.76-3.9-4.47 0-8.36 6.75-8.36 13.04 0 1.73.18 4.44 3.03 4.44 3.48 0 6.15-4.52 7.4-9.13.42-1.5.7-3.02.7-4.43M1136.16 2179.34h1.68c2.84 0 2.62-3.5 4.56-6.38 1.4-2.13 3.35-4.07 6.8-4.07 2.25 0 3.56 1.07 3.56 2.66 0 1.26-.95 1.8-1.85 1.8-1.26 0-1.58-.5-1.58-1.12 0-.64.4-1.32.4-1.68 0-.22-.13-.36-.67-.36-2.26 0-4.02 2.44-4.97 5.97l-.86 3.17h3.62l-.55 1.72h-3.44l-3.58 13.83c-.3 1.22-.68 2.93-1.35 4.6-1.5 3.76-3.94 8.06-7.92 8.06-2.16 0-3.25-1.1-3.25-2.44 0-1.1.64-2.22 1.95-2.22 1.22 0 1.67.8 1.67 1.5 0 .85-.72.9-.72 1.44 0 .27.27.4.68.4 2.94 0 4.3-7.14 4.97-9.72l3.94-15.46h-3.48M1225 2152.9h-37.68v-4.2H1225v4.2m0 12.8h-37.68v-4.2H1225v4.2M1291.33 2145.3v1.02c-6.14.84-7.74 7.94-9.02 13.63-1.84 8.2-9.2 14.14-17.13 14.14l-2.7 11h-5.17l2.75-11h-.64c-4.98 0-9.77-2.63-9.77-10.57 0-3.58 2.04-7.42 2.04-11.7 0-2.56-.9-5.2-3.9-5.5l.32-1.03c1.2-.13 2.36-.13 3.5-.13 3.65 0 5.64 3.46 5.64 7.1 0 3.6-2 8.13-2 11.84 0 4.8 2.06 7.62 5.32 8.07l6.4-26.17h5.18l-6.4 26.17c4.68-.9 9.28-5 10.88-11.96 1.8-7.67 3.26-14.9 13.05-14.9h1.66"/><path d="M810.08 2075.63h157.05v69.13H810.08z" fill="#fff3d9"/><path d="M814.75 2111.5h51.55v-2.35h-51.55zM830.93 2081.03l-.27-.55c.77-.47 1.76-.64 2.7-.64 3.46 0 5.16 2.48 5.16 7.16 0 4.07-1.68 11.52-8.1 11.52-2.7 0-3.75-2.12-3.75-4.45 0-3.88 3.05-7.82 7.07-7.82.88 0 2.06.3 2.64 1.32.1-.6.2-1.26.2-1.92 0-2.42-.8-4.98-3.6-4.98-.76 0-1.36.14-2.05.36m4.73 8.4c0-1.77-.93-2.35-1.68-2.35-2.72 0-5.1 4.1-5.1 7.92 0 1.05.12 2.7 1.86 2.7 2.12 0 3.74-2.75 4.5-5.56.26-.9.42-1.84.42-2.7M845.34 2086.2h1.02c1.73 0 1.6-2.12 2.78-3.88.85-1.3 2.04-2.48 4.13-2.48 1.37 0 2.17.67 2.17 1.63 0 .77-.58 1.1-1.13 1.1-.76 0-.95-.3-.95-.7 0-.37.25-.8.25-1 0-.14-.1-.23-.42-.23-1.37 0-2.44 1.5-3.02 3.63l-.53 1.93h2.2l-.32 1.04h-2.1l-2.16 8.42c-.2.74-.4 1.8-.82 2.8-.9 2.3-2.4 4.9-4.82 4.9-1.32 0-1.98-.66-1.98-1.48 0-.66.4-1.35 1.2-1.35.73 0 1 .5 1 .9 0 .53-.44.56-.44.9 0 .15.17.24.42.24 1.78 0 2.6-4.35 3.02-5.92l2.4-9.4h-2.12M822.45 2118.5l-.28-.56c.77-.46 1.76-.63 2.7-.63 3.47 0 5.17 2.5 5.17 7.16 0 4.07-1.68 11.53-8.1 11.53-2.7 0-3.75-2.13-3.75-4.47 0-3.88 3.04-7.8 7.05-7.8.88 0 2.07.3 2.65 1.3.1-.6.2-1.25.2-1.9 0-2.44-.8-5-3.62-5-.74 0-1.34.14-2.03.36m4.73 8.4c0-1.78-.94-2.35-1.68-2.35-2.72 0-5.1 4.1-5.1 7.92 0 1.04.12 2.7 1.86 2.7 2.1 0 3.74-2.76 4.5-5.56.25-.9.42-1.84.42-2.7M844.65 2123.3l-2.2 7.96c-.17.63-.33 1.26-.33 1.92 0 1.08.52 1.68 1.62 1.68 2.97 0 4.5-3.16 5.36-5.58.22-.66.42-1.35.42-2.04 0-2.03-1.63-1.8-1.68-3-.06-1 .82-1.15 1.48-1.15 1.16 0 1.3 1.4 1.3 2.27 0 4.02-2.9 10.56-7.6 10.56-1.9 0-3.05-.77-3.05-2.75 0-1.15.33-2.34.63-3.44-1.1 2.45-3.35 6.2-6.43 6.2-1.54 0-2.15-.94-2.15-2.4 0-.9.3-1.76.52-2.6l1.3-4.88c.08-.25.13-.52.13-.8 0-.66-1.04-.6-1.48-.6v-.42c1.45-.24 2.88-.63 4.25-1.2l.1.08-2.22 8.44c-.08.36-.3 1.24-.3 2 0 .72.17 1.3.77 1.3 1.6-.03 3.55-3.13 4.2-4.15 1.47-2.22 2.18-4.37 3.04-7.4h2.3M860.73 2137.13l-1.06 2.7h-7.7v-.24l3.5-3.74c1.85-1.95 2.56-3.45 2.56-5.13 0-1.8-1.06-2.78-2.74-2.78-1.43 0-2.12.63-2.9 2.57l-.42-.1c.4-2.3 1.67-3.93 4.1-3.93 2.23 0 3.65 1.5 3.65 3.47 0 1.55-.77 3.03-2.53 4.9l-3.25 3.46h4.6c.84 0 1.26-.22 1.9-1.32M906.57 2107.6h-22.92v-2.57h22.92v2.57m0 7.78h-22.92v-2.57h22.92v2.58M939.95 2102.54l-3.1 11.24c-.25.9-.48 1.8-.48 2.73 0 1.52.74 2.38 2.3 2.38 4.2 0 6.38-4.48 7.58-7.9.3-.93.6-1.9.6-2.88 0-2.88-2.3-2.57-2.4-4.24-.06-1.4 1.18-1.63 2.1-1.63 1.65 0 1.84 1.98 1.84 3.23 0 5.68-4.1 14.94-10.74 14.94-2.7 0-4.32-1.1-4.32-3.9 0-1.63.46-3.3.9-4.86-1.56 3.46-4.76 8.76-9.1 8.76-2.2 0-3.05-1.33-3.05-3.4 0-1.27.42-2.48.73-3.7l1.83-6.87c.12-.35.2-.74.2-1.13 0-.93-1.48-.86-2.1-.86v-.58c2.06-.35 4.08-.9 6.02-1.7l.16.1-3.15 11.95c-.13.52-.44 1.76-.44 2.85 0 1 .23 1.83 1.1 1.83 2.25-.04 5-4.44 5.94-5.88 2.06-3.15 3.08-6.18 4.28-10.46h3.27M960.28 2125.9h-7.6v-.4c2.04-.12 2.62-.7 2.62-2.2v-12.36c0-.93-.25-1.35-.83-1.35-.27 0-.74.13-1.24.32l-.74.28v-.4l4.92-2.5.24.1v16.4c0 1.2.55 1.7 2.62 1.7v.4"/><path d="M1114.08 2008.5h291.15" stroke="#5e5e5e" stroke-width="5" fill="none"/><path d="M1114.15 2011h-2.62l.05-2.5-.02-2.5h2.6z" stroke="#5e5e5e" stroke-width=".05" fill="#5e5e5e"/><path d="M1422 2008.5l-14.27 4.64v-9.27z" stroke="#5e5e5e" stroke-width="5" fill="#fff"/><path d="M430.08 1882.9H732.3v85.25H430.08z" fill="#fff3d9"/><path d="M435.84 1927.1h63.58v-2.87h-63.58zM454.2 1895.5l-.33-.68c.95-.58 2.17-.78 3.33-.78 4.27 0 6.37 3.05 6.37 8.82 0 5.02-2.06 14.2-10 14.2-3.33 0-4.62-2.6-4.62-5.48 0-4.8 3.77-9.64 8.72-9.64 1.1 0 2.55.38 3.26 1.63.13-.74.24-1.56.24-2.37 0-3-1-6.14-4.45-6.14-.9 0-1.66.17-2.5.44m5.83 10.38c0-2.2-1.16-2.92-2.07-2.92-3.36 0-6.28 5.06-6.28 9.77 0 1.3.14 3.33 2.27 3.33 2.62 0 4.62-3.4 5.57-6.86.3-1.12.5-2.27.5-3.32M486.24 1910.25l-2.07 6.45h-19.3l.13-.54h.58c2.54 0 3.35-.95 3.63-2.1l4-16.2c.14-.53.25-1.2.25-1.5 0-.66-.48-1.27-2.58-1.27h-.6l.12-.55h11.1l-.15.54h-.6c-2.55 0-3.27.87-3.57 2.13l-4.14 16.32c-.14.5-.17.98-.17 1.05 0 .74.95.8 1.36.8h4.14c3.46 0 5.2-.74 6.75-3.9.23-.36.4-.77.57-1.25h.54M445.33 1935.76l-.33-.68c.94-.58 2.17-.78 3.32-.78 4.27 0 6.38 3.05 6.38 8.82 0 5.02-2.07 14.2-10 14.2-3.33 0-4.62-2.6-4.62-5.48 0-4.8 3.76-9.64 8.7-9.64 1.1 0 2.56.37 3.27 1.63.14-.75.24-1.56.24-2.37 0-3-1-6.14-4.46-6.14-.9 0-1.66.16-2.5.44m5.83 10.38c0-2.2-1.15-2.92-2.07-2.92-3.36 0-6.28 5.05-6.28 9.77 0 1.28.14 3.3 2.28 3.3 2.6 0 4.6-3.38 5.56-6.84.3-1.12.5-2.27.5-3.32M472.7 1941.7l-2.7 9.8c-.2.78-.4 1.56-.4 2.37 0 1.32.64 2.07 2 2.07 3.66 0 5.56-3.9 6.6-6.9.28-.8.52-1.65.52-2.5 0-2.5-2-2.23-2.07-3.7-.07-1.2 1-1.42 1.83-1.42 1.42 0 1.6 1.73 1.6 2.82 0 4.95-3.57 13.02-9.37 13.02-2.33 0-3.76-.95-3.76-3.4 0-1.4.4-2.87.78-4.23-1.35 3.02-4.13 7.63-7.93 7.63-1.9 0-2.66-1.15-2.66-2.95 0-1.1.37-2.16.64-3.2l1.6-6c.1-.32.17-.66.17-1 0-.8-1.3-.74-1.83-.74v-.5c1.8-.32 3.56-.8 5.26-1.5l.13.1-2.74 10.4c-.1.45-.37 1.54-.37 2.5 0 .87.2 1.58.94 1.58 1.97-.03 4.38-3.87 5.2-5.12 1.8-2.75 2.67-5.4 3.72-9.13h2.85M490.6 1962.07h-6.7v-.37c1.8-.1 2.3-.6 2.3-1.94v-10.93c0-.82-.22-1.2-.73-1.2-.24 0-.65.13-1.1.3l-.65.25v-.34l4.36-2.22.2.08v14.52c0 1.05.5 1.48 2.33 1.48v.37M549.08 1922.3h-28.26v-3.15h28.26v3.16m0 9.6h-28.26v-3.16h28.26v3.17M570.48 1927.1h45.78v-2.87h-45.78zM579.98 1895.5l-.34-.68c.95-.58 2.17-.78 3.32-.78 4.28 0 6.38 3.05 6.38 8.82 0 5.02-2.07 14.2-10 14.2-3.33 0-4.62-2.6-4.62-5.48 0-4.8 3.77-9.64 8.72-9.64 1.08 0 2.54.38 3.25 1.63.13-.74.23-1.56.23-2.37 0-3-.98-6.14-4.44-6.14-.93 0-1.67.17-2.52.44m5.83 10.38c0-2.2-1.14-2.92-2.06-2.92-3.36 0-6.27 5.06-6.27 9.77 0 1.3.13 3.33 2.27 3.33 2.6 0 4.6-3.4 5.56-6.86.3-1.12.5-2.27.5-3.32M612 1910.25l-2.07 6.45h-19.3l.14-.54h.57c2.55 0 3.36-.95 3.63-2.1l4-16.2c.14-.53.24-1.2.24-1.5 0-.66-.46-1.27-2.57-1.27h-.6l.13-.55h11.1l-.14.54h-.6c-2.56 0-3.27.87-3.58 2.13l-4.13 16.32c-.13.5-.16.98-.16 1.05 0 .74.95.8 1.35.8h4.13c3.46 0 5.2-.74 6.75-3.9.24-.36.4-.77.58-1.25h.54M581.5 1935.76l-.33-.68c.95-.58 2.18-.78 3.33-.78 4.27 0 6.38 3.05 6.38 8.82 0 5.02-2.07 14.2-10 14.2-3.34 0-4.63-2.6-4.63-5.48 0-4.8 3.77-9.64 8.72-9.64 1.1 0 2.55.37 3.26 1.63.14-.75.24-1.56.24-2.37 0-3-1-6.14-4.45-6.14-.9 0-1.66.16-2.5.44m5.83 10.38c0-2.2-1.16-2.92-2.07-2.92-3.36 0-6.28 5.05-6.28 9.77 0 1.28.14 3.3 2.28 3.3 2.6 0 4.6-3.38 5.56-6.84.3-1.12.5-2.27.5-3.32M599.3 1942.13h1.25c2.13 0 1.96-2.6 3.42-4.78 1.05-1.6 2.5-3.05 5.1-3.05 1.7 0 2.67.8 2.67 2 0 .95-.7 1.36-1.4 1.36-.94 0-1.18-.38-1.18-.85s.3-.98.3-1.25c0-.17-.1-.27-.5-.27-1.7 0-3.02 1.83-3.73 4.48l-.65 2.37h2.72l-.4 1.3h-2.6l-2.67 10.37c-.24.92-.5 2.2-1.02 3.46-1.1 2.82-2.94 6.04-5.92 6.04-1.63 0-2.45-.8-2.45-1.83 0-.8.48-1.66 1.46-1.66.9 0 1.25.62 1.25 1.13 0 .64-.55.68-.55 1.08 0 .22.2.32.5.32 2.22 0 3.24-5.36 3.75-7.3l2.95-11.6h-2.62M642.46 1925.53c0 1.53-1.3 2.88-2.83 2.88-1.6 0-2.93-1.43-2.93-2.87 0-1.44 1.34-2.88 2.93-2.88 1.53 0 2.83 1.34 2.83 2.88M662.9 1927.1h63.58v-2.87H662.9zM682.86 1889.55l-.34-.68c.95-.58 2.17-.78 3.32-.78 4.28 0 6.38 3.04 6.38 8.8 0 5.03-2.07 14.22-10 14.22-3.33 0-4.62-2.6-4.62-5.5 0-4.78 3.76-9.63 8.72-9.63 1.08 0 2.54.37 3.25 1.62.14-.74.24-1.56.24-2.37 0-3-.97-6.14-4.43-6.14-.92 0-1.67.18-2.5.45m5.82 10.38c0-2.2-1.16-2.92-2.08-2.92-3.36 0-6.27 5.07-6.27 9.78 0 1.3.13 3.33 2.27 3.33 2.6 0 4.6-3.4 5.56-6.85.3-1.12.5-2.27.5-3.32M700.63 1895.93h1.26c2.12 0 1.96-2.62 3.4-4.8 1.07-1.58 2.52-3.04 5.1-3.04 1.7 0 2.68.8 2.68 2 0 .94-.7 1.35-1.4 1.35-.94 0-1.18-.38-1.18-.85 0-.48.3-.98.3-1.26 0-.17-.1-.27-.5-.27-1.7 0-3.02 1.83-3.73 4.48l-.65 2.38h2.72l-.4 1.28h-2.6l-2.67 10.4c-.23.9-.5 2.2-1 3.46-1.13 2.8-2.97 6.03-5.95 6.03-1.63 0-2.44-.82-2.44-1.84 0-.8.47-1.66 1.45-1.66.92 0 1.26.6 1.26 1.12 0 .64-.55.68-.55 1.1 0 .2.2.3.5.3 2.2 0 3.23-5.37 3.74-7.3l2.94-11.6h-2.6M672.4 1935.76l-.34-.68c.95-.58 2.17-.78 3.32-.78 4.28 0 6.38 3.05 6.38 8.82 0 5.02-2.07 14.2-10 14.2-3.33 0-4.62-2.6-4.62-5.48 0-4.8 3.76-9.64 8.72-9.64 1.08 0 2.54.37 3.25 1.63.15-.75.25-1.56.25-2.37 0-3-.98-6.14-4.44-6.14-.9 0-1.66.16-2.5.44m5.83 10.38c0-2.2-1.15-2.92-2.07-2.92-3.36 0-6.28 5.05-6.28 9.77 0 1.28.14 3.3 2.28 3.3 2.6 0 4.6-3.38 5.56-6.84.3-1.12.5-2.27.5-3.32M699.77 1941.7l-2.7 9.8c-.2.78-.42 1.56-.42 2.37 0 1.32.65 2.07 2 2.07 3.67 0 5.57-3.9 6.62-6.9.27-.8.5-1.65.5-2.5 0-2.5-2-2.23-2.06-3.7-.06-1.2 1.03-1.42 1.84-1.42 1.42 0 1.6 1.73 1.6 2.82 0 4.95-3.57 13.02-9.37 13.02-2.34 0-3.76-.95-3.76-3.4 0-1.4.4-2.87.8-4.23-1.37 3.02-4.15 7.63-7.95 7.63-1.9 0-2.65-1.15-2.65-2.95 0-1.1.37-2.16.65-3.2l1.6-6c.1-.32.16-.66.16-1 0-.8-1.28-.74-1.82-.74v-.5c1.8-.32 3.56-.8 5.26-1.5l.13.1-2.75 10.4c-.1.45-.37 1.54-.37 2.5 0 .87.2 1.58.95 1.58 1.97-.03 4.38-3.87 5.2-5.12 1.8-2.75 2.67-5.4 3.72-9.13h2.85M717.67 1962.07h-6.72v-.37c1.8-.1 2.3-.6 2.3-1.94v-10.93c0-.82-.2-1.2-.72-1.2-.24 0-.65.13-1.1.3l-.65.25v-.34l4.36-2.22.22.08v14.52c0 1.05.48 1.48 2.3 1.48v.37"/><path d="M430.08 2075.63H732.3v85.26H430.08z" fill="#fff3d9"/><path d="M435.84 2119.85h63.58v-2.88h-63.58zM454.2 2088.24l-.33-.68c.95-.58 2.17-.78 3.33-.78 4.27 0 6.37 3.05 6.37 8.82 0 5.02-2.06 14.2-10 14.2-3.33 0-4.62-2.6-4.62-5.48 0-4.8 3.77-9.64 8.72-9.64 1.1 0 2.55.38 3.26 1.63.13-.73.24-1.55.24-2.36 0-3-1-6.14-4.45-6.14-.9 0-1.66.17-2.5.44m5.83 10.38c0-2.2-1.16-2.92-2.07-2.92-3.36 0-6.28 5.06-6.28 9.77 0 1.3.14 3.33 2.27 3.33 2.62 0 4.62-3.4 5.57-6.86.3-1.12.5-2.27.5-3.32M486.24 2103l-2.07 6.44h-19.3l.13-.54h.58c2.54 0 3.35-.95 3.63-2.1l4-16.2c.14-.53.25-1.2.25-1.5 0-.66-.48-1.27-2.58-1.27h-.6l.12-.54h11.1l-.15.53h-.6c-2.55 0-3.27.88-3.57 2.14l-4.14 16.32c-.14.5-.17.97-.17 1.04 0 .74.95.8 1.36.8h4.14c3.46 0 5.2-.73 6.75-3.9.23-.36.4-.77.57-1.24h.54M445.33 2128.5l-.33-.68c.94-.58 2.17-.78 3.32-.78 4.27 0 6.38 3.05 6.38 8.82 0 5.02-2.07 14.2-10 14.2-3.33 0-4.62-2.6-4.62-5.48 0-4.8 3.76-9.64 8.7-9.64 1.1 0 2.56.38 3.27 1.63.14-.75.24-1.56.24-2.37 0-3-1-6.14-4.46-6.14-.9 0-1.66.17-2.5.44m5.83 10.38c0-2.2-1.15-2.92-2.07-2.92-3.36 0-6.28 5.05-6.28 9.77 0 1.3.14 3.33 2.28 3.33 2.6 0 4.6-3.4 5.56-6.86.3-1.12.5-2.27.5-3.32M472.7 2134.43l-2.7 9.8c-.2.8-.4 1.57-.4 2.38 0 1.34.64 2.08 2 2.08 3.66 0 5.56-3.9 6.6-6.88.28-.82.52-1.67.52-2.52 0-2.5-2-2.23-2.07-3.7-.07-1.2 1-1.42 1.83-1.42 1.42 0 1.6 1.73 1.6 2.82 0 4.95-3.57 13.02-9.37 13.02-2.33 0-3.76-.94-3.76-3.4 0-1.4.4-2.87.78-4.23-1.35 3.02-4.13 7.63-7.93 7.63-1.9 0-2.66-1.15-2.66-2.95 0-1.12.37-2.17.64-3.22l1.6-6c.1-.3.17-.65.17-1 0-.8-1.3-.73-1.83-.73v-.5c1.8-.32 3.56-.8 5.26-1.5l.13.1-2.74 10.4c-.1.45-.37 1.54-.37 2.5 0 .87.2 1.58.94 1.58 1.97-.03 4.38-3.87 5.2-5.12 1.8-2.75 2.67-5.4 3.72-9.13h2.85M492.55 2151.48l-1.3 3.33h-9.52v-.28l4.33-4.6c2.28-2.4 3.16-4.26 3.16-6.33 0-2.22-1.3-3.44-3.38-3.44-1.75 0-2.6.78-3.58 3.17l-.5-.13c.5-2.84 2.06-4.84 5.05-4.84 2.76 0 4.5 1.88 4.5 4.28 0 1.93-.94 3.75-3.1 6.04l-4.02 4.28h5.7c1.02 0 1.53-.27 2.33-1.63M549.08 2115.06h-28.26v-3.17h28.26v3.16m0 9.6h-28.26v-3.18h28.26v3.17M570.48 2119.85h45.78v-2.88h-45.78zM579.98 2088.24l-.34-.68c.95-.58 2.17-.78 3.32-.78 4.28 0 6.38 3.05 6.38 8.82 0 5.02-2.07 14.2-10 14.2-3.33 0-4.62-2.6-4.62-5.48 0-4.8 3.77-9.64 8.72-9.64 1.08 0 2.54.38 3.25 1.63.13-.73.23-1.55.23-2.36 0-3-.98-6.14-4.44-6.14-.93 0-1.67.17-2.52.44m5.83 10.38c0-2.2-1.14-2.92-2.06-2.92-3.36 0-6.27 5.06-6.27 9.77 0 1.3.13 3.33 2.27 3.33 2.6 0 4.6-3.4 5.56-6.86.3-1.12.5-2.27.5-3.32M612 2103l-2.07 6.44h-19.3l.14-.54h.57c2.55 0 3.36-.95 3.63-2.1l4-16.2c.14-.53.24-1.2.24-1.5 0-.66-.46-1.27-2.57-1.27h-.6l.13-.54h11.1l-.14.53h-.6c-2.56 0-3.27.88-3.58 2.14l-4.13 16.32c-.13.5-.16.97-.16 1.04 0 .74.95.8 1.35.8h4.13c3.46 0 5.2-.73 6.75-3.9.24-.36.4-.77.58-1.24h.54M581.5 2128.5l-.33-.68c.95-.58 2.18-.78 3.33-.78 4.27 0 6.38 3.05 6.38 8.82 0 5.02-2.07 14.2-10 14.2-3.34 0-4.63-2.6-4.63-5.48 0-4.8 3.77-9.64 8.72-9.64 1.1 0 2.55.38 3.26 1.63.14-.75.24-1.56.24-2.37 0-3-1-6.14-4.45-6.14-.9 0-1.66.17-2.5.44m5.83 10.38c0-2.2-1.16-2.92-2.07-2.92-3.36 0-6.28 5.05-6.28 9.77 0 1.3.14 3.33 2.28 3.33 2.6 0 4.6-3.4 5.56-6.86.3-1.12.5-2.27.5-3.32M599.3 2134.87h1.25c2.13 0 1.96-2.6 3.42-4.78 1.05-1.6 2.5-3.06 5.1-3.06 1.7 0 2.67.8 2.67 2 0 .95-.7 1.36-1.4 1.36-.94 0-1.18-.38-1.18-.85 0-.48.3-1 .3-1.26 0-.18-.1-.28-.5-.28-1.7 0-3.02 1.83-3.73 4.48l-.65 2.37h2.72l-.4 1.3h-2.6l-2.67 10.37c-.24.92-.5 2.2-1.02 3.46-1.1 2.82-2.94 6.04-5.92 6.04-1.63 0-2.45-.8-2.45-1.83 0-.8.48-1.65 1.46-1.65.9 0 1.25.6 1.25 1.12 0 .64-.55.68-.55 1.08 0 .2.2.3.5.3 2.22 0 3.24-5.35 3.75-7.28l2.95-11.6h-2.62M642.46 2118.27c0 1.54-1.3 2.88-2.83 2.88-1.6 0-2.93-1.44-2.93-2.88s1.34-2.88 2.93-2.88c1.53 0 2.83 1.33 2.83 2.87M662.9 2119.85h63.58v-2.88H662.9zM682.86 2082.3l-.34-.7c.95-.57 2.17-.77 3.32-.77 4.28 0 6.38 3.05 6.38 8.82 0 5.02-2.07 14.2-10 14.2-3.33 0-4.62-2.6-4.62-5.48 0-4.8 3.76-9.64 8.72-9.64 1.08 0 2.54.38 3.25 1.63.14-.74.24-1.56.24-2.37 0-3-.97-6.15-4.43-6.15-.92 0-1.67.17-2.5.44m5.82 10.37c0-2.2-1.16-2.92-2.08-2.92-3.36 0-6.27 5.06-6.27 9.77 0 1.3.13 3.33 2.27 3.33 2.6 0 4.6-3.4 5.56-6.86.3-1.13.5-2.28.5-3.33M700.63 2088.67h1.26c2.12 0 1.96-2.62 3.4-4.8 1.07-1.58 2.52-3.04 5.1-3.04 1.7 0 2.68.8 2.68 2 0 .95-.7 1.36-1.4 1.36-.94 0-1.18-.4-1.18-.86 0-.48.3-.98.3-1.26 0-.17-.1-.27-.5-.27-1.7 0-3.02 1.84-3.73 4.5l-.65 2.37h2.72l-.4 1.28h-2.6l-2.67 10.4c-.23.9-.5 2.2-1 3.45-1.13 2.8-2.97 6.03-5.95 6.03-1.63 0-2.44-.8-2.44-1.83 0-.8.47-1.66 1.45-1.66.92 0 1.26.6 1.26 1.12 0 .64-.55.68-.55 1.1 0 .2.2.3.5.3 2.2 0 3.23-5.37 3.74-7.3l2.94-11.6h-2.6M672.4 2128.5l-.34-.68c.95-.58 2.17-.78 3.32-.78 4.28 0 6.38 3.05 6.38 8.82 0 5.02-2.07 14.2-10 14.2-3.33 0-4.62-2.6-4.62-5.48 0-4.8 3.76-9.64 8.72-9.64 1.08 0 2.54.38 3.25 1.63.15-.75.25-1.56.25-2.37 0-3-.98-6.14-4.44-6.14-.9 0-1.66.17-2.5.44m5.83 10.38c0-2.2-1.15-2.92-2.07-2.92-3.36 0-6.28 5.05-6.28 9.77 0 1.3.14 3.33 2.28 3.33 2.6 0 4.6-3.4 5.56-6.86.3-1.12.5-2.27.5-3.32M699.77 2134.43l-2.7 9.8c-.2.8-.42 1.57-.42 2.38 0 1.34.65 2.08 2 2.08 3.67 0 5.57-3.9 6.62-6.88.27-.82.5-1.67.5-2.52 0-2.5-2-2.23-2.06-3.7-.06-1.2 1.03-1.42 1.84-1.42 1.42 0 1.6 1.73 1.6 2.82 0 4.95-3.57 13.02-9.37 13.02-2.34 0-3.76-.94-3.76-3.4 0-1.4.4-2.87.8-4.23-1.37 3.02-4.15 7.63-7.95 7.63-1.9 0-2.65-1.15-2.65-2.95 0-1.12.37-2.17.65-3.22l1.6-6c.1-.3.16-.65.16-1 0-.8-1.28-.73-1.82-.73v-.5c1.8-.32 3.56-.8 5.26-1.5l.13.1-2.75 10.4c-.1.45-.37 1.54-.37 2.5 0 .87.2 1.58.95 1.58 1.97-.03 4.38-3.87 5.2-5.12 1.8-2.75 2.67-5.4 3.72-9.13h2.85M719.6 2151.48l-1.3 3.33h-9.5v-.28l4.32-4.6c2.28-2.4 3.16-4.26 3.16-6.33 0-2.22-1.3-3.44-3.38-3.44-1.75 0-2.6.78-3.58 3.17l-.5-.13c.5-2.84 2.06-4.84 5.05-4.84 2.75 0 4.5 1.88 4.5 4.28 0 1.93-.95 3.75-3.1 6.04l-4.03 4.28h5.7c1.02 0 1.53-.27 2.33-1.63"/><path d="M910.7 1985.88h33.5v40.76h-33.5z" fill-opacity="0"/><path d="M939.94 2000.9c0 .7-.5 1.47-1.4 2-1.6.95-5.3.95-9.92 3.57 4.03 2.37 8.12 2.56 9.85 3.58.9.5 1.34 1.28 1.34 2.05 0 1.28-.88 2.5-2.48 2.5-2.62 0-4.22-4.48-9.15-7.3 0 4.4 1.86 8.38 1.86 10.36 0 1.35-1.28 2.7-2.43 2.7-1.22 0-2.43-1.35-2.43-2.7 0-1.98 1.85-5.95 1.85-10.36-3.33 1.92-6.33 5.95-7.74 6.72-.58.32-1.15.5-1.73.5-1.53 0-2.36-.95-2.36-2.04 0-.9.37-1.92 1.33-2.5 1.73-.95 6.46-1.6 9.8-3.5-3.34-1.93-8.27-2.57-10.06-3.66-.83-.5-1.28-1.2-1.28-1.92 0-1.34.95-2.68 2.3-2.68.44 0 .9.12 1.4.38 1.86 1.1 4.67 5 8.32 6.9 0-4.4-1.85-8.63-1.85-10.6 0-1.35 1.2-2.57 2.43-2.57 1.15 0 2.43 1.22 2.43 2.56 0 1.97-1.86 6.13-1.86 10.55 4.6-2.44 6.33-5.83 8.06-6.85.5-.26.96-.38 1.4-.38 1.35 0 2.3 1.34 2.3 2.68"/><path d="M692.58 1605.3l219 145.46-43.82 65.96-219-145.46z" fill="#fff3d9"/><path d="M676.27 1640.27l52.96 35.18 1.6-2.4-52.97-35.18zM709.07 1624.1l.1-.75c1.1.04 2.23.55 3.2 1.18 3.55 2.37 3.6 6.08.42 10.88-2.78 4.2-9.6 10.7-16.2 6.3-2.78-1.83-2.4-4.7-.8-7.12 2.64-3.98 8.46-5.94 12.58-3.2.9.6 1.92 1.72 1.8 3.16.54-.55 1.08-1.17 1.53-1.85 1.66-2.5 2.58-5.67-.3-7.58-.76-.5-1.48-.78-2.33-1.02m-.9 11.87c1.23-1.83.67-3.06-.1-3.57-2.8-1.86-8.02.74-10.63 4.66-.7 1.08-1.73 2.85.05 4.03 2.17 1.44 5.7-.28 8.42-2.64.87-.76 1.68-1.6 2.26-2.5M727.58 1654.1l-5.3 4.23-16.07-10.68.42-.37.48.32c2.12 1.4 3.33 1.06 4.2.25l12.28-11.26c.4-.4.87-.9 1.04-1.15.36-.54.3-1.3-1.45-2.47l-.5-.34.4-.38 9.24 6.14-.4.38-.5-.34c-2.13-1.4-3.2-1.07-4.16-.2l-12.48 11.3c-.4.36-.68.74-.72.8-.4.6.34 1.2.68 1.42l3.45 2.3c2.88 1.9 4.74 2.24 7.78.48.4-.18.77-.43 1.18-.73l.45.3M679.4 1652.72l.1-.75c1.1.04 2.23.55 3.2 1.2 3.55 2.35 3.6 6.06.42 10.86-2.77 4.2-9.58 10.7-16.2 6.3-2.77-1.83-2.4-4.72-.8-7.12 2.65-3.98 8.47-5.94 12.6-3.2.9.6 1.9 1.72 1.8 3.16.53-.54 1.07-1.16 1.52-1.84 1.65-2.5 2.58-5.66-.3-7.58-.77-.5-1.5-.78-2.34-1.02m-.9 11.88c1.23-1.84.67-3.07-.1-3.58-2.8-1.86-8.02.74-10.63 4.67-.7 1.06-1.73 2.83.06 4 2.17 1.46 5.72-.26 8.42-2.62.87-.76 1.68-1.6 2.26-2.48M698.92 1672.8l-7.7 6.68c-.6.54-1.2 1.07-1.64 1.75-.73 1.1-.6 2.08.52 2.83 3.05 2.03 6.8-.17 9.32-2.07.68-.54 1.35-1.12 1.82-1.82 1.38-2.1-.43-2.97.32-4.23.62-1.05 1.63-.62 2.3-.17 1.2.8.38 2.32-.22 3.23-2.74 4.13-10.17 8.9-15 5.68-1.95-1.3-2.62-2.88-1.26-4.9.78-1.2 1.93-2.2 3-3.1-2.8 1.75-7.68 4.06-10.84 1.95-1.6-1.05-1.57-2.42-.58-3.92.62-.92 1.52-1.6 2.32-2.32l4.66-4.12c.25-.2.5-.44.68-.72.45-.68-.66-1.34-1.1-1.64l.27-.42c1.66.74 3.4 1.32 5.2 1.66l.05.16-8.05 7.16c-.33.3-1.15 1.06-1.68 1.86-.5.73-.7 1.44-.1 1.85 1.67 1.06 5.8-.8 7.17-1.4 3-1.3 5.2-3 8.14-5.53l2.38 1.57M702.55 1699.7l-5.6-3.73.2-.3c1.56.9 2.27.77 3-.34l6.05-9.1c.46-.7.48-1.12.06-1.4-.2-.13-.62-.26-1.08-.36l-.68-.16.2-.28 4.84.57.14.17-8.03 12.1c-.58.87-.42 1.5 1.1 2.5l-.2.32M773.26 1698.93l-23.55-15.64 1.77-2.65L775 1696.3l-1.74 2.63m-5.3 8l-23.56-15.65 1.76-2.63 23.54 15.63-1.75 2.64M817.9 1721.73l-.42.64c-4.18-2.03-8.13 1.74-11.3 4.77-4.55 4.35-11.6 5-16.57 1.72l-6.24 5.76-3.23-2.15 6.28-5.74-.4-.26c-3.1-2.07-5.02-5.7-1.72-10.66 1.48-2.23 4.36-3.78 6.13-6.45 1.08-1.6 1.6-3.6-.14-5.06l.62-.52c.82.43 1.54.9 2.26 1.38 2.27 1.52 2.08 4.5.57 6.78-1.48 2.23-4.6 4.25-6.14 6.57-2 3-1.88 5.6-.03 7.25l14.85-13.7 3.24 2.15-14.85 13.7c3.28 1.38 7.86.73 11.75-2.96 4.3-4.06 8.23-7.96 14.34-3.9l1.04.7M829.95 1740.45c-.85 1.28-2.67 1.68-3.95.83-1.32-.88-1.64-2.82-.84-4.02.8-1.2 2.7-1.65 4.03-.78 1.27.85 1.6 2.7.75 3.97M868.64 1754.8l-10.87 9.42c-.85.76-1.7 1.52-2.34 2.48-1.04 1.56-.86 2.94.74 4 4.32 2.87 9.6-.24 13.18-2.93.96-.75 1.9-1.56 2.57-2.56 1.96-2.95-.6-4.2.45-5.97.88-1.5 2.32-.88 3.28-.24 1.67 1.1.52 3.28-.33 4.55-3.88 5.84-14.4 12.56-21.23 8.02-2.76-1.83-3.7-4.06-1.8-6.94 1.13-1.68 2.75-3.08 4.25-4.38-3.96 2.5-10.85 5.75-15.33 2.78-2.23-1.5-2.2-3.43-.8-5.55.87-1.32 2.13-2.27 3.28-3.3l6.58-5.82c.35-.28.7-.63.96-1.03.64-.96-.93-1.9-1.57-2.3l.4-.6c2.36 1.04 4.8 1.86 7.36 2.35l.08.22-11.38 10.12c-.46.44-1.63 1.5-2.37 2.63-.7 1.04-1 2.04-.13 2.62 2.34 1.5 8.18-1.13 10.12-1.97 4.27-1.83 7.38-4.26 11.54-7.84l3.36 2.24M878.4 1790.3l-4.1 2.86-11.04-7.34.23-.34 8.56-2c4.52-1.03 6.96-2.5 8.56-4.9 1.7-2.58 1.12-5-1.28-6.6-2.04-1.35-3.63-1.1-6.6.9l-.5-.52c2.8-2.9 6.14-4.03 9.62-1.72 3.2 2.12 3.78 5.65 1.92 8.45-1.48 2.22-4 3.6-8.27 4.6l-7.96 1.87 6.6 4.4c1.2.78 2 .86 3.98-.1"/><path d="M659.97 2390.08l203.74-166.16 50.05 61.37L710 2451.43z" fill="#fff3d9"/><path d="M688.54 2416l49.28-40.18-1.82-2.23-49.28 40.18zM682.8 2379.9l-.7-.32c.38-1.04 1.2-1.97 2.1-2.7 3.3-2.7 6.86-1.67 10.5 2.8 3.18 3.9 7.4 12.33 1.24 17.34-2.58 2.1-5.23.9-7.05-1.34-3.04-3.7-3.18-9.85.66-12.98.84-.68 2.2-1.3 3.55-.8-.36-.66-.8-1.35-1.3-1.98-1.9-2.32-4.65-4.14-7.33-1.95-.7.58-1.18 1.18-1.67 1.93m11.08 4.35c-1.4-1.7-2.74-1.53-3.44-.95-2.6 2.12-1.67 7.88 1.3 11.54.82 1 2.2 2.5 3.87 1.14 2.03-1.65 1.44-5.55 0-8.83-.48-1.06-1.05-2.08-1.72-2.9M716.94 2371.1l2.47 6.3-14.94 12.2-.24-.5.44-.38c1.98-1.6 2-2.85 1.5-3.92l-7.14-15.07c-.23-.5-.58-1.1-.78-1.33-.4-.5-1.16-.68-2.8.65l-.46.4-.24-.52 8.6-7 .23.5-.47.38c-1.97 1.62-1.96 2.76-1.4 3.92l7.1 15.26c.2.48.5.87.53.92.47.58 1.25.04 1.57-.22l3.2-2.62c2.7-2.18 3.55-3.86 2.77-7.3-.05-.43-.18-.85-.35-1.32l.42-.35M701.36 2416.7l-.7-.3c.38-1.05 1.2-1.98 2.1-2.7 3.3-2.7 6.87-1.68 10.5 2.8 3.2 3.88 7.4 12.32 1.24 17.33-2.57 2.1-5.22.9-7.05-1.34-3.02-3.72-3.17-9.86.67-13 .84-.67 2.2-1.3 3.55-.78-.36-.67-.8-1.36-1.3-2-1.9-2.3-4.66-4.13-7.34-1.94-.7.58-1.18 1.18-1.67 1.93m11.1 4.36c-1.4-1.7-2.75-1.53-3.46-.95-2.6 2.13-1.67 7.9 1.3 11.55.83 1 2.22 2.5 3.87 1.14 2.03-1.66 1.44-5.56-.02-8.84-.47-1.06-1.04-2.08-1.7-2.9M726.33 2404l4.1 9.32c.33.73.67 1.46 1.18 2.1.85 1.02 1.82 1.2 2.87.33 2.84-2.3 1.85-6.54.77-9.52-.3-.8-.65-1.6-1.2-2.26-1.57-1.95-2.95-.47-3.93-1.56-.8-.9-.1-1.74.53-2.25 1.1-.9 2.33.33 3.02 1.17 3.13 3.84 5.47 12.35.97 16.02-1.8 1.47-3.52 1.64-5.06-.25-.9-1.12-1.5-2.5-2.07-3.8.84 3.2 1.6 8.54-1.34 10.94-1.47 1.2-2.78.78-3.92-.62-.7-.86-1.08-1.9-1.54-2.9l-2.55-5.66c-.12-.3-.28-.6-.5-.87-.5-.64-1.47.23-1.9.57l-.3-.4c1.2-1.37 2.26-2.85 3.12-4.48h.17l4.46 9.8c.2.4.67 1.4 1.27 2.15.56.68 1.17 1.1 1.75.63 1.5-1.26.94-5.76.78-7.25-.34-3.26-1.33-5.87-2.88-9.43l2.2-1.8M752.48 2404.67l1.1 3.4-7.38 6.03-.2-.23.46-6.3c.25-3.3-.24-5.3-1.55-6.9-1.38-1.72-3.17-1.83-4.77-.52-1.36 1.1-1.53 2.25-.78 4.7l-.47.24c-1.4-2.54-1.46-5.07.86-6.96 2.13-1.74 4.67-1.4 6.2.47 1.2 1.5 1.63 3.5 1.4 6.65l-.4 5.86 4.4-3.6c.8-.63 1.02-1.16.78-2.73M773.27 2340.72l-21.9 17.86-2-2.45 21.9-17.87 2 2.46m6.06 7.44l-21.9 17.86-2-2.46 21.9-17.86 2 2.46M808.26 2304.8l.48.6c-3.17 3.4-.73 8.3 1.22 12.2 2.8 5.64 1.35 12.6-3.26 16.35l3.65 7.67-3 2.46-3.63-7.7-.37.3c-2.9 2.37-6.93 3.12-10.7-1.5-1.7-2.08-2.32-5.28-4.35-7.77-1.22-1.48-2.98-2.58-4.88-1.34l-.3-.75c.65-.64 1.32-1.18 2-1.73 2.1-1.73 4.9-.66 6.63 1.46 1.7 2.08 2.7 5.66 4.45 7.82 2.28 2.8 4.8 3.46 6.9 2.17l-8.67-18.24 3-2.46 8.7 18.24c2.28-2.73 3.02-7.3.64-12.1-2.6-5.32-5.17-10.22.52-14.86l.96-.8M829.7 2298.84c.97 1.2.82 3.05-.37 4.02-1.23 1-3.18.74-4.1-.38-.9-1.1-.77-3.08.46-4.08 1.18-.97 3.03-.75 4 .44M854.85 2266.13l5.8 13.18c.47 1.04.94 2.08 1.67 2.97 1.18 1.45 2.56 1.7 4.04.48 4.02-3.27 2.6-9.25 1.1-13.46-.43-1.15-.93-2.3-1.7-3.22-2.23-2.75-4.18-.66-5.56-2.2-1.17-1.28-.16-2.47.73-3.2 1.56-1.27 3.3.47 4.27 1.66 4.43 5.43 7.74 17.46 1.38 22.65-2.57 2.08-4.98 2.32-7.16-.36-1.27-1.56-2.13-3.53-2.94-5.35 1.22 4.5 2.3 12.06-1.87 15.46-2.08 1.7-3.93 1.1-5.53-.87-1-1.24-1.53-2.73-2.18-4.12l-3.63-8c-.16-.44-.4-.87-.7-1.24-.72-.9-2.07.33-2.67.82l-.45-.56c1.7-1.94 3.2-4.04 4.43-6.34h.24l6.3 13.87c.28.57.95 2 1.8 3.05.8.96 1.65 1.56 2.47.9 2.1-1.8 1.33-8.16 1.1-10.26-.5-4.62-1.9-8.3-4.07-13.34l3.12-2.55M892.5 2272.62l-7.26 5.92-.32-.4c1.86-1.7 1.96-2.7.78-4.13l-9.63-11.8c-.73-.9-1.28-1.1-1.84-.64-.26.2-.6.7-.92 1.28l-.5.84-.3-.37 2.77-6.22.3-.1 12.8 15.68c.92 1.13 1.83 1.18 3.8-.43l.32.4"/><g><path d="M1310.08 2069.63c0 3.3-2.68 6-6 6h-112c-3.3 0-6 2.68-6 6v8c0 3.3-1.8 4-4 1.54l-27.98-31.08c-2.22-2.48-2.22-6.47 0-8.93l27.97-31.08c2.2-2.48 4-1.8 4 1.53v8c0 3.3 2.7 6 6 6h112c3.33 0 6 2.68 6 6z" stroke="#5e5e5e" stroke-width="3" fill="#fff"/></g><g><use xlink:href="#d" transform="matrix(1,-2.4492935982947064e-16,2.4492935982947064e-16,1,1155.0817936127848,2020.6265159068196) translate(13.696358024691358 39.65277777777778)"/><use xlink:href="#e" transform="matrix(1,-2.4492935982947064e-16,2.4492935982947064e-16,1,1155.0817936127848,2020.6265159068196) translate(104.93092592592592 39.65277777777778)"/></g><g><path d="M781.34 1833.18c-1.67 2.86-5.34 3.82-8.2 2.15l-96.7-56.5c-2.87-1.68-6.54-.72-8.2 2.15l-4.05 6.9c-1.68 2.86-3.58 2.55-4.25-.7l-8.47-40.94c-.67-3.25 1.34-6.7 4.5-7.7l39.83-12.72c3.17-1 4.37.5 2.7 3.35l-4.04 6.9c-1.67 2.87-.7 6.55 2.16 8.22l96.7 56.5c2.86 1.67 3.82 5.34 2.15 8.2z" stroke="#5e5e5e" stroke-width="3" fill="#fff"/></g><g><use xlink:href="#d" transform="matrix(0.8633869746220096,0.5045422995676907,-0.5045422995676907,0.8633869746220096,672.2394009534717,1712.6684363771767) translate(13.696358024691358 39.65277777777778)"/><use xlink:href="#e" transform="matrix(0.8633869746220096,0.5045422995676907,-0.5045422995676907,0.8633869746220096,672.2394009534717,1712.6684363771767) translate(104.93092592592592 39.65277777777778)"/></g><g><path d="M807.35 2217c2.13 2.53 1.8 6.3-.74 8.44l-85.77 72c-2.54 2.13-2.87 5.92-.74 8.46l5.13 6.13c2.13 2.53 1.2 4.22-2.08 3.76l-41.4-5.84c-3.3-.46-5.86-3.52-5.75-6.83l1.45-41.8c.1-3.3 1.93-3.93 4.06-1.4l5.16 6.14c2.13 2.54 5.9 2.87 8.45.74l85.8-72c2.54-2.13 6.32-1.8 8.45.74z" stroke="#5e5e5e" stroke-width="3" fill="#fff"/></g><g><use xlink:href="#d" transform="matrix(0.7659684909041078,-0.6428781151525409,0.6428781151525409,0.7659684909041078,657.1260266430677,2279.1024662099835) translate(13.696358024691358 39.65277777777778)"/><use xlink:href="#e" transform="matrix(0.7659684909041078,-0.6428781151525409,0.6428781151525409,0.7659684909041078,657.1260266430677,2279.1024662099835) translate(104.93092592592592 39.65277777777778)"/></g><path d="M579.07 2214h80.8v54.37h-80.8z" fill="#fff" fill-opacity="0"/><path d="M613.97 2222.02l-5.26 19c-.38 1.5-.78 3.02-.78 4.6 0 2.56 1.25 4 3.88 4 7.1 0 10.78-7.55 12.8-13.34.54-1.57 1-3.22 1-4.86 0-4.86-3.88-4.34-4-7.16-.14-2.37 1.96-2.76 3.54-2.76 2.76 0 3.1 3.35 3.1 5.45 0 9.6-6.9 25.24-18.15 25.24-4.54 0-7.3-1.85-7.3-6.58 0-2.76.8-5.6 1.5-8.22-2.62 5.85-8 14.8-15.37 14.8-3.68 0-5.13-2.25-5.13-5.73 0-2.17.73-4.2 1.25-6.24l3.1-11.63c.2-.6.32-1.25.32-1.9 0-1.6-2.5-1.46-3.55-1.46v-.98c3.48-.6 6.9-1.5 10.2-2.9l.25.2-5.32 20.18c-.2.85-.73 2.96-.73 4.8 0 1.7.4 3.08 1.84 3.08 3.82-.06 8.48-7.5 10.06-9.92 3.48-5.32 5.2-10.45 7.23-17.68h5.52M652.02 2255.13l-2.5 6.36h-18.18v-.57l8.27-8.78c4.38-4.6 6.05-8.13 6.05-12.08 0-4.22-2.5-6.55-6.46-6.55-3.35 0-4.98 1.5-6.84 6.04l-.97-.23c.96-5.44 3.94-9.25 9.65-9.25 5.25 0 8.6 3.58 8.6 8.18 0 3.67-1.8 7.16-5.95 11.52l-7.66 8.18h10.87c1.96 0 2.93-.5 4.47-3.1"/><path d="M1340 1740h337.98v65.06H1340z" fill-opacity="0"/><path d="M1355.86 1760.78h2.37c4.03 0 3.7-4.93 6.46-9.02 1.98-3 4.73-5.76 9.6-5.76 3.2 0 5.04 1.54 5.04 3.77 0 1.8-1.34 2.56-2.62 2.56-1.8 0-2.24-.7-2.24-1.6 0-.9.58-1.85.58-2.36 0-.32-.2-.5-.96-.5-3.2 0-5.7 3.44-7.04 8.43l-1.22 4.48h5.12l-.77 2.43h-4.87l-5.05 19.58c-.45 1.73-.96 4.16-1.92 6.53-2.1 5.32-5.57 11.4-11.2 11.4-3.07 0-4.6-1.54-4.6-3.46 0-1.53.9-3.13 2.75-3.13 1.74 0 2.38 1.16 2.38 2.12 0 1.2-1.03 1.28-1.03 2.04 0 .4.4.58.96.58 4.17 0 6.1-10.1 7.05-13.75l5.56-21.9h-4.9M1437.88 1768.26h-37.68v-4.22h37.68v4.22m0 12.8h-37.68v-4.23h37.68v4.23M1492.7 1759.95l-5.12 18.48c-.38 1.48-.77 2.95-.77 4.48 0 2.5 1.23 3.9 3.8 3.9 6.9 0 10.48-7.34 12.46-12.97.5-1.54.96-3.14.96-4.74 0-4.74-3.77-4.23-3.9-6.98-.13-2.3 1.92-2.7 3.45-2.7 2.7 0 3 3.28 3 5.32 0 9.34-6.7 24.57-17.65 24.57-4.4 0-7.1-1.78-7.1-6.4 0-2.68.77-5.43 1.47-7.98-2.56 5.7-7.8 14.4-14.97 14.4-3.6 0-5-2.2-5-5.58 0-2.1.7-4.1 1.22-6.07l3-11.33c.2-.57.33-1.2.33-1.85 0-1.55-2.43-1.42-3.46-1.42v-.96c3.4-.57 6.72-1.47 9.92-2.8l.25.18-5.2 19.64c-.18.83-.7 2.88-.7 4.67 0 1.67.4 3 1.8 3 3.7-.05 8.25-7.28 9.8-9.65 3.38-5.18 5.04-10.17 7.02-17.2h5.38M1526.12 1798.37h-12.48v-.68c3.34-.2 4.3-1.14 4.3-3.63v-20.3c0-1.55-.4-2.22-1.36-2.22-.46 0-1.23.22-2.04.54l-1.22.44v-.63l8.1-4.1.4.13v27c0 1.94.9 2.76 4.3 2.76v.67M1580.85 1767.17c0 .7-.5 1.48-1.4 2-1.6.95-5.32.95-9.92 3.57 4.03 2.37 8.12 2.56 9.85 3.58.9.5 1.34 1.28 1.34 2.05 0 1.28-.9 2.5-2.5 2.5-2.62 0-4.2-4.48-9.14-7.3 0 4.42 1.85 8.38 1.85 10.37 0 1.34-1.27 2.68-2.43 2.68-1.2 0-2.43-1.34-2.43-2.68 0-2 1.86-5.95 1.86-10.37-3.33 1.92-6.34 5.95-7.74 6.72-.6.3-1.16.5-1.74.5-1.53 0-2.37-.96-2.37-2.05 0-.9.38-1.92 1.34-2.5 1.72-.95 6.46-1.6 9.78-3.5-3.32-1.93-8.25-2.57-10.04-3.66-.83-.52-1.28-1.22-1.28-1.93 0-1.34.96-2.68 2.3-2.68.45 0 .9.12 1.4.37 1.87 1.1 4.68 5 8.33 6.9 0-4.4-1.86-8.63-1.86-10.6 0-1.35 1.22-2.57 2.43-2.57 1.16 0 2.43 1.22 2.43 2.56 0 1.98-1.85 6.14-1.85 10.56 4.6-2.43 6.33-5.82 8.06-6.85.5-.25.96-.38 1.4-.38 1.35 0 2.3 1.33 2.3 2.67M1633.24 1759.95l-5.12 18.48c-.38 1.48-.76 2.95-.76 4.48 0 2.5 1.2 3.9 3.77 3.9 6.9 0 10.5-7.34 12.48-12.97.52-1.54.97-3.14.97-4.74 0-4.74-3.78-4.23-3.9-6.98-.13-2.3 1.9-2.7 3.45-2.7 2.68 0 3 3.28 3 5.32 0 9.34-6.7 24.57-17.65 24.57-4.42 0-7.1-1.78-7.1-6.4 0-2.68.76-5.43 1.47-7.98-2.56 5.7-7.8 14.4-14.97 14.4-3.58 0-5-2.2-5-5.58 0-2.1.7-4.1 1.23-6.07l3-11.33c.2-.57.32-1.2.32-1.85 0-1.55-2.43-1.42-3.45-1.42v-.96c3.4-.57 6.7-1.47 9.9-2.8l.27.18-5.18 19.64c-.2.83-.7 2.88-.7 4.67 0 1.67.38 3 1.78 3 3.7-.05 8.26-7.28 9.8-9.65 3.38-5.18 5.05-10.17 7.03-17.2h5.37M1670.28 1792.17l-2.44 6.2h-17.7v-.55l8.07-8.54c4.26-4.48 5.88-7.92 5.88-11.76 0-4.12-2.44-6.38-6.28-6.38-3.26 0-4.84 1.45-6.65 5.88l-.95-.23c.95-5.3 3.84-9 9.4-9 5.12 0 8.37 3.48 8.37 7.95 0 3.58-1.76 6.97-5.78 11.22l-7.48 7.96h10.6c1.9 0 2.84-.5 4.33-3.03"/><defs><path fill="#333" d="M240 0l2-218c-23 76-54 145-80 218h-23L58-218 59 0H30v-248h44l77 211c21-75 51-140 76-211h43V0h-30" id="f"/><path fill="#333" d="M84 4C-5 8 30-112 23-190h32v120c0 31 7 50 39 49 72-2 45-101 50-169h31l1 190h-30c-1-10 1-25-2-33-11 22-28 36-60 37" id="g"/><path fill="#333" d="M24 0v-261h32V0H24" id="h"/><path fill="#333" d="M59-47c-2 24 18 29 38 22v24C64 9 27 4 27-40v-127H5v-23h24l9-43h21v43h35v23H59v120" id="i"/><path fill="#333" d="M24-231v-30h32v30H24zM24 0v-190h32V0H24" id="j"/><path fill="#333" d="M115-194c55 1 70 41 70 98S169 2 115 4C84 4 66-9 55-30l1 105H24l-1-265h31l2 30c10-21 28-34 59-34zm-8 174c40 0 45-34 45-75s-6-73-45-74c-42 0-51 32-51 76 0 43 10 73 51 73" id="k"/><path fill="#333" d="M96-169c-40 0-48 33-48 73s9 75 48 75c24 0 41-14 43-38l32 2c-6 37-31 61-74 61-59 0-76-41-82-99-10-93 101-131 147-64 4 7 5 14 7 22l-32 3c-4-21-16-35-41-35" id="l"/><path fill="#333" d="M141-36C126-15 110 5 73 4 37 3 15-17 15-53c-1-64 63-63 125-63 3-35-9-54-41-54-24 1-41 7-42 31l-33-3c5-37 33-52 76-52 45 0 72 20 72 64v82c-1 20 7 32 28 27v20c-31 9-61-2-59-35zM48-53c0 20 12 33 32 33 41-3 63-29 60-74-43 2-92-5-92 41" id="m"/><path fill="#333" d="M100-194c62-1 85 37 85 99 1 63-27 99-86 99S16-35 15-95c0-66 28-99 85-99zM99-20c44 1 53-31 53-75 0-43-8-75-51-75s-53 32-53 75 10 74 51 75" id="n"/><path fill="#333" d="M117-194c89-4 53 116 60 194h-32v-121c0-31-8-49-39-48C34-167 62-67 57 0H25l-1-190h30c1 10-1 24 2 32 11-22 29-35 61-36" id="o"/><g id="a"><use transform="matrix(0.08641975308641973,0,0,0.08641975308641973,0,0)" xlink:href="#f"/><use transform="matrix(0.08641975308641973,0,0,0.08641975308641973,25.8395061728395,0)" xlink:href="#g"/><use transform="matrix(0.08641975308641973,0,0,0.08641975308641973,43.12345679012344,0)" xlink:href="#h"/><use transform="matrix(0.08641975308641973,0,0,0.08641975308641973,49.9506172839506,0)" xlink:href="#i"/><use transform="matrix(0.08641975308641973,0,0,0.08641975308641973,58.59259259259257,0)" xlink:href="#j"/><use transform="matrix(0.08641975308641973,0,0,0.08641975308641973,65.41975308641973,0)" xlink:href="#k"/><use transform="matrix(0.08641975308641973,0,0,0.08641975308641973,82.70370370370368,0)" xlink:href="#h"/><use transform="matrix(0.08641975308641973,0,0,0.08641975308641973,89.53086419753085,0)" xlink:href="#j"/><use transform="matrix(0.08641975308641973,0,0,0.08641975308641973,96.358024691358,0)" xlink:href="#l"/><use transform="matrix(0.08641975308641973,0,0,0.08641975308641973,111.91358024691358,0)" xlink:href="#m"/><use transform="matrix(0.08641975308641973,0,0,0.08641975308641973,129.19753086419752,0)" xlink:href="#i"/><use transform="matrix(0.08641975308641973,0,0,0.08641975308641973,137.8395061728395,0)" xlink:href="#j"/><use transform="matrix(0.08641975308641973,0,0,0.08641975308641973,144.66666666666666,0)" xlink:href="#n"/><use transform="matrix(0.08641975308641973,0,0,0.08641975308641973,161.9506172839506,0)" xlink:href="#o"/></g><path fill="#333" d="M100-194c63 0 86 42 84 106H49c0 40 14 67 53 68 26 1 43-12 49-29l28 8c-11 28-37 45-77 45C44 4 14-33 15-96c1-61 26-98 85-98zm52 81c6-60-76-77-97-28-3 7-6 17-6 28h103" id="p"/><path fill="#333" d="M114-163C36-179 61-72 57 0H25l-1-190h30c1 12-1 29 2 39 6-27 23-49 58-41v29" id="q"/><g id="b"><use transform="matrix(0.08641975308641973,0,0,0.08641975308641973,0,0)" xlink:href="#o"/><use transform="matrix(0.08641975308641973,0,0,0.08641975308641973,17.283950617283946,0)" xlink:href="#p"/><use transform="matrix(0.08641975308641973,0,0,0.08641975308641973,34.56790123456789,0)" xlink:href="#g"/><use transform="matrix(0.08641975308641973,0,0,0.08641975308641973,51.85185185185183,0)" xlink:href="#q"/><use transform="matrix(0.08641975308641973,0,0,0.08641975308641973,62.13580246913578,0)" xlink:href="#m"/><use transform="matrix(0.08641975308641973,0,0,0.08641975308641973,79.41975308641973,0)" xlink:href="#h"/></g><g id="c"><use transform="matrix(0.08641975308641973,0,0,0.08641975308641973,0,0)" xlink:href="#l"/><use transform="matrix(0.08641975308641973,0,0,0.08641975308641973,15.555555555555552,0)" xlink:href="#j"/><use transform="matrix(0.08641975308641973,0,0,0.08641975308641973,22.38271604938271,0)" xlink:href="#q"/><use transform="matrix(0.08641975308641973,0,0,0.08641975308641973,32.66666666666666,0)" xlink:href="#l"/><use transform="matrix(0.08641975308641973,0,0,0.08641975308641973,48.222222222222214,0)" xlink:href="#g"/><use transform="matrix(0.08641975308641973,0,0,0.08641975308641973,65.50617283950615,0)" xlink:href="#j"/><use transform="matrix(0.08641975308641973,0,0,0.08641975308641973,72.33333333333331,0)" xlink:href="#i"/></g><path fill="#333" d="M143 4C61 4 22-44 18-125c-5-107 100-154 193-111 17 8 29 25 37 43l-32 9c-13-25-37-40-76-40-61 0-88 39-88 99 0 61 29 100 91 101 35 0 62-11 79-27v-45h-74v-28h105v86C228-13 192 4 143 4" id="r"/><path fill="#333" d="M85-194c31 0 48 13 60 33l-1-100h32l1 261h-30c-2-10 0-23-3-31C134-8 116 4 85 4 32 4 16-35 15-94c0-66 23-100 70-100zm9 24c-40 0-46 34-46 75 0 40 6 74 45 74 42 0 51-32 51-76 0-42-9-74-50-73" id="s"/><g id="d"><use transform="matrix(0.06172839506172839,0,0,0.06172839506172839,0,0)" xlink:href="#r"/><use transform="matrix(0.06172839506172839,0,0,0.06172839506172839,17.28395061728395,0)" xlink:href="#q"/><use transform="matrix(0.06172839506172839,0,0,0.06172839506172839,24.629629629629626,0)" xlink:href="#m"/><use transform="matrix(0.06172839506172839,0,0,0.06172839506172839,36.9753086419753,0)" xlink:href="#s"/><use transform="matrix(0.06172839506172839,0,0,0.06172839506172839,49.32098765432098,0)" xlink:href="#j"/><use transform="matrix(0.06172839506172839,0,0,0.06172839506172839,54.197530864197525,0)" xlink:href="#p"/><use transform="matrix(0.06172839506172839,0,0,0.06172839506172839,66.5432098765432,0)" xlink:href="#o"/><use transform="matrix(0.06172839506172839,0,0,0.06172839506172839,78.88888888888889,0)" xlink:href="#i"/></g><path fill="#333" d="M101-234c-31-9-42 10-38 44h38v23H63V0H32v-167H5v-23h27c-7-52 17-82 69-68v24" id="t"/><path fill="#333" d="M206 0h-36l-40-164L89 0H53L-1-190h32L70-26l43-164h34l41 164 42-164h31" id="u"/><g id="e"><use transform="matrix(0.06172839506172839,0,0,0.06172839506172839,0,0)" xlink:href="#t"/><use transform="matrix(0.06172839506172839,0,0,0.06172839506172839,6.172839506172839,0)" xlink:href="#h"/><use transform="matrix(0.06172839506172839,0,0,0.06172839506172839,11.049382716049383,0)" xlink:href="#n"/><use transform="matrix(0.06172839506172839,0,0,0.06172839506172839,23.395061728395063,0)" xlink:href="#u"/></g></defs></g></svg>