<svg xmlns="http://www.w3.org/2000/svg" xmlns:xlink="http://www.w3.org/1999/xlink" xmlns:lucid="lucid" width="1679" height="1120"><g transform="translate(-100 -70)" lucid:page-tab-id="0_0"><path d="M380 230c0 27.6-22.4 50-50 50s-50-22.4-50-50 22.4-50 50-50 50 22.4 50 50z" stroke="#5e5e5e" stroke-width="3" fill="#c3f7c8"/><use xlink:href="#a" transform="matrix(1,0,0,1,285,185) translate(32.04203703703704 55.24305555555554)"/><path d="M280.48 183.83L220.4 140.3" stroke="#5e5e5e" fill="none"/><path d="M292.44 192.5l-14.27-4.62 5.44-7.5z" stroke="#5e5e5e" fill="#5e5e5e"/><path d="M220.42 140.3l-.42-.3M279.9 275.63l-59.5 44.07" stroke="#5e5e5e" fill="none"/><path d="M291.75 266.84l-8.7 12.22-5.52-7.45z" stroke="#5e5e5e" fill="#5e5e5e"/><path d="M220.4 319.7l-.4.3" stroke="#5e5e5e" fill="none"/><path d="M560 380c0 27.6-22.4 50-50 50s-50-22.4-50-50 22.4-50 50-50 50 22.4 50 50z" stroke="#5e5e5e" stroke-width="3" fill="#c3f7c8"/><use xlink:href="#b" transform="matrix(1,0,0,1,465,335) translate(36.36302469135803 55.24305555555554)"/><path d="M577.88 380h144.24" stroke="#5e5e5e" fill="none"/><path d="M563.12 380l14.26-4.64v9.28zM736.88 380l-14.26 4.64v-9.28z" stroke="#5e5e5e" fill="#5e5e5e"/><path d="M370.2 262.96l89.48 71.63" stroke="#5e5e5e" fill="none"/><path d="M370.5 262.58l-.6.78-.4-.32.6-.8z" stroke="#5e5e5e" stroke-width=".05" fill="#5e5e5e"/><path d="M471.2 343.82l-14.03-5.3 5.8-7.24z" stroke="#5e5e5e" fill="#5e5e5e"/><path d="M840 380c0 27.6-22.4 50-50 50s-50-22.4-50-50 22.4-50 50-50 50 22.4 50 50z" stroke="#5e5e5e" stroke-width="3" fill="#c3f7c8"/><use xlink:href="#a" transform="matrix(1,0,0,1,745,335) translate(32.04203703703704 55.24305555555554)"/><path d="M743 428.57L220.4 819.7" stroke="#5e5e5e" fill="none"/><path d="M754.84 419.72l-8.65 12.26-5.56-7.43z" stroke="#5e5e5e" fill="#5e5e5e"/><path d="M220.4 819.7l-.4.3M459.66 425.3L220.4 593.84" stroke="#5e5e5e" fill="none"/><path d="M471.73 416.8l-9 12-5.33-7.56z" stroke="#5e5e5e" fill="#5e5e5e"/><path d="M220.42 593.83l-.42.3" stroke="#5e5e5e" fill="none"/><path d="M1020 530c0 27.6-22.4 50-50 50s-50-22.4-50-50 22.4-50 50-50 50 22.4 50 50z" stroke="#5e5e5e" stroke-width="3" fill="#c3f7c8"/><use xlink:href="#b" transform="matrix(1,0,0,1,924.9999999999999,485) translate(36.36302469135803 55.24305555555554)"/><path d="M917.1 572.5L600 820l-374.5 292.34" stroke="#5e5e5e" fill="none"/><path d="M928.72 563.4l-8.4 12.43-5.7-7.3z" stroke="#5e5e5e" fill="#5e5e5e"/><path d="M225.5 1112.33l-.4.32M830.18 412.97l91.3 69.8" stroke="#5e5e5e" fill="none"/><path d="M830.5 412.58l-.6.8-.42-.32.6-.8z" stroke="#5e5e5e" stroke-width=".05" fill="#5e5e5e"/><path d="M933.2 491.74l-14.14-4.98 5.63-7.37z" stroke="#5e5e5e" fill="#5e5e5e"/><path d="M140 120h66v50.2h-66z" fill="#fff" fill-opacity="0"/><path d="M160.04 134.5l2.96-4.54c1.7-2.63 4-5.52 7.3-5.52 2.1 0 3.22.78 3.22 2.16 0 1.25-.86 2.76-2.57 2.76-1.44 0-1.77-.6-2.9-.6-1.96 0-2.68 1.06-3.6 2.5l-3.62 5.6c1.97 4.07 3.5 12.94 6.44 12.94 1.05 0 2.63-.92 4-3.74l.93.65c-.8 1-3.74 7.3-7.56 7.3-2.7 0-3.94-2.7-4.8-5.05l-2.62-7.43-4.14 6.44c-2.1 3.22-4 6.05-7.7 6.05-2.36 0-3.4-1.63-3.4-3.08 0-1.05.85-2.43 2.5-2.43 1.7 0 1.43 1.3 3.08 1.3.8 0 2.5-.65 4.6-3.87l4.27-6.64-2.17-6.06c-1.12-3.15-2.83-5.85-6.44-5.85-.85 0-1.84.12-2.5.4l-.2-1.2 8.68-2.16c2.9 1.57 4.14 4.27 4.93 6.44M194.45 163.3h-12.82v-.68c3.44-.2 4.4-1.16 4.4-3.72v-20.86c0-1.58-.4-2.28-1.38-2.28-.46 0-1.25.23-2.1.56l-1.25.46v-.65l8.32-4.22.42.14v27.74c0 2 .93 2.84 4.4 2.84v.7"/><path d="M140 300h66v50.2h-66z" fill="#fff" fill-opacity="0"/><path d="M160.04 314.5l2.96-4.54c1.7-2.63 4-5.52 7.3-5.52 2.1 0 3.22.78 3.22 2.16 0 1.25-.86 2.76-2.57 2.76-1.44 0-1.77-.6-2.9-.6-1.96 0-2.68 1.06-3.6 2.5l-3.62 5.6c1.97 4.07 3.5 12.94 6.44 12.94 1.05 0 2.63-.92 4-3.74l.93.65c-.8 1-3.74 7.3-7.56 7.3-2.7 0-3.94-2.7-4.8-5.05l-2.62-7.43-4.14 6.44c-2.1 3.22-4 6.05-7.7 6.05-2.36 0-3.4-1.63-3.4-3.08 0-1.05.85-2.43 2.5-2.43 1.7 0 1.43 1.3 3.08 1.3.8 0 2.5-.65 4.6-3.87l4.27-6.64-2.17-6.06c-1.12-3.15-2.83-5.85-6.44-5.85-.85 0-1.84.12-2.5.4l-.2-1.2 8.68-2.16c2.9 1.57 4.14 4.27 4.93 6.44M198.17 336.95l-2.5 6.36h-18.18v-.54l8.27-8.8c4.36-4.6 6.04-8.12 6.04-12.07 0-4.23-2.5-6.56-6.45-6.56-3.35 0-4.97 1.5-6.83 6.04l-.98-.23c.98-5.43 3.95-9.24 9.67-9.24 5.26 0 8.6 3.58 8.6 8.18 0 3.67-1.8 7.16-5.95 11.53l-7.66 8.18h10.86c1.95 0 2.93-.5 4.46-3.1"/><path d="M140 580h66v50.2h-66z" fill="#fff" fill-opacity="0"/><path d="M160.04 594.5l2.96-4.54c1.7-2.63 4-5.52 7.3-5.52 2.1 0 3.22.78 3.22 2.16 0 1.25-.86 2.76-2.57 2.76-1.44 0-1.77-.6-2.9-.6-1.96 0-2.68 1.06-3.6 2.5l-3.62 5.6c1.97 4.07 3.5 12.94 6.44 12.94 1.05 0 2.63-.92 4-3.74l.93.65c-.8 1-3.74 7.3-7.56 7.3-2.7 0-3.94-2.7-4.8-5.05l-2.62-7.43-4.14 6.44c-2.1 3.22-4 6.05-7.7 6.05-2.36 0-3.4-1.63-3.4-3.08 0-1.05.85-2.43 2.5-2.43 1.7 0 1.43 1.3 3.08 1.3.8 0 2.5-.65 4.6-3.87l4.27-6.64-2.17-6.06c-1.12-3.15-2.83-5.85-6.44-5.85-.85 0-1.84.12-2.5.4l-.2-1.2 8.68-2.16c2.9 1.57 4.14 4.27 4.93 6.44M178.98 599.62l-.74-.2c1.35-4.4 4.27-7.5 9.1-7.5 4.33 0 7.25 2.54 7.25 6.35 0 2.23-1.22 4.55-4.33 6.4 2.05.9 2.88 1.45 3.86 2.47 1.3 1.45 2.04 3.58 2.04 6 0 2.46-.8 4.74-2.13 6.5-2.23 2.98-6.65 4.32-10.78 4.32-3.4 0-5.2-.97-5.2-2.64 0-.98.83-1.68 1.9-1.68.8 0 1.53.28 2.83 1.2 1.7 1.22 2.7 1.45 4 1.45 3.43 0 6.03-3.17 6.03-7.12 0-3.53-1.63-5.8-4.83-6.73-1.03-.33-2.1-.47-4.74-.47v-.65c1.76-.6 2.97-1.1 3.9-1.67 2.28-1.3 3.76-3.4 3.76-6.23 0-3.16-1.95-4.74-5.02-4.74-2.88 0-5 1.48-6.92 4.92"/><path d="M140 809.8h66V860h-66z" fill="#fff" fill-opacity="0"/><path d="M160.04 824.3l2.96-4.54c1.7-2.63 4-5.52 7.3-5.52 2.1 0 3.22.8 3.22 2.17 0 1.26-.86 2.77-2.57 2.77-1.44 0-1.77-.6-2.9-.6-1.96 0-2.68 1.06-3.6 2.5l-3.62 5.6c1.97 4.07 3.5 12.94 6.44 12.94 1.05 0 2.63-.9 4-3.74l.93.66c-.8 1-3.74 7.3-7.56 7.3-2.7 0-3.94-2.7-4.8-5.07l-2.62-7.42-4.14 6.44c-2.1 3.22-4 6.04-7.7 6.04-2.36 0-3.4-1.63-3.4-3.07 0-1.06.85-2.44 2.5-2.44 1.7 0 1.43 1.3 3.08 1.3.8 0 2.5-.65 4.6-3.87l4.27-6.64-2.17-6.05c-1.12-3.16-2.83-5.85-6.44-5.85-.85 0-1.84.13-2.5.4l-.2-1.2 8.68-2.16c2.9 1.58 4.14 4.27 4.93 6.44M198.12 845.36h-4.78v7.76h-3.63v-7.76h-13v-2.97l14.6-20.7h2.04v20.7h4.78v2.96m-8.4-2.97v-15.95l-11.16 15.94h11.15"/><path d="M140 1080h66v50.2h-66z" fill="#fff" fill-opacity="0"/><path d="M160.04 1094.5l2.96-4.54c1.7-2.63 4-5.52 7.3-5.52 2.1 0 3.22.78 3.22 2.16 0 1.25-.86 2.76-2.57 2.76-1.44 0-1.77-.6-2.9-.6-1.96 0-2.68 1.06-3.6 2.5l-3.62 5.6c1.97 4.07 3.5 12.94 6.44 12.94 1.05 0 2.63-.92 4-3.74l.93.65c-.8 1-3.74 7.3-7.56 7.3-2.7 0-3.94-2.7-4.8-5.05l-2.62-7.43-4.14 6.44c-2.1 3.22-4 6.05-7.7 6.05-2.36 0-3.4-1.63-3.4-3.08 0-1.05.85-2.43 2.5-2.43 1.7 0 1.43 1.3 3.08 1.3.8 0 2.5-.65 4.6-3.87l4.27-6.64-2.17-6.06c-1.12-3.15-2.83-5.85-6.44-5.85-.85 0-1.84.12-2.5.4l-.2-1.2 8.68-2.16c2.9 1.57 4.14 4.27 4.93 6.44M196.5 1091.67l-1.67 3.95c-.14.33-.52.6-1.26.6h-9l-1.87 3.96c6.64 1.25 8.97 2.27 11.6 5.94 1.22 1.68 1.64 3.44 1.64 5.9 0 4.46-1.4 7.34-4.55 9.67-2.2 1.57-4.75 2.26-7.9 2.26-3.5 0-5.9-1.1-5.9-2.88 0-1.16.78-1.76 2.08-1.76 1.07 0 1.95.23 3.44 1.44 1.3 1.07 2.37 1.48 3.3 1.48 3.25 0 6.27-3.85 6.27-7.85 0-2.98-1.03-5.3-3.13-6.98-2.18-1.76-5.43-3.25-9.9-3.25-.4 0-.55-.1-.55-.37 0-.1.05-.23.05-.23l5.06-11h9.62c1.07 0 1.5-.25 2.23-1.22"/><path d="M1021.3 538.03h222.32" stroke="#5e5e5e" fill="none"/><path d="M1021.33 538.53h-.6l.16-1h.43z" stroke="#5e5e5e" stroke-width=".05" fill="#5e5e5e"/><path d="M1258.38 538.03l-14.26 4.64v-9.27z" stroke="#5e5e5e" fill="#5e5e5e"/><path d="M1260 520h32.83v46.03H1260z" fill="#fff" fill-opacity="0"/><path d="M1290.7 528v1.06l-21.17 23.66.2.07c1.24-.93 2.9-1.4 4.4-1.4 6.05 0 6.24 5.66 9.2 5.66 1 0 1.77-.53 1.77-1.58 0-.85-.78-1.05-.78-2.5 0-1.25 1.24-2.5 2.5-2.5 1.64 0 2.62 1.2 2.62 2.77 0 3.55-3.94 5.25-6.96 5.25-1.45 0-3.1-.6-4.47-.92-2.1-.6-4.33-.92-6.5-.92-2.63 0-5.6.53-8.02 1.58l-.72-.66 21.56-24.3h-8.6c-3.76 0-5.34.38-6.85 4l-1.18-.27 2.35-9h20.64"/><path d="M380 160h248.4v41.5H380z" fill="#cfe4ff"/><path d="M394.2 176.18l2.1-3.22c1.22-1.86 2.85-3.9 5.18-3.9 1.5 0 2.3.55 2.3 1.53 0 .87-.62 1.95-1.83 1.95-1.03 0-1.26-.42-2.05-.42-1.4 0-1.9.74-2.56 1.77l-2.57 3.96c1.4 2.9 2.47 9.18 4.57 9.18.75 0 1.86-.65 2.84-2.66l.65.47c-.55.7-2.65 5.17-5.35 5.17-1.92 0-2.8-1.9-3.4-3.6l-1.87-5.25-2.93 4.56c-1.5 2.3-2.84 4.3-5.45 4.3-1.68 0-2.42-1.17-2.42-2.2 0-.75.6-1.72 1.77-1.72 1.2 0 1.02.94 2.2.94.55 0 1.76-.47 3.25-2.75l3.03-4.72-1.54-4.3c-.78-2.22-2-4.13-4.55-4.13-.6 0-1.3.1-1.78.28l-.14-.84 6.16-1.55c2.04 1.12 2.92 3.03 3.48 4.57M418.6 196.62h-9.08v-.5c2.44-.13 3.13-.82 3.13-2.63v-14.8c0-1.12-.3-1.62-1-1.62-.32 0-.88.17-1.47.4l-.9.33v-.46l5.9-3 .3.1v19.68c0 1.4.66 2 3.13 2v.5M466.77 179.35H454.6v12.16h-3.07v-12.15h-12.16v-3.08h12.16V164.1h3.08v12.17h12.17v3.08M493.66 176.18l2.1-3.22c1.2-1.86 2.84-3.9 5.17-3.9 1.5 0 2.28.55 2.28 1.53 0 .87-.6 1.95-1.8 1.95-1.03 0-1.26-.42-2.05-.42-1.4 0-1.9.74-2.57 1.77l-2.56 3.96c1.4 2.9 2.47 9.18 4.57 9.18.73 0 1.85-.65 2.83-2.66l.65.47c-.56.7-2.65 5.17-5.36 5.17-1.9 0-2.8-1.9-3.4-3.6l-1.86-5.25-2.94 4.56c-1.5 2.3-2.84 4.3-5.45 4.3-1.68 0-2.42-1.17-2.42-2.2 0-.75.6-1.72 1.77-1.72 1.2 0 1.02.94 2.2.94.55 0 1.76-.47 3.25-2.75l3.03-4.72-1.54-4.3c-.8-2.22-2-4.13-4.57-4.13-.6 0-1.3.1-1.78.28l-.14-.84 6.15-1.55c2.05 1.12 2.94 3.03 3.5 4.57M520.7 192.1l-1.78 4.52h-12.88v-.4l5.86-6.22c3.1-3.27 4.28-5.77 4.28-8.57 0-3-1.78-4.65-4.58-4.65-2.37 0-3.52 1.06-4.84 4.3l-.7-.18c.7-3.85 2.8-6.55 6.86-6.55 3.73 0 6.1 2.53 6.1 5.8 0 2.6-1.3 5.07-4.22 8.17l-5.44 5.8h7.7c1.4 0 2.1-.37 3.18-2.2M568.88 174.7h-27.45v-3.1h27.45v3.1m0 9.3h-27.45v-3.07h27.45V184M596.65 175.3l1.3 10.95c2.85-3.87 4.48-6.67 5.5-8.58.94-1.72 1.3-2.65 1.3-3.5 0-.97-2.4-1.44-2.4-3.2 0-1.03.82-1.87 2.18-1.87 1.5 0 2.65 1.07 2.65 2.9 0 3.62-7.55 14.8-9.5 17.28-3.4 4.28-6.44 8.85-9.6 8.85-1.73 0-2.6-1.45-2.6-2.56 0-1.4 1.24-1.9 1.85-1.9 2 0 1.9 1.43 2.66 1.43.78 0 3.44-2.9 4.65-4.75l-1.77-14.64c-.24-2.08-.66-4.88-3.27-4.88-.5 0-1.24.14-1.66.2l-.1-.76 7-1.16c1.07 1.53 1.4 2.75 1.8 6.2M620.18 196.62h-9.1v-.5c2.44-.13 3.14-.82 3.14-2.63v-14.8c0-1.12-.3-1.62-1-1.62-.32 0-.88.17-1.48.4l-.9.33v-.46l5.9-3 .3.1v19.68c0 1.4.67 2 3.14 2v.5"/><path d="M537.5 260h505v44.05h-505z" fill="#cfe4ff"/><path d="M550.67 299.97l-.52.7c-6.85-3.9-10.57-11.23-10.57-18.6 0-8 3.77-14.24 10.7-18.35l.4.7c-6.03 5.14-7.38 9.17-7.38 17.53 0 8.06 1.3 12.95 7.37 18.02M565.13 280.52l1.95-3c1.13-1.72 2.64-3.63 4.8-3.63 1.4 0 2.13.5 2.13 1.42 0 .83-.55 1.82-1.68 1.82-.95 0-1.17-.4-1.9-.4-1.3 0-1.78.7-2.38 1.66l-2.4 3.68c1.3 2.7 2.3 8.53 4.26 8.53.7 0 1.73-.6 2.64-2.46l.6.44c-.5.65-2.46 4.8-4.97 4.8-1.78 0-2.6-1.77-3.17-3.33l-1.73-4.9-2.73 4.25c-1.38 2.12-2.64 4-5.07 4-1.55 0-2.25-1.1-2.25-2.05 0-.7.57-1.6 1.65-1.6 1.12 0 .95.86 2.03.86.52 0 1.65-.42 3.04-2.54l2.8-4.38-1.42-3.98c-.73-2.08-1.86-3.86-4.24-3.86-.57 0-1.22.1-1.65.26l-.13-.78 5.72-1.43c1.9 1.03 2.73 2.8 3.25 4.24M587.8 299.52h-8.44v-.46c2.27-.12 2.9-.77 2.9-2.45v-13.74c0-1.04-.27-1.5-.9-1.5-.32 0-.84.15-1.4.37l-.8.3v-.43l5.47-2.78.27.1v18.27c0 1.3.62 1.86 2.9 1.86v.46M632.6 283.47h-11.3v11.3h-2.85v-11.3h-11.3v-2.86h11.3v-11.3h2.86v11.3h11.3v2.87M657.56 280.52l1.95-3c1.14-1.72 2.65-3.63 4.82-3.63 1.4 0 2.12.5 2.12 1.42 0 .83-.56 1.82-1.7 1.82-.94 0-1.16-.4-1.9-.4-1.3 0-1.77.7-2.38 1.66l-2.38 3.68c1.3 2.7 2.3 8.53 4.25 8.53.7 0 1.73-.6 2.64-2.46l.6.44c-.5.65-2.46 4.8-4.98 4.8-1.78 0-2.6-1.77-3.17-3.33l-1.73-4.9-2.73 4.25c-1.38 2.12-2.64 4-5.07 4-1.56 0-2.25-1.1-2.25-2.05 0-.7.56-1.6 1.65-1.6 1.12 0 .95.86 2.03.86.52 0 1.65-.42 3.04-2.54l2.8-4.38-1.42-3.98c-.74-2.08-1.86-3.86-4.24-3.86-.56 0-1.2.1-1.64.26l-.13-.78 5.72-1.43c1.9 1.03 2.73 2.8 3.25 4.24M682.7 295.32l-1.66 4.2h-11.98v-.37l5.46-5.8c2.87-3.02 3.98-5.35 3.98-7.95 0-2.8-1.66-4.32-4.26-4.32-2.2 0-3.28.98-4.5 3.98l-.64-.15c.64-3.57 2.6-6.08 6.36-6.08 3.46 0 5.67 2.36 5.67 5.4 0 2.4-1.2 4.7-3.92 7.58l-5.04 5.4h7.16c1.3 0 1.93-.35 2.94-2.06M689.14 264.4l.52-.68c6.62 3.98 10.57 11.2 10.57 18.58 0 8-3.82 14.16-10.7 18.36l-.4-.7c6.16-5.06 7.37-9.13 7.37-17.53 0-8.1-1.08-13.08-7.36-18.02M720.7 282.04c0 1.38-1.16 2.6-2.54 2.6-1.43 0-2.64-1.3-2.64-2.6s1.2-2.6 2.64-2.6c1.38 0 2.55 1.2 2.55 2.6M747.18 280.52l1.95-3c1.12-1.72 2.64-3.63 4.8-3.63 1.4 0 2.13.5 2.13 1.42 0 .83-.57 1.82-1.7 1.82-.95 0-1.16-.4-1.9-.4-1.3 0-1.77.7-2.38 1.66l-2.38 3.68c1.3 2.7 2.3 8.53 4.24 8.53.7 0 1.73-.6 2.64-2.46l.6.44c-.5.65-2.46 4.8-4.97 4.8-1.77 0-2.6-1.77-3.15-3.33l-1.74-4.9-2.7 4.25c-1.4 2.12-2.66 4-5.08 4-1.56 0-2.25-1.1-2.25-2.05 0-.7.56-1.6 1.64-1.6 1.14 0 .96.86 2.05.86.52 0 1.64-.42 3.03-2.54l2.8-4.38-1.4-3.98c-.75-2.08-1.88-3.86-4.26-3.86-.56 0-1.2.1-1.65.26l-.13-.78 5.72-1.43c1.9 1.03 2.73 2.8 3.25 4.24M759.66 283.9l-.5-.12c.9-2.9 2.83-4.96 6-4.96 2.86 0 4.8 1.68 4.8 4.2 0 1.46-.8 3-2.86 4.22 1.35.58 1.9.95 2.54 1.62.86.95 1.35 2.36 1.35 3.95 0 1.63-.53 3.14-1.42 4.3-1.47 1.96-4.38 2.85-7.1 2.85-2.24 0-3.43-.65-3.43-1.75 0-.64.55-1.1 1.25-1.1.52 0 1 .18 1.87.8 1.13.8 1.78.94 2.63.94 2.27 0 3.98-2.08 3.98-4.68 0-2.33-1.07-3.83-3.18-4.44-.67-.22-1.38-.3-3.12-.3v-.44c1.16-.4 1.96-.73 2.57-1.1 1.5-.86 2.48-2.23 2.48-4.1 0-2.08-1.3-3.13-3.3-3.13-1.9 0-3.32.98-4.57 3.25M817.08 279.14h-25.5v-2.86h25.5v2.86m0 8.66h-25.5v-2.86h25.5v2.86M842.94 279.7l1.2 10.18c2.66-3.6 4.17-6.2 5.12-7.97.87-1.6 1.22-2.46 1.22-3.24 0-.9-2.25-1.34-2.25-3 0-.94.77-1.72 2.03-1.72 1.4 0 2.47 1 2.47 2.68 0 3.38-7.02 13.78-8.84 16.07-3.17 3.98-5.98 8.22-8.93 8.22-1.6 0-2.42-1.34-2.42-2.38 0-1.3 1.17-1.78 1.73-1.78 1.86 0 1.77 1.35 2.47 1.35.73 0 3.2-2.68 4.33-4.4l-1.65-13.6c-.2-1.96-.6-4.56-3.03-4.56-.48 0-1.17.13-1.56.17l-.08-.68 6.5-1.08c1 1.43 1.3 2.55 1.68 5.76M864.8 299.52h-8.44v-.46c2.26-.12 2.9-.77 2.9-2.45v-13.74c0-1.04-.27-1.5-.9-1.5-.32 0-.84.15-1.4.37l-.82.3v-.43l5.48-2.78.28.1v18.27c0 1.3.6 1.86 2.9 1.86v.46M890.8 282.04c0 1.38-1.17 2.6-2.55 2.6-1.43 0-2.65-1.3-2.65-2.6s1.22-2.6 2.65-2.6c1.38 0 2.55 1.2 2.55 2.6M917.27 280.52l1.94-3c1.14-1.72 2.66-3.63 4.82-3.63 1.4 0 2.12.5 2.12 1.42 0 .83-.56 1.82-1.68 1.82-.96 0-1.17-.4-1.9-.4-1.3 0-1.8.7-2.4 1.66l-2.37 3.68c1.28 2.7 2.28 8.53 4.23 8.53.7 0 1.73-.6 2.64-2.46l.6.44c-.5.65-2.46 4.8-4.97 4.8-1.78 0-2.6-1.77-3.16-3.33l-1.74-4.9-2.73 4.25c-1.38 2.12-2.64 4-5.06 4-1.55 0-2.25-1.1-2.25-2.05 0-.7.57-1.6 1.65-1.6 1.13 0 .95.86 2.04.86.52 0 1.64-.42 3.03-2.54l2.8-4.38-1.42-3.98c-.73-2.08-1.86-3.86-4.24-3.86-.55 0-1.2.1-1.64.26l-.13-.78 5.72-1.43c1.9 1.03 2.73 2.8 3.25 4.24M929.75 283.9l-.5-.12c.9-2.9 2.82-4.96 6-4.96 2.86 0 4.8 1.68 4.8 4.2 0 1.46-.8 3-2.86 4.22 1.34.58 1.9.95 2.53 1.62.86.95 1.35 2.36 1.35 3.95 0 1.63-.52 3.14-1.4 4.3-1.48 1.96-4.4 2.85-7.12 2.85-2.23 0-3.43-.65-3.43-1.75 0-.64.56-1.1 1.26-1.1.5 0 1 .18 1.86.8 1.13.8 1.77.94 2.63.94 2.26 0 3.97-2.08 3.97-4.68 0-2.33-1.07-3.83-3.18-4.44-.7-.22-1.4-.3-3.14-.3v-.44c1.17-.4 1.96-.73 2.58-1.1 1.5-.86 2.48-2.23 2.48-4.1 0-2.08-1.3-3.13-3.3-3.13-1.9 0-3.32.98-4.57 3.25M987.17 279.14h-25.5v-2.86h25.5v2.86m0 8.66h-25.5v-2.86h25.5v2.86M1013 279.7l1.2 10.18c2.64-3.6 4.16-6.2 5.1-7.97.88-1.6 1.22-2.46 1.22-3.24 0-.9-2.25-1.34-2.25-3 0-.94.78-1.72 2.04-1.72 1.4 0 2.48 1 2.48 2.68 0 3.38-7.02 13.78-8.84 16.07-3.16 3.98-5.98 8.22-8.92 8.22-1.6 0-2.43-1.34-2.43-2.38 0-1.3 1.16-1.78 1.72-1.78 1.87 0 1.78 1.35 2.47 1.35.73 0 3.2-2.68 4.32-4.4l-1.64-13.6c-.22-1.96-.6-4.56-3.03-4.56-.48 0-1.17.13-1.56.17l-.1-.68 6.5-1.08c1 1.43 1.3 2.55 1.7 5.76M1037.3 295.32l-1.65 4.2h-11.97v-.37l5.45-5.8c2.88-3.02 3.98-5.35 3.98-7.95 0-2.8-1.64-4.32-4.25-4.32-2.2 0-3.27.98-4.5 3.98l-.64-.15c.65-3.57 2.6-6.08 6.38-6.08 3.46 0 5.66 2.36 5.66 5.4 0 2.4-1.2 4.7-3.92 7.58l-5.05 5.4h7.17c1.28 0 1.92-.35 2.94-2.06"/><path d="M840 330h614.72v44.05H840z" fill="#cfe4ff"/><path d="M853.17 369.97l-.52.7c-6.85-3.9-10.57-11.23-10.57-18.6 0-8 3.77-14.24 10.7-18.35l.4.7c-6.03 5.14-7.38 9.17-7.38 17.53 0 8.06 1.3 12.95 7.37 18.02M867.63 350.52l1.95-3c1.13-1.72 2.64-3.63 4.8-3.63 1.4 0 2.13.5 2.13 1.42 0 .83-.55 1.82-1.68 1.82-.95 0-1.17-.4-1.9-.4-1.3 0-1.78.7-2.38 1.66l-2.4 3.68c1.3 2.7 2.3 8.53 4.26 8.53.7 0 1.73-.6 2.64-2.46l.6.44c-.5.65-2.46 4.8-4.97 4.8-1.78 0-2.6-1.77-3.17-3.33l-1.73-4.9-2.73 4.25c-1.38 2.12-2.64 4-5.07 4-1.55 0-2.25-1.1-2.25-2.05 0-.7.57-1.6 1.65-1.6 1.12 0 .95.86 2.03.86.52 0 1.65-.42 3.04-2.54l2.8-4.38-1.42-3.98c-.73-2.08-1.86-3.86-4.24-3.86-.57 0-1.22.1-1.65.26l-.13-.78 5.72-1.43c1.9 1.03 2.73 2.8 3.25 4.24M890.3 369.52h-8.44v-.46c2.27-.12 2.9-.77 2.9-2.45v-13.74c0-1.04-.27-1.5-.9-1.5-.32 0-.84.15-1.4.37l-.8.3v-.43l5.47-2.78.27.1v18.27c0 1.3.62 1.86 2.9 1.86v.46M935.1 353.47h-11.3v11.3h-2.85v-11.3h-11.3v-2.86h11.3v-11.3h2.86v11.3h11.3v2.87M960.06 350.52l1.95-3c1.14-1.72 2.65-3.63 4.82-3.63 1.4 0 2.12.5 2.12 1.42 0 .83-.56 1.82-1.7 1.82-.94 0-1.16-.4-1.9-.4-1.3 0-1.77.7-2.38 1.66l-2.38 3.68c1.3 2.7 2.3 8.53 4.25 8.53.7 0 1.73-.6 2.64-2.46l.6.44c-.5.65-2.46 4.8-4.98 4.8-1.78 0-2.6-1.77-3.17-3.33l-1.73-4.9-2.73 4.25c-1.38 2.12-2.64 4-5.07 4-1.56 0-2.25-1.1-2.25-2.05 0-.7.56-1.6 1.65-1.6 1.12 0 .95.86 2.03.86.52 0 1.65-.42 3.04-2.54l2.8-4.38-1.42-3.98c-.74-2.08-1.86-3.86-4.24-3.86-.56 0-1.2.1-1.64.26l-.13-.78 5.72-1.43c1.9 1.03 2.73 2.8 3.25 4.24M985.2 365.32l-1.66 4.2h-11.98v-.37l5.46-5.8c2.87-3.02 3.98-5.35 3.98-7.95 0-2.8-1.66-4.32-4.26-4.32-2.2 0-3.28.98-4.5 3.98l-.64-.15c.64-3.57 2.6-6.08 6.36-6.08 3.46 0 5.67 2.36 5.67 5.4 0 2.4-1.2 4.7-3.92 7.58l-5.04 5.4h7.16c1.3 0 1.93-.35 2.94-2.06M991.64 334.4l.52-.68c6.62 3.98 10.57 11.2 10.57 18.58 0 8-3.82 14.16-10.7 18.36l-.4-.7c6.16-5.06 7.37-9.13 7.37-17.53 0-8.1-1.08-13.08-7.36-18.02M1023.2 352.04c0 1.38-1.16 2.6-2.54 2.6-1.43 0-2.64-1.3-2.64-2.6s1.2-2.6 2.64-2.6c1.38 0 2.55 1.2 2.55 2.6M1049.68 350.52l1.95-3c1.12-1.72 2.64-3.63 4.8-3.63 1.4 0 2.13.5 2.13 1.42 0 .83-.57 1.82-1.7 1.82-.95 0-1.16-.4-1.9-.4-1.3 0-1.77.7-2.38 1.66l-2.38 3.68c1.3 2.7 2.3 8.53 4.24 8.53.7 0 1.73-.6 2.64-2.46l.6.44c-.5.65-2.46 4.8-4.97 4.8-1.77 0-2.6-1.77-3.15-3.33l-1.74-4.9-2.7 4.25c-1.4 2.12-2.66 4-5.08 4-1.56 0-2.25-1.1-2.25-2.05 0-.7.56-1.6 1.64-1.6 1.14 0 .96.86 2.05.86.52 0 1.64-.42 3.03-2.54l2.8-4.38-1.4-3.98c-.75-2.08-1.88-3.86-4.26-3.86-.56 0-1.2.1-1.65.26l-.13-.78 5.72-1.43c1.9 1.03 2.73 2.8 3.25 4.24M1062.16 353.9l-.5-.12c.9-2.9 2.83-4.96 6-4.96 2.86 0 4.8 1.68 4.8 4.2 0 1.46-.8 3-2.86 4.22 1.35.58 1.9.95 2.54 1.62.86.95 1.35 2.36 1.35 3.95 0 1.63-.53 3.14-1.42 4.3-1.47 1.96-4.38 2.85-7.1 2.85-2.24 0-3.43-.65-3.43-1.75 0-.64.55-1.1 1.25-1.1.52 0 1 .18 1.87.8 1.13.8 1.78.94 2.63.94 2.27 0 3.98-2.08 3.98-4.68 0-2.33-1.07-3.83-3.18-4.44-.67-.22-1.38-.3-3.12-.3v-.44c1.16-.4 1.96-.73 2.57-1.1 1.5-.86 2.48-2.23 2.48-4.1 0-2.08-1.3-3.13-3.3-3.13-1.9 0-3.32.98-4.57 3.25M1117.16 353.47h-11.3v11.3h-2.87v-11.3h-11.3v-2.86h11.3v-11.3h2.85v11.3h11.3v2.87M1142.15 350.52l1.95-3c1.12-1.72 2.64-3.63 4.8-3.63 1.4 0 2.13.5 2.13 1.42 0 .83-.56 1.82-1.7 1.82-.94 0-1.16-.4-1.9-.4-1.3 0-1.77.7-2.38 1.66l-2.38 3.68c1.3 2.7 2.3 8.53 4.24 8.53.7 0 1.75-.6 2.66-2.46l.6.44c-.52.65-2.47 4.8-4.98 4.8-1.77 0-2.6-1.77-3.16-3.33l-1.73-4.9-2.74 4.25c-1.4 2.12-2.64 4-5.07 4-1.57 0-2.26-1.1-2.26-2.05 0-.7.56-1.6 1.64-1.6 1.13 0 .96.86 2.04.86.52 0 1.65-.42 3.03-2.54l2.82-4.38-1.43-3.98c-.74-2.08-1.86-3.86-4.25-3.86-.57 0-1.22.1-1.65.26l-.13-.78 5.7-1.43c1.92 1.03 2.74 2.8 3.26 4.24M1167.25 364.4h-3.16v5.12h-2.4v-5.12h-8.57v-1.96l9.62-13.62h1.34v13.62h3.15v1.96m-5.55-1.96v-10.5l-7.34 10.5h7.34M1212.06 349.14h-25.52v-2.86h25.52v2.86m0 8.66h-25.52v-2.86h25.52v2.86M1237.87 349.7l1.2 10.18c2.66-3.6 4.17-6.2 5.12-7.97.86-1.6 1.2-2.46 1.2-3.24 0-.9-2.25-1.34-2.25-3 0-.94.78-1.72 2.04-1.72 1.38 0 2.46 1 2.46 2.68 0 3.38-7.02 13.78-8.84 16.07-3.16 3.98-5.97 8.22-8.92 8.22-1.6 0-2.42-1.34-2.42-2.38 0-1.3 1.16-1.78 1.73-1.78 1.87 0 1.78 1.35 2.48 1.35.73 0 3.2-2.68 4.33-4.4l-1.64-13.6c-.2-1.96-.6-4.56-3.03-4.56-.48 0-1.17.13-1.56.17l-.1-.68 6.5-1.08c1 1.43 1.3 2.55 1.7 5.76M1262.2 365.32l-1.67 4.2h-11.97v-.37l5.45-5.8c2.9-3.02 4-5.35 4-7.95 0-2.8-1.66-4.32-4.26-4.32-2.2 0-3.28.98-4.5 3.98l-.65-.15c.63-3.57 2.6-6.08 6.36-6.08 3.46 0 5.67 2.36 5.67 5.4 0 2.4-1.2 4.7-3.92 7.58l-5.05 5.4h7.17c1.3 0 1.93-.35 2.94-2.06M1304.53 353.47h-11.3v11.3h-2.86v-11.3h-11.3v-2.86h11.3v-11.3h2.85v11.3h11.3v2.87M1329.48 350.52l1.95-3c1.12-1.72 2.64-3.63 4.8-3.63 1.4 0 2.13.5 2.13 1.42 0 .83-.57 1.82-1.7 1.82-.95 0-1.16-.4-1.9-.4-1.3 0-1.77.7-2.38 1.66l-2.38 3.68c1.3 2.7 2.3 8.53 4.24 8.53.7 0 1.73-.6 2.64-2.46l.6.44c-.5.65-2.46 4.8-4.97 4.8-1.77 0-2.6-1.77-3.15-3.33l-1.74-4.9-2.7 4.25c-1.4 2.12-2.66 4-5.08 4-1.56 0-2.25-1.1-2.25-2.05 0-.7.56-1.6 1.64-1.6 1.14 0 .96.86 2.05.86.52 0 1.64-.42 3.03-2.54l2.8-4.38-1.4-3.98c-.75-2.08-1.88-3.86-4.26-3.86-.56 0-1.2.1-1.65.26l-.13-.78 5.72-1.43c1.9 1.03 2.73 2.8 3.25 4.24M1354.57 364.4h-3.15v5.12h-2.4v-5.12h-8.56v-1.96l9.6-13.62h1.36v13.62h3.15v1.96m-5.54-1.96v-10.5l-7.35 10.5h7.35M1399.43 349.14h-25.5v-2.86h25.5v2.86m0 8.66h-25.5v-2.86h25.5v2.86M1425.24 349.7l1.2 10.18c2.66-3.6 4.17-6.2 5.12-7.97.87-1.6 1.22-2.46 1.22-3.24 0-.9-2.25-1.34-2.25-3 0-.94.77-1.72 2.03-1.72 1.4 0 2.47 1 2.47 2.68 0 3.38-7.02 13.78-8.84 16.07-3.17 3.98-5.98 8.22-8.93 8.22-1.6 0-2.42-1.34-2.42-2.38 0-1.3 1.17-1.78 1.73-1.78 1.86 0 1.77 1.35 2.47 1.35.73 0 3.2-2.68 4.33-4.4l-1.65-13.6c-.2-1.96-.6-4.56-3.03-4.56-.48 0-1.17.13-1.56.17l-.08-.68 6.5-1.08c1 1.43 1.3 2.55 1.68 5.76M1436.9 353.9l-.48-.12c.9-2.9 2.82-4.96 6-4.96 2.85 0 4.78 1.68 4.78 4.2 0 1.46-.8 3-2.85 4.22 1.35.58 1.9.95 2.54 1.62.85.95 1.34 2.36 1.34 3.95 0 1.63-.52 3.14-1.4 4.3-1.48 1.96-4.4 2.85-7.1 2.85-2.25 0-3.44-.65-3.44-1.75 0-.64.55-1.1 1.25-1.1.53 0 1.02.18 1.87.8 1.14.8 1.78.94 2.64.94 2.26 0 3.98-2.08 3.98-4.68 0-2.33-1.07-3.83-3.2-4.44-.66-.22-1.37-.3-3.1-.3v-.44c1.15-.4 1.95-.73 2.56-1.1 1.5-.86 2.48-2.23 2.48-4.1 0-2.08-1.28-3.13-3.3-3.13-1.9 0-3.3.98-4.57 3.25"/><path d="M1082.6 467.97h681.95v44.06H1082.6z" fill="#cfe4ff"/><path d="M1095.75 507.94l-.52.7c-6.84-3.9-10.56-11.22-10.56-18.6 0-8 3.76-14.24 10.7-18.35l.38.68c-6.02 5.16-7.36 9.18-7.36 17.54 0 8.06 1.3 12.95 7.35 18.02M1110.18 507.94l-.52.7c-6.85-3.9-10.57-11.22-10.57-18.6 0-8 3.76-14.24 10.7-18.35l.38.68c-6.02 5.16-7.37 9.18-7.37 17.54 0 8.06 1.3 12.95 7.38 18.02M1124.7 488.5l1.94-3c1.12-1.73 2.64-3.63 4.8-3.63 1.4 0 2.13.52 2.13 1.43 0 .82-.57 1.82-1.7 1.82-.95 0-1.16-.4-1.9-.4-1.3 0-1.78.7-2.38 1.65l-2.4 3.68c1.3 2.7 2.3 8.54 4.25 8.54.7 0 1.73-.62 2.64-2.48l.6.43c-.52.65-2.47 4.8-4.98 4.8-1.78 0-2.6-1.77-3.16-3.33l-1.74-4.9-2.73 4.25c-1.4 2.13-2.65 4-5.07 4-1.56 0-2.26-1.1-2.26-2.05 0-.7.57-1.6 1.65-1.6 1.13 0 .95.87 2.04.87.52 0 1.64-.45 3.03-2.57l2.8-4.37-1.43-4c-.73-2.07-1.86-3.84-4.24-3.84-.56 0-1.2.08-1.65.26l-.13-.78 5.72-1.43c1.9 1.04 2.73 2.8 3.25 4.24M1147.36 507.5h-8.45v-.47c2.28-.12 2.92-.76 2.92-2.45v-13.75c0-1.04-.27-1.5-.92-1.5-.3 0-.82.16-1.37.37l-.83.3v-.42l5.48-2.8.28.1v18.28c0 1.32.6 1.87 2.9 1.87v.46M1192.12 491.44h-11.3v11.3h-2.86v-11.3h-11.3v-2.86h11.3v-11.3h2.86v11.3h11.3v2.86M1217.12 488.5l1.94-3c1.13-1.73 2.65-3.63 4.8-3.63 1.4 0 2.13.52 2.13 1.43 0 .82-.57 1.82-1.7 1.82-.95 0-1.16-.4-1.9-.4-1.3 0-1.78.7-2.38 1.65l-2.38 3.68c1.3 2.7 2.3 8.54 4.24 8.54.7 0 1.73-.62 2.64-2.48l.6.43c-.5.65-2.46 4.8-4.97 4.8-1.78 0-2.6-1.77-3.16-3.33l-1.75-4.9-2.73 4.25c-1.38 2.13-2.64 4-5.06 4-1.56 0-2.26-1.1-2.26-2.05 0-.7.57-1.6 1.65-1.6 1.13 0 .95.87 2.04.87.5 0 1.63-.45 3.02-2.57l2.8-4.37-1.42-4c-.73-2.07-1.86-3.84-4.24-3.84-.56 0-1.2.08-1.65.26l-.12-.78 5.72-1.43c1.9 1.04 2.73 2.8 3.25 4.24M1242.24 503.3l-1.65 4.2h-11.98v-.38l5.45-5.78c2.88-3.04 3.98-5.36 3.98-7.97 0-2.78-1.66-4.3-4.26-4.3-2.2 0-3.28.97-4.5 3.97l-.65-.16c.64-3.58 2.6-6.1 6.37-6.1 3.46 0 5.66 2.37 5.66 5.4 0 2.42-1.2 4.72-3.92 7.6l-5.05 5.38h7.18c1.28 0 1.92-.33 2.94-2.05M1248.65 472.38l.52-.7c6.62 4 10.56 11.23 10.56 18.6 0 8-3.8 14.15-10.7 18.36l-.38-.7c6.15-5.07 7.36-9.14 7.36-17.54 0-8.1-1.07-13.08-7.35-18.02M1280.27 490c0 1.4-1.17 2.6-2.56 2.6-1.42 0-2.63-1.3-2.63-2.6s1.2-2.6 2.64-2.6c1.4 0 2.57 1.22 2.57 2.6M1306.73 488.5l1.95-3c1.12-1.73 2.64-3.63 4.8-3.63 1.4 0 2.13.52 2.13 1.43 0 .82-.55 1.82-1.68 1.82-.95 0-1.17-.4-1.9-.4-1.3 0-1.78.7-2.4 1.65l-2.37 3.68c1.3 2.7 2.3 8.54 4.24 8.54.7 0 1.73-.62 2.64-2.48l.6.43c-.52.65-2.47 4.8-4.98 4.8-1.77 0-2.6-1.77-3.16-3.33l-1.73-4.9-2.73 4.25c-1.4 2.13-2.64 4-5.07 4-1.56 0-2.25-1.1-2.25-2.05 0-.7.56-1.6 1.64-1.6 1.13 0 .96.87 2.04.87.52 0 1.65-.45 3.03-2.57l2.82-4.37-1.43-4c-.74-2.07-1.86-3.84-4.25-3.84-.56 0-1.2.08-1.64.26l-.13-.78 5.7-1.43c1.92 1.04 2.74 2.8 3.26 4.24M1319.2 491.87l-.48-.12c.9-2.9 2.82-4.96 6-4.96 2.85 0 4.78 1.68 4.78 4.2 0 1.46-.8 3-2.85 4.2 1.35.6 1.9.96 2.54 1.63.85.95 1.34 2.36 1.34 3.96s-.52 3.1-1.4 4.27c-1.48 1.96-4.4 2.85-7.1 2.85-2.25 0-3.44-.64-3.44-1.75 0-.64.55-1.1 1.25-1.1.52 0 1 .2 1.87.8 1.13.8 1.78.95 2.64.95 2.26 0 3.98-2.08 3.98-4.7 0-2.3-1.08-3.82-3.2-4.43-.66-.22-1.37-.3-3.1-.3v-.44c1.15-.4 1.95-.74 2.56-1.1 1.5-.86 2.48-2.24 2.48-4.1 0-2.1-1.3-3.13-3.3-3.13-1.9 0-3.3.98-4.57 3.24M1374.17 491.44h-11.3v11.3H1360v-11.3h-11.3v-2.86h11.3v-11.3h2.86v11.3h11.3v2.86M1399.16 488.5l1.95-3c1.13-1.73 2.65-3.63 4.82-3.63 1.38 0 2.12.52 2.12 1.43 0 .82-.57 1.82-1.7 1.82-.94 0-1.16-.4-1.9-.4-1.3 0-1.77.7-2.38 1.65l-2.38 3.68c1.3 2.7 2.3 8.54 4.24 8.54.7 0 1.74-.62 2.65-2.48l.6.43c-.52.65-2.47 4.8-4.98 4.8-1.8 0-2.6-1.77-3.17-3.33l-1.73-4.9-2.73 4.25c-1.4 2.13-2.64 4-5.07 4-1.56 0-2.25-1.1-2.25-2.05 0-.7.56-1.6 1.64-1.6 1.12 0 .95.87 2.03.87.52 0 1.65-.45 3.03-2.57l2.82-4.37-1.43-4c-.74-2.07-1.87-3.84-4.25-3.84-.56 0-1.2.08-1.64.26l-.13-.78 5.7-1.43c1.92 1.04 2.74 2.8 3.26 4.24M1424.26 502.38h-3.16v5.1h-2.4v-5.1h-8.56v-1.96l9.6-13.63h1.36v13.62h3.16v1.96m-5.55-1.96v-10.5l-7.34 10.5h7.35M1430.7 472.38l.5-.7c6.64 4 10.58 11.23 10.58 18.6 0 8-3.8 14.15-10.7 18.36l-.4-.7c6.16-5.07 7.37-9.14 7.37-17.54 0-8.1-1.08-13.08-7.36-18.02M1462.3 490c0 1.4-1.16 2.6-2.55 2.6-1.43 0-2.64-1.3-2.64-2.6s1.22-2.6 2.65-2.6c1.4 0 2.56 1.22 2.56 2.6M1488.77 488.5l1.95-3c1.13-1.73 2.64-3.63 4.8-3.63 1.4 0 2.13.52 2.13 1.43 0 .82-.56 1.82-1.7 1.82-.94 0-1.16-.4-1.9-.4-1.3 0-1.77.7-2.38 1.65l-2.38 3.68c1.3 2.7 2.3 8.54 4.24 8.54.7 0 1.73-.62 2.64-2.48l.6.43c-.5.65-2.46 4.8-4.98 4.8-1.77 0-2.6-1.77-3.16-3.33l-1.73-4.9-2.72 4.25c-1.38 2.13-2.64 4-5.07 4-1.55 0-2.24-1.1-2.24-2.05 0-.7.56-1.6 1.65-1.6 1.13 0 .96.87 2.04.87.52 0 1.65-.45 3.03-2.57l2.82-4.37-1.44-4c-.74-2.07-1.86-3.84-4.24-3.84-.57 0-1.22.08-1.65.26l-.13-.78 5.72-1.43c1.9 1.04 2.73 2.8 3.25 4.24M1512.8 486.64l-1.1 2.6c-.1.22-.34.4-.83.4h-5.94l-1.23 2.6c4.38.83 5.9 1.5 7.66 3.92.8 1.1 1.07 2.27 1.07 3.9 0 2.93-.92 4.83-3 6.36-1.44 1.04-3.12 1.5-5.2 1.5-2.3 0-3.9-.73-3.9-1.9 0-.76.53-1.16 1.38-1.16.72 0 1.3.15 2.28.95.86.7 1.56 1 2.17 1 2.15 0 4.14-2.55 4.14-5.2 0-1.95-.7-3.48-2.06-4.58-1.44-1.16-3.6-2.14-6.53-2.14-.26 0-.35-.07-.35-.25 0-.06.03-.15.03-.15l3.33-7.26h6.35c.7 0 .98-.15 1.47-.8M1558.68 487.1h-25.5v-2.85h25.5v2.86m0 8.67h-25.5v-2.86h25.5v2.87M1584.5 487.67l1.2 10.18c2.65-3.6 4.16-6.2 5.12-7.97.86-1.6 1.2-2.47 1.2-3.25 0-.9-2.24-1.34-2.24-3 0-.94.78-1.72 2.03-1.72 1.4 0 2.48 1 2.48 2.7 0 3.38-7 13.77-8.83 16.07-3.17 3.98-5.98 8.23-8.93 8.23-1.6 0-2.42-1.35-2.42-2.4 0-1.3 1.17-1.76 1.73-1.76 1.86 0 1.78 1.34 2.47 1.34.74 0 3.2-2.7 4.33-4.42l-1.64-13.6c-.23-1.95-.62-4.55-3.05-4.55-.47 0-1.17.14-1.56.2l-.1-.7 6.5-1.1c1 1.44 1.3 2.57 1.7 5.77M1596.16 491.87l-.5-.12c.9-2.9 2.83-4.96 6.02-4.96 2.84 0 4.77 1.68 4.77 4.2 0 1.46-.8 3-2.85 4.2 1.35.6 1.9.96 2.55 1.63.85.95 1.34 2.36 1.34 3.96s-.53 3.1-1.4 4.27c-1.48 1.96-4.4 2.85-7.12 2.85-2.23 0-3.43-.64-3.43-1.75 0-.64.55-1.1 1.26-1.1.53 0 1.02.2 1.87.8 1.14.8 1.78.95 2.64.95 2.27 0 4-2.08 4-4.7 0-2.3-1.08-3.82-3.2-4.43-.67-.22-1.37-.3-3.12-.3v-.44c1.16-.4 1.96-.74 2.57-1.1 1.5-.86 2.48-2.24 2.48-4.1 0-2.1-1.28-3.13-3.3-3.13-1.9 0-3.3.98-4.57 3.24M1632.4 490c0 1.4-1.17 2.6-2.56 2.6-1.43 0-2.64-1.3-2.64-2.6s1.2-2.6 2.64-2.6c1.4 0 2.56 1.22 2.56 2.6M1658.86 488.5l1.95-3c1.14-1.73 2.65-3.63 4.82-3.63 1.38 0 2.12.52 2.12 1.43 0 .82-.56 1.82-1.7 1.82-.94 0-1.16-.4-1.9-.4-1.3 0-1.77.7-2.38 1.65l-2.38 3.68c1.3 2.7 2.3 8.54 4.25 8.54.7 0 1.73-.62 2.64-2.48l.6.43c-.52.65-2.46 4.8-4.98 4.8-1.78 0-2.6-1.77-3.17-3.33l-1.73-4.9-2.73 4.25c-1.4 2.13-2.64 4-5.07 4-1.56 0-2.25-1.1-2.25-2.05 0-.7.56-1.6 1.65-1.6 1.12 0 .95.87 2.03.87.52 0 1.65-.45 3.03-2.57l2.82-4.37-1.43-4c-.74-2.07-1.86-3.84-4.24-3.84-.56 0-1.2.08-1.64.26l-.13-.78 5.72-1.43c1.9 1.04 2.73 2.8 3.25 4.24M1682.9 486.64l-1.1 2.6c-.1.22-.35.4-.84.4h-5.94l-1.23 2.6c4.37.83 5.9 1.5 7.65 3.92.8 1.1 1.07 2.27 1.07 3.9 0 2.93-.92 4.83-3 6.36-1.44 1.04-3.12 1.5-5.2 1.5-2.3 0-3.9-.73-3.9-1.9 0-.76.52-1.16 1.38-1.16.7 0 1.3.15 2.27.95.86.7 1.56 1 2.17 1 2.15 0 4.14-2.55 4.14-5.2 0-1.95-.68-3.48-2.06-4.58-1.43-1.16-3.58-2.14-6.52-2.14-.27 0-.37-.07-.37-.25 0-.06.04-.15.04-.15l3.33-7.26h6.34c.7 0 .98-.15 1.47-.8M1728.77 487.1h-25.5v-2.85h25.5v2.86m0 8.67h-25.5v-2.86h25.5v2.87M1763.12 481.48v.7l-13.95 15.58.13.05c.82-.6 1.9-.9 2.9-.9 4 0 4.12 3.72 6.06 3.72.65 0 1.17-.34 1.17-1.04 0-.56-.52-.7-.52-1.64 0-.83.84-1.65 1.66-1.65 1.08 0 1.73.77 1.73 1.8 0 2.35-2.6 3.48-4.6 3.48-.95 0-2.03-.4-2.94-.6-1.4-.4-2.86-.62-4.3-.62-1.72 0-3.67.35-5.28 1.04l-.47-.43 14.2-16.03h-5.66c-2.47 0-3.5.26-4.5 2.65l-.78-.2 1.55-5.92h13.62"/><path d="M618.77 400h49.77v40h-49.77z" fill="#fff" fill-opacity="0"/><path d="M632.9 410.55l1.48 12.3c3.2-4.34 5.02-7.48 6.18-9.63 1.04-1.93 1.46-2.98 1.46-3.92 0-1.1-2.72-1.63-2.72-3.62 0-1.15.94-2.1 2.46-2.1 1.68 0 3 1.2 3 3.25 0 4.1-8.5 16.66-10.7 19.43-3.82 4.82-7.22 9.95-10.78 9.95-1.94 0-2.94-1.6-2.94-2.87 0-1.57 1.42-2.14 2.1-2.14 2.25 0 2.14 1.6 2.98 1.6.9 0 3.88-3.24 5.24-5.33l-2-16.45c-.25-2.35-.72-5.5-3.66-5.5-.57 0-1.4.16-1.88.2l-.1-.82 7.85-1.3c1.2 1.72 1.57 3.08 2.04 6.95M662.3 429.44l-2 5.08h-14.46v-.45l6.6-7c3.47-3.66 4.8-6.48 4.8-9.62 0-3.37-2-5.22-5.15-5.22-2.67 0-3.97 1.18-5.45 4.8l-.78-.17c.78-4.34 3.15-7.37 7.7-7.37 4.2 0 6.85 2.84 6.85 6.5 0 2.93-1.44 5.7-4.73 9.2l-6.12 6.5h8.66c1.56 0 2.33-.4 3.55-2.48"/><path d="M800 453.86h57.4V500H800z" fill="#fff" fill-opacity="0"/><path d="M816.3 466.03l1.7 14.2c3.7-5.02 5.8-8.64 7.13-11.12 1.2-2.22 1.7-3.43 1.7-4.52 0-1.27-3.15-1.87-3.15-4.17 0-1.32 1.1-2.4 2.84-2.4 1.93 0 3.44 1.4 3.44 3.74 0 4.7-9.78 19.2-12.32 22.4-4.4 5.57-8.34 11.5-12.44 11.5-2.24 0-3.4-1.88-3.4-3.33 0-1.8 1.64-2.47 2.43-2.47 2.6 0 2.48 1.88 3.44 1.88 1.03 0 4.47-3.74 6.04-6.16l-2.28-18.97c-.3-2.7-.85-6.34-4.23-6.34-.68 0-1.64.18-2.2.24l-.1-.96 9.05-1.5c1.4 2 1.82 3.56 2.36 8.03M832.6 471.9l-.7-.18c1.24-4.06 3.93-6.92 8.38-6.92 3.97 0 6.66 2.35 6.66 5.85 0 2.05-1.1 4.2-3.97 5.9 1.88.8 2.64 1.32 3.54 2.26 1.2 1.34 1.9 3.3 1.9 5.52 0 2.26-.74 4.36-1.97 5.98-2.05 2.73-6.1 3.97-9.9 3.97-3.13 0-4.8-.9-4.8-2.43 0-.9.77-1.54 1.75-1.54.73 0 1.4.26 2.6 1.1 1.6 1.12 2.5 1.33 3.68 1.33 3.16 0 5.56-2.9 5.56-6.53 0-3.25-1.5-5.34-4.45-6.2-.94-.3-1.92-.42-4.35-.42v-.6c1.62-.55 2.73-1.02 3.58-1.54 2.1-1.2 3.46-3.1 3.46-5.72 0-2.9-1.8-4.35-4.6-4.35-2.66 0-4.62 1.36-6.37 4.52"/><path d="M351.46 300h49.77v40h-49.77z" fill="#fff" fill-opacity="0"/><path d="M365.6 310.55l1.46 12.3c3.2-4.34 5.03-7.48 6.18-9.63 1.05-1.93 1.47-2.98 1.47-3.92 0-1.1-2.7-1.63-2.7-3.62 0-1.15.93-2.1 2.45-2.1 1.67 0 2.98 1.2 2.98 3.25 0 4.1-8.48 16.66-10.68 19.43-3.82 4.82-7.23 9.95-10.8 9.95-1.93 0-2.92-1.6-2.92-2.87 0-1.57 1.4-2.14 2.1-2.14 2.24 0 2.14 1.6 2.98 1.6.9 0 3.88-3.24 5.24-5.33l-2-16.45c-.25-2.35-.72-5.5-3.65-5.5-.6 0-1.43.16-1.9.2l-.1-.82 7.85-1.3c1.2 1.72 1.58 3.08 2.05 6.95M392.04 334.52h-10.22v-.56c2.74-.15 3.5-.92 3.5-2.96v-16.63c0-1.25-.32-1.8-1.1-1.8-.37 0-1 .18-1.66.43l-1 .37v-.5l6.63-3.38.32.1v22.1c0 1.6.74 2.26 3.52 2.26v.56"/><path d="M1140 660h623.46v107H1140z" fill="#fff0f0"/><path d="M1147.23 715.5h70.2v-3.6h-70.2zM1165.52 675.83l-.42-.86c1.2-.72 2.72-.97 4.17-.97 5.36 0 8 3.83 8 11.06 0 6.3-2.6 17.84-12.56 17.84-4.16 0-5.78-3.28-5.78-6.9 0-6 4.73-12.08 10.95-12.08 1.36 0 3.2.46 4.08 2.04.17-.94.3-1.96.3-2.98 0-3.75-1.23-7.7-5.58-7.7-1.15 0-2.08.2-3.15.55m7.33 13.02c0-2.76-1.45-3.66-2.6-3.66-4.22 0-7.88 6.34-7.88 12.25 0 1.62.17 4.18 2.86 4.18 3.27 0 5.8-4.26 6.98-8.6.4-1.4.65-2.86.65-4.18M1205.7 694.35l-2.6 8.08h-24.2l.16-.68h.73c3.18 0 4.2-1.2 4.54-2.64l5.02-20.3c.17-.67.3-1.53.3-1.9 0-.82-.6-1.58-3.23-1.58h-.77l.17-.7h13.92l-.17.7h-.76c-3.2 0-4.1 1.1-4.48 2.68l-5.2 20.47c-.16.64-.2 1.24-.2 1.32 0 .93 1.2 1.02 1.7 1.02h5.2c4.34 0 6.5-.94 8.47-4.9.3-.47.52-.98.73-1.57h.68M1159.14 726.35l-.43-.85c1.2-.73 2.74-.98 4.2-.98 5.35 0 8 3.83 8 11.07 0 6.3-2.6 17.82-12.57 17.82-4.17 0-5.8-3.27-5.8-6.9 0-6 4.74-12.08 10.95-12.08 1.37 0 3.2.46 4.1 2.04.16-.94.3-1.96.3-2.98 0-3.75-1.25-7.7-5.6-7.7-1.14 0-2.08.2-3.14.55m7.32 13.02c0-2.76-1.44-3.66-2.6-3.66-4.2 0-7.87 6.36-7.87 12.27 0 1.62.16 4.18 2.84 4.18 3.28 0 5.8-4.26 6.98-8.6.4-1.4.64-2.86.64-4.18M1183.88 740.7l1.9-2.94c1.12-1.7 2.6-3.58 4.74-3.58 1.36 0 2.08.5 2.08 1.4 0 .8-.55 1.8-1.66 1.8-.93 0-1.15-.4-1.87-.4-1.28 0-1.75.7-2.34 1.63l-2.34 3.63c1.26 2.64 2.24 8.38 4.16 8.38.68 0 1.7-.58 2.6-2.4l.6.4c-.52.65-2.44 4.74-4.9 4.74-1.75 0-2.56-1.75-3.1-3.28l-1.72-4.8-2.68 4.16c-1.36 2.1-2.6 3.92-4.98 3.92-1.53 0-2.2-1.07-2.2-2 0-.68.54-1.58 1.6-1.58 1.1 0 .94.85 2 .85.52 0 1.62-.4 3-2.5l2.75-4.3-1.4-3.9c-.72-2.06-1.83-3.8-4.17-3.8-.56 0-1.2.08-1.62.25l-.13-.76 5.63-1.42c1.87 1.02 2.68 2.77 3.2 4.17M1206.37 759.37h-8.43v-.46c2.26-.1 2.9-.75 2.9-2.43v-13.7c0-1.05-.27-1.5-.92-1.5-.3 0-.82.14-1.37.36l-.82.3v-.42l5.46-2.77.27.1v18.22c0 1.3.6 1.86 2.9 1.86v.47M1279.76 709.48h-35.47v-3.97h35.46v3.98m0 12.04h-35.47v-3.97h35.46v3.97M1306.62 715.5h67.92v-3.6h-67.92zM1323.77 675.83l-.43-.86c1.2-.72 2.73-.97 4.18-.97 5.36 0 8 3.83 8 11.06 0 6.3-2.6 17.84-12.56 17.84-4.17 0-5.8-3.28-5.8-6.9 0-6 4.74-12.08 10.95-12.08 1.38 0 3.2.46 4.1 2.04.17-.94.3-1.96.3-2.98 0-3.75-1.24-7.7-5.58-7.7-1.15 0-2.1.2-3.15.55m7.32 13.02c0-2.76-1.45-3.66-2.6-3.66-4.22 0-7.88 6.34-7.88 12.25 0 1.62.17 4.18 2.85 4.18 3.28 0 5.8-4.26 6.98-8.6.4-1.4.64-2.86.64-4.18M1363.96 694.35l-2.6 8.08h-24.22l.17-.68h.73c3.2 0 4.22-1.2 4.56-2.64l5-20.3c.18-.67.3-1.53.3-1.9 0-.82-.6-1.58-3.23-1.58h-.76l.18-.7H1358l-.17.7h-.77c-3.2 0-4.08 1.1-4.47 2.68l-5.2 20.47c-.17.64-.2 1.24-.2 1.32 0 .93 1.18 1.02 1.7 1.02h5.18c4.34 0 6.52-.94 8.47-4.9.3-.47.5-.98.73-1.57h.68M1318.53 726.35l-.42-.85c1.2-.73 2.73-.98 4.18-.98 5.36 0 8 3.83 8 11.07 0 6.3-2.6 17.82-12.56 17.82-4.17 0-5.8-3.27-5.8-6.9 0-6 4.74-12.08 10.95-12.08 1.37 0 3.2.46 4.1 2.04.16-.94.3-1.96.3-2.98 0-3.75-1.25-7.7-5.6-7.7-1.14 0-2.07.2-3.14.55m7.32 13.02c0-2.76-1.44-3.66-2.6-3.66-4.2 0-7.87 6.36-7.87 12.27 0 1.62.17 4.18 2.85 4.18 3.28 0 5.8-4.26 7-8.6.37-1.4.62-2.86.62-4.18M1341.78 739.9l1.2 10c2.6-3.54 4.08-6.1 5-7.84.86-1.58 1.2-2.43 1.2-3.2 0-.9-2.2-1.32-2.2-2.93 0-.94.76-1.7 2-1.7 1.35 0 2.42.97 2.42 2.63 0 3.32-6.9 13.54-8.7 15.8-3.1 3.9-5.86 8.1-8.76 8.1-1.57 0-2.38-1.33-2.38-2.36 0-1.27 1.15-1.74 1.7-1.74 1.83 0 1.75 1.32 2.43 1.32.7 0 3.14-2.64 4.25-4.34l-1.62-13.37c-.2-1.92-.6-4.47-2.98-4.47-.47 0-1.15.13-1.53.17l-.1-.68 6.4-1.08c.98 1.4 1.27 2.5 1.66 5.67M1353.3 746.76l-.5-.12c.9-2.9 2.82-4.95 6-4.95 2.84 0 4.76 1.67 4.76 4.17 0 1.47-.8 3-2.84 4.22 1.34.57 1.9.93 2.53 1.6.86.95 1.35 2.35 1.35 3.94 0 1.62-.52 3.12-1.4 4.28-1.47 1.95-4.37 2.84-7.1 2.84-2.22 0-3.4-.65-3.4-1.75 0-.63.54-1.08 1.24-1.08.52 0 1 .18 1.86.8 1.13.78 1.78.94 2.63.94 2.26 0 3.97-2.08 3.97-4.68 0-2.32-1.07-3.8-3.18-4.42-.67-.22-1.37-.3-3.1-.3v-.43c1.15-.4 1.94-.74 2.55-1.1 1.5-.86 2.48-2.23 2.48-4.1 0-2.07-1.3-3.1-3.3-3.1-1.9 0-3.3.97-4.55 3.23M1407.42 713.5c0 1.94-1.63 3.63-3.55 3.63-2 0-3.68-1.8-3.68-3.62 0-1.8 1.68-3.6 3.67-3.6 1.92 0 3.55 1.7 3.55 3.6M1433.07 715.5H1501v-3.6h-67.93zM1444.98 666.55l-.42-.85c1.2-.72 2.72-.98 4.17-.98 5.37 0 8 3.83 8 11.07 0 6.3-2.6 17.83-12.55 17.83-4.18 0-5.8-3.28-5.8-6.9 0-6 4.73-12.1 10.95-12.1 1.36 0 3.2.48 4.08 2.06.18-.95.3-1.97.3-3 0-3.74-1.22-7.7-5.56-7.7-1.15 0-2.1.2-3.16.55m7.33 13.03c0-2.77-1.44-3.66-2.6-3.66-4.2 0-7.87 6.34-7.87 12.26 0 1.62.17 4.17 2.86 4.17 3.26 0 5.78-4.26 6.97-8.6.38-1.4.64-2.85.64-4.17M1468.23 680.1l1.2 10c2.6-3.54 4.08-6.1 5.02-7.84.85-1.57 1.2-2.42 1.2-3.2 0-.88-2.23-1.3-2.23-2.93 0-.93.77-1.7 2-1.7 1.37 0 2.43.98 2.43 2.64 0 3.32-6.9 13.54-8.68 15.8-3.1 3.9-5.88 8.08-8.77 8.08-1.58 0-2.4-1.32-2.4-2.34 0-1.27 1.16-1.74 1.72-1.74 1.83 0 1.74 1.32 2.42 1.32.73 0 3.15-2.64 4.26-4.34l-1.62-13.37c-.2-1.9-.6-4.47-2.98-4.47-.47 0-1.15.13-1.53.17l-.1-.68 6.4-1.07c.98 1.4 1.28 2.5 1.66 5.66M1479.75 686.96l-.48-.12c.88-2.9 2.8-4.94 5.98-4.94 2.84 0 4.76 1.67 4.76 4.18 0 1.46-.78 3-2.83 4.2 1.35.6 1.9.96 2.54 1.63.86.96 1.35 2.36 1.35 3.95 0 1.62-.52 3.1-1.4 4.27-1.47 1.96-4.37 2.84-7.1 2.84-2.22 0-3.4-.64-3.4-1.74 0-.64.54-1.1 1.25-1.1.5 0 1 .18 1.86.8 1.13.8 1.77.94 2.62.94 2.26 0 3.97-2.07 3.97-4.67 0-2.33-1.07-3.83-3.17-4.44-.67-.2-1.38-.3-3.12-.3v-.43c1.16-.4 1.96-.73 2.57-1.1 1.5-.85 2.47-2.23 2.47-4.1 0-2.06-1.28-3.1-3.3-3.1-1.9 0-3.3.97-4.55 3.23M1444.98 726.35l-.42-.85c1.2-.73 2.72-.98 4.17-.98 5.37 0 8 3.83 8 11.07 0 6.3-2.6 17.82-12.55 17.82-4.18 0-5.8-3.27-5.8-6.9 0-6 4.73-12.08 10.95-12.08 1.36 0 3.2.46 4.08 2.04.18-.94.3-1.96.3-2.98 0-3.75-1.22-7.7-5.56-7.7-1.15 0-2.1.2-3.16.55m7.33 13.02c0-2.76-1.44-3.66-2.6-3.66-4.2 0-7.87 6.36-7.87 12.27 0 1.62.17 4.18 2.86 4.18 3.26 0 5.78-4.26 6.97-8.6.38-1.4.64-2.86.64-4.18M1468.23 739.9l1.2 10c2.6-3.54 4.08-6.1 5.02-7.84.85-1.58 1.2-2.43 1.2-3.2 0-.9-2.23-1.32-2.23-2.93 0-.94.77-1.7 2-1.7 1.37 0 2.43.97 2.43 2.63 0 3.32-6.9 13.54-8.68 15.8-3.1 3.9-5.88 8.1-8.77 8.1-1.58 0-2.4-1.33-2.4-2.36 0-1.27 1.16-1.74 1.72-1.74 1.83 0 1.74 1.32 2.42 1.32.73 0 3.15-2.64 4.26-4.34l-1.62-13.37c-.2-1.92-.6-4.47-2.98-4.47-.47 0-1.15.13-1.53.17l-.1-.68 6.4-1.08c.98 1.4 1.28 2.5 1.66 5.67M1492.36 758.15l-1.65 4.18h-11.92v-.37l5.43-5.77c2.88-3.03 3.98-5.35 3.98-7.95 0-2.77-1.65-4.3-4.24-4.3-2.2 0-3.27.98-4.5 3.97l-.63-.15c.65-3.58 2.6-6.08 6.36-6.08 3.45 0 5.65 2.34 5.65 5.36 0 2.4-1.18 4.7-3.9 7.57l-5.04 5.38h7.14c1.3 0 1.93-.33 2.94-2.04M1533.87 713.5c0 1.94-1.62 3.63-3.55 3.63-2 0-3.67-1.8-3.67-3.62 0-1.8 1.68-3.6 3.67-3.6 1.93 0 3.55 1.7 3.55 3.6M1559.52 715.5h67.93v-3.6h-67.93zM1571.44 666.97l-.43-.85c1.2-.72 2.74-.98 4.18-.98 5.37 0 8 3.84 8 11.07 0 6.3-2.6 17.85-12.55 17.85-4.17 0-5.8-3.28-5.8-6.9 0-6 4.73-12.1 10.95-12.1 1.36 0 3.2.48 4.1 2.06.16-.93.3-1.95.3-2.97 0-3.75-1.25-7.7-5.6-7.7-1.14 0-2.08.2-3.14.54m7.32 13.03c0-2.77-1.45-3.66-2.6-3.66-4.2 0-7.87 6.34-7.87 12.26 0 1.62.16 4.17 2.84 4.17 3.28 0 5.8-4.25 6.98-8.6.4-1.4.64-2.85.64-4.17M1594.68 680.5l1.2 10.02c2.6-3.54 4.08-6.1 5.02-7.84.85-1.57 1.2-2.42 1.2-3.2 0-.88-2.22-1.3-2.22-2.93 0-.93.76-1.7 2-1.7 1.36 0 2.42.98 2.42 2.64 0 3.3-6.9 13.53-8.68 15.78-3.1 3.92-5.88 8.1-8.77 8.1-1.58 0-2.38-1.33-2.38-2.35 0-1.28 1.14-1.74 1.7-1.74 1.83 0 1.74 1.3 2.42 1.3.72 0 3.15-2.63 4.25-4.34l-1.62-13.36c-.2-1.92-.6-4.47-2.98-4.47-.46 0-1.15.12-1.53.17l-.08-.7 6.38-1.05c.98 1.4 1.28 2.5 1.66 5.66M1618.82 698.77l-1.65 4.18h-11.94v-.36l5.43-5.78c2.87-3.02 3.97-5.34 3.97-7.94 0-2.78-1.65-4.3-4.24-4.3-2.2 0-3.28.97-4.5 3.96l-.64-.15c.64-3.58 2.6-6.08 6.35-6.08 3.46 0 5.66 2.35 5.66 5.37 0 2.4-1.2 4.7-3.9 7.56l-5.05 5.37h7.16c1.28 0 1.92-.33 2.93-2.04M1571.44 726.35l-.43-.85c1.2-.73 2.74-.98 4.18-.98 5.37 0 8 3.83 8 11.07 0 6.3-2.6 17.82-12.55 17.82-4.17 0-5.8-3.27-5.8-6.9 0-6 4.73-12.08 10.95-12.08 1.36 0 3.2.46 4.1 2.04.16-.94.3-1.96.3-2.98 0-3.75-1.25-7.7-5.6-7.7-1.14 0-2.08.2-3.14.55m7.32 13.02c0-2.76-1.45-3.66-2.6-3.66-4.2 0-7.87 6.36-7.87 12.27 0 1.62.16 4.18 2.84 4.18 3.28 0 5.8-4.26 6.98-8.6.4-1.4.64-2.86.64-4.18M1594.68 739.9l1.2 10c2.6-3.54 4.08-6.1 5.02-7.84.85-1.58 1.2-2.43 1.2-3.2 0-.9-2.22-1.32-2.22-2.93 0-.94.76-1.7 2-1.7 1.36 0 2.42.97 2.42 2.63 0 3.32-6.9 13.54-8.68 15.8-3.1 3.9-5.88 8.1-8.77 8.1-1.58 0-2.38-1.33-2.38-2.36 0-1.27 1.14-1.74 1.7-1.74 1.83 0 1.74 1.32 2.42 1.32.72 0 3.15-2.64 4.25-4.34l-1.62-13.37c-.2-1.92-.6-4.47-2.98-4.47-.46 0-1.15.13-1.53.17l-.08-.68 6.38-1.08c.98 1.4 1.28 2.5 1.66 5.67M1616.37 762.33h-8.42v-.46c2.26-.12 2.9-.76 2.9-2.44v-13.7c0-1.05-.28-1.5-.92-1.5-.3 0-.82.15-1.37.36l-.83.3v-.43l5.47-2.78.27.08V760c0 1.32.6 1.87 2.9 1.87v.46M1660.32 713.5c0 1.94-1.62 3.63-3.55 3.63-2 0-3.67-1.8-3.67-3.62 0-1.8 1.68-3.6 3.67-3.6 1.93 0 3.55 1.7 3.55 3.6M1685.92 715.5h70.2v-3.6h-70.2zM1698.98 666.97l-.43-.85c1.2-.72 2.72-.98 4.17-.98 5.37 0 8 3.84 8 11.07 0 6.3-2.6 17.85-12.55 17.85-4.18 0-5.8-3.28-5.8-6.9 0-6 4.73-12.1 10.95-12.1 1.36 0 3.2.48 4.08 2.06.17-.93.3-1.95.3-2.97 0-3.75-1.23-7.7-5.57-7.7-1.15 0-2.1.2-3.15.54m7.32 13.03c0-2.77-1.45-3.66-2.6-3.66-4.2 0-7.88 6.34-7.88 12.26 0 1.62.17 4.17 2.86 4.17 3.28 0 5.8-4.25 6.98-8.6.38-1.4.64-2.85.64-4.17M1722.22 680.5l1.2 10.02c2.6-3.54 4.08-6.1 5.02-7.84.85-1.57 1.2-2.42 1.2-3.2 0-.88-2.23-1.3-2.23-2.93 0-.93.78-1.7 2-1.7 1.38 0 2.44.98 2.44 2.64 0 3.3-6.9 13.53-8.68 15.78-3.1 3.92-5.88 8.1-8.77 8.1-1.6 0-2.4-1.33-2.4-2.35 0-1.28 1.15-1.74 1.7-1.74 1.84 0 1.75 1.3 2.43 1.3.73 0 3.15-2.63 4.26-4.34l-1.63-13.36c-.2-1.92-.6-4.47-2.98-4.47-.48 0-1.16.12-1.54.17l-.1-.7 6.4-1.05c.98 1.4 1.28 2.5 1.66 5.66M1743.9 702.95h-8.42v-.45c2.26-.13 2.9-.77 2.9-2.45v-13.7c0-1.04-.27-1.5-.9-1.5-.32 0-.84.15-1.38.37l-.83.3v-.42l5.47-2.78.27.1v18.2c0 1.33.62 1.88 2.9 1.88v.45M1697.83 726.35l-.42-.85c1.2-.73 2.73-.98 4.18-.98 5.36 0 8 3.83 8 11.07 0 6.3-2.6 17.82-12.56 17.82-4.17 0-5.8-3.27-5.8-6.9 0-6 4.74-12.08 10.95-12.08 1.37 0 3.2.46 4.1 2.04.16-.94.3-1.96.3-2.98 0-3.75-1.25-7.7-5.6-7.7-1.14 0-2.07.2-3.14.55m7.32 13.02c0-2.76-1.44-3.66-2.6-3.66-4.2 0-7.87 6.36-7.87 12.27 0 1.62.17 4.18 2.85 4.18 3.28 0 5.8-4.26 6.98-8.6.4-1.4.65-2.86.65-4.18M1722.57 740.7l1.9-2.94c1.12-1.7 2.6-3.58 4.74-3.58 1.37 0 2.1.5 2.1 1.4 0 .8-.56 1.8-1.67 1.8-.93 0-1.15-.4-1.87-.4-1.28 0-1.75.7-2.34 1.63l-2.34 3.63c1.27 2.64 2.25 8.38 4.17 8.38.68 0 1.7-.58 2.6-2.4l.6.4c-.52.65-2.43 4.74-4.9 4.74-1.75 0-2.56-1.75-3.1-3.28l-1.7-4.8-2.7 4.16c-1.36 2.1-2.6 3.92-4.98 3.92-1.53 0-2.2-1.07-2.2-2 0-.68.54-1.58 1.6-1.58 1.1 0 .94.85 2 .85.52 0 1.62-.4 3-2.5l2.75-4.3-1.4-3.9c-.72-2.06-1.83-3.8-4.17-3.8-.56 0-1.2.08-1.62.25l-.13-.76 5.62-1.42c1.87 1.02 2.68 2.77 3.2 4.17M1745.06 759.37h-8.43v-.46c2.26-.1 2.9-.75 2.9-2.43v-13.7c0-1.05-.27-1.5-.92-1.5-.3 0-.8.14-1.36.36l-.82.3v-.42l5.46-2.77.28.1v18.22c0 1.3.6 1.86 2.9 1.86v.47"/><path d="M240 94.1h91.46v51.62H240z" fill="#fff3d9"/><path d="M243.5 120.88h33.86v-1.75H243.5zM249.8 97.47l-.22-.4c.58-.36 1.3-.5 2-.5 2.6 0 3.87 1.86 3.87 5.35 0 3.04-1.25 8.6-6.05 8.6-2.02 0-2.8-1.57-2.8-3.32 0-2.9 2.28-5.83 5.28-5.83.66 0 1.54.23 1.97 1 .08-.47.15-.96.15-1.45 0-1.8-.6-3.72-2.7-3.72-.55 0-1 .1-1.5.27m3.52 6.28c0-1.33-.7-1.76-1.25-1.76-2.04 0-3.8 3.05-3.8 5.9 0 .78.08 2 1.37 2 1.58 0 2.8-2.04 3.37-4.14.2-.67.32-1.37.32-2M261 104l.57 4.82c1.26-1.7 1.98-2.93 2.43-3.77.4-.76.57-1.18.57-1.54 0-.43-1.07-.63-1.07-1.4 0-.46.37-.83.97-.83.66 0 1.17.47 1.17 1.27 0 1.6-3.33 6.53-4.2 7.62-1.5 1.9-2.82 3.9-4.22 3.9-.76 0-1.15-.64-1.15-1.13 0-.6.55-.84.82-.84.87 0 .83.63 1.16.63.35 0 1.52-1.28 2.06-2.1l-.78-6.45c-.1-.92-.3-2.15-1.44-2.15-.23 0-.56.06-.74.08l-.04-.32 3.08-.5c.47.66.6 1.2.8 2.72M271.46 114.82h-4.06v-.22c1.1-.06 1.4-.36 1.4-1.17v-6.62c0-.5-.14-.7-.44-.7-.15 0-.4.06-.67.17l-.4.14v-.2l2.63-1.33.13.04v8.8c0 .64.3.9 1.4.9v.22M249.23 126.1l-.2-.4c.57-.35 1.3-.47 2-.47 2.6 0 3.87 1.84 3.87 5.34 0 3.04-1.25 8.6-6.06 8.6-2 0-2.8-1.58-2.8-3.33 0-2.9 2.3-5.83 5.3-5.83.65 0 1.53.24 1.96 1 .08-.45.14-.95.14-1.44 0-1.8-.6-3.72-2.7-3.72-.54 0-1 .1-1.5.27m3.53 6.3c0-1.34-.7-1.77-1.26-1.77-2.02 0-3.8 3.06-3.8 5.9 0 .8.1 2.02 1.4 2.02 1.57 0 2.78-2.05 3.36-4.14.18-.67.3-1.37.3-2M261.17 133.03l.92-1.42c.52-.8 1.24-1.7 2.27-1.7.66 0 1 .23 1 .67 0 .4-.26.86-.8.86-.45 0-.55-.2-.9-.2-.6 0-.84.34-1.13.8l-1.13 1.74c.63 1.27 1.1 4.05 2.02 4.05.33 0 .83-.3 1.26-1.18l.3.2c-.26.32-1.2 2.3-2.38 2.3-.84 0-1.23-.85-1.5-1.6l-.82-2.3-1.3 2c-.65 1-1.24 1.9-2.4 1.9-.73 0-1.06-.52-1.06-.98 0-.32.27-.76.78-.76.53 0 .45.42.96.42.25 0 .78-.2 1.44-1.22l1.34-2.07-.68-1.9c-.35-.98-.88-1.82-2-1.82-.28 0-.6.05-.8.14l-.06-.37 2.7-.68c.92.48 1.3 1.32 1.56 2M272.02 142.04h-4.07v-.22c1.1-.06 1.4-.37 1.4-1.18v-6.6c0-.5-.13-.74-.44-.74-.14 0-.4.08-.65.18l-.4.15v-.2l2.63-1.35.14.05v8.8c0 .62.3.9 1.4.9v.2M307.42 117.97h-17.1v-1.92h17.1v1.92m0 5.8h-17.1v-1.9h17.1v1.9M328.34 127.27h-8.02v-.44c2.15-.1 2.76-.72 2.76-2.32v-13.04c0-.98-.26-1.42-.87-1.42-.28 0-.78.15-1.3.35l-.78.28v-.4l5.2-2.65.26.1v17.33c0 1.25.58 1.77 2.76 1.77v.44"/><path d="M401.23 231.25h120v59h-120z" fill="#fff3d9"/><path d="M405.2 261.85h37.47v-2H405.2zM411.78 235.1l-.23-.48c.66-.4 1.5-.54 2.3-.54 2.96 0 4.4 2.12 4.4 6.1 0 3.48-1.42 9.84-6.9 9.84-2.3 0-3.2-1.8-3.2-3.8 0-3.3 2.6-6.67 6.03-6.67.75 0 1.76.26 2.25 1.13.1-.52.16-1.08.16-1.64 0-2.07-.7-4.25-3.08-4.25-.63 0-1.15.1-1.74.3m4.04 7.18c0-1.53-.8-2.02-1.43-2.02-2.34 0-4.35 3.5-4.35 6.76 0 .9.1 2.3 1.57 2.3 1.8 0 3.2-2.35 3.85-4.74.2-.78.35-1.58.35-2.3M424.6 242.56l.66 5.52c1.43-1.95 2.25-3.36 2.77-4.32.47-.87.65-1.34.65-1.76 0-.5-1.22-.73-1.22-1.62 0-.52.43-.94 1.1-.94.76 0 1.34.54 1.34 1.45 0 1.82-3.8 7.46-4.78 8.7-1.72 2.16-3.24 4.46-4.84 4.46-.87 0-1.3-.73-1.3-1.3 0-.7.62-.95.92-.95 1 0 .97.74 1.34.74.4 0 1.74-1.46 2.35-2.4l-.9-7.37c-.12-1.06-.33-2.46-1.64-2.46-.26 0-.64.08-.85.1l-.04-.38 3.52-.58c.54.77.7 1.38.92 3.12M437.9 252.63l-.9 2.3h-6.58v-.2l3-3.18c1.57-1.67 2.18-2.95 2.18-4.38 0-1.53-.9-2.37-2.34-2.37-1.2 0-1.8.54-2.47 2.2l-.37-.1c.36-1.97 1.43-3.35 3.5-3.35 1.9 0 3.12 1.3 3.12 2.97 0 1.33-.66 2.6-2.16 4.17l-2.78 2.95h3.93c.7 0 1.07-.18 1.62-1.12M411.78 267.83l-.23-.47c.66-.4 1.5-.54 2.3-.54 2.96 0 4.4 2.1 4.4 6.1 0 3.48-1.42 9.84-6.9 9.84-2.3 0-3.2-1.8-3.2-3.8 0-3.3 2.6-6.67 6.03-6.67.75 0 1.76.25 2.25 1.12.1-.52.16-1.08.16-1.64 0-2.07-.7-4.25-3.08-4.25-.63 0-1.15.1-1.74.3m4.04 7.18c0-1.5-.8-2-1.43-2-2.34 0-4.35 3.5-4.35 6.76 0 .9.1 2.3 1.57 2.3 1.8 0 3.2-2.35 3.85-4.74.2-.78.35-1.58.35-2.3M424.6 275.3l.66 5.5c1.43-1.94 2.25-3.34 2.77-4.3.47-.88.65-1.34.65-1.77 0-.5-1.22-.72-1.22-1.62 0-.5.43-.93 1.1-.93.76 0 1.34.54 1.34 1.46 0 1.83-3.8 7.46-4.78 8.7-1.72 2.17-3.24 4.47-4.84 4.47-.87 0-1.3-.73-1.3-1.3 0-.7.62-.95.92-.95 1 0 .97.72 1.34.72.4 0 1.74-1.45 2.35-2.4l-.9-7.36c-.12-1.05-.33-2.46-1.64-2.46-.26 0-.64.07-.85.1l-.04-.38 3.52-.6c.54.8.7 1.4.92 3.14M436.56 287.67h-4.65v-.25c1.26-.07 1.6-.42 1.6-1.35v-7.56c0-.56-.14-.8-.5-.8-.16 0-.45.07-.75.2l-.45.16v-.24l3-1.53.16.04v10.05c0 .72.34 1.02 1.6 1.02v.25M477.03 258.53h-19.56v-2.2h19.56v2.2m0 6.64h-19.56v-2.2h19.56v2.2M497.98 259.6l1.5-2.3c.86-1.33 2.02-2.8 3.68-2.8 1.06 0 1.63.4 1.63 1.1 0 .64-.44 1.4-1.3 1.4-.74 0-.9-.3-1.47-.3-1 0-1.36.54-1.82 1.27l-1.82 2.82c1 2.05 1.76 6.53 3.25 6.53.53 0 1.33-.47 2.03-1.9l.46.34c-.4.5-1.9 3.68-3.82 3.68-1.36 0-2-1.36-2.42-2.55l-1.33-3.75-2.1 3.25c-1.05 1.63-2 3.05-3.87 3.05-1.2 0-1.73-.83-1.73-1.56 0-.54.43-1.23 1.26-1.23.87 0 .74.66 1.57.66.4 0 1.26-.33 2.33-1.96l2.15-3.35-1.1-3.06c-.56-1.6-1.42-2.95-3.25-2.95-.43 0-.92.07-1.26.2l-.1-.6 4.4-1.1c1.45.8 2.08 2.17 2.48 3.27M507.55 262.18l-.38-.1c.68-2.22 2.16-3.8 4.6-3.8 2.2 0 3.67 1.3 3.67 3.22 0 1.13-.6 2.3-2.2 3.24 1.05.45 1.47.73 1.96 1.25.66.7 1.03 1.8 1.03 3 0 1.26-.4 2.4-1.08 3.3-1.12 1.5-3.35 2.18-5.44 2.18-1.7 0-2.62-.5-2.62-1.33 0-.5.42-.85.96-.85.4 0 .78.14 1.43.6.87.62 1.36.74 2.02.74 1.73 0 3.04-1.6 3.04-3.6 0-1.78-.82-2.93-2.44-3.4-.5-.16-1.05-.23-2.4-.23v-.32c.9-.3 1.5-.56 1.98-.84 1.15-.66 1.9-1.72 1.9-3.15 0-1.6-.98-2.4-2.53-2.4-1.46 0-2.54.75-3.5 2.48"/><path d="M600 320h100v57.13H600z" fill="#fff3d9"/><path d="M603.86 349.63h36.26v-1.93h-36.26zM610.22 323.5l-.23-.46c.63-.38 1.45-.52 2.22-.52 2.86 0 4.27 2.05 4.27 5.9 0 3.38-1.4 9.54-6.7 9.54-2.24 0-3.1-1.75-3.1-3.7 0-3.2 2.52-6.44 5.84-6.44.73 0 1.7.25 2.18 1.1.1-.5.16-1.06.16-1.6 0-2-.66-4.12-2.98-4.12-.6 0-1.1.12-1.68.3m3.9 6.95c0-1.47-.76-1.95-1.38-1.95-2.25 0-4.2 3.4-4.2 6.55 0 .86.1 2.22 1.52 2.22 1.75 0 3.1-2.27 3.73-4.6.2-.74.33-1.5.33-2.22M622.63 330.73l.64 5.34c1.38-1.9 2.18-3.25 2.68-4.18.45-.85.64-1.3.64-1.72 0-.48-1.2-.7-1.2-1.57 0-.5.4-.9 1.07-.9.73 0 1.3.53 1.3 1.4 0 1.8-3.68 7.24-4.64 8.45-1.66 2.1-3.14 4.32-4.68 4.32-.84 0-1.27-.7-1.27-1.25 0-.7.6-.94.9-.94.98 0 .94.7 1.3.7.4 0 1.68-1.4 2.27-2.3l-.86-7.15c-.12-1.02-.33-2.38-1.6-2.38-.25 0-.62.06-.82.1l-.05-.38 3.4-.57c.54.75.7 1.35.9 3.03M628.78 334.4l-.26-.07c.48-1.55 1.5-2.64 3.2-2.64 1.5 0 2.54.9 2.54 2.22 0 .8-.42 1.6-1.5 2.25.7.3 1 .5 1.34.87.45.5.72 1.25.72 2.1 0 .86-.28 1.66-.75 2.28-.8 1.05-2.34 1.52-3.8 1.52-1.18 0-1.8-.34-1.8-.93 0-.33.28-.58.66-.58.27 0 .53.1 1 .43.6.42.94.5 1.4.5 1.2 0 2.1-1.1 2.1-2.5 0-1.23-.56-2.03-1.68-2.36-.36-.12-.74-.17-1.67-.17v-.23c.62-.2 1.05-.4 1.37-.58.8-.46 1.32-1.2 1.32-2.2 0-1.1-.68-1.65-1.76-1.65-1 0-1.75.52-2.42 1.73M610.22 355.43l-.23-.46c.63-.4 1.45-.52 2.22-.52 2.86 0 4.27 2.04 4.27 5.9 0 3.37-1.4 9.53-6.7 9.53-2.24 0-3.1-1.75-3.1-3.68 0-3.2 2.52-6.46 5.84-6.46.73 0 1.7.25 2.18 1.1.1-.5.16-1.05.16-1.6 0-2-.66-4.1-2.98-4.1-.6 0-1.1.1-1.68.3m3.9 6.94c0-1.48-.76-1.95-1.38-1.95-2.25 0-4.2 3.38-4.2 6.54 0 .87.1 2.23 1.52 2.23 1.75 0 3.1-2.27 3.73-4.6.2-.74.33-1.5.33-2.22M622.63 362.65l.64 5.35c1.38-1.9 2.18-3.26 2.68-4.2.45-.83.64-1.28.64-1.7 0-.47-1.2-.7-1.2-1.56 0-.5.4-.9 1.07-.9.73 0 1.3.5 1.3 1.4 0 1.77-3.68 7.23-4.64 8.43-1.66 2.1-3.14 4.32-4.68 4.32-.84 0-1.27-.7-1.27-1.26 0-.68.6-.93.9-.93.98 0 .94.7 1.3.7.4 0 1.68-1.4 2.27-2.3l-.86-7.14c-.12-1.02-.33-2.4-1.6-2.4-.25 0-.62.08-.82.1l-.05-.36 3.4-.57c.54.75.7 1.34.9 3.02M635.52 372.4l-.88 2.24h-6.38v-.2l2.9-3.08c1.54-1.6 2.12-2.85 2.12-4.24 0-1.48-.88-2.3-2.26-2.3-1.18 0-1.75.52-2.4 2.12l-.34-.08c.34-1.9 1.38-3.24 3.4-3.24 1.83 0 3 1.25 3 2.87 0 1.27-.63 2.5-2.08 4.03l-2.7 2.87h3.82c.7 0 1.03-.18 1.57-1.1M673.4 346.42h-18.94v-2.12h18.94v2.12m0 6.43h-18.94v-2.12h18.94v2.12M696.55 356.7h-8.87v-.48c2.38-.12 3.05-.8 3.05-2.57v-14.43c0-1.1-.3-1.58-.96-1.58-.33 0-.87.16-1.45.4l-.87.3v-.44l5.76-2.93.3.1v19.2c0 1.38.64 1.95 3.05 1.95v.5"/><path d="M900 400h150.72v68.82H900z" fill="#fff3d9"/><path d="M905 433.16h47.05v-2.5H905zM916.88 405.68l-.3-.6c.83-.5 1.9-.67 2.9-.67 3.7 0 5.54 2.67 5.54 7.68 0 4.36-1.8 12.35-8.7 12.35-2.9 0-4-2.27-4-4.77 0-4.16 3.27-8.38 7.57-8.38.94 0 2.2.33 2.82 1.42.12-.65.2-1.36.2-2.07 0-2.6-.85-5.33-3.85-5.33-.8 0-1.45.15-2.2.38m5.1 9.02c0-1.9-1.02-2.53-1.8-2.53-2.93 0-5.47 4.4-5.47 8.5 0 1.1.12 2.88 1.98 2.88 2.27 0 4-2.95 4.83-5.96.28-.98.46-1.98.46-2.9M944.72 418.5l-1.8 5.6h-16.78l.12-.46h.5c2.2 0 2.92-.83 3.16-1.83l3.48-14.06c.1-.47.2-1.06.2-1.32 0-.56-.4-1.1-2.24-1.1h-.53l.12-.46h9.64l-.13.47h-.53c-2.2 0-2.83.76-3.1 1.85l-3.6 14.2c-.1.43-.14.84-.14.9 0 .65.83.7 1.18.7h3.6c3 0 4.5-.64 5.86-3.38.2-.33.36-.68.5-1.1h.48M913.26 440.67l-.3-.6c.83-.5 1.9-.67 2.9-.67 3.7 0 5.53 2.66 5.53 7.67 0 4.36-1.8 12.35-8.7 12.35-2.9 0-4-2.27-4-4.77 0-4.16 3.26-8.38 7.56-8.38.95 0 2.2.33 2.83 1.42.1-.66.2-1.37.2-2.08 0-2.6-.85-5.33-3.86-5.33-.8 0-1.45.13-2.18.37m5.07 9.02c0-1.92-1-2.54-1.8-2.54-2.92 0-5.46 4.4-5.46 8.5 0 1.1.12 2.88 1.98 2.88 2.27 0 4-2.95 4.84-5.96.25-.97.43-1.97.43-2.9M929.35 450.05l.83 6.92c1.8-2.44 2.83-4.2 3.48-5.42.6-1.1.82-1.68.82-2.2 0-.63-1.53-.93-1.53-2.05 0-.64.53-1.18 1.4-1.18.93 0 1.67.68 1.67 1.83 0 2.3-4.78 9.38-6.02 10.94-2.15 2.7-4.07 5.6-6.07 5.6-1.1 0-1.65-.92-1.65-1.63 0-.88.8-1.2 1.18-1.2 1.27 0 1.2.9 1.68.9.5 0 2.18-1.82 2.95-3l-1.13-9.26c-.15-1.32-.42-3.08-2.07-3.08-.32 0-.8.08-1.06.1l-.06-.46 4.42-.74c.68.98.9 1.74 1.15 3.93M937.34 454.8l-.34-.08c.6-2 1.94-3.42 4.14-3.42 1.97 0 3.3 1.16 3.3 2.9 0 1-.55 2.06-1.97 2.9.93.4 1.3.67 1.76 1.13.6.66.93 1.63.93 2.73 0 1.12-.36 2.15-.97 2.96-1.03 1.35-3.04 1.96-4.92 1.96-1.54 0-2.37-.44-2.37-1.2 0-.44.4-.76.88-.76.36 0 .7.13 1.3.55.77.55 1.22.65 1.8.65 1.57 0 2.76-1.43 2.76-3.23 0-1.62-.74-2.65-2.2-3.08-.47-.15-.95-.2-2.16-.2v-.3c.8-.28 1.35-.5 1.78-.77 1.03-.6 1.7-1.54 1.7-2.83 0-1.44-.88-2.16-2.27-2.16-1.32 0-2.3.68-3.16 2.25M995.2 429h-24.55v-2.76h24.56V429m0 8.33h-24.55v-2.75h24.56v2.75M1021.52 430.32l1.88-2.88c1.08-1.66 2.54-3.5 4.63-3.5 1.33 0 2.04.5 2.04 1.38 0 .8-.54 1.75-1.62 1.75-.92 0-1.13-.38-1.84-.38-1.24 0-1.7.66-2.28 1.58l-2.3 3.54c1.25 2.6 2.2 8.22 4.1 8.22.66 0 1.66-.58 2.53-2.38l.6.42c-.5.62-2.4 4.63-4.8 4.63-1.72 0-2.5-1.7-3.05-3.2l-1.67-4.72-2.63 4.1c-1.33 2.04-2.54 3.83-4.88 3.83-1.5 0-2.17-1.03-2.17-1.95 0-.67.55-1.54 1.6-1.54 1.07 0 .9.84 1.95.84.5 0 1.58-.42 2.92-2.46l2.7-4.2-1.37-3.85c-.7-2-1.8-3.7-4.08-3.7-.55 0-1.17.07-1.6.24l-.1-.75 5.5-1.38c1.83 1 2.62 2.7 3.12 4.1M1044.66 428.53l-1.06 2.5c-.1.22-.33.4-.8.4h-5.72l-1.18 2.5c4.22.8 5.7 1.44 7.37 3.77.77 1.07 1.03 2.2 1.03 3.75 0 2.83-.88 4.66-2.9 6.13-1.37 1-3 1.45-5 1.45-2.2 0-3.74-.7-3.74-1.83 0-.74.5-1.12 1.32-1.12.68 0 1.24.14 2.2.9.8.7 1.5.96 2.08.96 2.06 0 3.98-2.45 3.98-5 0-1.87-.65-3.35-1.98-4.4-1.38-1.13-3.45-2.07-6.28-2.07-.26 0-.35-.06-.35-.24 0-.06.03-.15.03-.15l3.2-7h6.12c.67 0 .94-.13 1.4-.75"/><path d="M1140 795h623.46v107H1140z" fill="#fff0f0"/><path d="M1147.23 850.5h70.2v-3.6h-70.2zM1165.52 810.82l-.42-.85c1.2-.72 2.72-.98 4.17-.98 5.36 0 8 3.82 8 11.06 0 6.3-2.6 17.84-12.56 17.84-4.16 0-5.78-3.28-5.78-6.9 0-6 4.73-12.1 10.95-12.1 1.36 0 3.2.48 4.08 2.06.17-.94.3-1.96.3-2.98 0-3.75-1.23-7.7-5.58-7.7-1.15 0-2.08.2-3.15.54m7.33 13.03c0-2.77-1.45-3.66-2.6-3.66-4.22 0-7.88 6.33-7.88 12.25 0 1.62.17 4.17 2.86 4.17 3.27 0 5.8-4.25 6.98-8.6.4-1.4.65-2.85.65-4.17M1205.7 829.34l-2.6 8.1h-24.2l.16-.7h.73c3.18 0 4.2-1.18 4.54-2.63l5.02-20.3c.17-.68.3-1.53.3-1.9 0-.82-.6-1.6-3.23-1.6h-.77l.17-.67h13.92l-.17.68h-.76c-3.2 0-4.1 1.12-4.48 2.7l-5.2 20.47c-.16.64-.2 1.24-.2 1.32 0 .93 1.2 1 1.7 1h5.2c4.34 0 6.5-.92 8.47-4.88.3-.47.52-.98.73-1.58h.68M1159.14 861.34l-.43-.85c1.2-.73 2.74-1 4.2-1 5.35 0 8 3.85 8 11.08 0 6.3-2.6 17.84-12.57 17.84-4.17 0-5.8-3.28-5.8-6.9 0-6 4.74-12.1 10.95-12.1 1.37 0 3.2.48 4.1 2.06.16-.94.3-1.96.3-2.98 0-3.75-1.25-7.7-5.6-7.7-1.14 0-2.08.2-3.14.54m7.32 13.03c0-2.77-1.44-3.66-2.6-3.66-4.2 0-7.87 6.35-7.87 12.27 0 1.62.16 4.17 2.84 4.17 3.28 0 5.8-4.25 6.98-8.6.4-1.4.64-2.85.64-4.17M1183.88 875.7l1.9-2.95c1.12-1.7 2.6-3.57 4.74-3.57 1.36 0 2.08.5 2.08 1.4 0 .8-.55 1.8-1.66 1.8-.93 0-1.15-.4-1.87-.4-1.28 0-1.75.7-2.34 1.63l-2.34 3.62c1.26 2.64 2.24 8.4 4.16 8.4.68 0 1.7-.6 2.6-2.44l.6.43c-.52.65-2.44 4.74-4.9 4.74-1.75 0-2.56-1.75-3.1-3.28l-1.72-4.8-2.68 4.16c-1.36 2.1-2.6 3.92-4.98 3.92-1.53 0-2.2-1.07-2.2-2 0-.7.54-1.58 1.6-1.58 1.1 0 .94.85 2 .85.52 0 1.62-.4 3-2.5l2.75-4.3-1.4-3.92c-.72-2.04-1.83-3.8-4.17-3.8-.56 0-1.2.1-1.62.27l-.13-.77 5.63-1.4c1.87 1.02 2.68 2.77 3.2 4.17M1208.8 890.18l-1.64 4.18h-11.94V894l5.44-5.77c2.87-3.03 3.97-5.35 3.97-7.94 0-2.8-1.65-4.3-4.25-4.3-2.2 0-3.26.96-4.5 3.95l-.63-.15c.64-3.57 2.6-6.07 6.35-6.07 3.45 0 5.65 2.35 5.65 5.37 0 2.4-1.2 4.7-3.9 7.57l-5.04 5.37h7.15c1.28 0 1.92-.33 2.93-2.04M1279.76 844.48h-35.47v-3.98h35.46v3.98m0 12.04h-35.47v-3.97h35.46v3.97M1306.62 850.5h67.92v-3.6h-67.92zM1323.77 810.82l-.43-.85c1.2-.72 2.73-.98 4.18-.98 5.36 0 8 3.82 8 11.06 0 6.3-2.6 17.84-12.56 17.84-4.17 0-5.8-3.28-5.8-6.9 0-6 4.74-12.1 10.95-12.1 1.38 0 3.2.48 4.1 2.06.17-.94.3-1.96.3-2.98 0-3.75-1.24-7.7-5.58-7.7-1.15 0-2.1.2-3.15.54m7.32 13.03c0-2.77-1.45-3.66-2.6-3.66-4.22 0-7.88 6.33-7.88 12.25 0 1.62.17 4.17 2.85 4.17 3.28 0 5.8-4.25 6.98-8.6.4-1.4.64-2.85.64-4.17M1363.96 829.34l-2.6 8.1h-24.22l.17-.7h.73c3.2 0 4.22-1.18 4.56-2.63l5-20.3c.18-.68.3-1.53.3-1.9 0-.82-.6-1.6-3.23-1.6h-.76l.18-.67H1358l-.17.68h-.77c-3.2 0-4.08 1.12-4.47 2.7l-5.2 20.47c-.17.64-.2 1.24-.2 1.32 0 .93 1.18 1 1.7 1h5.18c4.34 0 6.52-.92 8.47-4.88.3-.47.5-.98.73-1.58h.68M1318.53 861.34l-.42-.85c1.2-.73 2.73-1 4.18-1 5.36 0 8 3.85 8 11.08 0 6.3-2.6 17.84-12.56 17.84-4.17 0-5.8-3.28-5.8-6.9 0-6 4.74-12.1 10.95-12.1 1.37 0 3.2.48 4.1 2.06.16-.94.3-1.96.3-2.98 0-3.75-1.25-7.7-5.6-7.7-1.14 0-2.07.2-3.14.54m7.32 13.03c0-2.77-1.44-3.66-2.6-3.66-4.2 0-7.87 6.35-7.87 12.27 0 1.62.17 4.17 2.85 4.17 3.28 0 5.8-4.25 7-8.6.37-1.4.62-2.85.62-4.17M1341.78 874.88l1.2 10c2.6-3.53 4.08-6.08 5-7.83.86-1.57 1.2-2.42 1.2-3.2 0-.88-2.2-1.3-2.2-2.93 0-.93.76-1.7 2-1.7 1.35 0 2.42.98 2.42 2.64 0 3.32-6.9 13.54-8.7 15.8-3.1 3.9-5.86 8.08-8.76 8.08-1.57 0-2.38-1.32-2.38-2.34 0-1.28 1.15-1.74 1.7-1.74 1.83 0 1.75 1.32 2.43 1.32.7 0 3.14-2.64 4.25-4.35l-1.62-13.36c-.2-1.92-.6-4.47-2.98-4.47-.47 0-1.15.12-1.53.17l-.1-.7 6.4-1.05c.98 1.4 1.27 2.5 1.66 5.66M1353.3 881.76l-.5-.13c.9-2.9 2.82-4.94 6-4.94 2.84 0 4.76 1.67 4.76 4.17 0 1.47-.8 3-2.84 4.2 1.34.6 1.9.96 2.53 1.63.86.95 1.35 2.35 1.35 3.94 0 1.62-.52 3.1-1.4 4.27-1.47 1.97-4.37 2.85-7.1 2.85-2.22 0-3.4-.64-3.4-1.74 0-.63.54-1.1 1.24-1.1.52 0 1 .2 1.86.8 1.13.8 1.78.95 2.63.95 2.26 0 3.97-2.07 3.97-4.67 0-2.32-1.07-3.8-3.18-4.42-.67-.22-1.37-.3-3.1-.3v-.44c1.15-.4 1.94-.73 2.55-1.1 1.5-.85 2.48-2.22 2.48-4.1 0-2.06-1.3-3.1-3.3-3.1-1.9 0-3.3.98-4.55 3.24M1407.42 848.5c0 1.94-1.63 3.62-3.55 3.62-2 0-3.68-1.8-3.68-3.6 0-1.82 1.68-3.62 3.67-3.62 1.92 0 3.55 1.68 3.55 3.6M1433.07 850.5H1501v-3.6h-67.93zM1444.98 801.55l-.42-.85c1.2-.72 2.72-.98 4.17-.98 5.37 0 8 3.83 8 11.07 0 6.3-2.6 17.83-12.55 17.83-4.18 0-5.8-3.28-5.8-6.9 0-6 4.73-12.1 10.95-12.1 1.36 0 3.2.48 4.08 2.05.18-.93.3-1.96.3-2.98 0-3.74-1.22-7.7-5.56-7.7-1.15 0-2.1.2-3.16.55m7.33 13.03c0-2.77-1.44-3.66-2.6-3.66-4.2 0-7.87 6.34-7.87 12.26 0 1.62.17 4.17 2.86 4.17 3.26 0 5.78-4.26 6.97-8.6.38-1.4.64-2.85.64-4.17M1468.23 815.1l1.2 10c2.6-3.54 4.08-6.1 5.02-7.84.85-1.58 1.2-2.43 1.2-3.2 0-.9-2.23-1.3-2.23-2.93 0-.94.77-1.7 2-1.7 1.37 0 2.43.98 2.43 2.64 0 3.32-6.9 13.53-8.68 15.8-3.1 3.9-5.88 8.08-8.77 8.08-1.58 0-2.4-1.32-2.4-2.34 0-1.27 1.16-1.74 1.72-1.74 1.83 0 1.74 1.32 2.42 1.32.73 0 3.15-2.64 4.26-4.34l-1.62-13.37c-.2-1.9-.6-4.47-2.98-4.47-.47 0-1.15.13-1.53.17l-.1-.68 6.4-1.07c.98 1.4 1.28 2.5 1.66 5.66M1479.75 821.96l-.48-.12c.88-2.9 2.8-4.95 5.98-4.95 2.84 0 4.76 1.67 4.76 4.18 0 1.46-.78 3-2.83 4.2 1.35.6 1.9.95 2.54 1.63.86.95 1.35 2.36 1.35 3.94 0 1.62-.52 3.12-1.4 4.28-1.47 1.95-4.37 2.84-7.1 2.84-2.22 0-3.4-.64-3.4-1.74 0-.64.54-1.1 1.25-1.1.5 0 1 .18 1.86.8 1.13.8 1.77.94 2.62.94 2.26 0 3.97-2.08 3.97-4.67 0-2.33-1.07-3.83-3.17-4.44-.67-.2-1.38-.3-3.12-.3v-.43c1.16-.4 1.96-.73 2.57-1.1 1.5-.86 2.47-2.23 2.47-4.1 0-2.07-1.28-3.1-3.3-3.1-1.9 0-3.3.97-4.55 3.23M1444.98 861.34l-.42-.85c1.2-.73 2.72-1 4.17-1 5.37 0 8 3.85 8 11.08 0 6.3-2.6 17.84-12.55 17.84-4.18 0-5.8-3.28-5.8-6.9 0-6 4.73-12.1 10.95-12.1 1.36 0 3.2.48 4.08 2.06.18-.94.3-1.96.3-2.98 0-3.75-1.22-7.7-5.56-7.7-1.15 0-2.1.2-3.16.54m7.33 13.03c0-2.77-1.44-3.66-2.6-3.66-4.2 0-7.87 6.35-7.87 12.27 0 1.62.17 4.17 2.86 4.17 3.26 0 5.78-4.25 6.97-8.6.38-1.4.64-2.85.64-4.17M1468.23 874.88l1.2 10c2.6-3.53 4.08-6.08 5.02-7.83.85-1.57 1.2-2.42 1.2-3.2 0-.88-2.23-1.3-2.23-2.93 0-.93.77-1.7 2-1.7 1.37 0 2.43.98 2.43 2.64 0 3.32-6.9 13.54-8.68 15.8-3.1 3.9-5.88 8.08-8.77 8.08-1.58 0-2.4-1.32-2.4-2.34 0-1.28 1.16-1.74 1.72-1.74 1.83 0 1.74 1.32 2.42 1.32.73 0 3.15-2.64 4.26-4.35l-1.62-13.36c-.2-1.92-.6-4.47-2.98-4.47-.47 0-1.15.12-1.53.17l-.1-.7 6.4-1.05c.98 1.4 1.28 2.5 1.66 5.66M1492.36 893.14l-1.65 4.2h-11.92v-.38l5.43-5.77c2.88-3.03 3.98-5.35 3.98-7.95 0-2.78-1.65-4.3-4.24-4.3-2.2 0-3.27.97-4.5 3.97l-.63-.16c.65-3.57 2.6-6.07 6.36-6.07 3.45 0 5.65 2.34 5.65 5.36 0 2.4-1.18 4.7-3.9 7.57l-5.04 5.37h7.14c1.3 0 1.93-.33 2.94-2.04M1533.87 848.5c0 1.94-1.62 3.62-3.55 3.62-2 0-3.67-1.8-3.67-3.6 0-1.82 1.68-3.62 3.67-3.62 1.93 0 3.55 1.68 3.55 3.6M1559.52 850.5h67.93v-3.6h-67.93zM1571.44 801.97l-.43-.85c1.2-.72 2.74-.98 4.18-.98 5.37 0 8 3.83 8 11.07 0 6.3-2.6 17.85-12.55 17.85-4.17 0-5.8-3.28-5.8-6.9 0-6 4.73-12.1 10.95-12.1 1.36 0 3.2.48 4.1 2.05.16-.93.3-1.95.3-2.98 0-3.74-1.25-7.7-5.6-7.7-1.14 0-2.08.2-3.14.55m7.32 13.03c0-2.77-1.45-3.66-2.6-3.66-4.2 0-7.87 6.34-7.87 12.26 0 1.62.16 4.17 2.84 4.17 3.28 0 5.8-4.26 6.98-8.6.4-1.4.64-2.85.64-4.17M1594.68 815.5l1.2 10c2.6-3.52 4.08-6.07 5.02-7.82.85-1.57 1.2-2.43 1.2-3.2 0-.9-2.22-1.3-2.22-2.93 0-.94.76-1.7 2-1.7 1.36 0 2.42.98 2.42 2.64 0 3.3-6.9 13.53-8.68 15.78-3.1 3.92-5.88 8.1-8.77 8.1-1.58 0-2.38-1.33-2.38-2.35 0-1.28 1.14-1.75 1.7-1.75 1.83 0 1.74 1.32 2.42 1.32.72 0 3.15-2.64 4.25-4.34l-1.62-13.37c-.2-1.92-.6-4.48-2.98-4.48-.46 0-1.15.13-1.53.17l-.08-.7 6.38-1.05c.98 1.4 1.28 2.5 1.66 5.66M1618.82 833.77l-1.65 4.18h-11.94v-.36l5.43-5.78c2.87-3.03 3.97-5.35 3.97-7.94 0-2.78-1.65-4.3-4.24-4.3-2.2 0-3.28.97-4.5 3.96l-.64-.15c.64-3.58 2.6-6.1 6.35-6.1 3.46 0 5.66 2.37 5.66 5.4 0 2.4-1.2 4.7-3.9 7.56l-5.05 5.37h7.16c1.28 0 1.92-.33 2.93-2.04M1571.44 861.34l-.43-.85c1.2-.73 2.74-1 4.18-1 5.37 0 8 3.85 8 11.08 0 6.3-2.6 17.84-12.55 17.84-4.17 0-5.8-3.28-5.8-6.9 0-6 4.73-12.1 10.95-12.1 1.36 0 3.2.48 4.1 2.06.16-.94.3-1.96.3-2.98 0-3.75-1.25-7.7-5.6-7.7-1.14 0-2.08.2-3.14.54m7.32 13.03c0-2.77-1.45-3.66-2.6-3.66-4.2 0-7.87 6.35-7.87 12.27 0 1.62.16 4.17 2.84 4.17 3.28 0 5.8-4.25 6.98-8.6.4-1.4.64-2.85.64-4.17M1594.68 874.88l1.2 10c2.6-3.53 4.08-6.08 5.02-7.83.85-1.57 1.2-2.42 1.2-3.2 0-.88-2.22-1.3-2.22-2.93 0-.93.76-1.7 2-1.7 1.36 0 2.42.98 2.42 2.64 0 3.32-6.9 13.54-8.68 15.8-3.1 3.9-5.88 8.08-8.77 8.08-1.58 0-2.38-1.32-2.38-2.34 0-1.28 1.14-1.74 1.7-1.74 1.83 0 1.74 1.32 2.42 1.32.72 0 3.15-2.64 4.25-4.35l-1.62-13.36c-.2-1.92-.6-4.47-2.98-4.47-.46 0-1.15.12-1.53.17l-.08-.7 6.38-1.05c.98 1.4 1.28 2.5 1.66 5.66M1616.37 897.33h-8.42v-.46c2.26-.12 2.9-.77 2.9-2.45v-13.7c0-1.04-.28-1.5-.92-1.5-.3 0-.82.15-1.37.37l-.83.3v-.43l5.47-2.78.27.08V895c0 1.32.6 1.87 2.9 1.87v.46M1660.32 848.5c0 1.94-1.62 3.62-3.55 3.62-2 0-3.67-1.8-3.67-3.6 0-1.82 1.68-3.62 3.67-3.62 1.93 0 3.55 1.68 3.55 3.6M1685.92 850.5h70.2v-3.6h-70.2zM1698.98 801.97l-.43-.85c1.2-.72 2.72-.98 4.17-.98 5.37 0 8 3.83 8 11.07 0 6.3-2.6 17.85-12.55 17.85-4.18 0-5.8-3.28-5.8-6.9 0-6 4.73-12.1 10.95-12.1 1.36 0 3.2.48 4.08 2.05.17-.93.3-1.95.3-2.98 0-3.74-1.23-7.7-5.57-7.7-1.15 0-2.1.2-3.15.55m7.32 13.03c0-2.77-1.45-3.66-2.6-3.66-4.2 0-7.88 6.34-7.88 12.26 0 1.62.17 4.17 2.86 4.17 3.28 0 5.8-4.26 6.98-8.6.38-1.4.64-2.85.64-4.17M1722.22 815.5l1.2 10c2.6-3.52 4.08-6.07 5.02-7.82.85-1.57 1.2-2.43 1.2-3.2 0-.9-2.23-1.3-2.23-2.93 0-.94.78-1.7 2-1.7 1.38 0 2.44.98 2.44 2.64 0 3.3-6.9 13.53-8.68 15.78-3.1 3.92-5.88 8.1-8.77 8.1-1.6 0-2.4-1.33-2.4-2.35 0-1.28 1.15-1.75 1.7-1.75 1.84 0 1.75 1.32 2.43 1.32.73 0 3.15-2.64 4.26-4.34l-1.63-13.37c-.2-1.92-.6-4.48-2.98-4.48-.48 0-1.16.13-1.54.17l-.1-.7 6.4-1.05c.98 1.4 1.28 2.5 1.66 5.66M1743.9 837.95h-8.42v-.46c2.26-.13 2.9-.77 2.9-2.45v-13.7c0-1.04-.27-1.5-.9-1.5-.32 0-.84.15-1.38.36l-.83.32v-.43l5.47-2.8.27.1v18.23c0 1.3.62 1.86 2.9 1.86v.45M1697.83 861.34l-.42-.85c1.2-.73 2.73-1 4.18-1 5.36 0 8 3.85 8 11.08 0 6.3-2.6 17.84-12.56 17.84-4.17 0-5.8-3.28-5.8-6.9 0-6 4.74-12.1 10.95-12.1 1.37 0 3.2.48 4.1 2.06.16-.94.3-1.96.3-2.98 0-3.75-1.25-7.7-5.6-7.7-1.14 0-2.07.2-3.14.54m7.32 13.03c0-2.77-1.44-3.66-2.6-3.66-4.2 0-7.87 6.35-7.87 12.27 0 1.62.17 4.17 2.85 4.17 3.28 0 5.8-4.25 6.98-8.6.4-1.4.65-2.85.65-4.17M1722.57 875.7l1.9-2.95c1.12-1.7 2.6-3.57 4.74-3.57 1.37 0 2.1.5 2.1 1.4 0 .8-.56 1.8-1.67 1.8-.93 0-1.15-.4-1.87-.4-1.28 0-1.75.7-2.34 1.63l-2.34 3.62c1.27 2.64 2.25 8.4 4.17 8.4.68 0 1.7-.6 2.6-2.44l.6.43c-.52.65-2.43 4.74-4.9 4.74-1.75 0-2.56-1.75-3.1-3.28l-1.7-4.8-2.7 4.16c-1.36 2.1-2.6 3.92-4.98 3.92-1.53 0-2.2-1.07-2.2-2 0-.7.54-1.58 1.6-1.58 1.1 0 .94.85 2 .85.52 0 1.62-.4 3-2.5l2.75-4.3-1.4-3.92c-.72-2.04-1.83-3.8-4.17-3.8-.56 0-1.2.1-1.62.27l-.13-.77 5.62-1.4c1.87 1.02 2.68 2.77 3.2 4.17M1747.5 890.18l-1.65 4.18h-11.94V894l5.45-5.77c2.87-3.03 3.97-5.35 3.97-7.94 0-2.8-1.65-4.3-4.25-4.3-2.2 0-3.26.96-4.5 3.95l-.63-.15c.64-3.57 2.6-6.07 6.35-6.07 3.44 0 5.64 2.35 5.64 5.37 0 2.4-1.2 4.7-3.9 7.57l-5.04 5.37h7.14c1.28 0 1.92-.33 2.93-2.04"/><path d="M1140 930h497.03v107H1140z" fill="#fff0f0"/><path d="M1147.23 985.5h70.2v-3.62h-70.2zM1165.52 945.82l-.42-.85c1.2-.72 2.72-.98 4.17-.98 5.36 0 8 3.82 8 11.06 0 6.3-2.6 17.84-12.56 17.84-4.16 0-5.78-3.28-5.78-6.9 0-6 4.73-12.1 10.95-12.1 1.36 0 3.2.48 4.08 2.05.17-.93.3-1.95.3-2.98 0-3.74-1.23-7.7-5.58-7.7-1.15 0-2.08.2-3.15.55m7.33 13.03c0-2.77-1.45-3.66-2.6-3.66-4.22 0-7.88 6.33-7.88 12.25 0 1.62.17 4.17 2.86 4.17 3.27 0 5.8-4.26 6.98-8.6.4-1.4.65-2.85.65-4.17M1205.7 964.34l-2.6 8.1h-24.2l.16-.7h.73c3.18 0 4.2-1.18 4.54-2.63l5.02-20.3c.17-.68.3-1.53.3-1.9 0-.82-.6-1.6-3.23-1.6h-.77l.17-.67h13.92l-.17.68h-.76c-3.2 0-4.1 1.12-4.48 2.7l-5.2 20.47c-.16.64-.2 1.23-.2 1.32 0 .93 1.2 1 1.7 1h5.2c4.34 0 6.5-.93 8.47-4.88.3-.47.52-.98.73-1.58h.68M1159.14 996.34l-.43-.85c1.2-.73 2.74-1 4.2-1 5.35 0 8 3.84 8 11.08 0 6.3-2.6 17.84-12.57 17.84-4.17 0-5.8-3.28-5.8-6.9 0-6 4.74-12.1 10.95-12.1 1.37 0 3.2.48 4.1 2.05.16-.93.3-1.95.3-2.98 0-3.75-1.25-7.7-5.6-7.7-1.14 0-2.08.2-3.14.54m7.32 13.03c0-2.77-1.44-3.66-2.6-3.66-4.2 0-7.87 6.35-7.87 12.27 0 1.62.16 4.17 2.84 4.17 3.28 0 5.8-4.26 6.98-8.6.4-1.4.64-2.85.64-4.17M1183.88 1010.7l1.9-2.95c1.12-1.7 2.6-3.57 4.74-3.57 1.36 0 2.08.5 2.08 1.4 0 .8-.55 1.8-1.66 1.8-.93 0-1.15-.4-1.87-.4-1.28 0-1.75.7-2.34 1.62l-2.34 3.62c1.26 2.64 2.24 8.4 4.16 8.4.68 0 1.7-.6 2.6-2.44l.6.43c-.52.65-2.44 4.73-4.9 4.73-1.75 0-2.56-1.74-3.1-3.27l-1.72-4.82-2.68 4.18c-1.36 2.08-2.6 3.9-4.98 3.9-1.53 0-2.2-1.05-2.2-2 0-.67.54-1.56 1.6-1.56 1.1 0 .94.85 2 .85.52 0 1.62-.42 3-2.5l2.75-4.3-1.4-3.92c-.72-2.04-1.83-3.8-4.17-3.8-.56 0-1.2.1-1.62.27l-.13-.77 5.63-1.4c1.87 1.02 2.68 2.76 3.2 4.17M1196.2 1013.8l-.5-.13c.9-2.9 2.82-4.95 6-4.95 2.83 0 4.76 1.68 4.76 4.2 0 1.45-.8 2.98-2.84 4.2 1.34.58 1.9.95 2.53 1.62.86.94 1.35 2.35 1.35 3.94 0 1.6-.52 3.1-1.4 4.27-1.47 1.95-4.37 2.84-7.1 2.84-2.22 0-3.4-.65-3.4-1.75 0-.64.54-1.1 1.24-1.1.52 0 1 .18 1.86.8 1.13.8 1.77.94 2.63.94 2.26 0 3.97-2.1 3.97-4.68 0-2.32-1.07-3.82-3.18-4.43-.67-.22-1.37-.3-3.1-.3v-.44c1.15-.4 1.94-.73 2.55-1.1 1.5-.85 2.48-2.23 2.48-4.1 0-2.07-1.3-3.1-3.3-3.1-1.9 0-3.3.97-4.55 3.23M1279.76 979.47h-35.47v-3.97h35.46v3.97m0 12.05h-35.47v-3.98h35.46v3.98M1306.62 985.5h67.92v-3.62h-67.92zM1323.77 945.82l-.43-.85c1.2-.72 2.73-.98 4.18-.98 5.36 0 8 3.82 8 11.06 0 6.3-2.6 17.84-12.56 17.84-4.17 0-5.8-3.28-5.8-6.9 0-6 4.74-12.1 10.95-12.1 1.38 0 3.2.48 4.1 2.05.17-.93.3-1.95.3-2.98 0-3.74-1.24-7.7-5.58-7.7-1.15 0-2.1.2-3.15.55m7.32 13.03c0-2.77-1.45-3.66-2.6-3.66-4.22 0-7.88 6.33-7.88 12.25 0 1.62.17 4.17 2.85 4.17 3.28 0 5.8-4.26 6.98-8.6.4-1.4.64-2.85.64-4.17M1363.96 964.34l-2.6 8.1h-24.22l.17-.7h.73c3.2 0 4.22-1.18 4.56-2.63l5-20.3c.18-.68.3-1.53.3-1.9 0-.82-.6-1.6-3.23-1.6h-.76l.18-.67H1358l-.17.68h-.77c-3.2 0-4.08 1.12-4.47 2.7l-5.2 20.47c-.17.64-.2 1.23-.2 1.32 0 .93 1.18 1 1.7 1h5.18c4.34 0 6.52-.93 8.47-4.88.3-.47.5-.98.73-1.58h.68M1318.53 996.34l-.42-.85c1.2-.73 2.73-1 4.18-1 5.36 0 8 3.84 8 11.08 0 6.3-2.6 17.84-12.56 17.84-4.17 0-5.8-3.28-5.8-6.9 0-6 4.74-12.1 10.95-12.1 1.37 0 3.2.48 4.1 2.05.16-.93.3-1.95.3-2.98 0-3.75-1.25-7.7-5.6-7.7-1.14 0-2.07.2-3.14.54m7.32 13.03c0-2.77-1.44-3.66-2.6-3.66-4.2 0-7.87 6.35-7.87 12.27 0 1.62.17 4.17 2.85 4.17 3.28 0 5.8-4.26 7-8.6.37-1.4.62-2.85.62-4.17M1341.78 1009.88l1.2 10c2.6-3.53 4.08-6.08 5-7.83.86-1.57 1.2-2.43 1.2-3.2 0-.9-2.2-1.3-2.2-2.93 0-.94.76-1.7 2-1.7 1.35 0 2.42.98 2.42 2.64 0 3.32-6.9 13.54-8.7 15.8-3.1 3.9-5.86 8.08-8.76 8.08-1.57 0-2.38-1.32-2.38-2.34 0-1.28 1.15-1.75 1.7-1.75 1.83 0 1.75 1.32 2.43 1.32.7 0 3.14-2.64 4.25-4.34l-1.62-13.37c-.2-1.9-.6-4.47-2.98-4.47-.47 0-1.15.12-1.53.16l-.1-.68 6.4-1.06c.98 1.4 1.27 2.5 1.66 5.66M1353.3 1016.75l-.5-.12c.9-2.9 2.82-4.95 6-4.95 2.84 0 4.76 1.68 4.76 4.2 0 1.45-.8 2.98-2.84 4.2 1.34.58 1.9.95 2.53 1.62.86.94 1.35 2.35 1.35 3.94 0 1.6-.52 3.1-1.4 4.27-1.47 1.96-4.37 2.85-7.1 2.85-2.22 0-3.4-.64-3.4-1.74 0-.63.54-1.1 1.24-1.1.52 0 1 .2 1.86.8 1.13.8 1.78.95 2.63.95 2.26 0 3.97-2.08 3.97-4.67 0-2.32-1.07-3.82-3.18-4.43-.67-.2-1.37-.3-3.1-.3v-.43c1.15-.4 1.94-.73 2.55-1.1 1.5-.85 2.48-2.23 2.48-4.1 0-2.07-1.3-3.1-3.3-3.1-1.9 0-3.3.97-4.55 3.23M1407.42 983.5c0 1.94-1.63 3.62-3.55 3.62-2 0-3.68-1.8-3.68-3.6 0-1.82 1.68-3.62 3.67-3.62 1.92 0 3.55 1.68 3.55 3.6M1433.07 985.5H1501v-3.62h-67.93zM1444.98 936.55l-.42-.85c1.2-.73 2.72-.98 4.17-.98 5.37 0 8 3.83 8 11.07 0 6.3-2.6 17.82-12.55 17.82-4.18 0-5.8-3.27-5.8-6.9 0-6 4.73-12.08 10.95-12.08 1.36 0 3.2.46 4.08 2.04.18-.94.3-1.96.3-2.98 0-3.75-1.22-7.7-5.56-7.7-1.15 0-2.1.2-3.16.55m7.33 13.03c0-2.77-1.44-3.67-2.6-3.67-4.2 0-7.87 6.36-7.87 12.27 0 1.62.17 4.18 2.86 4.18 3.26 0 5.78-4.26 6.97-8.6.38-1.4.64-2.86.64-4.17M1468.23 950.1l1.2 10c2.6-3.54 4.08-6.1 5.02-7.84.85-1.58 1.2-2.43 1.2-3.2 0-.9-2.23-1.32-2.23-2.93 0-.94.77-1.7 2-1.7 1.37 0 2.43.97 2.43 2.63 0 3.32-6.9 13.54-8.68 15.8-3.1 3.9-5.88 8.1-8.77 8.1-1.58 0-2.4-1.33-2.4-2.36 0-1.27 1.16-1.74 1.72-1.74 1.83 0 1.74 1.32 2.42 1.32.73 0 3.15-2.64 4.26-4.34l-1.62-13.37c-.2-1.92-.6-4.47-2.98-4.47-.47 0-1.15.13-1.53.17l-.1-.68 6.4-1.08c.98 1.4 1.28 2.52 1.66 5.67M1479.75 956.96l-.48-.12c.88-2.9 2.8-4.95 5.98-4.95 2.84 0 4.76 1.67 4.76 4.17 0 1.47-.78 3-2.83 4.22 1.35.57 1.9.93 2.54 1.6.86.95 1.35 2.35 1.35 3.94 0 1.62-.52 3.12-1.4 4.28-1.47 1.95-4.37 2.84-7.1 2.84-2.22 0-3.4-.65-3.4-1.74 0-.65.54-1.1 1.25-1.1.5 0 1 .18 1.86.8 1.13.78 1.77.94 2.62.94 2.26 0 3.97-2.08 3.97-4.67 0-2.33-1.07-3.83-3.17-4.44-.67-.2-1.38-.3-3.12-.3v-.43c1.16-.4 1.96-.74 2.57-1.1 1.5-.86 2.47-2.23 2.47-4.1 0-2.07-1.28-3.1-3.3-3.1-1.9 0-3.3.97-4.55 3.23M1444.98 996.34l-.42-.85c1.2-.73 2.72-1 4.17-1 5.37 0 8 3.84 8 11.08 0 6.3-2.6 17.84-12.55 17.84-4.18 0-5.8-3.28-5.8-6.9 0-6 4.73-12.1 10.95-12.1 1.36 0 3.2.48 4.08 2.05.18-.93.3-1.95.3-2.98 0-3.75-1.22-7.7-5.56-7.7-1.15 0-2.1.2-3.16.54m7.33 13.03c0-2.77-1.44-3.66-2.6-3.66-4.2 0-7.87 6.35-7.87 12.27 0 1.62.17 4.17 2.86 4.17 3.26 0 5.78-4.26 6.97-8.6.38-1.4.64-2.85.64-4.17M1468.23 1009.88l1.2 10c2.6-3.53 4.08-6.08 5.02-7.83.85-1.57 1.2-2.43 1.2-3.2 0-.9-2.23-1.3-2.23-2.93 0-.94.77-1.7 2-1.7 1.37 0 2.43.98 2.43 2.64 0 3.32-6.9 13.54-8.68 15.8-3.1 3.9-5.88 8.08-8.77 8.08-1.58 0-2.4-1.32-2.4-2.34 0-1.28 1.16-1.75 1.72-1.75 1.83 0 1.74 1.32 2.42 1.32.73 0 3.15-2.64 4.26-4.34l-1.62-13.37c-.2-1.9-.6-4.47-2.98-4.47-.47 0-1.15.12-1.53.16l-.1-.68 6.4-1.06c.98 1.4 1.28 2.5 1.66 5.66M1492.36 1028.14l-1.65 4.18h-11.92v-.36l5.43-5.77c2.88-3.04 3.98-5.36 3.98-7.95 0-2.78-1.65-4.3-4.24-4.3-2.2 0-3.27.97-4.5 3.96l-.63-.14c.65-3.57 2.6-6.08 6.36-6.08 3.45 0 5.65 2.36 5.65 5.38 0 2.4-1.18 4.7-3.9 7.57l-5.04 5.37h7.14c1.3 0 1.93-.33 2.94-2.04M1533.87 983.5c0 1.94-1.62 3.62-3.55 3.62-2 0-3.67-1.8-3.67-3.6 0-1.82 1.68-3.62 3.67-3.62 1.93 0 3.55 1.68 3.55 3.6M1559.52 985.5h70.2v-3.62h-70.2zM1572.58 936.97l-.42-.85c1.2-.73 2.72-.98 4.17-.98 5.36 0 8 3.83 8 11.07 0 6.3-2.6 17.85-12.56 17.85-4.17 0-5.8-3.28-5.8-6.9 0-6 4.74-12.1 10.95-12.1 1.37 0 3.2.48 4.1 2.05.16-.93.3-1.96.3-2.98 0-3.74-1.25-7.7-5.6-7.7-1.14 0-2.07.2-3.14.55m7.32 13.03c0-2.77-1.44-3.66-2.6-3.66-4.2 0-7.87 6.34-7.87 12.26 0 1.6.17 4.17 2.85 4.17 3.28 0 5.8-4.26 7-8.6.37-1.4.62-2.85.62-4.17M1595.83 950.5l1.2 10c2.6-3.52 4.08-6.08 5-7.82.86-1.58 1.2-2.43 1.2-3.2 0-.9-2.2-1.3-2.2-2.93 0-.94.76-1.7 2-1.7 1.35 0 2.42.97 2.42 2.63 0 3.33-6.9 13.54-8.7 15.8-3.1 3.92-5.86 8.1-8.76 8.1-1.58 0-2.4-1.33-2.4-2.35 0-1.28 1.16-1.75 1.7-1.75 1.84 0 1.76 1.32 2.44 1.32.72 0 3.15-2.64 4.26-4.34l-1.62-13.37c-.2-1.93-.6-4.48-2.98-4.48-.47 0-1.15.13-1.53.17l-.1-.7 6.4-1.05c.98 1.4 1.27 2.5 1.66 5.66M1619.96 968.77l-1.65 4.18h-11.93v-.37l5.44-5.77c2.88-3 3.98-5.33 3.98-7.92 0-2.78-1.65-4.3-4.25-4.3-2.2 0-3.26.97-4.48 3.96l-.64-.15c.65-3.58 2.6-6.1 6.36-6.1 3.44 0 5.64 2.36 5.64 5.4 0 2.4-1.2 4.7-3.9 7.56l-5.04 5.37h7.14c1.28 0 1.93-.34 2.93-2.05M1571.44 996.34l-.43-.85c1.2-.73 2.74-1 4.18-1 5.37 0 8 3.84 8 11.08 0 6.3-2.6 17.84-12.55 17.84-4.17 0-5.8-3.28-5.8-6.9 0-6 4.73-12.1 10.95-12.1 1.36 0 3.2.48 4.1 2.05.16-.93.3-1.95.3-2.98 0-3.75-1.25-7.7-5.6-7.7-1.14 0-2.08.2-3.14.54m7.32 13.03c0-2.77-1.45-3.66-2.6-3.66-4.2 0-7.87 6.35-7.87 12.27 0 1.62.16 4.17 2.84 4.17 3.28 0 5.8-4.26 6.98-8.6.4-1.4.64-2.85.64-4.17M1596.17 1010.7l1.92-2.95c1.1-1.7 2.6-3.57 4.7-3.57 1.38 0 2.1.5 2.1 1.4 0 .8-.55 1.8-1.66 1.8-.94 0-1.15-.4-1.87-.4-1.28 0-1.75.7-2.34 1.62l-2.35 3.62c1.28 2.64 2.26 8.4 4.18 8.4.68 0 1.7-.6 2.6-2.44l.6.43c-.52.65-2.44 4.73-4.9 4.73-1.75 0-2.56-1.74-3.1-3.27l-1.72-4.82-2.68 4.18c-1.36 2.08-2.6 3.9-4.98 3.9-1.53 0-2.2-1.05-2.2-2 0-.67.54-1.56 1.6-1.56 1.1 0 .94.85 2 .85.5 0 1.62-.42 2.98-2.5l2.77-4.3-1.4-3.92c-.73-2.04-1.83-3.8-4.18-3.8-.55 0-1.2.1-1.6.27l-.14-.77 5.63-1.4c1.87 1.02 2.68 2.76 3.2 4.17M1608.5 1013.8l-.5-.13c.9-2.9 2.82-4.95 6-4.95 2.83 0 4.75 1.68 4.75 4.2 0 1.45-.8 2.98-2.83 4.2 1.34.58 1.9.95 2.53 1.62.85.94 1.34 2.35 1.34 3.94 0 1.6-.53 3.1-1.4 4.27-1.48 1.95-4.38 2.84-7.1 2.84-2.22 0-3.4-.65-3.4-1.75 0-.64.54-1.1 1.24-1.1.52 0 1 .18 1.86.8 1.13.8 1.77.94 2.63.94 2.26 0 3.96-2.1 3.96-4.68 0-2.32-1.07-3.82-3.18-4.43-.67-.22-1.37-.3-3.1-.3v-.44c1.15-.4 1.94-.73 2.55-1.1 1.5-.85 2.47-2.23 2.47-4.1 0-2.07-1.28-3.1-3.3-3.1-1.9 0-3.3.97-4.54 3.23"/><path d="M1140 1065h370.6v107H1140z" fill="#fff0f0"/><path d="M1147.23 1120.5h70.2v-3.62h-70.2zM1165.52 1080.82l-.42-.85c1.2-.73 2.72-.98 4.17-.98 5.36 0 8 3.82 8 11.06 0 6.3-2.6 17.83-12.56 17.83-4.16 0-5.78-3.28-5.78-6.9 0-6 4.73-12.1 10.95-12.1 1.36 0 3.2.48 4.08 2.05.17-.94.3-1.96.3-2.98 0-3.75-1.23-7.7-5.58-7.7-1.15 0-2.08.2-3.15.55m7.33 13.03c0-2.77-1.45-3.67-2.6-3.67-4.22 0-7.88 6.35-7.88 12.27 0 1.6.17 4.17 2.86 4.17 3.27 0 5.8-4.26 6.98-8.6.4-1.4.65-2.85.65-4.17M1205.7 1099.34l-2.6 8.1h-24.2l.16-.7h.73c3.18 0 4.2-1.2 4.54-2.63l5.02-20.3c.17-.68.3-1.53.3-1.92 0-.8-.6-1.57-3.23-1.57h-.77l.17-.67h13.92l-.17.68h-.76c-3.2 0-4.1 1.1-4.48 2.7l-5.2 20.47c-.16.64-.2 1.23-.2 1.32 0 .92 1.2 1 1.7 1h5.2c4.34 0 6.5-.93 8.47-4.9.3-.46.52-.97.73-1.56h.68M1159.14 1131.34l-.43-.85c1.2-.74 2.74-1 4.2-1 5.35 0 8 3.84 8 11.08 0 6.3-2.6 17.84-12.57 17.84-4.17 0-5.8-3.28-5.8-6.9 0-6 4.74-12.1 10.95-12.1 1.37 0 3.2.48 4.1 2.05.16-.93.3-1.96.3-2.98 0-3.75-1.25-7.7-5.6-7.7-1.14 0-2.08.2-3.14.54m7.32 13.03c0-2.77-1.44-3.66-2.6-3.66-4.2 0-7.87 6.35-7.87 12.27 0 1.6.16 4.17 2.84 4.17 3.28 0 5.8-4.26 6.98-8.6.4-1.4.64-2.85.64-4.17M1183.88 1145.7l1.9-2.95c1.12-1.7 2.6-3.58 4.74-3.58 1.36 0 2.08.5 2.08 1.4 0 .82-.55 1.8-1.66 1.8-.93 0-1.15-.4-1.87-.4-1.28 0-1.75.7-2.34 1.63l-2.34 3.62c1.26 2.64 2.24 8.4 4.16 8.4.68 0 1.7-.6 2.6-2.44l.6.43c-.52.64-2.44 4.73-4.9 4.73-1.75 0-2.56-1.74-3.1-3.28l-1.72-4.8-2.68 4.16c-1.36 2.1-2.6 3.93-4.98 3.93-1.53 0-2.2-1.06-2.2-2 0-.68.54-1.58 1.6-1.58 1.1 0 .94.86 2 .86.52 0 1.62-.42 3-2.5l2.75-4.3-1.4-3.92c-.72-2.05-1.83-3.8-4.17-3.8-.56 0-1.2.1-1.62.26l-.13-.76 5.63-1.4c1.87 1 2.68 2.76 3.2 4.17M1208.78 1159.26h-3.15v5.1h-2.38v-5.1h-8.55v-1.95l9.6-13.58h1.33v13.6h3.15v1.94m-5.53-1.95v-10.47l-7.33 10.48h7.33M1279.76 1114.47h-35.47v-3.97h35.46v3.97m0 12.04h-35.47v-3.96h35.46v3.97M1306.62 1120.5h67.92v-3.62h-67.92zM1323.77 1080.82l-.43-.85c1.2-.73 2.73-.98 4.18-.98 5.36 0 8 3.82 8 11.06 0 6.3-2.6 17.83-12.56 17.83-4.17 0-5.8-3.28-5.8-6.9 0-6 4.74-12.1 10.95-12.1 1.38 0 3.2.48 4.1 2.05.17-.94.3-1.96.3-2.98 0-3.75-1.24-7.7-5.58-7.7-1.15 0-2.1.2-3.15.55m7.32 13.03c0-2.77-1.45-3.67-2.6-3.67-4.22 0-7.88 6.35-7.88 12.27 0 1.6.17 4.17 2.85 4.17 3.28 0 5.8-4.26 6.98-8.6.4-1.4.64-2.85.64-4.17M1363.96 1099.34l-2.6 8.1h-24.22l.17-.7h.73c3.2 0 4.22-1.2 4.56-2.63l5-20.3c.18-.68.3-1.53.3-1.92 0-.8-.6-1.57-3.23-1.57h-.76l.18-.67H1358l-.17.68h-.77c-3.2 0-4.08 1.1-4.47 2.7l-5.2 20.47c-.17.64-.2 1.23-.2 1.32 0 .92 1.18 1 1.7 1h5.18c4.34 0 6.52-.93 8.47-4.9.3-.46.5-.97.73-1.56h.68M1318.53 1131.34l-.42-.85c1.2-.74 2.73-1 4.18-1 5.36 0 8 3.84 8 11.08 0 6.3-2.6 17.84-12.56 17.84-4.17 0-5.8-3.28-5.8-6.9 0-6 4.74-12.1 10.95-12.1 1.37 0 3.2.48 4.1 2.05.16-.93.3-1.96.3-2.98 0-3.75-1.25-7.7-5.6-7.7-1.14 0-2.07.2-3.14.54m7.32 13.03c0-2.77-1.44-3.66-2.6-3.66-4.2 0-7.87 6.35-7.87 12.27 0 1.6.17 4.17 2.85 4.17 3.28 0 5.8-4.26 7-8.6.37-1.4.62-2.85.62-4.17M1341.78 1144.88l1.2 10c2.6-3.53 4.08-6.1 5-7.83.86-1.58 1.2-2.43 1.2-3.2 0-.9-2.2-1.3-2.2-2.93 0-.94.76-1.7 2-1.7 1.35 0 2.42.97 2.42 2.63 0 3.33-6.9 13.54-8.7 15.8-3.1 3.92-5.86 8.1-8.76 8.1-1.57 0-2.38-1.33-2.38-2.35 0-1.28 1.15-1.75 1.7-1.75 1.83 0 1.75 1.32 2.43 1.32.7 0 3.14-2.64 4.25-4.34l-1.62-13.37c-.2-1.9-.6-4.47-2.98-4.47-.47 0-1.15.12-1.53.16l-.1-.68 6.4-1.06c.98 1.4 1.27 2.5 1.66 5.66M1353.3 1151.75l-.5-.12c.9-2.9 2.82-4.95 6-4.95 2.84 0 4.76 1.68 4.76 4.18 0 1.47-.8 3-2.84 4.22 1.34.58 1.9.94 2.53 1.62.86.94 1.35 2.35 1.35 3.93 0 1.62-.52 3.12-1.4 4.28-1.47 1.96-4.37 2.85-7.1 2.85-2.22 0-3.4-.64-3.4-1.74 0-.63.54-1.1 1.24-1.1.52 0 1 .2 1.86.8 1.13.8 1.78.95 2.63.95 2.26 0 3.97-2.08 3.97-4.67 0-2.32-1.07-3.82-3.18-4.43-.67-.2-1.37-.3-3.1-.3v-.43c1.15-.4 1.94-.73 2.55-1.1 1.5-.86 2.48-2.23 2.48-4.1 0-2.07-1.3-3.1-3.3-3.1-1.9 0-3.3.97-4.55 3.23M1407.42 1118.5c0 1.93-1.63 3.62-3.55 3.62-2 0-3.68-1.8-3.68-3.6 0-1.82 1.68-3.63 3.67-3.63 1.92 0 3.55 1.68 3.55 3.6M1433.07 1120.5h70.2v-3.62h-70.2zM1446.13 1071.55l-.43-.86c1.2-.73 2.73-1 4.18-1 5.36 0 8 3.85 8 11.08 0 6.3-2.6 17.84-12.56 17.84-4.17 0-5.8-3.28-5.8-6.9 0-6 4.74-12.1 10.95-12.1 1.36 0 3.2.48 4.1 2.06.16-.94.3-1.96.3-2.98 0-3.75-1.25-7.7-5.6-7.7-1.14 0-2.08.2-3.14.55m7.32 13.02c0-2.76-1.45-3.66-2.6-3.66-4.2 0-7.87 6.35-7.87 12.27 0 1.62.17 4.17 2.85 4.17 3.28 0 5.8-4.25 6.98-8.6.4-1.4.65-2.85.65-4.17M1469.37 1085.08l1.2 10c2.6-3.53 4.08-6.08 5.02-7.83.84-1.57 1.18-2.42 1.18-3.2 0-.88-2.2-1.3-2.2-2.93 0-.93.75-1.7 2-1.7 1.35 0 2.42.98 2.42 2.64 0 3.32-6.9 13.54-8.7 15.8-3.1 3.9-5.86 8.08-8.76 8.08-1.57 0-2.38-1.32-2.38-2.34 0-1.27 1.15-1.74 1.7-1.74 1.83 0 1.74 1.32 2.43 1.32.7 0 3.14-2.64 4.24-4.35l-1.6-13.36c-.23-1.92-.6-4.47-3-4.47-.46 0-1.14.12-1.53.17l-.07-.68 6.38-1.08c1 1.4 1.3 2.5 1.67 5.66M1480.9 1091.96l-.5-.13c.9-2.9 2.82-4.94 6-4.94 2.83 0 4.76 1.67 4.76 4.17 0 1.47-.8 3-2.84 4.2 1.34.6 1.9.96 2.53 1.63.86.95 1.34 2.35 1.34 3.94 0 1.62-.52 3.1-1.4 4.27-1.48 1.97-4.38 2.85-7.1 2.85-2.22 0-3.4-.64-3.4-1.74 0-.63.54-1.1 1.24-1.1.52 0 1 .2 1.86.8 1.13.8 1.77.95 2.63.95 2.26 0 3.97-2.07 3.97-4.67 0-2.32-1.07-3.8-3.18-4.42-.67-.22-1.37-.3-3.1-.3v-.44c1.15-.4 1.94-.73 2.55-1.1 1.5-.85 2.47-2.22 2.47-4.1 0-2.06-1.28-3.1-3.3-3.1-1.9 0-3.3.98-4.54 3.24M1444.98 1131.34l-.42-.85c1.2-.74 2.72-1 4.17-1 5.37 0 8 3.84 8 11.08 0 6.3-2.6 17.84-12.55 17.84-4.18 0-5.8-3.28-5.8-6.9 0-6 4.73-12.1 10.95-12.1 1.36 0 3.2.48 4.08 2.05.18-.93.3-1.96.3-2.98 0-3.75-1.22-7.7-5.56-7.7-1.15 0-2.1.2-3.16.54m7.33 13.03c0-2.77-1.44-3.66-2.6-3.66-4.2 0-7.87 6.35-7.87 12.27 0 1.6.17 4.17 2.86 4.17 3.26 0 5.78-4.26 6.97-8.6.38-1.4.64-2.85.64-4.17M1469.72 1145.7l1.92-2.95c1.1-1.7 2.6-3.58 4.72-3.58 1.36 0 2.1.5 2.1 1.4 0 .82-.57 1.8-1.67 1.8-.95 0-1.16-.4-1.9-.4-1.26 0-1.73.7-2.33 1.63l-2.34 3.62c1.28 2.64 2.26 8.4 4.17 8.4.68 0 1.7-.6 2.6-2.44l.6.43c-.52.64-2.43 4.73-4.9 4.73-1.75 0-2.55-1.74-3.1-3.28l-1.7-4.8-2.7 4.16c-1.36 2.1-2.6 3.93-4.97 3.93-1.54 0-2.22-1.06-2.22-2 0-.68.57-1.58 1.63-1.58 1.1 0 .94.86 2 .86.5 0 1.62-.42 2.98-2.5l2.78-4.3-1.4-3.92c-.73-2.05-1.84-3.8-4.18-3.8-.55 0-1.2.1-1.62.26l-.12-.76 5.62-1.4c1.87 1 2.68 2.76 3.2 4.17M1494.62 1159.26h-3.14v5.1h-2.38v-5.1h-8.55v-1.95l9.58-13.58h1.35v13.6h3.14v1.94m-5.52-1.95v-10.47l-7.33 10.48h7.33"/><path d="M507.86 720H640.9v61H507.87z" fill="#fff0f0"/><path d="M512.3 749.4h43.1v-2.22h-43.1zM523.53 725.04l-.26-.53c.73-.43 1.67-.6 2.56-.6 3.3 0 4.92 2.37 4.92 6.8 0 3.88-1.6 10.96-7.7 10.96-2.58 0-3.57-2-3.57-4.23 0-3.7 2.9-7.43 6.72-7.43.84 0 1.96.3 2.5 1.26.1-.58.2-1.2.2-1.83 0-2.3-.77-4.73-3.43-4.73-.7 0-1.28.13-1.94.34m4.5 8c0-1.7-.9-2.25-1.6-2.25-2.58 0-4.83 3.88-4.83 7.52 0 1 .1 2.56 1.75 2.56 2 0 3.56-2.62 4.3-5.28.22-.87.38-1.75.38-2.56M548.2 736.4l-1.58 4.97h-14.88l.1-.4h.45c1.95 0 2.58-.75 2.8-1.63l3.07-12.47c.1-.42.2-.94.2-1.18 0-.5-.38-.98-2-.98h-.47l.1-.42h8.55l-.1.42h-.47c-1.97 0-2.5.68-2.75 1.65l-3.2 12.57c-.1.4-.12.76-.12.8 0 .6.74.64 1.06.64h3.2c2.65 0 3.98-.57 5.2-3 .17-.3.3-.6.43-.97h.4M519.6 756.06l-.25-.52c.73-.45 1.68-.6 2.56-.6 3.3 0 4.93 2.35 4.93 6.8 0 3.86-1.6 10.94-7.7 10.94-2.57 0-3.57-2-3.57-4.23 0-3.7 2.9-7.43 6.72-7.43.84 0 1.96.3 2.5 1.26.1-.58.2-1.2.2-1.83 0-2.3-.77-4.73-3.43-4.73-.7 0-1.28.13-1.94.34m4.5 8c0-1.7-.88-2.25-1.58-2.25-2.6 0-4.84 3.9-4.84 7.54 0 1 .1 2.56 1.75 2.56 2 0 3.56-2.62 4.3-5.28.22-.86.38-1.75.38-2.56M534.8 764.87l1.18-1.8c.68-1.05 1.6-2.2 2.9-2.2.84 0 1.28.3 1.28.86 0 .5-.34 1.1-1.02 1.1-.57 0-.7-.24-1.15-.24-.8 0-1.08.4-1.45 1l-1.43 2.2c.78 1.63 1.38 5.16 2.56 5.16.42 0 1.04-.37 1.6-1.5l.36.27c-.32.4-1.5 2.9-3 2.9-1.08 0-1.58-1.07-1.92-2l-1.04-2.97-1.65 2.57c-.84 1.28-1.6 2.4-3.06 2.4-.94 0-1.36-.65-1.36-1.23 0-.42.35-.96 1-.96.7 0 .58.52 1.24.52.3 0 1-.26 1.83-1.54l1.7-2.64-.87-2.4c-.44-1.26-1.12-2.34-2.56-2.34-.34 0-.73.06-1 .16l-.07-.47 3.45-.86c1.15.63 1.65 1.7 1.96 2.56M549.44 763.57l-.68 1.6c-.05.12-.2.23-.5.23h-3.64l-.75 1.6c2.68.5 3.62.92 4.7 2.4.47.67.64 1.38.64 2.38 0 1.8-.55 2.96-1.83 3.9-.88.63-1.9.9-3.18.9-1.42 0-2.4-.44-2.4-1.15 0-.47.33-.7.85-.7.43 0 .8.08 1.4.57.5.43.94.6 1.32.6 1.3 0 2.53-1.55 2.53-3.17 0-1.2-.4-2.13-1.26-2.8-.88-.72-2.2-1.32-4-1.32-.16 0-.2-.03-.2-.14v-.1l2.05-4.44h3.87c.43 0 .6-.1.9-.48M593.68 745.7H571.9v-2.44h21.78v2.44m0 7.4H571.9v-2.44h21.78v2.44M615.7 746.18l1.05 8.7c2.25-3.08 3.55-5.3 4.36-6.8.75-1.38 1.05-2.12 1.05-2.8 0-.76-1.92-1.13-1.92-2.54 0-.8.66-1.48 1.73-1.48 1.2 0 2.1.85 2.1 2.3 0 2.88-5.98 11.75-7.53 13.7-2.7 3.4-5.1 7.04-7.62 7.04-1.36 0-2.06-1.15-2.06-2.04 0-1.1 1-1.5 1.48-1.5 1.6 0 1.52 1.14 2.1 1.14.64 0 2.74-2.3 3.7-3.78l-1.4-11.6c-.2-1.67-.52-3.9-2.6-3.9-.4 0-1 .12-1.32.16l-.07-.6 5.54-.92c.85 1.22 1.1 2.2 1.44 4.92M625.68 749.77l-.42-.1c.76-2.5 2.4-4.24 5.12-4.24 2.43 0 4.08 1.44 4.08 3.58 0 1.27-.68 2.57-2.43 3.62 1.15.5 1.62.8 2.17 1.38.73.8 1.15 2.02 1.15 3.38 0 1.38-.45 2.66-1.2 3.66-1.26 1.67-3.74 2.43-6.07 2.43-1.9 0-2.93-.55-2.93-1.5 0-.54.47-.93 1.08-.93.44 0 .86.15 1.6.67.96.7 1.5.83 2.24.83 1.93 0 3.4-1.78 3.4-4 0-2-.92-3.27-2.72-3.8-.58-.18-1.18-.26-2.67-.26v-.36c1-.33 1.67-.62 2.2-.93 1.28-.74 2.1-1.9 2.1-3.5 0-1.78-1.08-2.67-2.8-2.67-1.63 0-2.83.83-3.9 2.77"/><path d="M340 572.4h120v67.74H340z" fill="#fff3d9"/><path d="M344.57 607.54h44.45v-2.3h-44.45zM352.84 576.56l-.27-.54c.75-.46 1.72-.62 2.64-.62 3.4 0 5.08 2.43 5.08 7 0 4-1.65 11.3-7.95 11.3-2.64 0-3.67-2.08-3.67-4.37 0-3.8 3-7.65 6.93-7.65.85 0 2 .3 2.57 1.3.1-.6.2-1.25.2-1.9 0-2.36-.8-4.87-3.54-4.87-.72 0-1.32.14-2 .36m4.64 8.25c0-1.75-.9-2.3-1.64-2.3-2.67 0-4.98 4-4.98 7.75 0 1.02.1 2.64 1.8 2.64 2.08 0 3.67-2.7 4.42-5.45.24-.9.4-1.8.4-2.64M367.55 585.13l.76 6.33c1.65-2.24 2.6-3.85 3.2-4.96.53-1 .74-1.53.74-2.02 0-.56-1.4-.83-1.4-1.86 0-.6.5-1.08 1.27-1.08.87 0 1.54.62 1.54 1.68 0 2.1-4.36 8.56-5.5 10-1.96 2.47-3.7 5.1-5.55 5.1-1 0-1.5-.82-1.5-1.47 0-.8.7-1.1 1.06-1.1 1.16 0 1.1.83 1.54.83.46 0 2-1.67 2.7-2.75l-1.03-8.46c-.13-1.2-.38-2.83-1.9-2.83-.28 0-.7.08-.96.1l-.04-.42 4.04-.68c.62.9.8 1.6 1.05 3.6M374.85 589.48l-.3-.08c.55-1.83 1.77-3.13 3.78-3.13 1.8 0 3 1.06 3 2.65 0 .93-.5 1.9-1.8 2.66.86.37 1.2.6 1.62 1.03.54.6.85 1.5.85 2.5 0 1.03-.33 1.97-.9 2.7-.92 1.24-2.75 1.8-4.47 1.8-1.42 0-2.17-.4-2.17-1.1 0-.4.35-.7.8-.7.32 0 .63.12 1.17.5.72.5 1.12.6 1.66.6 1.42 0 2.5-1.3 2.5-2.95 0-1.47-.67-2.4-2-2.8-.43-.14-.87-.2-1.97-.2v-.26c.73-.26 1.23-.48 1.62-.7.95-.55 1.56-1.42 1.56-2.6 0-1.3-.8-1.97-2.07-1.97-1.2 0-2.1.62-2.88 2.05M352.12 614.4l-.27-.53c.75-.46 1.72-.62 2.64-.62 3.38 0 5.05 2.42 5.05 7 0 4-1.64 11.3-7.95 11.3-2.64 0-3.66-2.08-3.66-4.37 0-3.8 3-7.65 6.92-7.65.87 0 2.02.3 2.6 1.3.1-.6.18-1.25.18-1.9 0-2.37-.78-4.87-3.53-4.87-.72 0-1.3.13-1.98.35m4.63 8.25c0-1.75-.92-2.3-1.64-2.3-2.66 0-4.98 4-4.98 7.75 0 1.02.1 2.64 1.8 2.64 2.08 0 3.67-2.7 4.43-5.45.24-.9.4-1.8.4-2.65M367.77 623.5l1.2-1.87c.7-1.08 1.66-2.26 3-2.26.87 0 1.33.32 1.33.88 0 .52-.35 1.14-1.06 1.14-.6 0-.72-.26-1.18-.26-.8 0-1.1.44-1.48 1.03l-1.5 2.3c.82 1.66 1.44 5.3 2.66 5.3.43 0 1.07-.38 1.64-1.54l.38.27c-.33.4-1.54 3-3.1 3-1.1 0-1.62-1.1-1.97-2.08l-1.1-3.05-1.68 2.64c-.87 1.33-1.65 2.5-3.16 2.5-.97 0-1.4-.68-1.4-1.27 0-.44.35-1 1.03-1 .7 0 .58.54 1.25.54.33 0 1.03-.27 1.9-1.6l1.74-2.7-.9-2.5c-.46-1.3-1.16-2.4-2.64-2.4-.35 0-.76.06-1.02.17l-.1-.5 3.57-.87c1.2.64 1.7 1.75 2.03 2.64M383.53 632.08h-2v3.23h-1.5v-3.22h-5.4v-1.24l6.06-8.6h.84v8.6h2v1.24m-3.5-1.24v-6.62l-4.64 6.62h4.64M428.46 603.73H406v-2.52h22.46v2.53m0 7.62H406v-2.5h22.46v2.5M455.9 615.93h-10.5v-.57c2.8-.16 3.6-.96 3.6-3.05v-17.1c0-1.3-.34-1.87-1.14-1.87-.38 0-1.02.2-1.7.45l-1.04.38v-.53l6.82-3.47.35.12v22.75c0 1.64.75 2.33 3.6 2.33v.57"/><path d="M220 440h120v59.26H220z" fill="#fff3d9"/><path d="M224 470.74h38.9v-2H224zM231.23 443.86l-.23-.47c.66-.4 1.5-.55 2.3-.55 2.98 0 4.44 2.12 4.44 6.13 0 3.5-1.44 9.88-6.95 9.88-2.32 0-3.22-1.82-3.22-3.82 0-3.33 2.62-6.7 6.06-6.7.75 0 1.77.26 2.26 1.13.1-.5.17-1.08.17-1.65 0-2.07-.7-4.26-3.1-4.26-.63 0-1.15.1-1.74.3m4.06 7.22c0-1.54-.8-2.03-1.45-2.03-2.33 0-4.36 3.5-4.36 6.8 0 .9.08 2.3 1.57 2.3 1.8 0 3.2-2.36 3.87-4.76.2-.8.35-1.6.35-2.32M244.1 451.36l.67 5.54c1.44-1.96 2.26-3.37 2.78-4.34.47-.87.66-1.34.66-1.77 0-.5-1.22-.74-1.22-1.63 0-.52.43-.95 1.1-.95.77 0 1.36.55 1.36 1.47 0 1.83-3.82 7.48-4.8 8.73-1.74 2.17-3.27 4.48-4.87 4.48-.87 0-1.32-.72-1.32-1.28 0-.7.64-.97.94-.97 1 0 .96.73 1.34.73.4 0 1.74-1.46 2.35-2.4l-.9-7.4c-.12-1.07-.33-2.48-1.65-2.48-.26 0-.64.07-.85.1l-.05-.4 3.54-.58c.53.78.7 1.4.9 3.14M257.47 461.47l-.9 2.32h-6.62v-.2l3-3.2c1.6-1.68 2.2-2.97 2.2-4.4 0-1.54-.9-2.4-2.34-2.4-1.2 0-1.8.55-2.48 2.2l-.35-.08c.35-1.97 1.43-3.36 3.5-3.36 1.92 0 3.14 1.3 3.14 2.98 0 1.33-.65 2.6-2.15 4.2l-2.8 2.96h3.96c.72 0 1.08-.18 1.64-1.13M230.6 476.74l-.24-.47c.66-.4 1.5-.54 2.3-.54 3 0 4.45 2.12 4.45 6.13 0 3.5-1.43 9.88-6.95 9.88-2.3 0-3.2-1.82-3.2-3.82 0-3.32 2.6-6.7 6.06-6.7.76 0 1.77.26 2.27 1.14.1-.52.16-1.1.16-1.66 0-2.07-.68-4.26-3.1-4.26-.62 0-1.14.12-1.73.3m4.06 7.22c0-1.53-.8-2.03-1.44-2.03-2.34 0-4.36 3.5-4.36 6.8 0 .9.1 2.3 1.58 2.3 1.8 0 3.2-2.36 3.86-4.76.2-.78.36-1.58.36-2.3M244.3 484.7l1.06-1.64c.6-.94 1.44-1.98 2.62-1.98.75 0 1.15.28 1.15.78 0 .45-.3 1-.92 1-.5 0-.62-.22-1.02-.22-.7 0-.97.38-1.3.9l-1.3 2c.7 1.46 1.25 4.64 2.3 4.64.4 0 .96-.33 1.45-1.34l.33.23c-.28.36-1.34 2.62-2.7 2.62-.98 0-1.43-.97-1.73-1.82l-.95-2.67-1.48 2.32c-.76 1.16-1.44 2.17-2.76 2.17-.85 0-1.23-.6-1.23-1.12 0-.37.32-.87.9-.87.62 0 .53.48 1.12.48.28 0 .9-.23 1.65-1.4l1.53-2.37-.78-2.16c-.4-1.13-1-2.1-2.3-2.1-.3 0-.67.05-.9.14l-.07-.42 3.1-.78c1.05.57 1.5 1.53 1.78 2.3M251.12 486.4l-.27-.06c.5-1.6 1.56-2.74 3.32-2.74 1.57 0 2.63.93 2.63 2.32 0 .8-.43 1.65-1.57 2.33.75.32 1.05.52 1.4.9.48.52.75 1.3.75 2.18 0 .9-.3 1.72-.78 2.36-.8 1.08-2.42 1.57-3.92 1.57-1.23 0-1.9-.36-1.9-.97 0-.35.3-.6.7-.6.3 0 .56.1 1.03.43.64.44 1 .53 1.46.53 1.26 0 2.2-1.15 2.2-2.6 0-1.27-.6-2.1-1.76-2.44-.37-.12-.76-.17-1.72-.17v-.24c.64-.2 1.08-.4 1.42-.6.83-.47 1.37-1.23 1.37-2.26 0-1.15-.7-1.72-1.83-1.72-1.05 0-1.82.54-2.52 1.8M297.4 467.4h-19.64v-2.2h19.64v2.2m0 6.67h-19.64v-2.2h19.64v2.2M317.28 467.84l.93 7.83c2.04-2.77 3.2-4.77 3.95-6.13.66-1.24.93-1.9.93-2.5 0-.7-1.73-1.04-1.73-2.3 0-.74.6-1.34 1.56-1.34 1.08 0 1.9.77 1.9 2.07 0 2.6-5.4 10.6-6.8 12.37-2.42 3.07-4.6 6.34-6.86 6.34-1.23 0-1.87-1.04-1.87-1.84 0-1 .9-1.37 1.34-1.37 1.44 0 1.37 1.04 1.9 1.04.57 0 2.48-2.06 3.34-3.4l-1.26-10.46c-.17-1.5-.47-3.5-2.34-3.5-.37 0-.9.1-1.2.13l-.07-.54 5-.83c.77 1.1 1 1.97 1.3 4.44M334.1 483.1h-6.5v-.36c1.75-.1 2.25-.6 2.25-1.88v-10.6c0-.8-.22-1.15-.7-1.15-.25 0-.65.13-1.07.3l-.64.23v-.33l4.22-2.14.2.07v14.07c0 1.02.48 1.44 2.25 1.44v.36"/><path d="M158.65 220h100.12v56.5H158.65z" fill="#fff3d9"/><path d="M162.47 249.3h37.08v-1.9h-37.08zM169.36 223.68l-.22-.45c.63-.38 1.44-.5 2.2-.5 2.83 0 4.23 2 4.23 5.83 0 3.33-1.37 9.42-6.63 9.42-2.2 0-3.06-1.73-3.06-3.64 0-3.17 2.5-6.38 5.78-6.38.72 0 1.68.24 2.15 1.07.1-.5.17-1.03.17-1.57 0-1.98-.65-4.07-2.94-4.07-.6 0-1.1.1-1.67.28m3.87 6.88c0-1.46-.76-1.93-1.37-1.93-2.23 0-4.16 3.35-4.16 6.47 0 .86.1 2.2 1.5 2.2 1.74 0 3.06-2.24 3.7-4.53.2-.75.33-1.5.33-2.2M181.64 230.83l.63 5.3c1.37-1.88 2.16-3.23 2.65-4.15.45-.83.63-1.28.63-1.7 0-.46-1.17-.68-1.17-1.54 0-.5.4-.9 1.06-.9.72 0 1.28.52 1.28 1.4 0 1.75-3.64 7.15-4.6 8.34-1.63 2.07-3.1 4.27-4.62 4.27-.83 0-1.26-.7-1.26-1.24 0-.66.6-.9.9-.9.97 0 .92.7 1.28.7.4 0 1.67-1.4 2.25-2.3l-.85-7.06c-.1-1.02-.32-2.37-1.58-2.37-.24 0-.6.07-.8.1l-.05-.37 3.36-.56c.52.74.68 1.33.88 3M193.1 242.68h-4.46v-.24c1.2-.06 1.54-.4 1.54-1.3v-7.23c0-.53-.15-.78-.5-.78-.15 0-.42.08-.7.2l-.45.16v-.23l2.9-1.46.13.03v9.63c0 .7.32.98 1.53.98v.24M168.76 255.04l-.23-.45c.63-.4 1.44-.53 2.2-.53 2.84 0 4.23 2.03 4.23 5.85 0 3.32-1.37 9.42-6.63 9.42-2.2 0-3.06-1.73-3.06-3.64 0-3.17 2.5-6.4 5.78-6.4.72 0 1.7.26 2.16 1.1.1-.5.17-1.04.17-1.58 0-1.98-.65-4.07-2.95-4.07-.6 0-1.1.1-1.66.3m3.87 6.87c0-1.46-.77-1.94-1.38-1.94-2.22 0-4.15 3.35-4.15 6.48 0 .85.1 2.2 1.5 2.2 1.73 0 3.06-2.25 3.7-4.54.2-.74.33-1.5.33-2.2M181.82 262.62l1-1.56c.6-.9 1.38-1.88 2.5-1.88.73 0 1.1.27 1.1.74 0 .42-.28.94-.87.94-.5 0-.6-.2-1-.2-.66 0-.9.36-1.22.85l-1.24 1.92c.67 1.4 1.18 4.43 2.2 4.43.35 0 .9-.3 1.37-1.28l.3.23c-.26.33-1.27 2.5-2.57 2.5-.93 0-1.35-.93-1.65-1.74l-.9-2.54-1.4 2.2c-.73 1.1-1.38 2.07-2.64 2.07-.8 0-1.16-.57-1.16-1.06 0-.36.3-.84.85-.84.58 0 .5.45 1.05.45.27 0 .85-.22 1.57-1.32l1.47-2.27-.76-2.07c-.38-1.1-.96-2-2.2-2-.3 0-.63.03-.85.12l-.08-.4 2.97-.74c.98.53 1.4 1.46 1.67 2.2M195 270.27l-.88 2.2h-6.3v-.2l2.86-3.03c1.52-1.6 2.1-2.83 2.1-4.2 0-1.46-.87-2.27-2.24-2.27-1.16 0-1.73.52-2.37 2.1l-.34-.08c.34-1.9 1.37-3.22 3.35-3.22 1.83 0 3 1.24 3 2.83 0 1.3-.64 2.5-2.08 4l-2.66 2.85h3.78c.67 0 1-.18 1.54-1.08M232.46 246.13h-18.73v-2.1h18.73v2.1m0 6.36h-18.73v-2.1h18.73v2.1M255.36 256.3h-8.78v-.47c2.35-.13 3.02-.8 3.02-2.54V239c0-1.07-.3-1.55-.95-1.55-.32 0-.86.16-1.44.38l-.84.32v-.45l5.7-2.9.27.1v19c0 1.36.64 1.93 3.03 1.93v.48"/><path d="M628.4 902h277.4v56.9H628.4z" fill="#fff" fill-opacity="0"/><path d="M665.76 933.98l-3.4 10.63H630.5l.23-.9h.95c4.2 0 5.53-1.55 5.98-3.45l6.6-26.7c.23-.88.4-2 .4-2.5 0-1.07-.8-2.07-4.26-2.07h-1l.22-.9h18.3l-.23.9h-1c-4.2 0-5.37 1.45-5.87 3.52L644 939.4c-.22.85-.28 1.63-.28 1.74 0 1.23 1.57 1.34 2.24 1.34h6.83c5.7 0 8.54-1.23 11.12-6.43.4-.6.67-1.3.95-2.07h.9M719.2 926.7h-32.96v-3.68h32.95v3.7m0 11.18h-32.96v-3.7h32.95v3.7M751.3 920.16h2.06c3.53 0 3.25-4.3 5.65-7.88 1.75-2.63 4.15-5.04 8.4-5.04 2.8 0 4.42 1.34 4.42 3.3 0 1.57-1.17 2.24-2.3 2.24-1.56 0-1.95-.62-1.95-1.4 0-.78.5-1.62.5-2.07 0-.27-.16-.44-.83-.44-2.8 0-4.98 3.02-6.16 7.4l-1.06 3.9h4.48l-.68 2.13h-4.25l-4.42 17.1c-.4 1.52-.84 3.64-1.67 5.7-1.85 4.66-4.87 9.97-9.8 9.97-2.68 0-4.02-1.34-4.02-3.02 0-1.34.78-2.74 2.4-2.74 1.5 0 2.07 1.02 2.07 1.85 0 1.07-.9 1.12-.9 1.8 0 .33.34.5.85.5 3.63 0 5.3-8.84 6.15-12.03l4.87-19.13h-4.3M788.9 953.62l-.7.9c-8.82-5.04-13.64-14.5-13.64-24 0-10.36 4.87-18.4 13.82-23.73l.5.9c-7.77 6.65-9.5 11.85-9.5 22.64 0 10.4 1.67 16.73 9.5 23.28M835.82 908.08l-.23.9h-.23c-3.86 0-5.48 1.8-7.55 4.14l-10.46 11.9 5.37 14.9c.67 1.9 1.62 3.8 4.42 3.8h.78l-.22.9H812l.2-.9h.63c2.12 0 3.75-.23 3.75-2.3 0-.45-.06-.9-.23-1.45l-3.86-10.86-10.13 11.26c-.5.56-.67 1.06-.67 1.56 0 1.07 1 1.8 3.13 1.8h1.23l-.23.9H791.9l.23-.9c3.02-.4 5.76-2.08 7.83-4.3l11.64-12.88-4.76-12.92c-.6-1.74-1.56-4.64-5.7-4.64h-.5l.22-.9h15.83l-.24.9h-1.06c-1.68 0-2.9.22-2.9 1.95 0 .45.1.95.33 1.57l3.35 10 9.18-10.28c.5-.6.84-1.3.84-1.9-.06-.9-.73-1.34-2.52-1.34h-.5l.22-.9h12.42M840.52 952.5l-.56-1.07c3.07-2.07 4.64-4.14 4.64-5.98 0-.4-.33-.73-.78-.73s-1 .23-1.62.23c-2.07 0-3.25-.96-3.25-2.86s1.34-3.2 3.36-3.2c2.52 0 4.48 1.96 4.48 4.87 0 3.36-2.4 6.88-6.26 8.73M885.32 919.44v.9l-18 20.13.16.06c1.06-.8 2.46-1.18 3.75-1.18 5.14 0 5.3 4.8 7.83 4.8.84 0 1.5-.44 1.5-1.33 0-.73-.66-.9-.66-2.13 0-1.07 1.06-2.13 2.12-2.13 1.4 0 2.24 1 2.24 2.35 0 3.02-3.35 4.47-5.93 4.47-1.23 0-2.63-.5-3.8-.8-1.8-.5-3.7-.77-5.54-.77-2.25 0-4.76.44-6.83 1.34l-.62-.56 18.35-20.7h-7.33c-3.2 0-4.53.35-5.82 3.42l-1-.22 2-7.66h17.57M888.74 907.7l.67-.9c8.57 5.14 13.66 14.48 13.66 24 0 10.34-4.93 18.28-13.82 23.7l-.5-.88c7.94-6.55 9.5-11.8 9.5-22.66 0-10.46-1.4-16.9-9.5-23.27"/><defs><path fill="#333" d="M118-107v75H92v-75H18v-26h74v-75h26v75h74v26h-74" id="c"/><use transform="matrix(0.12345679012345674,0,0,0.12345679012345674,0,0)" xlink:href="#c" id="a"/><path fill="#333" d="M80-196l47-18 7 23-49 13 32 44-20 13-27-46-27 45-21-12 33-44-49-13 8-23 47 19-2-53h23" id="d"/><use transform="matrix(0.12345679012345674,0,0,0.12345679012345674,0,0)" xlink:href="#d" id="b"/></defs></g></svg>