<svg xmlns="http://www.w3.org/2000/svg" xmlns:xlink="http://www.w3.org/1999/xlink" xmlns:lucid="lucid" width="773" height="662"><g transform="translate(-757 -356)" lucid:page-tab-id="0_0"><path d="M680 662.85h240v60H680z" fill="none"/><use xlink:href="#a" transform="matrix(1,0,0,1,680,662.8484848484848) translate(95.30864197530865 34.44444444444444)"/><path d="M899 549.85c0 11.04-8.95 20-20 20s-20-8.96-20-20c0-11.05 8.95-20 20-20s20 8.95 20 20zM899 642.85c0 11.04-8.95 20-20 20s-20-8.96-20-20c0-11.05 8.95-20 20-20s20 8.95 20 20zM899 735.85c0 11.04-8.95 20-20 20s-20-8.96-20-20c0-11.05 8.95-20 20-20s20 8.95 20 20zM899 828.85c0 11.04-8.95 20-20 20s-20-8.96-20-20c0-11.05 8.95-20 20-20s20 8.95 20 20z" stroke="#000" fill="#c7e8ac"/><path d="M1039 470c0 11.05-8.95 20-20 20s-20-8.95-20-20 8.95-20 20-20 20 8.95 20 20zM1039 580c0 11.05-8.95 20-20 20s-20-8.95-20-20 8.95-20 20-20 20 8.95 20 20zM1039 690c0 11.05-8.95 20-20 20s-20-8.95-20-20 8.95-20 20-20 20 8.95 20 20zM1039 800c0 11.05-8.95 20-20 20s-20-8.95-20-20 8.95-20 20-20 20 8.95 20 20zM1039 910c0 11.05-8.95 20-20 20s-20-8.95-20-20 8.95-20 20-20 20 8.95 20 20z" stroke="#000" fill="#99d5ca"/><path d="M1179 470c0 11.05-8.95 20-20 20s-20-8.95-20-20 8.95-20 20-20 20 8.95 20 20zM1179 580c0 11.05-8.95 20-20 20s-20-8.95-20-20 8.95-20 20-20 20 8.95 20 20zM1179 690c0 11.05-8.95 20-20 20s-20-8.95-20-20 8.95-20 20-20 20 8.95 20 20zM1179 800c0 11.05-8.95 20-20 20s-20-8.95-20-20 8.95-20 20-20 20 8.95 20 20zM1179 910c0 11.05-8.95 20-20 20s-20-8.95-20-20 8.95-20 20-20 20 8.95 20 20z" stroke="#000" fill="#d1bcd2"/><path d="M1319 596.6c0 11.04-8.95 20-20 20s-20-8.96-20-20c0-11.05 8.95-20 20-20s20 8.95 20 20zM1319 689.6c0 11.04-8.95 20-20 20s-20-8.96-20-20c0-11.05 8.95-20 20-20s20 8.95 20 20zM1319 782.6c0 11.04-8.95 20-20 20s-20-8.96-20-20c0-11.05 8.95-20 20-20s20 8.95 20 20z" stroke="#000" fill="#ffdba9"/><path d="M900.28 549.22l83.82-67.6" stroke="#5e5e5e" stroke-width="2" fill="none"/><path d="M900.93 549.98l-1.6 1.3.17-1.4-.04-1.28.2-.17z" stroke="#5e5e5e" stroke-width=".05" fill="#5e5e5e"/><path d="M995.98 472.03l-8.2 12.57-5.8-7.22z" stroke="#5e5e5e" stroke-width="2" fill="#5e5e5e"/><path d="M900 641.98l89.3-155.93" stroke="#5e5e5e" stroke-width="2" fill="none"/><path d="M900.88 642.46l-1.7 2.95.32-2.53-.04-1.23z" stroke="#5e5e5e" stroke-width=".05" fill="#5e5e5e"/><path d="M996.9 472.8l-3.08 14.7-8.04-4.62z" stroke="#5e5e5e" stroke-width="2" fill="#5e5e5e"/><path d="M899.85 734.9l92.2-247.56" stroke="#5e5e5e" stroke-width="2" fill="none"/><path d="M900.8 735.24l-1.4 3.77-.28-.1.38-3.03-.04-1.13z" stroke="#5e5e5e" stroke-width=".05" fill="#5e5e5e"/><path d="M997.37 473.03l-.63 15-8.7-3.25z" stroke="#5e5e5e" stroke-width="2" fill="#5e5e5e"/><path d="M899.87 827.92l91.8-230.73" stroke="#5e5e5e" stroke-width="2" fill="none"/><path d="M900.8 828.27l-1.48 3.74-.2-.07.38-3.06-.04-1.14z" stroke="#5e5e5e" stroke-width=".05" fill="#5e5e5e"/><path d="M997.3 583l-.96 14.98-8.62-3.43z" stroke="#5e5e5e" stroke-width="2" fill="#5e5e5e"/><path d="M900.04 735l88.54-139.38" stroke="#5e5e5e" stroke-width="2" fill="none"/><path d="M900.9 735.52l-1.7 2.64.3-2.3-.04-1.25z" stroke="#5e5e5e" stroke-width=".05" fill="#5e5e5e"/><path d="M996.76 582.73l-3.73 14.53-7.83-4.97z" stroke="#5e5e5e" stroke-width="2" fill="#5e5e5e"/><path d="M900.4 735.43l81.3-37.65" stroke="#5e5e5e" stroke-width="2" fill="none"/><path d="M900.85 736.32l-1.5.7.15-1.15-.04-1.1.55-.26z" stroke="#5e5e5e" stroke-width=".05" fill="#5e5e5e"/><path d="M995.56 691.36l-11 10.2-3.9-8.4z" stroke="#5e5e5e" stroke-width="2" fill="#5e5e5e"/><path d="M900.46 828.57l80.28-23.4" stroke="#5e5e5e" stroke-width="2" fill="none"/><path d="M900.76 829.52l-1.4.4.14-1.05-.04-1.05.75-.22z" stroke="#5e5e5e" stroke-width=".05" fill="#5e5e5e"/><path d="M995.4 800.9l-12.4 8.45-2.6-8.9z" stroke="#5e5e5e" stroke-width="2" fill="#5e5e5e"/><path d="M900.27 829.48l83.92 68.8" stroke="#5e5e5e" stroke-width="2" fill="none"/><path d="M900.93 828.73l-1.27 1.54-.3-.25.14-1.15-.05-1.35z" stroke="#5e5e5e" stroke-width=".05" fill="#5e5e5e"/><path d="M996 907.95l-13.97-5.46 5.87-7.18z" stroke="#5e5e5e" stroke-width="2" fill="#5e5e5e"/><path d="M900 736.72l89.36 157.2" stroke="#5e5e5e" stroke-width="2" fill="none"/><path d="M900.88 736.25l-1.53.87.15-1.25-.05-1.5-.2-.97z" stroke="#5e5e5e" stroke-width=".05" fill="#5e5e5e"/><path d="M996.9 907.2l-11.08-10.12 8.06-4.6z" stroke="#5e5e5e" stroke-width="2" fill="#5e5e5e"/><path d="M900.34 736.4l82.63 53.54" stroke="#5e5e5e" stroke-width="2" fill="none"/><path d="M900.9 735.57l-1.08 1.68-.45-.3.13-1.08-.04-1.24z" stroke="#5e5e5e" stroke-width=".05" fill="#5e5e5e"/><path d="M995.78 798.24l-14.5-3.87 5.05-7.78z" stroke="#5e5e5e" stroke-width="2" fill="#5e5e5e"/><path d="M899.77 827.88l93.8-340.04" stroke="#5e5e5e" stroke-width="2" fill="none"/><path d="M900.74 828.13l-1.07 3.88-.54-.14.37-3-.04-1.1z" stroke="#5e5e5e" stroke-width=".05" fill="#5e5e5e"/><path d="M997.64 473.12l.67 14.98-8.92-2.46z" stroke="#5e5e5e" stroke-width="2" fill="#5e5e5e"/><path d="M900.08 828.03l87.68-122.97" stroke="#5e5e5e" stroke-width="2" fill="none"/><path d="M900.9 828.6l-1.66 2.33.26-2.06-.05-1.3z" stroke="#5e5e5e" stroke-width=".05" fill="#5e5e5e"/><path d="M996.62 692.63l-4.5 14.3-7.56-5.37z" stroke="#5e5e5e" stroke-width="2" fill="#5e5e5e"/><path d="M900.4 643.28l81.4 38.76" stroke="#5e5e5e" stroke-width="2" fill="none"/><path d="M900.86 642.4l-.86 1.8-.63-.3.13-1.03-.04-1.15z" stroke="#5e5e5e" stroke-width=".05" fill="#5e5e5e"/><path d="M995.58 688.6l-14.87-1.94 4-8.37z" stroke="#5e5e5e" stroke-width="2" fill="#5e5e5e"/><path d="M900.34 642.3l82.54-52.38" stroke="#5e5e5e" stroke-width="2" fill="none"/><path d="M900.9 643.14l-1.56 1 .16-1.27-.04-1.18.37-.25z" stroke="#5e5e5e" stroke-width=".05" fill="#5e5e5e"/><path d="M995.77 581.73l-9.56 11.56-4.96-7.83z" stroke="#5e5e5e" stroke-width="2" fill="#5e5e5e"/><path d="M899.85 643.8l92.22 248.85" stroke="#5e5e5e" stroke-width="2" fill="none"/><path d="M900.8 643.46l-1.44.53.14-1.13-.05-1.5-.3-1.6.25-.08z" stroke="#5e5e5e" stroke-width=".05" fill="#5e5e5e"/><path d="M997.38 906.97l-9.3-11.77 8.68-3.22z" stroke="#5e5e5e" stroke-width="2" fill="#5e5e5e"/><path d="M900.03 643.7l88.6 140.65" stroke="#5e5e5e" stroke-width="2" fill="none"/><path d="M900.9 643.18l-1.56.98.16-1.3-.05-1.5-.14-.7z" stroke="#5e5e5e" stroke-width=".05" fill="#5e5e5e"/><path d="M996.77 797.26l-11.52-9.6 7.84-4.94z" stroke="#5e5e5e" stroke-width="2" fill="#5e5e5e"/><path d="M900.46 550.14l80.34 24.47" stroke="#5e5e5e" stroke-width="2" fill="none"/><path d="M900.77 549.2l-.58 1.9-.82-.24.12-1-.04-1.07z" stroke="#5e5e5e" stroke-width=".05" fill="#5e5e5e"/><path d="M995.4 579.06l-15 .28 2.7-8.87z" stroke="#5e5e5e" stroke-width="2" fill="#5e5e5e"/><path d="M900.08 550.67l87.74 124.22" stroke="#5e5e5e" stroke-width="2" fill="none"/><path d="M900.9 550.1l-1.57 1.12.17-1.35-.05-1.5-.1-.45z" stroke="#5e5e5e" stroke-width=".05" fill="#5e5e5e"/><path d="M996.63 687.36l-12-8.98 7.56-5.35z" stroke="#5e5e5e" stroke-width="2" fill="#5e5e5e"/><path d="M899.87 550.78L991.7 782.8" stroke="#5e5e5e" stroke-width="2" fill="none"/><path d="M900.8 550.43l-1.44.58.14-1.13-.05-1.5-.32-1.6.2-.08z" stroke="#5e5e5e" stroke-width=".05" fill="#5e5e5e"/><path d="M997.3 797l-9.55-11.57 8.62-3.4z" stroke="#5e5e5e" stroke-width="2" fill="#5e5e5e"/><path d="M899.77 550.8l93.83 341.36" stroke="#5e5e5e" stroke-width="2" fill="none"/><path d="M900.74 550.57l-1.37.38.13-1.08-.05-1.5-.3-1.54.52-.14z" stroke="#5e5e5e" stroke-width=".05" fill="#5e5e5e"/><path d="M997.64 906.88l-8.25-12.53 8.93-2.45z" stroke="#5e5e5e" stroke-width="2" fill="#5e5e5e"/><path d="M1180.12 470.8L1267.1 582" stroke="#5e5e5e" stroke-width="2" fill="none"/><path d="M1180.92 470.2l-1.58 1.22v-.02l.16-1.38-.05-1.5-.05-.28z" stroke="#5e5e5e" stroke-width=".05" fill="#5e5e5e"/><path d="M1276.5 594.05l-12.43-8.38 7.3-5.7z" stroke="#5e5e5e" stroke-width="2" fill="#5e5e5e"/><path d="M1180.5 580.17l79.75 13.37" stroke="#5e5e5e" stroke-width="2" fill="none"/><path d="M1180.68 579.18l-.33 1.98-.97-.17.12-.98-.04-1.04z" stroke="#5e5e5e" stroke-width=".05" fill="#5e5e5e"/><path d="M1275.3 596.06l-14.83 2.22 1.54-9.15z" stroke="#5e5e5e" stroke-width="2" fill="#5e5e5e"/><path d="M1180.23 689.3l84.8-80" stroke="#5e5e5e" stroke-width="2" fill="none"/><path d="M1180.93 690.02l-1.62 1.53.2-1.53-.05-1.35.1-.1z" stroke="#5e5e5e" stroke-width=".05" fill="#5e5e5e"/><path d="M1276.15 598.82l-7.2 13.16-6.36-6.74z" stroke="#5e5e5e" stroke-width="2" fill="#5e5e5e"/><path d="M1179.94 799.1l90.46-185.87" stroke="#5e5e5e" stroke-width="2" fill="none"/><path d="M1180.85 799.52l-1.73 3.55.38-3.05-.04-1.18z" stroke="#5e5e5e" stroke-width=".05" fill="#5e5e5e"/><path d="M1277.08 599.5l-2.07 14.86-8.33-4.05z" stroke="#5e5e5e" stroke-width="2" fill="#5e5e5e"/><path d="M1180.17 799.26l85.98-95.9" stroke="#5e5e5e" stroke-width="2" fill="none"/><path d="M1180.93 799.9l-1.64 1.84.2-1.72-.05-1.44z" stroke="#5e5e5e" stroke-width=".05" fill="#5e5e5e"/><path d="M1276.34 692l-6.07 13.72-6.9-6.2z" stroke="#5e5e5e" stroke-width="2" fill="#5e5e5e"/><path d="M1180.5 799.83l79.78-14.03" stroke="#5e5e5e" stroke-width="2" fill="none"/><path d="M1180.68 800.8l-1.3.24.12-1.02-.04-1.03.88-.16z" stroke="#5e5e5e" stroke-width=".05" fill="#5e5e5e"/><path d="M1275.3 783.16l-13.24 7.03-1.6-9.14z" stroke="#5e5e5e" stroke-width="2" fill="#5e5e5e"/><path d="M1180.1 909.2l87.05-112" stroke="#5e5e5e" stroke-width="2" fill="none"/><path d="M1180.92 909.8l-1.66 2.14.24-1.92-.05-1.36z" stroke="#5e5e5e" stroke-width=".05" fill="#5e5e5e"/><path d="M1276.5 785.15l-5.08 14.1-7.32-5.68z" stroke="#5e5e5e" stroke-width="2" fill="#5e5e5e"/><path d="M1180.5 690h79.14" stroke="#5e5e5e" stroke-width="2" fill="none"/><path d="M1180.53 691h-1.15l.12-.98-.04-1.02h1.07z" stroke="#5e5e5e" stroke-width=".05" fill="#5e5e5e"/><path d="M1274.9 690l-14.26 4.64v-9.28z" stroke="#5e5e5e" stroke-width="2" fill="#5e5e5e"/><path d="M1180.23 690.68l84.76 79.28" stroke="#5e5e5e" stroke-width="2" fill="none"/><path d="M1180.93 689.97l-1.36 1.46-.22-.2.15-1.2-.05-1.45z" stroke="#5e5e5e" stroke-width=".05" fill="#5e5e5e"/><path d="M1276.14 780.4l-13.6-6.37 6.34-6.77z" stroke="#5e5e5e" stroke-width="2" fill="#5e5e5e"/><path d="M1179.9 470.9l91 201.83" stroke="#5e5e5e" stroke-width="2" fill="none"/><path d="M1180.83 470.52l-1.47.67.14-1.18-.05-1.5-.32-1.64.05-.03z" stroke="#5e5e5e" stroke-width=".05" fill="#5e5e5e"/><path d="M1277.17 686.65l-10.1-11.1 8.46-3.8z" stroke="#5e5e5e" stroke-width="2" fill="#5e5e5e"/><path d="M1179.8 470.95l93.1 294" stroke="#5e5e5e" stroke-width="2" fill="none"/><path d="M1180.76 470.68l-1.4.44.14-1.1-.05-1.5-.3-1.55.4-.13z" stroke="#5e5e5e" stroke-width=".05" fill="#5e5e5e"/><path d="M1277.52 779.5l-8.72-12.2 8.83-2.8z" stroke="#5e5e5e" stroke-width="2" fill="#5e5e5e"/><path d="M1180.17 580.74l85.93 95.13" stroke="#5e5e5e" stroke-width="2" fill="none"/><path d="M1180.93 580.1l-1.48 1.33-.1-.12.15-1.28-.05-1.5-.02-.1z" stroke="#5e5e5e" stroke-width=".05" fill="#5e5e5e"/><path d="M1276.33 687.2l-13-7.48 6.88-6.22z" stroke="#5e5e5e" stroke-width="2" fill="#5e5e5e"/><path d="M1179.94 580.9l90.44 185.08" stroke="#5e5e5e" stroke-width="2" fill="none"/><path d="M1180.85 580.48l-1.5.73.15-1.18-.05-1.5-.3-1.5z" stroke="#5e5e5e" stroke-width=".05" fill="#5e5e5e"/><path d="M1277.08 779.7l-10.43-10.8 8.33-4.06z" stroke="#5e5e5e" stroke-width="2" fill="#5e5e5e"/><path d="M1179.9 909.1l91.02-202.62" stroke="#5e5e5e" stroke-width="2" fill="none"/><path d="M1180.83 909.47l-1.65 3.68-.07-.03.4-3.1-.04-1.16z" stroke="#5e5e5e" stroke-width=".05" fill="#5e5e5e"/><path d="M1277.17 692.55l-1.6 14.9-8.47-3.8z" stroke="#5e5e5e" stroke-width="2" fill="#5e5e5e"/><path d="M1179.8 909.05l93.13-294.8" stroke="#5e5e5e" stroke-width="2" fill="none"/><path d="M1180.76 909.32l-1.2 3.84-.43-.13.37-3-.04-1.12z" stroke="#5e5e5e" stroke-width=".05" fill="#5e5e5e"/><path d="M1277.52 599.68l.13 15-8.84-2.8z" stroke="#5e5e5e" stroke-width="2" fill="#5e5e5e"/><path d="M1060 381v10.13m0 10.12v20.26m0 10.13v20.26m0 10.12v20.25m0 10.13v20.25m0 10.13v20.25m0 10.13v20.25m0 10.14v20.25m0 10.12v20.25m0 10.13v20.26m0 10.12v20.26m0 10.12v20.26m0 10.12v20.26m0 10.13v20.25m0 10.13v20.26m0 10.13v20.24m0 10.13v20.25m0 10.13v20.25m0 10.13v20.25m0 10.13v20.27m0 10.12v20.25m0 10.12V1019M1060 381.03V380M1060 1018.97v1.03M1120 381v10.13m0 10.12v20.26m0 10.13v20.26m0 10.12v20.25m0 10.13v20.25m0 10.13v20.25m0 10.13v20.25m0 10.14v20.25m0 10.12v20.25m0 10.13v20.26m0 10.12v20.26m0 10.12v20.26m0 10.12v20.26m0 10.13v20.25m0 10.13v20.26m0 10.13v20.24m0 10.13v20.25m0 10.13v20.25m0 10.13v20.25m0 10.13v20.27m0 10.12v20.25m0 10.12V1019M1120 381.03V380M1120 1018.97v1.03" stroke="#5e5e5e" stroke-width="2" fill="none"/><path d="M1459 597c0 11.05-8.95 20-20 20s-20-8.95-20-20 8.95-20 20-20 20 8.95 20 20zM1459 690c0 11.05-8.95 20-20 20s-20-8.95-20-20 8.95-20 20-20 20 8.95 20 20zM1459 783c0 11.05-8.95 20-20 20s-20-8.95-20-20 8.95-20 20-20 20 8.95 20 20z" stroke="#000" fill="#cfe4ff"/><path d="M1200 509.85h381v60h-381z" fill="none"/><use xlink:href="#b" transform="matrix(1,0,0,1,1200,509.84848484848476) translate(67.53703703703707 34.44444444444444)"/><use xlink:href="#c" transform="matrix(1,0,0,1,1200,509.84848484848476) translate(182.35185185185185 34.44444444444444)"/><use xlink:href="#d" transform="matrix(1,0,0,1,1200,509.84848484848476) translate(262.537037037037 34.44444444444444)"/><path d="M1354.4 657.33h29.2v58.52h-29.2z" fill="#fff" fill-opacity="0"/><path d="M1370.43 696.62h-1.12c.08-2.63.6-5.9 2.9-11.63 1.7-4.22 3.36-8.36 3.36-12.3 0-4.54-3.16-7.76-7.17-7.76-3.16 0-6.2 1.98-6.2 4.08 0 2.43 2.5 2.7 2.5 4.86 0 1.64-1.04 2.83-2.68 2.83-1.84 0-3.16-1.64-3.16-4.33 0-5.45 4.47-9.4 10.78-9.4 6.38 0 11.96 4 11.96 10.4 0 4-1.25 6.23-6.9 12.93-2.36 2.83-3.55 5.85-4.27 10.32zm3.02 7.82c0 1.9-1.44 3.48-3.4 3.48-2.25 0-3.56-1.64-3.56-3.48 0-1.97 1.5-3.48 3.54-3.48 1.84 0 3.4 1.64 3.4 3.48"/><defs><path fill="#333" d="M33 0v-248h34V0H33" id="e"/><path fill="#333" d="M117-194c89-4 53 116 60 194h-32v-121c0-31-8-49-39-48C34-167 62-67 57 0H25l-1-190h30c1 10-1 24 2 32 11-22 29-35 61-36" id="f"/><path fill="#333" d="M115-194c55 1 70 41 70 98S169 2 115 4C84 4 66-9 55-30l1 105H24l-1-265h31l2 30c10-21 28-34 59-34zm-8 174c40 0 45-34 45-75s-6-73-45-74c-42 0-51 32-51 76 0 43 10 73 51 73" id="g"/><path fill="#333" d="M84 4C-5 8 30-112 23-190h32v120c0 31 7 50 39 49 72-2 45-101 50-169h31l1 190h-30c-1-10 1-25-2-33-11 22-28 36-60 37" id="h"/><path fill="#333" d="M59-47c-2 24 18 29 38 22v24C64 9 27 4 27-40v-127H5v-23h24l9-43h21v43h35v23H59v120" id="i"/><g id="a"><use transform="matrix(0.06172839506172839,0,0,0.06172839506172839,0,0)" xlink:href="#e"/><use transform="matrix(0.06172839506172839,0,0,0.06172839506172839,6.172839506172839,0)" xlink:href="#f"/><use transform="matrix(0.06172839506172839,0,0,0.06172839506172839,18.51851851851852,0)" xlink:href="#g"/><use transform="matrix(0.06172839506172839,0,0,0.06172839506172839,30.864197530864196,0)" xlink:href="#h"/><use transform="matrix(0.06172839506172839,0,0,0.06172839506172839,43.20987654320987,0)" xlink:href="#i"/></g><path fill="#333" d="M140-251c81 0 123 46 123 126C263-46 219 4 140 4 59 4 17-45 17-125s42-126 123-126zm0 227c63 0 89-41 89-101s-29-99-89-99c-61 0-89 39-89 99S79-25 140-24" id="j"/><path fill="#333" d="M135-143c-3-34-86-38-87 0 15 53 115 12 119 90S17 21 10-45l28-5c4 36 97 45 98 0-10-56-113-15-118-90-4-57 82-63 122-42 12 7 21 19 24 35" id="k"/><g id="b"><use transform="matrix(0.06172839506172839,0,0,0.06172839506172839,0,0)" xlink:href="#j"/><use transform="matrix(0.06172839506172839,0,0,0.06172839506172839,17.28395061728395,0)" xlink:href="#h"/><use transform="matrix(0.06172839506172839,0,0,0.06172839506172839,29.629629629629626,0)" xlink:href="#i"/><use transform="matrix(0.06172839506172839,0,0,0.06172839506172839,35.80246913580247,0)" xlink:href="#g"/><use transform="matrix(0.06172839506172839,0,0,0.06172839506172839,48.148148148148145,0)" xlink:href="#h"/><use transform="matrix(0.06172839506172839,0,0,0.06172839506172839,60.49382716049382,0)" xlink:href="#i"/><use transform="matrix(0.06172839506172839,0,0,0.06172839506172839,66.66666666666666,0)" xlink:href="#k"/></g><path fill="#333" d="M143 4C61 4 22-44 18-125c-5-107 100-154 193-111 17 8 29 25 37 43l-32 9c-13-25-37-40-76-40-61 0-88 39-88 99 0 61 29 100 91 101 35 0 62-11 79-27v-45h-74v-28h105v86C228-13 192 4 143 4" id="l"/><path fill="#333" d="M114-163C36-179 61-72 57 0H25l-1-190h30c1 12-1 29 2 39 6-27 23-49 58-41v29" id="m"/><path fill="#333" d="M100-194c62-1 85 37 85 99 1 63-27 99-86 99S16-35 15-95c0-66 28-99 85-99zM99-20c44 1 53-31 53-75 0-43-8-75-51-75s-53 32-53 75 10 74 51 75" id="n"/><path fill="#333" d="M85-194c31 0 48 13 60 33l-1-100h32l1 261h-30c-2-10 0-23-3-31C134-8 116 4 85 4 32 4 16-35 15-94c0-66 23-100 70-100zm9 24c-40 0-46 34-46 75 0 40 6 74 45 74 42 0 51-32 51-76 0-42-9-74-50-73" id="o"/><g id="c"><use transform="matrix(0.06172839506172839,0,0,0.06172839506172839,0,0)" xlink:href="#l"/><use transform="matrix(0.06172839506172839,0,0,0.06172839506172839,17.28395061728395,0)" xlink:href="#m"/><use transform="matrix(0.06172839506172839,0,0,0.06172839506172839,24.629629629629626,0)" xlink:href="#n"/><use transform="matrix(0.06172839506172839,0,0,0.06172839506172839,36.9753086419753,0)" xlink:href="#h"/><use transform="matrix(0.06172839506172839,0,0,0.06172839506172839,49.32098765432098,0)" xlink:href="#f"/><use transform="matrix(0.06172839506172839,0,0,0.06172839506172839,61.66666666666666,0)" xlink:href="#o"/></g><path fill="#333" d="M127-220V0H93v-220H8v-28h204v28h-85" id="p"/><path fill="#333" d="M106-169C34-169 62-67 57 0H25v-261h32l-1 103c12-21 28-36 61-36 89 0 53 116 60 194h-32v-121c2-32-8-49-39-48" id="q"/><g id="d"><use transform="matrix(0.06172839506172839,0,0,0.06172839506172839,0,0)" xlink:href="#p"/><use transform="matrix(0.06172839506172839,0,0,0.06172839506172839,12.716049382716047,0)" xlink:href="#m"/><use transform="matrix(0.06172839506172839,0,0,0.06172839506172839,20.061728395061728,0)" xlink:href="#h"/><use transform="matrix(0.06172839506172839,0,0,0.06172839506172839,32.407407407407405,0)" xlink:href="#i"/><use transform="matrix(0.06172839506172839,0,0,0.06172839506172839,38.58024691358025,0)" xlink:href="#q"/></g></defs></g></svg>