<svg xmlns="http://www.w3.org/2000/svg" xmlns:xlink="http://www.w3.org/1999/xlink" xmlns:lucid="lucid" width="1842" height="1336"><g transform="translate(-218 -1350)" lucid:page-tab-id="0_0"><path d="M604.2 2468.64c0 103.27-80.58 187-180 187-99.4 0-180-83.73-180-187 0-103.26 80.6-186.98 180-186.98 99.42 0 180 83.72 180 186.98z" stroke="#5e5e5e" stroke-width="3" fill="#cfe4ff"/><path d="M1110.08 2008.5c0 103.27-80.6 187-180 187s-180-83.73-180-187c0-103.26 80.6-186.98 180-186.98s180 83.72 180 187z" stroke="#5e5e5e" stroke-width="3" fill="#c3f7c8"/><path d="M492.3 1716.8l283.46 151.14M492.34 1716.83l-2.26-1.2" stroke="#5e5e5e" stroke-width="5" fill="none"/><path d="M790.55 1875.83l-14.77-2.63 4.36-8.18z" stroke="#5e5e5e" stroke-width="5" fill="#5e5e5e"/><path d="M781.3 2156.26l-215.5 190.5" stroke="#5e5e5e" stroke-width="5" fill="none"/><path d="M793.85 2145.16l-7.6 12.92-6.15-6.94z" stroke="#5e5e5e" stroke-width="5" fill="#5e5e5e"/><path d="M567.5 2348.58l-2 1.78-3.12-3.92 1.82-1.6z" stroke="#5e5e5e" stroke-width=".05" fill="#5e5e5e"/><path d="M372.9 1640h89.12v65.83H372.9z" fill="#b8f5ed"/><path d="M399.18 1659l3.88-5.94c2.24-3.45 5.26-7.24 9.57-7.24 2.76 0 4.22 1.03 4.22 2.84 0 1.64-1.12 3.62-3.36 3.62-1.9 0-2.34-.77-3.8-.77-2.6 0-3.53 1.38-4.74 3.28l-4.74 7.33c2.58 5.35 4.57 17 8.44 17 1.38 0 3.45-1.22 5.26-4.93l1.2.86c-1.03 1.3-4.9 9.57-9.9 9.57-3.54 0-5.17-3.53-6.3-6.64l-3.44-9.73-5.43 8.44c-2.76 4.23-5.26 7.93-10.1 7.93-3.1 0-4.47-2.15-4.47-4.05 0-1.38 1.12-3.2 3.28-3.2 2.24 0 1.9 1.74 4.05 1.74 1.04 0 3.28-.88 6.04-5.1l5.6-8.7-2.84-7.93c-1.47-4.14-3.7-7.67-8.45-7.67-1.12 0-2.4.17-3.27.5l-.26-1.54 11.38-2.84c3.8 2.07 5.43 5.6 6.46 8.44M452.42 1670.72l-.25.74c-4.08.42-5.8 1.52-8.1 3.53l-6.46 5.6 3.9 9.26c.92 2.13 1.65 3.6 3.24 3.6 1.83 0 3.17-2.63 4.5-4.46l.92.68c-.73 1.27-3.6 7.8-7.74 7.8-2.8 0-4.08-3.23-4.75-4.82l-3.84-8.96-3.4 3-2.75 10.1h-4.63l9-35.9c.14-.35.2-.78.2-1.2 0-.67-.6-1.34-1.95-1.34-.55 0-1.16 0-1.65.12l-.18-.86 9.63-1.52-6.9 27.8 10.2-9.1c.66-.6 1.27-1.4 1.27-2.2 0-.72-.98-1.14-1.6-1.14h-.72l.24-.74h11.82"/><path d="M810.08 1892.36h147.98v68.83H810.08z" fill="#fff3d9"/><path d="M814.73 1928.06h46.02v-2.32h-46.02zM826.85 1897.85l-.27-.54c.76-.46 1.75-.62 2.68-.62 3.45 0 5.15 2.46 5.15 7.12 0 4.05-1.66 11.47-8.07 11.47-2.68 0-3.73-2.1-3.73-4.43 0-3.87 3.04-7.78 7.04-7.78.88 0 2.06.3 2.63 1.3.1-.6.2-1.25.2-1.9 0-2.4-.8-4.96-3.6-4.96-.73 0-1.34.14-2.02.35m4.7 8.4c0-1.8-.92-2.37-1.66-2.37-2.72 0-5.08 4.08-5.08 7.9 0 1.03.1 2.67 1.84 2.67 2.1 0 3.72-2.74 4.5-5.53.24-.9.4-1.84.4-2.68M853.88 1902.95v.44c-2.63.34-3.3 3.38-3.86 5.82-.8 3.5-3.95 6.05-7.34 6.05l-1.15 4.7h-2.22l1.2-4.7h-.3c-2.12 0-4.18-1.12-4.18-4.52 0-1.53.88-3.17.88-5 0-1.1-.38-2.23-1.67-2.36l.14-.45c.52-.06 1-.06 1.5-.06 1.56 0 2.4 1.47 2.4 3.03 0 1.54-.84 3.48-.84 5.07 0 2.05.88 3.26 2.28 3.45l2.75-11.2h2.2l-2.72 11.2c2-.38 3.97-2.14 4.65-5.12.77-3.3 1.4-6.38 5.6-6.38h.7M822.4 1935.04l-.28-.55c.77-.47 1.75-.64 2.68-.64 3.46 0 5.15 2.47 5.15 7.12 0 4.06-1.67 11.48-8.08 11.48-2.68 0-3.72-2.1-3.72-4.44 0-3.86 3.04-7.78 7.04-7.78.86 0 2.04.3 2.62 1.32.1-.6.2-1.26.2-1.92 0-2.4-.8-4.95-3.6-4.95-.74 0-1.34.12-2.03.34m4.7 8.38c0-1.78-.93-2.35-1.67-2.35-2.7 0-5.06 4.08-5.06 7.88 0 1.04.1 2.7 1.83 2.7 2.1 0 3.73-2.75 4.5-5.54.24-.9.4-1.83.4-2.68M838.3 1944.27l1.24-1.9c.7-1.08 1.67-2.3 3.04-2.3.87 0 1.34.34 1.34.9 0 .53-.36 1.16-1.07 1.16-.6 0-.74-.24-1.2-.24-.82 0-1.13.43-1.5 1.03l-1.52 2.33c.83 1.7 1.46 5.4 2.7 5.4.43 0 1.08-.4 1.66-1.57l.37.26c-.33.42-1.56 3.04-3.15 3.04-1.12 0-1.64-1.12-2-2.1l-1.1-3.1-1.72 2.68c-.87 1.35-1.67 2.52-3.2 2.52-1 0-1.42-.68-1.42-1.28 0-.44.35-1.02 1.04-1.02.7 0 .6.55 1.28.55.33 0 1.04-.27 1.92-1.6l1.78-2.78-.9-2.52c-.47-1.3-1.18-2.44-2.7-2.44-.34 0-.75.07-1.03.18l-.08-.5 3.6-.9c1.2.66 1.73 1.78 2.06 2.68M855.4 1947.88l-.1.23c-1.3.15-1.86.5-2.6 1.15l-2.1 1.8 1.27 3c.3.68.53 1.15 1.04 1.15.6 0 1.03-.84 1.46-1.43l.3.2c-.24.43-1.16 2.53-2.5 2.53-.9 0-1.3-1.04-1.53-1.55l-1.23-2.9-1.1.97-.9 3.26h-1.48l2.9-11.57c.05-.1.07-.24.07-.38 0-.2-.2-.43-.64-.43-.18 0-.38 0-.53.03l-.06-.28 3.1-.5-2.22 8.97 3.28-2.93c.22-.2.4-.46.4-.7 0-.25-.3-.4-.5-.4h-.23l.08-.22h3.8M900.8 1924.2H878v-2.57h22.8v2.56m0 7.74H878v-2.56h22.8v2.56M934.04 1919.15l-3.1 11.2c-.23.9-.47 1.78-.47 2.7 0 1.52.74 2.37 2.3 2.37 4.17 0 6.34-4.45 7.54-7.86.32-.93.6-1.9.6-2.87 0-2.87-2.3-2.56-2.37-4.23-.08-1.4 1.16-1.63 2.1-1.63 1.62 0 1.8 1.98 1.8 3.22 0 5.66-4.05 14.87-10.68 14.87-2.67 0-4.3-1.08-4.3-3.87 0-1.63.47-3.3.9-4.84-1.56 3.45-4.73 8.7-9.07 8.7-2.17 0-3.02-1.3-3.02-3.36 0-1.27.42-2.47.73-3.68l1.8-6.85c.13-.35.2-.74.2-1.12 0-.92-1.46-.85-2.08-.85v-.58c2.05-.35 4.06-.9 6-1.7l.15.1-3.13 11.9c-.12.5-.43 1.75-.43 2.83 0 1 .24 1.82 1.1 1.82 2.24-.03 5-4.4 5.92-5.85 2.06-3.13 3.06-6.15 4.26-10.42h3.26M953.67 1926.92c0 .7-.6 1.26-1.3 1.26-.8 0-1.33-.55-1.33-1.26 0-.7.52-1.37 1.32-1.37.7 0 1.3.68 1.3 1.37m-.56 3.42l-2.96 11.64c-.6 2.4-2.14 5.56-5.1 5.56-1.45 0-2-.9-2-1.67 0-.6.33-1.42 1.3-1.42.5 0 .95.4.95 1.04 0 .4-.45.48-.45.92 0 .1.14.27.28.27 1.26 0 2.16-2.1 2.82-4.72l2.52-9.94c0-.33-.28-.6-.88-.6-.23 0-.56.05-.75.13l-.08-.46"/><path d="M1115.56 2107.13h184.6v88.36h-184.6z" fill="#fff3d9"/><path d="M1122 2149.7h51.17v-3.2H1122zM1132.63 2114.43l-.37-.76c1.06-.64 2.42-.87 3.7-.87 4.78 0 7.12 3.4 7.12 9.84 0 5.6-2.3 15.86-11.16 15.86-3.7 0-5.15-2.9-5.15-6.13 0-5.34 4.2-10.75 9.73-10.75 1.2 0 2.84.42 3.63 1.82.15-.84.27-1.74.27-2.65 0-3.34-1.1-6.86-4.96-6.86-1.03 0-1.86.18-2.8.5m6.5 11.57c0-2.45-1.28-3.24-2.3-3.24-3.75 0-7 5.64-7 10.9 0 1.44.15 3.7 2.53 3.7 2.9 0 5.15-3.78 6.2-7.64.35-1.25.58-2.54.58-3.7M1168.37 2130.9l-2.3 7.2h-21.55l.15-.62h.65c2.84 0 3.74-1.06 4.05-2.35l4.46-18.05c.15-.6.27-1.37.27-1.7 0-.73-.53-1.4-2.88-1.4h-.68l.15-.6h12.37l-.15.6h-.68c-2.84 0-3.64.98-3.98 2.38l-4.62 18.2c-.15.57-.2 1.1-.2 1.18 0 .83 1.07.9 1.53.9h4.62c3.85 0 5.78-.83 7.52-4.35.27-.42.45-.88.64-1.4h.6M1132.58 2159.35l-.38-.76c1.06-.65 2.43-.88 3.7-.88 4.78 0 7.13 3.4 7.13 9.84 0 5.6-2.3 15.86-11.17 15.86-3.7 0-5.15-2.9-5.15-6.13 0-5.35 4.22-10.76 9.74-10.76 1.2 0 2.84.42 3.64 1.82.15-.83.26-1.74.26-2.65 0-3.32-1.1-6.84-4.96-6.84-1.02 0-1.85.2-2.8.5m6.5 11.57c0-2.46-1.27-3.25-2.3-3.25-3.74 0-7 5.64-7 10.9 0 1.44.15 3.7 2.54 3.7 2.9 0 5.14-3.78 6.2-7.64.35-1.25.57-2.53.57-3.7M1169.94 2166.4v.6c-3.63.5-4.58 4.7-5.33 8.06-1.1 4.84-5.44 8.36-10.14 8.36l-1.6 6.52h-3.05l1.63-6.52h-.38c-2.95 0-5.8-1.55-5.8-6.24 0-2.12 1.22-4.4 1.22-6.93 0-1.5-.53-3.06-2.3-3.25l.18-.6c.72-.1 1.4-.1 2.1-.1 2.14 0 3.32 2.06 3.32 4.22 0 2.12-1.18 4.8-1.18 7 0 2.84 1.2 4.5 3.14 4.77l3.78-15.5h3.07l-3.8 15.5c2.77-.54 5.5-2.96 6.44-7.1 1.06-4.53 1.93-8.8 7.72-8.8h.98M1228.6 2144.35h-31.55v-3.53h31.54v3.53m0 10.7h-31.55v-3.52h31.54v3.53M1291.23 2137.98v.86c-5.14.7-6.47 6.64-7.54 11.4-1.57 6.85-7.72 11.83-14.36 11.83l-2.25 9.2h-4.35l2.3-9.2h-.53c-4.18 0-8.2-2.2-8.2-8.83 0-3 1.72-6.2 1.72-9.8 0-2.14-.75-4.34-3.27-4.6l.27-.86c1.02-.1 1.98-.1 2.95-.1 3.04 0 4.7 2.88 4.7 5.94 0 3-1.66 6.8-1.66 9.9 0 4.02 1.7 6.37 4.44 6.75l5.36-21.9h4.33l-5.35 21.9c3.9-.75 7.76-4.18 9.1-10.02 1.5-6.42 2.73-12.47 10.92-12.47h1.4M1298.68 2124.6h1.4c-1.03 5.67-5.15 8.13-12.16 8.13-6.9 0-7.93-.85-18.8-3.2-5.03-1.08-8.67-1.67-10.76-1.67-5.03 0-8.3 1.66-9.32 4.87h-1.4c1.08-6 5.3-8.14 11.52-8.14 3.32 0 9.75 1.12 19.06 3.26 5.04 1.18 8.8 1.7 11.03 1.7 5.3 0 8.62-1.7 9.43-4.97"/><path d="M810.08 2075.63h147.26v71.6H810.08z" fill="#fff3d9"/><path d="M814.75 2111.5h49.37v-2.35h-49.37zM828.52 2081.14l-.28-.55c.77-.47 1.76-.64 2.7-.64 3.46 0 5.17 2.48 5.17 7.15 0 4.08-1.67 11.54-8.1 11.54-2.7 0-3.75-2.12-3.75-4.46 0-3.88 3.06-7.8 7.07-7.8.88 0 2.07.3 2.64 1.3.1-.6.2-1.25.2-1.9 0-2.44-.8-5-3.6-5-.75 0-1.35.14-2.04.36m4.73 8.42c0-1.8-.94-2.36-1.68-2.36-2.72 0-5.1 4.1-5.1 7.92 0 1.04.12 2.7 1.86 2.7 2.1 0 3.74-2.76 4.5-5.56.25-.9.42-1.85.42-2.7M855.67 2086.26v.44c-2.64.36-3.33 3.4-3.88 5.86-.8 3.52-3.97 6.08-7.38 6.08l-1.16 4.73h-2.23l1.2-4.73h-.3c-2.13 0-4.2-1.13-4.2-4.54 0-1.54.88-3.2.88-5.03 0-1.1-.37-2.23-1.66-2.37l.13-.44c.53-.05 1.02-.05 1.52-.05 1.55 0 2.4 1.5 2.4 3.06 0 1.54-.85 3.5-.85 5.1 0 2.05.88 3.26 2.3 3.45l2.74-11.24h2.22l-2.76 11.25c2-.37 4-2.13 4.68-5.13.77-3.3 1.4-6.4 5.6-6.4h.73M822.45 2118.5l-.28-.56c.77-.46 1.76-.63 2.7-.63 3.47 0 5.17 2.5 5.17 7.16 0 4.07-1.68 11.53-8.1 11.53-2.7 0-3.75-2.13-3.75-4.47 0-3.88 3.04-7.8 7.05-7.8.88 0 2.07.3 2.65 1.3.1-.6.2-1.25.2-1.9 0-2.44-.8-5-3.62-5-.74 0-1.34.14-2.03.36m4.73 8.4c0-1.78-.94-2.35-1.68-2.35-2.72 0-5.1 4.1-5.1 7.92 0 1.04.12 2.7 1.86 2.7 2.1 0 3.74-2.76 4.5-5.56.25-.9.42-1.84.42-2.7M844.65 2123.3l-2.2 7.96c-.17.63-.33 1.26-.33 1.92 0 1.08.52 1.68 1.62 1.68 2.97 0 4.5-3.16 5.36-5.58.22-.66.42-1.35.42-2.04 0-2.03-1.63-1.8-1.68-3-.06-1 .82-1.15 1.48-1.15 1.16 0 1.3 1.4 1.3 2.27 0 4.02-2.9 10.56-7.6 10.56-1.9 0-3.05-.77-3.05-2.75 0-1.15.33-2.34.63-3.44-1.1 2.45-3.35 6.2-6.43 6.2-1.54 0-2.15-.94-2.15-2.4 0-.9.3-1.76.52-2.6l1.3-4.88c.08-.25.13-.52.13-.8 0-.66-1.04-.6-1.48-.6v-.42c1.45-.24 2.88-.63 4.25-1.2l.1.08-2.22 8.44c-.08.36-.3 1.24-.3 2 0 .72.17 1.3.77 1.3 1.6-.03 3.55-3.13 4.2-4.15 1.47-2.22 2.18-4.37 3.04-7.4h2.3M858.72 2128.66c0 .52-.43.9-.95.9-.57 0-.94-.38-.94-.9 0-.5.37-.98.94-.98.52 0 .95.5.95.98m-.4 2.47l-2.14 8.38c-.44 1.75-1.54 4.02-3.67 4.02-1.04 0-1.43-.65-1.43-1.2 0-.44.23-1.03.93-1.03.37 0 .7.28.7.74 0 .3-.33.35-.33.67 0 .1.1.2.2.2.9 0 1.56-1.5 2.03-3.4l1.8-7.15c0-.23-.18-.43-.62-.43-.16 0-.4.04-.53.1l-.06-.34M904.4 2107.6h-22.93v-2.57h22.92v2.57m0 7.78h-22.93v-2.57h22.92v2.58M928.94 2108.84l1.75-2.68c1-1.56 2.36-3.27 4.3-3.27 1.25 0 1.92.45 1.92 1.27 0 .74-.5 1.64-1.52 1.64-.86 0-1.05-.34-1.7-.34-1.18 0-1.6.62-2.15 1.47l-2.14 3.3c1.17 2.42 2.07 7.68 3.82 7.68.62 0 1.56-.54 2.37-2.2l.54.38c-.47.58-2.22 4.32-4.48 4.32-1.6 0-2.33-1.6-2.84-3l-1.55-4.4-2.45 3.82c-1.25 1.9-2.38 3.58-4.56 3.58-1.4 0-2.02-.98-2.02-1.83 0-.63.5-1.44 1.48-1.44 1 0 .86.78 1.83.78.46 0 1.48-.38 2.72-2.3l2.53-3.92-1.28-3.58c-.66-1.87-1.68-3.46-3.82-3.46-.5 0-1.1.08-1.47.23l-.12-.7 5.14-1.28c1.72.92 2.46 2.52 2.92 3.8M952.97 2114.13l-.1.33c-1.85.2-2.62.7-3.67 1.6l-2.9 2.53 1.75 4.17c.4.96.74 1.62 1.45 1.62.83 0 1.43-1.2 2.04-2.02l.4.3c-.32.58-1.6 3.53-3.48 3.53-1.27 0-1.84-1.45-2.15-2.17l-1.72-4.04-1.54 1.34-1.24 4.56h-2.1l4.08-16.2c.06-.16.1-.35.1-.55 0-.3-.3-.6-.9-.6-.24 0-.52 0-.74.05l-.08-.38 4.35-.7-3.1 12.55 4.6-4.1c.3-.27.57-.63.57-1 0-.32-.44-.5-.72-.5h-.33l.1-.34h5.35"/><path d="M1114.08 2008.5h179.56" stroke="#5e5e5e" stroke-width="5" fill="none"/><path d="M1114.15 2011h-2.62l.05-2.5-.02-2.5h2.6z" stroke="#5e5e5e" stroke-width=".05" fill="#5e5e5e"/><path d="M1310.4 2008.5l-14.26 4.64v-9.27z" stroke="#5e5e5e" stroke-width="5" fill="#fff"/><path d="M260 1871.97h472.3v96.18H260z" fill="#fff3d9"/><path d="M288.06 1918.18l2.44-3.74c1.4-2.16 3.3-4.54 6-4.54 1.74 0 2.66.65 2.66 1.78 0 1.03-.7 2.28-2.1 2.28-1.2 0-1.47-.5-2.4-.5-1.62 0-2.2.88-2.97 2.07l-3 4.6c1.64 3.35 2.88 10.66 5.32 10.66.86 0 2.16-.77 3.3-3.1l.76.55c-.65.8-3.1 6-6.23 6-2.22 0-3.24-2.2-3.95-4.16l-2.16-6.13-3.4 5.3c-1.74 2.66-3.3 4.98-6.35 4.98-1.95 0-2.82-1.35-2.82-2.54 0-.86.7-2 2.06-2 1.4 0 1.2 1.1 2.54 1.1.65 0 2.06-.55 3.8-3.2l3.5-5.47-1.78-4.98c-.92-2.6-2.33-4.82-5.3-4.82-.7 0-1.52.1-2.06.33l-.16-.98 7.14-1.78c2.38 1.3 3.4 3.52 4.06 5.3M321.5 1925.54l-.16.46c-2.56.27-3.63.96-5.1 2.22l-4.04 3.52 2.45 5.82c.57 1.34 1.03 2.25 2.02 2.25 1.15 0 2-1.63 2.84-2.78l.58.42c-.46.8-2.26 4.9-4.86 4.9-1.76 0-2.56-2.03-3-3.02l-2.4-5.63-2.14 1.87-1.72 6.35h-2.9l5.65-22.54c.1-.23.13-.5.13-.77 0-.4-.38-.83-1.23-.83-.34 0-.72 0-1.03.08l-.1-.54 6.03-.94-4.32 17.45 6.4-5.7c.4-.38.8-.88.8-1.37 0-.46-.62-.73-1-.73h-.46l.15-.46h7.43M337.6 1895.72h1.4c-1.4 6.33-6.6 8.98-16.78 8.98-10 0-13.8-.97-29.6-3.57-7.26-1.2-13.16-1.8-16.2-1.8-7.3 0-13.52 1.8-15.04 5.37h-1.4c1.72-6.55 8.6-8.98 17.64-8.98 4.87 0 14.77 1.3 28.36 3.62 7.25 1.25 14.94 1.9 18.2 1.9 7.67 0 12.27-1.9 13.4-5.52M388.52 1916.45h-31.88v-3.58h31.88v3.58m0 10.82h-31.88v-3.57h31.88v3.57M412.6 1921.86h64.3v-3.25h-64.3zM429.6 1886.2l-.38-.77c1.07-.65 2.45-.88 3.75-.88 4.82 0 7.2 3.45 7.2 9.95 0 5.66-2.34 16.04-11.3 16.04-3.75 0-5.2-2.95-5.2-6.2 0-5.4 4.25-10.87 9.83-10.87 1.23 0 2.87.42 3.68 1.83.15-.84.26-1.76.26-2.67 0-3.37-1.1-6.93-5-6.93-1.04 0-1.88.2-2.84.5m6.58 11.7c0-2.48-1.3-3.28-2.33-3.28-3.8 0-7.08 5.7-7.08 11.02 0 1.45.15 3.75 2.56 3.75 2.95 0 5.2-3.84 6.28-7.74.35-1.27.58-2.57.58-3.75M465.72 1902.84l-2.33 7.27H441.6l.15-.6h.65c2.87 0 3.8-1.07 4.1-2.37l4.5-18.25c.16-.62.28-1.38.28-1.73 0-.72-.54-1.4-2.9-1.4h-.7l.15-.62h12.52l-.16.6h-.68c-2.87 0-3.67 1-4 2.42l-4.68 18.4c-.16.58-.2 1.12-.2 1.2 0 .83 1.08.9 1.54.9h4.67c3.9 0 5.85-.83 7.6-4.4.28-.4.47-.87.66-1.4h.62M423.32 1931.6l-.38-.76c1.07-.65 2.45-.88 3.75-.88 4.8 0 7.18 3.45 7.18 9.95 0 5.68-2.33 16.05-11.3 16.05-3.74 0-5.2-2.95-5.2-6.2 0-5.4 4.26-10.87 9.84-10.87 1.23 0 2.87.42 3.68 1.84.15-.84.27-1.76.27-2.68 0-3.37-1.1-6.93-5.02-6.93-1.03 0-1.87.2-2.83.5m6.58 11.72c0-2.5-1.3-3.3-2.33-3.3-3.8 0-7.08 5.7-7.08 11.03 0 1.45.14 3.75 2.55 3.75 2.95 0 5.2-3.83 6.28-7.73.34-1.26.57-2.56.57-3.75M445.55 1944.5l1.73-2.63c1-1.54 2.33-3.22 4.24-3.22 1.23 0 1.88.46 1.88 1.26 0 .74-.5 1.62-1.5 1.62-.84 0-1.03-.34-1.68-.34-1.15 0-1.57.6-2.1 1.45l-2.1 3.25c1.14 2.38 2.02 7.54 3.74 7.54.62 0 1.53-.53 2.34-2.18l.53.38c-.46.58-2.18 4.25-4.4 4.25-1.57 0-2.3-1.57-2.8-2.95l-1.52-4.32-2.4 3.75c-1.23 1.88-2.34 3.52-4.48 3.52-1.38 0-2-.96-2-1.8 0-.6.5-1.4 1.46-1.4 1 0 .85.75 1.8.75.46 0 1.46-.38 2.68-2.26l2.5-3.86-1.27-3.52c-.66-1.84-1.66-3.4-3.76-3.4-.5 0-1.08.07-1.46.22l-.1-.7 5.04-1.25c1.68.92 2.4 2.5 2.87 3.75M469.42 1949.54l-.1.33c-1.85.2-2.62.7-3.66 1.6l-2.9 2.52 1.75 4.16c.42.96.75 1.62 1.46 1.62.83 0 1.43-1.18 2.03-2l.4.3c-.32.58-1.6 3.5-3.48 3.5-1.26 0-1.84-1.44-2.14-2.16l-1.73-4.03-1.54 1.33-1.22 4.56h-2.1l4.07-16.17c.06-.17.1-.36.1-.55 0-.3-.3-.6-.9-.6-.24 0-.5 0-.73.05l-.08-.4 4.33-.67-3.1 12.5 4.58-4.08c.3-.27.58-.63.58-1 0-.3-.44-.5-.7-.5h-.34l.1-.34h5.32M533 1916.45h-31.9v-3.58H533v3.58m0 10.82h-31.9v-3.57H533v3.57M557.13 1921.86h51.74v-3.25h-51.74zM567.9 1886.2l-.4-.77c1.08-.65 2.46-.88 3.76-.88 4.82 0 7.2 3.45 7.2 9.95 0 5.66-2.34 16.04-11.3 16.04-3.74 0-5.2-2.95-5.2-6.2 0-5.4 4.25-10.87 9.84-10.87 1.22 0 2.87.42 3.67 1.83.15-.84.27-1.76.27-2.67 0-3.37-1.1-6.93-5.02-6.93-1.03 0-1.87.2-2.83.5m6.57 11.7c0-2.48-1.3-3.28-2.33-3.28-3.8 0-7.08 5.7-7.08 11.02 0 1.45.15 3.75 2.57 3.75 2.94 0 5.2-3.84 6.27-7.74.35-1.27.57-2.57.57-3.75M604.02 1902.84l-2.34 7.27H579.9l.16-.6h.65c2.88 0 3.8-1.07 4.1-2.37l4.52-18.25c.16-.62.27-1.38.27-1.73 0-.72-.55-1.4-2.92-1.4h-.7l.17-.62h12.5l-.14.6h-.68c-2.87 0-3.68 1-4.02 2.42l-4.67 18.4c-.15.58-.2 1.12-.2 1.2 0 .83 1.08.9 1.54.9h4.67c3.9 0 5.85-.83 7.6-4.4.28-.4.47-.87.67-1.4h.62M567.84 1931.6l-.38-.76c1.07-.65 2.45-.88 3.75-.88 4.83 0 7.2 3.45 7.2 9.95 0 5.68-2.33 16.05-11.3 16.05-3.74 0-5.2-2.95-5.2-6.2 0-5.4 4.26-10.87 9.84-10.87 1.23 0 2.87.42 3.68 1.84.15-.84.26-1.76.26-2.68 0-3.37-1.1-6.93-5-6.93-1.04 0-1.88.2-2.84.5m6.58 11.72c0-2.5-1.3-3.3-2.33-3.3-3.8 0-7.1 5.7-7.1 11.03 0 1.45.16 3.75 2.57 3.75 2.95 0 5.2-3.83 6.28-7.73.34-1.26.57-2.56.57-3.75M605.6 1938.73v.6c-3.66.5-4.62 4.75-5.4 8.16-1.1 4.9-5.5 8.45-10.24 8.45l-1.6 6.58h-3.1l1.64-6.58h-.4c-2.97 0-5.84-1.57-5.84-6.32 0-2.14 1.22-4.44 1.22-7 0-1.53-.53-3.1-2.33-3.3l.2-.6c.72-.08 1.4-.08 2.1-.08 2.18 0 3.36 2.07 3.36 4.25 0 2.14-1.17 4.86-1.17 7.08 0 2.87 1.22 4.55 3.17 4.82l3.83-15.65h3.1l-3.83 15.65c2.8-.54 5.55-3 6.5-7.16 1.08-4.6 1.96-8.9 7.8-8.9h1M638.43 1920.07c0 1.74-1.46 3.25-3.2 3.25-1.78 0-3.3-1.62-3.3-3.25 0-1.62 1.52-3.24 3.3-3.24 1.74 0 3.2 1.5 3.2 3.24M661.5 1921.86h64.3v-3.25h-64.3zM678.42 1879.65l-.38-.77c1.07-.65 2.45-.88 3.75-.88 4.8 0 7.18 3.45 7.18 9.95 0 5.67-2.33 16.04-11.3 16.04-3.74 0-5.2-2.96-5.2-6.2 0-5.4 4.26-10.88 9.84-10.88 1.23 0 2.87.42 3.68 1.84.15-.85.26-1.77.26-2.68 0-3.37-1.1-6.93-5-6.93-1.04 0-1.88.2-2.84.5m6.58 11.7c0-2.48-1.3-3.28-2.33-3.28-3.8 0-7.08 5.7-7.08 11.02 0 1.44.14 3.74 2.55 3.74 2.95 0 5.2-3.83 6.28-7.73.34-1.26.57-2.56.57-3.74M716.2 1886.77v.6c-3.68.5-4.64 4.75-5.4 8.16-1.12 4.9-5.52 8.46-10.26 8.46l-1.6 6.57h-3.1l1.64-6.58h-.4c-2.97 0-5.84-1.58-5.84-6.33 0-2.14 1.22-4.44 1.22-7 0-1.53-.53-3.1-2.33-3.3l.2-.6c.72-.08 1.4-.08 2.1-.08 2.18 0 3.36 2.06 3.36 4.24 0 2.14-1.2 4.86-1.2 7.08 0 2.87 1.23 4.55 3.18 4.82l3.83-15.65h3.1l-3.82 15.64c2.8-.54 5.55-3 6.5-7.16 1.08-4.6 1.96-8.9 7.82-8.9h1M672.2 1931.6l-.4-.76c1.08-.65 2.46-.88 3.76-.88 4.82 0 7.2 3.45 7.2 9.95 0 5.68-2.34 16.05-11.3 16.05-3.74 0-5.2-2.95-5.2-6.2 0-5.4 4.25-10.87 9.84-10.87 1.22 0 2.87.42 3.67 1.84.16-.84.27-1.76.27-2.68 0-3.37-1.1-6.93-5-6.93-1.05 0-1.9.2-2.84.5m6.58 11.72c0-2.5-1.3-3.3-2.34-3.3-3.8 0-7.08 5.7-7.08 11.03 0 1.45.16 3.75 2.57 3.75 2.94 0 5.2-3.83 6.27-7.73.35-1.26.58-2.56.58-3.75M694.43 1944.5l1.72-2.63c1-1.54 2.34-3.22 4.25-3.22 1.22 0 1.87.46 1.87 1.26 0 .74-.5 1.62-1.5 1.62-.83 0-1.02-.34-1.67-.34-1.15 0-1.57.6-2.1 1.45l-2.1 3.25c1.14 2.38 2.02 7.54 3.74 7.54.6 0 1.53-.53 2.33-2.18l.54.38c-.45.58-2.17 4.25-4.4 4.25-1.56 0-2.3-1.57-2.8-2.95l-1.52-4.32-2.4 3.75c-1.23 1.88-2.34 3.52-4.48 3.52-1.38 0-2-.96-2-1.8 0-.6.5-1.4 1.46-1.4 1 0 .84.75 1.8.75.46 0 1.45-.38 2.68-2.26l2.48-3.86-1.26-3.52c-.65-1.84-1.64-3.4-3.75-3.4-.5 0-1.06.07-1.44.22l-.12-.7 5.05-1.25c1.68.92 2.4 2.5 2.86 3.75M718.3 1949.54l-.1.33c-1.85.2-2.62.7-3.66 1.6l-2.9 2.52 1.74 4.16c.4.96.74 1.62 1.46 1.62.82 0 1.42-1.18 2.03-2l.4.3c-.32.58-1.6 3.5-3.48 3.5-1.27 0-1.84-1.44-2.15-2.16l-1.72-4.03-1.54 1.33-1.25 4.56h-2.08l4.06-16.17c.05-.17.08-.36.08-.55 0-.3-.26-.6-.87-.6-.24 0-.52 0-.74.05l-.1-.4 4.35-.67-3.1 12.5 4.58-4.08c.3-.27.57-.63.57-1 0-.3-.43-.5-.7-.5h-.34l.1-.34h5.34"/><path d="M260 2066.13h472.4v97.8H260z" fill="#fff3d9"/><path d="M296.43 2102.9l-4.25 15.35c-.32 1.22-.64 2.44-.64 3.72 0 2.07 1 3.24 3.14 3.24 5.74 0 8.7-6.1 10.36-10.78.43-1.27.8-2.6.8-3.93 0-3.94-3.14-3.52-3.24-5.8-.1-1.92 1.6-2.23 2.87-2.23 2.23 0 2.5 2.7 2.5 4.4 0 7.77-5.6 20.4-14.68 20.4-3.67 0-5.9-1.47-5.9-5.3 0-2.23.63-4.52 1.22-6.64-2.13 4.73-6.5 11.95-12.44 11.95-2.97 0-4.14-1.8-4.14-4.62 0-1.75.58-3.4 1-5.05l2.5-9.4c.16-.47.27-1 .27-1.54 0-1.27-2-1.17-2.86-1.17v-.8c2.82-.48 5.58-1.22 8.24-2.34l.2.16-4.3 16.3c-.15.7-.58 2.4-.58 3.9 0 1.38.32 2.5 1.5 2.5 3.07-.06 6.84-6.07 8.12-8.03 2.82-4.32 4.2-8.46 5.85-14.3h4.46M323.37 2113.54c0 .98-.83 1.73-1.8 1.73-1.1 0-1.8-.75-1.8-1.73 0-.94.7-1.88 1.8-1.88.97 0 1.8.94 1.8 1.88m-.8 4.7l-4.05 15.97c-.83 3.3-2.93 7.63-7 7.63-1.98 0-2.73-1.24-2.73-2.3 0-.8.44-1.94 1.76-1.94.7 0 1.3.55 1.3 1.42 0 .56-.6.67-.6 1.27 0 .14.2.37.4.37 1.7 0 2.95-2.86 3.86-6.46l3.45-13.63c0-.45-.37-.83-1.2-.83-.3 0-.75.08-1 .2l-.13-.65M336.18 2088.44h1.38c-1.38 6.2-6.48 8.82-16.47 8.82-9.84 0-13.56-.96-29.08-3.5-7.12-1.18-12.9-1.76-15.9-1.76-7.17 0-13.28 1.75-14.76 5.26h-1.4c1.7-6.43 8.46-8.82 17.34-8.82 4.78 0 14.5 1.27 27.85 3.56 7.12 1.22 14.66 1.86 17.85 1.86 7.55 0 12.07-1.86 13.18-5.42M386.2 2109.8h-31.3v-3.5h31.3v3.5m0 10.63h-31.3v-3.5h31.3v3.5M409.84 2115.1h67.44v-3.17h-67.44zM428.7 2080.1l-.38-.75c1.06-.64 2.4-.87 3.7-.87 4.72 0 7.05 3.38 7.05 9.77 0 5.56-2.3 15.74-11.08 15.74-3.7 0-5.12-2.9-5.12-6.1 0-5.3 4.17-10.66 9.65-10.66 1.2 0 2.82.4 3.6 1.8.16-.83.27-1.73.27-2.63 0-3.3-1.1-6.8-4.92-6.8-1 0-1.84.2-2.78.5m6.46 11.5c0-2.45-1.28-3.24-2.3-3.24-3.7 0-6.94 5.6-6.94 10.83 0 1.4.15 3.67 2.52 3.67 2.9 0 5.1-3.76 6.16-7.6.34-1.23.56-2.5.56-3.67M464.17 2096.44l-2.3 7.14H440.5l.15-.6h.64c2.8 0 3.7-1.05 4-2.33l4.44-17.92c.15-.6.26-1.35.26-1.7 0-.7-.52-1.38-2.85-1.38h-.68l.15-.6h12.3l-.16.6h-.68c-2.82 0-3.6.97-3.94 2.36l-4.6 18.1c-.14.55-.18 1.08-.18 1.15 0 .83 1.06.9 1.5.9h4.6c3.82 0 5.74-.82 7.47-4.32.26-.4.45-.86.64-1.4h.6M420.36 2124.7l-.38-.77c1.05-.63 2.4-.86 3.68-.86 4.74 0 7.07 3.38 7.07 9.77 0 5.56-2.3 15.74-11.1 15.74-3.67 0-5.1-2.9-5.1-6.08 0-5.3 4.17-10.67 9.66-10.67 1.2 0 2.8.4 3.6 1.8.15-.83.26-1.73.26-2.63 0-3.3-1.1-6.8-4.92-6.8-1.02 0-1.84.2-2.78.5m6.46 11.48c0-2.44-1.28-3.23-2.3-3.23-3.7 0-6.94 5.6-6.94 10.82 0 1.43.15 3.7 2.5 3.7 2.9 0 5.12-3.77 6.17-7.6.34-1.24.57-2.52.57-3.7M450.68 2131.26l-3 10.86c-.23.86-.46 1.73-.46 2.63 0 1.47.7 2.3 2.22 2.3 4.06 0 6.16-4.33 7.32-7.63.3-.9.57-1.85.57-2.8 0-2.77-2.22-2.47-2.3-4.08-.07-1.35 1.13-1.58 2.04-1.58 1.57 0 1.76 1.92 1.76 3.12 0 5.5-3.94 14.43-10.37 14.43-2.6 0-4.17-1.04-4.17-3.75 0-1.58.44-3.2.85-4.7-1.5 3.35-4.58 8.46-8.8 8.46-2.1 0-2.92-1.27-2.92-3.26 0-1.24.4-2.4.72-3.57l1.76-6.65c.12-.34.2-.7.2-1.1 0-.9-1.43-.82-2.03-.82v-.56c2-.34 3.95-.86 5.82-1.65l.14.1-3.04 11.53c-.1.5-.4 1.7-.4 2.75 0 .97.2 1.76 1.04 1.76 2.18-.04 4.85-4.28 5.75-5.67 1.98-3.04 2.96-5.98 4.12-10.1h3.16M469.9 2138.58c0 .7-.6 1.24-1.3 1.24-.77 0-1.28-.54-1.28-1.24 0-.68.5-1.35 1.3-1.35.7 0 1.28.67 1.28 1.35m-.56 3.37l-2.9 11.45c-.6 2.37-2.1 5.47-5.02 5.47-1.43 0-1.97-.9-1.97-1.65 0-.6.32-1.4 1.27-1.4.5 0 .94.4.94 1.03 0 .4-.43.48-.43.9 0 .12.13.28.27.28 1.24 0 2.13-2.05 2.77-4.63l2.48-9.78c0-.33-.27-.6-.86-.6-.23 0-.55.06-.74.14l-.08-.46M532.4 2109.8h-31.3v-3.5h31.3v3.5m0 10.63h-31.3v-3.5h31.3v3.5M556.04 2115.1h50.8v-3.17h-50.8zM566.6 2080.1l-.37-.75c1.06-.64 2.4-.87 3.7-.87 4.72 0 7.05 3.38 7.05 9.77 0 5.56-2.3 15.74-11.08 15.74-3.7 0-5.1-2.9-5.1-6.1 0-5.3 4.16-10.66 9.64-10.66 1.2 0 2.82.4 3.6 1.8.16-.83.27-1.73.27-2.63 0-3.3-1.08-6.8-4.9-6.8-1.02 0-1.85.2-2.8.5m6.47 11.5c0-2.45-1.28-3.24-2.3-3.24-3.7 0-6.94 5.6-6.94 10.83 0 1.4.15 3.67 2.52 3.67 2.9 0 5.1-3.76 6.16-7.6.35-1.23.57-2.5.57-3.67M602.08 2096.44l-2.3 7.14h-21.37l.16-.6h.64c2.8 0 3.72-1.05 4.02-2.33l4.43-17.92c.15-.6.26-1.35.26-1.7 0-.7-.5-1.38-2.84-1.38h-.68l.15-.6h12.3l-.16.6H596c-2.83 0-3.62.97-3.95 2.36l-4.6 18.1c-.14.55-.18 1.08-.18 1.15 0 .83 1.06.9 1.5.9h4.6c3.82 0 5.74-.82 7.47-4.32.26-.4.45-.86.64-1.4h.6M566.56 2124.7l-.38-.77c1.05-.63 2.4-.86 3.68-.86 4.74 0 7.07 3.38 7.07 9.77 0 5.56-2.3 15.74-11.1 15.74-3.67 0-5.1-2.9-5.1-6.08 0-5.3 4.17-10.67 9.66-10.67 1.2 0 2.8.4 3.6 1.8.15-.83.26-1.73.26-2.63 0-3.3-1.1-6.8-4.92-6.8-1.02 0-1.84.2-2.78.5m6.46 11.48c0-2.44-1.28-3.23-2.3-3.23-3.7 0-6.94 5.6-6.94 10.82 0 1.43.15 3.7 2.5 3.7 2.9 0 5.12-3.77 6.18-7.6.33-1.24.56-2.52.56-3.7M603.64 2131.68v.6c-3.6.48-4.55 4.66-5.3 8-1.1 4.8-5.4 8.3-10.07 8.3l-1.57 6.47h-3.05l1.62-6.47h-.38c-2.94 0-5.76-1.54-5.76-6.2 0-2.1 1.2-4.36 1.2-6.87 0-1.5-.52-3.04-2.3-3.22l.2-.6c.72-.08 1.4-.08 2.07-.08 2.15 0 3.3 2.03 3.3 4.17 0 2.1-1.15 4.77-1.15 6.95 0 2.82 1.2 4.47 3.12 4.74l3.76-15.37h3.04l-3.76 15.36c2.75-.53 5.46-2.94 6.4-7.03 1.05-4.5 1.92-8.75 7.66-8.75h.98M635.92 2113.36c0 1.7-1.44 3.2-3.14 3.2-1.75 0-3.24-1.6-3.24-3.2s1.5-3.2 3.24-3.2c1.7 0 3.14 1.5 3.14 3.2M658.5 2115.1h67.44v-3.17H658.5zM677.3 2073.67l-.37-.75c1.06-.64 2.4-.87 3.7-.87 4.72 0 7.05 3.38 7.05 9.77 0 5.56-2.3 15.74-11.08 15.74-3.7 0-5.1-2.9-5.1-6.08 0-5.3 4.16-10.67 9.64-10.67 1.2 0 2.82.42 3.6 1.8.16-.82.27-1.72.27-2.62 0-3.3-1.08-6.8-4.9-6.8-1.02 0-1.85.2-2.8.5m6.47 11.5c0-2.46-1.28-3.25-2.3-3.25-3.7 0-6.94 5.6-6.94 10.82 0 1.43.15 3.7 2.52 3.7 2.9 0 5.1-3.77 6.16-7.6.35-1.24.57-2.52.57-3.68M714.4 2080.66v.6c-3.6.5-4.55 4.66-5.3 8-1.1 4.8-5.4 8.3-10.07 8.3l-1.58 6.47h-3.05l1.62-6.47h-.38c-2.93 0-5.74-1.54-5.74-6.2 0-2.1 1.2-4.35 1.2-6.87 0-1.5-.53-3.05-2.3-3.24l.2-.6c.7-.08 1.38-.08 2.06-.08 2.14 0 3.3 2.03 3.3 4.17 0 2.1-1.16 4.77-1.16 6.95 0 2.82 1.2 4.47 3.12 4.74l3.76-15.37h3.04l-3.76 15.37c2.75-.53 5.45-2.93 6.4-7.03 1.04-4.5 1.9-8.74 7.66-8.74h.97M669.02 2124.7l-.38-.77c1.05-.63 2.4-.86 3.7-.86 4.72 0 7.05 3.38 7.05 9.77 0 5.56-2.3 15.74-11.1 15.74-3.68 0-5.1-2.9-5.1-6.08 0-5.3 4.17-10.67 9.65-10.67 1.2 0 2.82.4 3.6 1.8.16-.83.27-1.73.27-2.63 0-3.3-1.1-6.8-4.92-6.8-1.02 0-1.84.2-2.78.5m6.46 11.48c0-2.44-1.28-3.23-2.3-3.23-3.7 0-6.94 5.6-6.94 10.82 0 1.43.15 3.7 2.52 3.7 2.9 0 5.1-3.77 6.16-7.6.34-1.24.56-2.52.56-3.7M699.34 2131.26l-3 10.86c-.23.86-.46 1.73-.46 2.63 0 1.47.72 2.3 2.22 2.3 4.06 0 6.16-4.33 7.33-7.63.3-.9.56-1.85.56-2.8 0-2.77-2.23-2.47-2.3-4.08-.08-1.35 1.13-1.58 2.03-1.58 1.58 0 1.76 1.92 1.76 3.12 0 5.5-3.95 14.43-10.38 14.43-2.6 0-4.17-1.04-4.17-3.75 0-1.58.45-3.2.87-4.7-1.5 3.35-4.6 8.46-8.8 8.46-2.1 0-2.93-1.27-2.93-3.26 0-1.24.4-2.4.7-3.57l1.77-6.65c.12-.34.2-.7.2-1.1 0-.9-1.44-.82-2.04-.82v-.56c2-.34 3.95-.86 5.83-1.65l.15.1-3.04 11.53c-.1.5-.4 1.7-.4 2.75 0 .97.22 1.76 1.04 1.76 2.18-.04 4.85-4.28 5.75-5.67 2-3.04 2.97-5.98 4.13-10.1h3.16M718.57 2138.58c0 .7-.6 1.24-1.3 1.24-.78 0-1.3-.54-1.3-1.24 0-.68.52-1.35 1.3-1.35.7 0 1.3.67 1.3 1.35m-.57 3.37l-2.9 11.45c-.6 2.37-2.1 5.47-5.02 5.47-1.43 0-1.97-.9-1.97-1.65 0-.6.33-1.4 1.28-1.4.5 0 .94.4.94 1.03 0 .4-.43.48-.43.9 0 .12.12.28.26.28 1.24 0 2.13-2.05 2.77-4.63l2.48-9.78c0-.33-.26-.6-.85-.6-.2 0-.54.06-.73.14l-.08-.46"/><path d="M910.7 1985.88h33.5v40.76h-33.5z" fill-opacity="0"/><path d="M939.94 2000.9c0 .7-.5 1.47-1.4 2-1.6.95-5.3.95-9.92 3.57 4.03 2.37 8.12 2.56 9.85 3.58.9.5 1.34 1.28 1.34 2.05 0 1.28-.88 2.5-2.48 2.5-2.62 0-4.22-4.48-9.15-7.3 0 4.4 1.86 8.38 1.86 10.36 0 1.35-1.28 2.7-2.43 2.7-1.22 0-2.43-1.35-2.43-2.7 0-1.98 1.85-5.95 1.85-10.36-3.33 1.92-6.33 5.95-7.74 6.72-.58.32-1.15.5-1.73.5-1.53 0-2.36-.95-2.36-2.04 0-.9.37-1.92 1.33-2.5 1.73-.95 6.46-1.6 9.8-3.5-3.34-1.93-8.27-2.57-10.06-3.66-.83-.5-1.28-1.2-1.28-1.92 0-1.34.95-2.68 2.3-2.68.44 0 .9.12 1.4.38 1.86 1.1 4.67 5 8.32 6.9 0-4.4-1.85-8.63-1.85-10.6 0-1.35 1.2-2.57 2.43-2.57 1.15 0 2.43 1.22 2.43 2.56 0 1.97-1.86 6.13-1.86 10.55 4.6-2.44 6.33-5.83 8.06-6.85.5-.26.96-.38 1.4-.38 1.35 0 2.3 1.34 2.3 2.68"/><path d="M663.34 1570l255.55 169.75-51.14 76.97-255.55-169.74z" fill="#fff3d9"/><path d="M644.3 1610.8l61.8 41.06 1.86-2.8-61.8-41.05zM682.57 1591.94l.1-.88c1.3.05 2.63.64 3.75 1.4 4.15 2.75 4.22 7.08.5 12.68-3.24 4.88-11.2 12.48-18.9 7.36-3.24-2.15-2.8-5.52-.94-8.32 3.1-4.65 9.88-6.94 14.7-3.74 1.05.7 2.23 2 2.1 3.7.62-.65 1.25-1.38 1.77-2.17 1.93-2.9 3-6.6-.35-8.84-.9-.6-1.73-.9-2.73-1.2m-1.03 13.87c1.43-2.15.76-3.58-.13-4.17-3.25-2.17-9.35.86-12.4 5.44-.83 1.25-2 3.32.07 4.7 2.54 1.7 6.67-.32 9.83-3.07 1.02-.9 1.96-1.88 2.64-2.9M704.17 1626.96l-6.17 4.93-18.76-12.47.48-.44.56.36c2.47 1.64 3.88 1.25 4.9.3l14.33-13.15c.5-.43 1.03-1.02 1.22-1.32.42-.62.35-1.52-1.7-2.88l-.6-.4.5-.44 10.78 7.17-.48.44-.6-.4c-2.47-1.64-3.73-1.24-4.84-.22l-14.56 13.2c-.46.4-.8.84-.84.9-.48.73.4 1.4.8 1.67l4 2.67c3.38 2.23 5.54 2.62 9.1.56.47-.2.9-.5 1.37-.85l.52.36M647.95 1625.34l.1-.88c1.3.06 2.62.65 3.74 1.4 4.15 2.75 4.22 7.08.5 12.68-3.24 4.88-11.2 12.48-18.9 7.36-3.24-2.15-2.8-5.52-.94-8.32 3.08-4.65 9.88-6.94 14.7-3.74 1.05.7 2.22 2 2.1 3.7.62-.65 1.24-1.38 1.77-2.17 1.93-2.9 3-6.6-.35-8.84-.9-.6-1.73-.9-2.73-1.2m-1.03 13.87c1.42-2.14.76-3.58-.13-4.17-3.27-2.17-9.37.86-12.42 5.44-.83 1.26-2 3.32.07 4.7 2.53 1.7 6.67-.32 9.83-3.07 1.02-.9 1.96-1.88 2.64-2.9M670.73 1648.8l-8.97 7.77c-.7.62-1.4 1.25-1.93 2.04-.85 1.3-.7 2.44.6 3.32 3.57 2.36 7.94-.2 10.9-2.43.78-.62 1.56-1.3 2.1-2.12 1.62-2.44-.5-3.47.38-4.93.73-1.23 1.92-.73 2.7-.2 1.4.92.44 2.7-.26 3.77-3.2 4.8-11.87 10.36-17.5 6.6-2.3-1.5-3.06-3.34-1.48-5.72.92-1.38 2.26-2.54 3.5-3.6-3.27 2.04-8.96 4.73-12.65 2.28-1.84-1.23-1.82-2.83-.66-4.58.73-1.1 1.77-1.87 2.7-2.7l5.44-4.82c.3-.23.58-.52.8-.85.52-.8-.77-1.56-1.3-1.9l.33-.5c1.95.86 3.98 1.54 6.08 1.94l.07.2-9.4 8.34c-.38.37-1.34 1.25-1.96 2.18-.58.85-.84 1.68-.1 2.16 1.92 1.24 6.74-.93 8.34-1.63 3.52-1.5 6.1-3.5 9.52-6.45l2.77 1.84M674.97 1680.15l-6.53-4.34.24-.34c1.8 1.07 2.64.9 3.5-.4l7.05-10.62c.54-.8.56-1.3.06-1.63-.24-.15-.72-.3-1.26-.4l-.8-.2.22-.33 5.67.66.16.2-9.4 14.13c-.66 1.02-.47 1.76 1.3 2.93l-.23.35M757.48 1679.26L730 1661l2.05-3.06 27.47 18.24-2.04 3.08m-6.2 9.33l-27.47-18.26 2.05-3.08 27.48 18.25-2.05 3.1M809.58 1705.87l-.5.75c-4.88-2.37-9.48 2.03-13.17 5.56-5.3 5.08-13.56 5.85-19.34 2l-7.3 6.73-3.76-2.5 7.33-6.7-.47-.3c-3.63-2.42-5.86-6.65-2.02-12.44 1.73-2.6 5.1-4.42 7.16-7.54 1.24-1.87 1.86-4.2-.18-5.9l.73-.6c.95.5 1.8 1.06 2.63 1.62 2.66 1.76 2.43 5.24.66 7.9-1.73 2.6-5.38 4.96-7.18 7.67-2.32 3.5-2.2 6.55-.03 8.46l17.34-15.98 3.78 2.5-17.34 16c3.85 1.6 9.2.84 13.73-3.47 5.03-4.72 9.6-9.27 16.74-4.53l1.2.8M823.64 1727.7c-1 1.5-3.12 1.98-4.6.98-1.55-1.02-1.93-3.28-1-4.68.93-1.4 3.17-1.94 4.7-.9 1.5.98 1.9 3.12.9 4.6M868.78 1744.46l-12.68 11c-1 .88-2 1.77-2.73 2.9-1.2 1.8-1 3.42.86 4.66 5.04 3.35 11.22-.28 15.4-3.42 1.1-.87 2.2-1.82 2.98-3 2.3-3.44-.7-4.9.54-6.96 1.02-1.74 2.7-1.03 3.82-.3 1.96 1.3.6 3.85-.38 5.34-4.52 6.8-16.8 14.66-24.77 9.36-3.2-2.14-4.3-4.75-2.07-8.1 1.3-1.96 3.2-3.6 4.95-5.12-4.63 2.9-12.66 6.7-17.9 3.24-2.6-1.73-2.57-4-.93-6.47 1.02-1.55 2.5-2.66 3.83-3.86l7.68-6.8c.4-.32.82-.73 1.13-1.2.73-1.1-1.1-2.2-1.85-2.7l.46-.7c2.77 1.23 5.62 2.2 8.6 2.76l.1.26-13.3 11.8c-.53.53-1.9 1.77-2.76 3.08-.8 1.2-1.18 2.37-.15 3.06 2.72 1.75 9.54-1.32 11.8-2.3 4.98-2.14 8.6-4.98 13.47-9.15l3.9 2.6M880.18 1785.9l-4.78 3.33-12.9-8.57.27-.4 10-2.33c5.28-1.2 8.13-2.92 10-5.73 2-3 1.3-5.83-1.5-7.7-2.38-1.57-4.23-1.28-7.7 1.08l-.58-.63c3.24-3.4 7.15-4.7 11.2-2 3.73 2.47 4.42 6.6 2.25 9.85-1.73 2.6-4.66 4.23-9.65 5.38l-9.3 2.2 7.72 5.1c1.4.93 2.32 1.03 4.63-.1"/><path d="M624.44 2419.53l254.77-207.77 64.44 79-254.77 207.78z" fill="#fff3d9"/><path d="M659.87 2451.68l58.5-47.72-2.25-2.76-58.5 47.7zM651.46 2407.96l-.86-.4c.46-1.3 1.48-2.44 2.58-3.34 4.1-3.35 8.52-2.07 13.04 3.47 3.94 4.82 9.15 15.27 1.53 21.5-3.2 2.6-6.48 1.1-8.74-1.67-3.74-4.6-3.92-12.2.83-16.1 1.05-.84 2.74-1.63 4.4-.98-.45-.82-1-1.68-1.62-2.47-2.33-2.86-5.75-5.13-9.08-2.4-.88.7-1.46 1.45-2.06 2.38m13.74 5.4c-1.73-2.12-3.4-1.9-4.28-1.18-3.22 2.63-2.06 9.77 1.63 14.3 1 1.24 2.74 3.1 4.8 1.42 2.5-2.05 1.76-6.88-.03-10.95-.6-1.3-1.3-2.58-2.12-3.6M693.8 2397.04l3.06 7.82-18.55 15.12-.3-.63.57-.45c2.44-2 2.48-3.54 1.84-4.86l-8.83-18.7c-.3-.62-.73-1.35-.97-1.64-.5-.62-1.44-.83-3.46.8l-.58.5-.3-.64 10.66-8.7.3.64-.6.48c-2.44 2-2.43 3.4-1.74 4.84l8.8 18.92c.28.6.62 1.08.67 1.15.6.7 1.55.03 1.94-.3l3.97-3.24c3.33-2.7 4.4-4.78 3.43-9.03-.06-.55-.22-1.07-.43-1.66l.52-.43M675.77 2452.54l-.86-.38c.47-1.3 1.48-2.46 2.6-3.36 4.1-3.35 8.5-2.06 13.03 3.48 3.94 4.82 9.15 15.28 1.52 21.5-3.2 2.6-6.48 1.1-8.74-1.67-3.73-4.58-3.92-12.2.84-16.08 1.05-.85 2.74-1.63 4.4-.98-.45-.83-1-1.7-1.63-2.47-2.32-2.87-5.74-5.13-9.07-2.42-.88.72-1.46 1.47-2.06 2.4m13.74 5.4c-1.72-2.12-3.4-1.9-4.27-1.2-3.22 2.64-2.07 9.8 1.63 14.32 1 1.24 2.73 3.1 4.8 1.4 2.5-2.04 1.76-6.86-.04-10.93-.58-1.32-1.3-2.6-2.1-3.6M706.72 2436.8l5.08 11.54c.4.9.83 1.82 1.47 2.6 1.04 1.27 2.24 1.48 3.54.42 3.53-2.87 2.3-8.1.97-11.8-.37-1-.8-2-1.48-2.8-1.97-2.42-3.68-.6-4.9-1.94-1-1.12-.13-2.17.65-2.8 1.37-1.12 2.9.4 3.74 1.45 3.87 4.76 6.78 15.3 1.2 19.85-2.25 1.84-4.36 2.04-6.27-.3-1.12-1.37-1.87-3.1-2.58-4.7 1.06 3.97 2 10.6-1.64 13.56-1.82 1.5-3.44.97-4.85-.76-.88-1.07-1.34-2.38-1.9-3.6l-3.18-7.02c-.14-.37-.34-.75-.6-1.08-.64-.78-1.83.3-2.35.72l-.4-.5c1.5-1.7 2.8-3.53 3.88-5.54h.2l5.53 12.15c.25.5.84 1.76 1.6 2.67.68.85 1.43 1.37 2.15.8 1.86-1.6 1.17-7.16.97-9-.42-4.05-1.65-7.28-3.56-11.7l2.72-2.23M728.58 2429.54c.5.6.36 1.5-.25 2-.67.54-1.5.44-2-.17-.47-.6-.5-1.53.17-2.1.6-.48 1.6-.32 2.08.27m1.9 3.32l5.57 12c1.16 2.47 2.04 6.23-.48 8.28-1.24 1-2.34.62-2.87-.03-.42-.5-.7-1.43.1-2.1.45-.36 1.1-.32 1.55.22.3.35-.03.73.27 1.1.08.1.3.14.43.04 1.07-.87.4-3.28-.87-5.98l-4.77-10.24c-.22-.28-.64-.32-1.16.1-.2.15-.43.42-.53.63l-.4-.34M762.34 2360.44l-27.16 22.14-2.48-3.04 27.15-22.15 2.5 3.04m7.5 9.22l-27.15 22.14-2.48-3.04 27.15-22.15 2.5 3.06M811.8 2310.96l.6.73c-3.93 4.2-.9 10.26 1.5 15.12 3.5 7 1.68 15.6-4.03 20.26l4.53 9.5-3.74 3.06-4.48-9.55-.46.37c-3.6 2.93-8.6 3.86-13.26-1.86-2.1-2.57-2.9-6.54-5.4-9.63-1.5-1.84-3.7-3.2-6.05-1.67l-.36-.93c.8-.8 1.63-1.48 2.46-2.16 2.63-2.13 6.08-.8 8.23 1.82 2.1 2.6 3.34 7.02 5.52 9.7 2.82 3.46 5.95 4.28 8.57 2.7l-10.77-22.63 3.74-3.06 10.75 22.62c2.84-3.4 3.76-9.05.8-15-3.2-6.6-6.4-12.67.65-18.43l1.2-.97M808.8 2294.2l1.2-.97c3.12 5.6 1.3 10.6-4.74 15.54-5.95 4.85-7.43 4.83-18.44 10.43-5.08 2.6-8.63 4.66-10.43 6.13-4.35 3.53-6 7.26-4.6 10.74l-1.2.98c-3.3-5.92-1.16-10.73 4.2-15.1 2.85-2.33 9.17-5.87 18.7-10.57 5.15-2.52 8.76-4.7 10.7-6.27 4.56-3.7 6.2-7.52 4.6-10.9M846.1 2297.27c1.2 1.48 1 3.78-.47 5-1.53 1.23-3.94.9-5.07-.48-1.13-1.4-.97-3.83.55-5.07 1.5-1.2 3.8-.93 5 .54M872.9 2272.72l-.52-4.87c-.3-2.82-.35-6.17 1.96-8.05 1.47-1.2 2.7-1.3 3.5-.32.7.88.98 2.43-.22 3.4-1.02.83-1.58.6-2.37 1.25-1.38 1.12-1.3 2.27-1.1 3.82l.65 5.98c3.72 1.73 9.86 7.1 11.93 5.4.74-.6 1.32-2.15.67-4.92l1.02-.06c0 1.15 1.55 7.26-1.13 9.44-1.9 1.55-4.32.37-6.27-.8l-6.1-3.7.8 6.88c.36 3.46.64 6.54-1.95 8.64-1.66 1.35-3.33.8-4.16-.2-.6-.75-.8-2.2.36-3.15 1.2-.97 1.77.1 2.92-.84.55-.44 1.38-1.88 1-5.34l-.8-7.1-4.97-3c-2.6-1.58-5.33-2.5-7.87-.42-.6.5-1.2 1.14-1.52 1.7l-.82-.7 4.85-6.5c2.93-.55 5.34.63 7.14 1.7M906.5 2255.77l.18.5c-2 2-2.44 3.34-2.8 5.42l-1 5.8 6.12 3.26c1.42.75 2.45 1.2 3.3.52.97-.8.55-2.8.47-4.35l.78-.04c.17 1 1.48 5.73-.74 7.54-1.5 1.22-3.58.05-4.63-.5l-5.96-3.12-.52 3.1 2.95 6.6-2.48 2-10.83-23.12c-.1-.25-.25-.5-.43-.73-.3-.36-.92-.45-1.64.13-.3.24-.62.5-.83.8l-.47-.4 4.5-5 8.43 17.86 1.47-9.3c.1-.6.07-1.3-.27-1.73-.32-.4-1.03-.2-1.36.08l-.4.32-.18-.5 6.33-5.15"/><path d="M1287.86 2074c0 3.3-2.7 6-6 6h-112c-3.32 0-6 2.7-6 6v8c0 3.3-1.8 4-4.02 1.54l-27.97-31.08c-2.2-2.46-2.2-6.46 0-8.92l27.97-31.08c2.22-2.46 4.02-1.77 4.02 1.54v8c0 3.3 2.68 6 6 6h112c3.3 0 6 2.7 6 6z" stroke="#5e5e5e" stroke-width="2" fill="#fff"/><use xlink:href="#a" transform="matrix(1,-2.4492935982947064e-16,2.4492935982947064e-16,1,1132.8586033283038,2024.9999999999998) translate(13.696358024691358 39.65277777777778)"/><use xlink:href="#b" transform="matrix(1,-2.4492935982947064e-16,2.4492935982947064e-16,1,1132.8586033283038,2024.9999999999998) translate(104.93092592592592 39.65277777777778)"/><path d="M781.34 1833.18c-1.67 2.86-5.34 3.82-8.2 2.15l-96.7-56.5c-2.87-1.68-6.54-.72-8.2 2.15l-4.05 6.9c-1.68 2.86-3.58 2.55-4.25-.7l-8.47-40.94c-.67-3.25 1.34-6.7 4.5-7.7l39.83-12.72c3.17-1 4.37.5 2.7 3.35l-4.04 6.9c-1.67 2.87-.7 6.55 2.16 8.22l96.7 56.5c2.86 1.67 3.82 5.34 2.15 8.2z" stroke="#5e5e5e" stroke-width="2" fill="#fff"/><use xlink:href="#a" transform="matrix(0.8633869746220096,0.5045422995676907,-0.5045422995676907,0.8633869746220096,672.2394009534717,1712.6684363771767) translate(13.696358024691358 39.65277777777778)"/><use xlink:href="#b" transform="matrix(0.8633869746220096,0.5045422995676907,-0.5045422995676907,0.8633869746220096,672.2394009534717,1712.6684363771767) translate(104.93092592592592 39.65277777777778)"/><path d="M807.35 2217c2.13 2.53 1.8 6.3-.74 8.44l-85.77 72c-2.54 2.13-2.87 5.92-.74 8.46l5.13 6.13c2.13 2.53 1.2 4.22-2.08 3.76l-41.4-5.84c-3.3-.46-5.86-3.52-5.75-6.83l1.45-41.8c.1-3.3 1.93-3.93 4.06-1.4l5.16 6.14c2.13 2.54 5.9 2.87 8.45.74l85.8-72c2.54-2.13 6.32-1.8 8.45.74z" stroke="#5e5e5e" stroke-width="2" fill="#fff"/><use xlink:href="#a" transform="matrix(0.7659684909041078,-0.6428781151525409,0.6428781151525409,0.7659684909041078,657.1260266430677,2279.1024662099835) translate(13.696358024691358 39.65277777777778)"/><use xlink:href="#b" transform="matrix(0.7659684909041078,-0.6428781151525409,0.6428781151525409,0.7659684909041078,657.1260266430677,2279.1024662099835) translate(104.93092592592592 39.65277777777778)"/><path d="M386.4 2440H462v62.68H386.4z" fill="#fff" fill-opacity="0"/><path d="M421.28 2448l-5.25 19c-.4 1.5-.8 3.03-.8 4.6 0 2.57 1.26 4 3.9 4 7.08 0 10.76-7.55 12.8-13.33.53-1.58 1-3.22 1-4.86 0-4.85-3.9-4.33-4.02-7.15-.12-2.37 1.98-2.76 3.56-2.76 2.76 0 3.08 3.34 3.08 5.44 0 9.6-6.9 25.24-18.13 25.24-4.53 0-7.3-1.84-7.3-6.58 0-2.76.8-5.58 1.52-8.2-2.63 5.84-8 14.78-15.37 14.78-3.68 0-5.13-2.24-5.13-5.72 0-2.17.72-4.2 1.25-6.25l3.1-11.62c.18-.6.32-1.25.32-1.9 0-1.58-2.5-1.45-3.56-1.45v-.98c3.48-.6 6.9-1.52 10.18-2.9l.27.2-5.34 20.18c-.2.85-.72 2.95-.72 4.8 0 1.7.4 3.08 1.84 3.08 3.8-.05 8.48-7.48 10.05-9.9 3.5-5.33 5.2-10.46 7.23-17.7h5.52M454.6 2461.18c0 1.2-1.03 2.14-2.24 2.14-1.34 0-2.23-.93-2.23-2.14 0-1.16.9-2.32 2.23-2.32 1.2 0 2.23 1.16 2.23 2.32m-.98 5.8l-5.02 19.76c-1.02 4.1-3.62 9.43-8.64 9.43-2.46 0-3.4-1.53-3.4-2.84 0-1.02.56-2.4 2.2-2.4.87 0 1.62.7 1.62 1.75 0 .7-.75.84-.75 1.58 0 .2.24.47.47.47 2.14 0 3.67-3.53 4.78-8l4.28-16.86c0-.56-.47-1.02-1.5-1.02-.36 0-.92.1-1.24.23l-.14-.8"/><path d="M1680 2008.5c0 103.27-80.6 187-180 187s-180-83.73-180-187c0-103.26 80.6-186.98 180-186.98s180 83.72 180 187z" stroke="#5e5e5e" stroke-width="3" fill="#c3f7c8"/><g><path d="M1625.48 2360.2c-2.83 1.74-6.52.84-8.24-2l-58.3-95.62c-1.73-2.83-5.42-3.72-8.25-2l-6.84 4.17c-2.83 1.72-4.35.55-3.4-2.63l11.98-40.06c.94-3.18 4.35-5.25 7.6-4.64l41.1 7.7c3.27.6 3.6 2.5.78 4.23l-6.83 4.16c-2.84 1.74-3.73 5.43-2 8.26l58.3 95.63c1.72 2.82.82 6.5-2 8.24z" stroke="#5e5e5e" stroke-width="3" fill="#fff"/></g><g><use xlink:href="#a" transform="matrix(0.5205254908192363,0.8538461298192977,-0.8538461298192977,0.5205254908192363,1586.6410871905432,2202.360949619368) translate(13.696358024691358 39.65277777777778)"/><use xlink:href="#b" transform="matrix(0.5205254908192363,0.8538461298192977,-0.8538461298192977,0.5205254908192363,1586.6410871905432,2202.360949619368) translate(104.93092592592592 39.65277777777778)"/></g><g opacity=".35"><path d="M1797.74 1778.3c-31.5-38.44-24.7-96.13 15.23-128.84 39.92-32.72 97.82-28.07 129.33 10.37 31.5 38.45 24.68 96.14-15.24 128.85-39.92 32.7-97.82 28.07-129.32-10.38z" stroke="#5e5e5e" stroke-width="3" fill="#c3f7c8"/></g><g opacity=".35"><path d="M1812.23 1417.35c-31.5-38.45-24.7-96.14 15.23-128.85 39.92-32.7 97.82-28.07 129.33 10.38 31.5 38.44 24.67 96.13-15.25 128.84-39.92 32.72-97.82 28.07-129.32-10.37z" stroke="#5e5e5e" stroke-width="3" fill="#edf5ff"/></g><g opacity=".35" stroke="#5e5e5e"><path d="M1881.2 1453.5l-10.86 148" stroke-width="5" fill="none"/><path d="M1883.68 1453.73l-5-.36.2-2.4 1.42.04 3.6-.05z" stroke-width=".05" fill="#5e5e5e"/><path d="M1869.1 1618.23l-3.57-14.56 9.25.68z" stroke-width="5" fill="#5e5e5e"/></g><g opacity=".35" stroke="#5e5e5e" stroke-width="5"><path d="M2132.06 1763.16l-147.48-18.46M2132 1763.15l2.54.32" fill="none"/><path d="M1967.94 1742.62l14.73-2.83-1.15 9.2z" fill="#5e5e5e"/></g><g opacity=".35" stroke="#5e5e5e"><path d="M1794.77 1780.98l-120.17 115.14" stroke-width="5" fill="none"/><path d="M1796.57 1779.24l1.12 1.35.5.56-1.75 1.67-3.46-3.6 2.03-1.96z" stroke-width=".05" fill="#5e5e5e"/><path d="M1662.5 1907.72l7.1-13.22 6.4 6.7z" stroke-width="5" fill="#5e5e5e"/></g><g opacity=".35"><path d="M1329.25 1691.73c-42.5 25.8-98.65 10.93-125.43-33.2-26.77-44.12-14.04-100.8 28.46-126.58 42.5-25.8 98.64-10.93 125.42 33.2 26.78 44.12 14.04 100.8-28.45 126.58z" stroke="#5e5e5e" stroke-width="3" fill="#c3f7c8"/></g><g opacity=".35"><path d="M973.9 1626.65c-42.48 25.8-98.64 10.93-125.4-33.2-26.8-44.12-14.05-100.8 28.44-126.58 42.5-25.8 98.65-10.93 125.42 33.2 26.78 44.1 14.04 100.8-28.45 126.58z" stroke="#5e5e5e" stroke-width="3" fill="#edf5ff"/></g><g opacity=".35" stroke="#5e5e5e"><path d="M1019.4 1563.45L1164.4 1595" stroke-width="5" fill="none"/><path d="M1019.98 1561.02l-1.06 4.88-2.36-.5.25-1.42.45-3.56z" stroke-width=".05" fill="#5e5e5e"/><path d="M1180.8 1598.57l-14.92 1.5 1.97-9.07z" stroke-width="5" fill="#5e5e5e"/></g><g opacity=".35" stroke="#5e5e5e" stroke-width="5"><path d="M1361.25 1358.6l-39 143.42M1361.23 1358.66l.68-2.48" fill="none"/><path d="M1317.84 1518.2l-.72-14.98 8.94 2.43z" fill="#5e5e5e"/></g><g opacity=".35" stroke="#5e5e5e"><path d="M1331.33 1695.15l75.26 123.17" stroke-width="5" fill="none"/><path d="M1333.5 1693.9l-4.27 2.6-1.38-2.25 2.17-1.23 1.48-.92.64-.43z" stroke-width=".05" fill="#5e5e5e"/><path d="M1415.33 1832.62l-11.4-9.75 7.92-4.84z" stroke-width="5" fill="#5e5e5e"/></g><path d="M1588.4 2176l118.13 183.1" stroke="#5e5e5e" stroke-width="5" fill="none"/><path d="M1590.54 2174.7l-4.2 2.72-1.5-2.3 3.22-1.76 1.16-.7z" stroke="#5e5e5e" stroke-width=".05" fill="#5e5e5e"/><path d="M1715.6 2373.2l-11.6-9.47 7.78-5.03z" stroke="#5e5e5e" stroke-width="5" fill="#5e5e5e"/><path d="M1478.07 1985.88h39.95v56.96h-39.95z" fill-opacity="0"/><path d="M1516.46 2021.56l-1.8 13.05H1480v-.95l17.07-19.77-17.08-20.66v-.96h33.64v10.3h-1.6c-.96-6.52-3.96-7.87-9.6-7.87h-13.3l13.56 16.43-15.16 17.4h19.83c4.93 0 6.66-2.1 7.62-6.97h1.46"/><path d="M1188.5 1928.15h40.38v43.35h-40.38z" fill="#fff" fill-opacity="0"/><path d="M1228.86 1932.1v.9c-5.45.74-6.87 7.04-8 12.1-1.65 7.26-8.18 12.53-15.22 12.53l-2.38 9.77h-4.6l2.44-9.77h-.57c-4.42 0-8.68-2.32-8.68-9.36 0-3.18 1.82-6.58 1.82-10.4 0-2.26-.8-4.58-3.47-4.87l.3-.9c1.07-.12 2.1-.12 3.1-.12 3.24 0 5 3.06 5 6.3 0 3.18-1.76 7.2-1.76 10.5 0 4.26 1.82 6.75 4.72 7.15l5.67-23.2h4.6l-5.68 23.2c4.15-.8 8.23-4.43 9.65-10.6 1.6-6.82 2.9-13.24 11.58-13.24h1.48"/><g><path d="M1692.96 1928.2c-2.35-2.34-2.35-6.14 0-8.48l89.86-89.86c2.34-2.34 2.34-6.14 0-8.5l-6.24-6.23c-2.35-2.34-1.56-4.1 1.74-3.93l44 2.32c3.3.17 6.12 3 6.3 6.3l2.3 44c.18 3.3-1.57 4.08-3.92 1.74l-6.24-6.24c-2.34-2.35-6.14-2.35-8.48 0l-89.87 89.86c-2.33 2.34-6.13 2.34-8.47 0z" stroke="#5e5e5e" stroke-width="2" fill="#fff"/></g><g><use xlink:href="#a" transform="matrix(0.7071067811865476,-0.7071067811865475,0.7071067811865475,0.7071067811865476,1681.0572015300743,1909.2362893559568) translate(14.191358024691368 40.90277777777778)"/><use xlink:href="#b" transform="matrix(0.7071067811865476,-0.7071067811865475,0.7071067811865475,0.7071067811865476,1681.0572015300743,1909.2362893559568) translate(105.42592592592592 40.90277777777778)"/></g><g><path d="M1367.1 1864.72c-2.8 1.73-6.5.83-8.23-2l-58.3-95.63c-1.73-2.84-5.42-3.73-8.25-2l-6.83 4.16c-2.84 1.72-4.36.55-3.4-2.63l11.97-40.06c.95-3.18 4.35-5.25 7.6-4.64l41.1 7.7c3.27.6 3.6 2.5.78 4.23l-6.83 4.17c-2.83 1.72-3.72 5.4-2 8.24l58.3 95.63c1.73 2.83.83 6.52-2 8.25z" stroke="#5e5e5e" stroke-width="3" fill="#fff"/></g><g><use xlink:href="#a" transform="matrix(0.5205254908192363,0.8538461298192977,-0.8538461298192977,0.5205254908192363,1328.271803347845,1706.871858103193) translate(13.696358024691358 39.65277777777778)"/><use xlink:href="#b" transform="matrix(0.5205254908192363,0.8538461298192977,-0.8538461298192977,0.5205254908192363,1328.271803347845,1706.871858103193) translate(104.93092592592592 39.65277777777778)"/></g><defs><path fill="#333" d="M143 4C61 4 22-44 18-125c-5-107 100-154 193-111 17 8 29 25 37 43l-32 9c-13-25-37-40-76-40-61 0-88 39-88 99 0 61 29 100 91 101 35 0 62-11 79-27v-45h-74v-28h105v86C228-13 192 4 143 4" id="c"/><path fill="#333" d="M114-163C36-179 61-72 57 0H25l-1-190h30c1 12-1 29 2 39 6-27 23-49 58-41v29" id="d"/><path fill="#333" d="M141-36C126-15 110 5 73 4 37 3 15-17 15-53c-1-64 63-63 125-63 3-35-9-54-41-54-24 1-41 7-42 31l-33-3c5-37 33-52 76-52 45 0 72 20 72 64v82c-1 20 7 32 28 27v20c-31 9-61-2-59-35zM48-53c0 20 12 33 32 33 41-3 63-29 60-74-43 2-92-5-92 41" id="e"/><path fill="#333" d="M85-194c31 0 48 13 60 33l-1-100h32l1 261h-30c-2-10 0-23-3-31C134-8 116 4 85 4 32 4 16-35 15-94c0-66 23-100 70-100zm9 24c-40 0-46 34-46 75 0 40 6 74 45 74 42 0 51-32 51-76 0-42-9-74-50-73" id="f"/><path fill="#333" d="M24-231v-30h32v30H24zM24 0v-190h32V0H24" id="g"/><path fill="#333" d="M100-194c63 0 86 42 84 106H49c0 40 14 67 53 68 26 1 43-12 49-29l28 8c-11 28-37 45-77 45C44 4 14-33 15-96c1-61 26-98 85-98zm52 81c6-60-76-77-97-28-3 7-6 17-6 28h103" id="h"/><path fill="#333" d="M117-194c89-4 53 116 60 194h-32v-121c0-31-8-49-39-48C34-167 62-67 57 0H25l-1-190h30c1 10-1 24 2 32 11-22 29-35 61-36" id="i"/><path fill="#333" d="M59-47c-2 24 18 29 38 22v24C64 9 27 4 27-40v-127H5v-23h24l9-43h21v43h35v23H59v120" id="j"/><g id="a"><use transform="matrix(0.06172839506172839,0,0,0.06172839506172839,0,0)" xlink:href="#c"/><use transform="matrix(0.06172839506172839,0,0,0.06172839506172839,17.28395061728395,0)" xlink:href="#d"/><use transform="matrix(0.06172839506172839,0,0,0.06172839506172839,24.629629629629626,0)" xlink:href="#e"/><use transform="matrix(0.06172839506172839,0,0,0.06172839506172839,36.9753086419753,0)" xlink:href="#f"/><use transform="matrix(0.06172839506172839,0,0,0.06172839506172839,49.32098765432098,0)" xlink:href="#g"/><use transform="matrix(0.06172839506172839,0,0,0.06172839506172839,54.197530864197525,0)" xlink:href="#h"/><use transform="matrix(0.06172839506172839,0,0,0.06172839506172839,66.5432098765432,0)" xlink:href="#i"/><use transform="matrix(0.06172839506172839,0,0,0.06172839506172839,78.88888888888889,0)" xlink:href="#j"/></g><path fill="#333" d="M101-234c-31-9-42 10-38 44h38v23H63V0H32v-167H5v-23h27c-7-52 17-82 69-68v24" id="k"/><path fill="#333" d="M24 0v-261h32V0H24" id="l"/><path fill="#333" d="M100-194c62-1 85 37 85 99 1 63-27 99-86 99S16-35 15-95c0-66 28-99 85-99zM99-20c44 1 53-31 53-75 0-43-8-75-51-75s-53 32-53 75 10 74 51 75" id="m"/><path fill="#333" d="M206 0h-36l-40-164L89 0H53L-1-190h32L70-26l43-164h34l41 164 42-164h31" id="n"/><g id="b"><use transform="matrix(0.06172839506172839,0,0,0.06172839506172839,0,0)" xlink:href="#k"/><use transform="matrix(0.06172839506172839,0,0,0.06172839506172839,6.172839506172839,0)" xlink:href="#l"/><use transform="matrix(0.06172839506172839,0,0,0.06172839506172839,11.049382716049383,0)" xlink:href="#m"/><use transform="matrix(0.06172839506172839,0,0,0.06172839506172839,23.395061728395063,0)" xlink:href="#n"/></g></defs></g></svg>